<?xml version="1.0" standalone="no"?>
<!DOCTYPE svg PUBLIC "-//W3C//DTD SVG 20010904//EN"
 "http://www.w3.org/TR/2001/REC-SVG-20010904/DTD/svg10.dtd">
<svg version="1.0" xmlns="http://www.w3.org/2000/svg"
 width="730.000000pt" height="879.000000pt" viewBox="0 0 730.000000 879.000000"
 preserveAspectRatio="xMidYMid meet">

<g transform="translate(0.000000,879.000000) scale(0.100000,-0.100000)"
fill="#000000" stroke="none">
<path d="M4785 8769 c6 -18 5 -19 -14 -7 -16 10 -27 10 -52 1 -17 -7 -36 -10
-43 -7 -7 3 -36 -4 -65 -15 -28 -12 -73 -22 -99 -24 -44 -3 -47 -5 -44 -29 3
-30 -28 -58 -65 -58 -13 0 -23 -6 -23 -14 0 -38 -113 -27 -200 19 -29 15 -79
9 -87 -11 -3 -8 -12 -14 -21 -14 -8 0 -23 -7 -32 -15 -15 -14 -18 -13 -30 10
-16 30 -36 32 -43 5 -3 -12 -14 -20 -25 -20 -16 0 -21 8 -24 33 -2 22 -7 31
-18 28 -53 -12 -88 -12 -101 1 -16 15 -18 16 -141 22 -48 2 -92 7 -98 11 -5 3
-14 4 -19 0 -5 -3 -29 1 -53 9 -24 8 -70 20 -103 26 -33 6 -67 15 -76 20 -26
14 -153 6 -177 -11 -12 -9 -19 -19 -14 -24 4 -4 -2 -5 -13 0 -11 4 -49 7 -84
7 -35 -1 -69 2 -75 6 -18 11 -85 12 -91 1 -4 -6 -11 -6 -18 -1 -8 6 -21 6 -37
-1 -38 -15 -196 -19 -283 -6 -60 9 -80 9 -92 -1 -8 -6 -19 -9 -25 -5 -15 9
-120 -28 -120 -42 0 -7 -7 -13 -14 -13 -8 0 -21 -12 -28 -27 -15 -30 -43 -51
-55 -40 -4 5 -1 12 7 17 8 5 12 12 8 15 -3 3 -30 -6 -61 -20 -55 -27 -66 -45
-40 -73 10 -10 21 -11 49 -3 37 10 64 6 64 -11 0 -5 -8 -7 -18 -3 -11 3 -34
-1 -53 -9 -28 -12 -31 -16 -17 -21 10 -4 18 -16 18 -26 0 -10 6 -19 13 -19 19
0 -15 -20 -35 -20 -14 0 -16 4 -8 24 5 13 6 27 3 30 -12 12 -33 6 -33 -9 0 -8
-8 -15 -17 -14 -11 0 -13 3 -5 6 21 8 13 23 -12 23 -27 0 -42 15 -26 25 19 12
-1 25 -36 25 -44 0 -75 -16 -68 -34 8 -21 -15 -30 -34 -13 -32 29 -204 89
-239 83 -31 -4 -32 -4 -22 20 12 32 -11 69 -44 70 -67 3 -77 5 -77 15 0 8 14
9 44 5 42 -7 44 -6 39 14 -7 27 -29 36 -48 20 -11 -10 -20 -8 -41 9 -27 21
-60 29 -49 11 3 -5 -12 -13 -35 -16 -23 -4 -49 -14 -58 -24 -10 -9 -26 -20
-37 -24 -20 -7 -20 -8 -1 -22 11 -8 31 -14 45 -14 24 -1 25 -2 9 -14 -10 -7
-18 -18 -18 -24 0 -6 -5 -14 -11 -18 -7 -4 -9 0 -5 14 8 25 -10 38 -29 22 -11
-10 -15 -7 -21 14 -3 15 -15 31 -25 37 -11 5 -19 16 -19 24 0 8 -4 15 -10 15
-5 0 -10 -4 -10 -8 0 -4 -13 -13 -30 -19 -18 -7 -32 -21 -36 -37 -3 -14 -10
-26 -16 -26 -5 0 -7 -8 -4 -18 5 -14 -3 -22 -34 -36 -51 -22 -95 -18 -95 9 0
25 -25 30 -71 15 -30 -10 -38 -9 -53 4 -22 20 -37 20 -45 1 -8 -22 13 -52 52
-76 17 -12 32 -27 32 -35 0 -18 11 -18 34 -1 19 14 62 12 71 -3 16 -26 -33
-60 -95 -68 -43 -5 -44 -6 -30 -32 7 -13 18 -19 28 -16 9 3 47 6 83 7 l67 2
-5 36 c-4 31 -1 38 24 53 15 9 45 19 65 23 33 6 38 4 52 -22 14 -28 13 -31 -6
-50 -19 -20 -26 -52 -17 -83 6 -22 -39 -20 -79 3 -38 23 -69 18 -109 -18 -22
-19 -24 -24 -10 -25 9 0 17 -4 17 -10 0 -15 -35 -30 -69 -30 -33 0 -42 -14
-15 -24 14 -5 14 -8 0 -21 -15 -16 -56 -21 -56 -7 0 4 6 14 12 20 10 10 10 15
-2 22 -13 8 -13 10 1 10 15 0 31 21 33 43 1 4 7 12 15 16 21 14 3 32 -25 25
-17 -4 -31 -1 -44 11 -11 10 -20 14 -20 9 0 -5 -5 -2 -10 6 -5 8 -7 25 -3 37
3 16 1 23 -8 23 -11 0 -11 2 1 10 8 5 11 12 7 16 -4 4 -12 3 -18 -3 -6 -6 -17
-9 -25 -6 -7 3 -26 -4 -41 -15 -15 -11 -38 -23 -50 -26 -13 -4 -23 -12 -23
-18 0 -6 -3 -8 -7 -5 -7 8 -43 -21 -43 -35 0 -5 9 -6 20 -3 11 3 21 3 21 -2 7
-46 5 -73 -5 -70 -6 2 -12 9 -12 15 -1 7 -3 15 -4 20 -1 4 -2 10 -1 14 0 4
-11 3 -25 -2 -17 -7 -46 -6 -90 2 -35 6 -67 9 -70 5 -4 -3 -7 -24 -8 -47 0
-22 -4 -40 -9 -40 -5 0 0 -12 11 -27 10 -16 17 -34 15 -40 -3 -9 4 -11 25 -7
24 5 30 2 35 -15 3 -12 16 -25 29 -30 22 -8 22 -9 -12 -24 -19 -9 -51 -18 -71
-22 -19 -3 -46 -15 -58 -26 -20 -19 -21 -22 -7 -38 19 -21 21 -34 4 -28 -16 6
-89 -33 -82 -44 2 -5 5 -38 6 -75 1 -57 4 -67 22 -74 16 -7 10 -9 -24 -7 -44
2 -45 1 -42 -27 2 -21 0 -27 -11 -23 -8 3 -21 -7 -31 -24 -22 -37 -8 -59 35
-59 33 0 36 -6 12 -32 -18 -20 -10 -39 9 -20 15 15 48 16 48 2 0 -6 -11 -15
-25 -22 -20 -9 -22 -14 -14 -30 8 -14 14 -16 29 -8 11 6 20 8 20 5 0 -3 16 2
36 10 29 12 40 13 53 3 9 -7 17 -13 19 -14 2 -1 -2 -13 -9 -25 -19 -36 -29
-92 -18 -105 12 -14 -25 -62 -57 -74 -19 -8 -24 -17 -24 -44 0 -18 -7 -39 -15
-46 -37 -30 1 -66 54 -50 24 7 31 5 31 -5 0 -8 -5 -17 -10 -20 -16 -10 -12
-45 5 -45 9 0 15 -6 14 -12 -5 -38 2 -48 29 -48 16 0 36 -8 46 -18 15 -17 15
-22 1 -55 -11 -26 -22 -37 -45 -42 -17 -4 -38 -18 -47 -33 -10 -15 -32 -44
-51 -65 -22 -26 -31 -44 -27 -57 5 -17 -27 -60 -45 -60 -11 0 -5 -47 9 -63 7
-10 24 -17 37 -17 19 0 23 -4 20 -22 -2 -16 -10 -22 -24 -21 -19 2 -33 -20
-36 -56 -1 -13 -28 -20 -86 -22 -23 -1 -49 -23 -50 -43 0 -4 11 -6 25 -4 17 4
32 -3 52 -22 15 -15 38 -32 51 -39 19 -10 21 -15 11 -27 -14 -17 -30 -18 -26
-1 1 7 -10 13 -26 15 -26 3 -28 2 -17 -17 13 -25 -1 -28 -24 -6 -8 8 -19 15
-25 15 -6 0 -11 4 -11 8 0 14 -46 31 -69 25 -16 -4 -19 -11 -14 -34 4 -23 0
-36 -18 -55 -19 -21 -21 -28 -12 -44 10 -15 9 -19 -4 -24 -9 -4 -21 -2 -27 4
-22 22 -28 8 -23 -56 3 -36 8 -69 12 -72 3 -3 18 2 34 11 15 9 31 14 33 11 3
-3 26 7 51 21 25 14 48 25 50 25 13 0 -9 -44 -35 -72 -28 -30 -29 -33 -11 -45
34 -23 63 -57 63 -75 0 -9 9 -20 20 -23 27 -8 26 -25 -1 -22 -38 4 -31 -20 11
-37 25 -10 40 -22 40 -33 0 -10 14 -46 32 -81 31 -64 31 -64 19 -140 -6 -42
-17 -83 -25 -91 -7 -9 -19 -33 -27 -53 -7 -21 -16 -38 -20 -38 -8 0 -19 -64
-22 -125 -1 -22 -7 -43 -13 -47 -6 -4 -10 -24 -8 -44 2 -28 -3 -42 -23 -60
-20 -19 -22 -24 -9 -24 9 0 16 -4 16 -10 0 -5 -4 -10 -9 -10 -11 0 -41 -56
-41 -76 0 -11 8 -10 37 4 28 13 37 14 41 4 2 -7 16 -24 31 -38 27 -26 68 -29
116 -9 18 8 19 7 5 -10 -8 -10 -14 -26 -12 -37 2 -10 -2 -18 -7 -18 -19 0 -12
-29 9 -40 16 -9 20 -8 20 5 0 19 49 20 75 1 17 -12 18 -16 5 -32 -13 -15 -13
-17 0 -12 8 2 21 -2 29 -10 13 -12 11 -17 -10 -33 l-24 -19 32 0 c17 0 35 4
38 10 3 6 27 10 53 10 61 0 71 8 75 56 4 54 16 70 57 78 l35 7 -27 -16 c-33
-18 -37 -51 -8 -60 25 -8 26 -34 2 -41 -9 -3 -24 -10 -32 -15 -8 -5 -28 -16
-45 -24 -16 -9 -37 -19 -45 -24 -8 -5 -30 -15 -47 -21 -37 -14 -44 -40 -12
-40 18 0 19 -2 9 -15 -7 -9 -11 -16 -9 -18 2 -1 13 -7 23 -13 25 -13 33 -34
14 -34 -13 0 -78 -71 -78 -84 0 -3 14 -6 30 -6 25 0 30 4 30 24 0 13 7 26 15
30 16 6 22 -28 6 -38 -8 -5 -23 -58 -26 -96 -1 -8 -3 -20 -4 -26 -1 -13 -45
-34 -72 -34 -13 0 -25 -13 -37 -37 -19 -43 -32 -55 -49 -48 -7 2 -15 0 -18 -5
-4 -6 -17 -7 -31 -4 -20 5 -24 2 -24 -15 0 -12 5 -21 10 -21 6 0 10 -4 10 -10
0 -14 -27 -12 -33 3 -3 9 -9 9 -23 1 -33 -19 -26 -33 30 -59 56 -26 79 -53 30
-35 -33 13 -64 13 -64 0 0 -5 9 -19 20 -30 11 -11 20 -27 20 -35 0 -7 7 -18
16 -23 13 -7 11 -14 -18 -42 -18 -18 -28 -34 -23 -36 6 -1 22 -5 37 -8 19 -4
28 -13 28 -26 0 -13 -5 -18 -15 -14 -28 11 -29 -25 -1 -47 14 -11 26 -26 26
-33 0 -19 -45 -40 -72 -33 -32 9 -86 -12 -92 -35 -2 -11 -14 -22 -25 -25 -14
-3 -21 -13 -21 -29 0 -12 -10 -30 -21 -38 -16 -11 -19 -20 -14 -33 5 -10 7
-24 6 -32 -4 -24 20 -59 45 -65 15 -4 21 -11 18 -21 -4 -9 0 -15 8 -15 8 0 23
-18 33 -40 10 -22 24 -40 32 -40 7 0 13 -5 13 -11 0 -6 -14 -9 -32 -7 -23 2
-36 10 -43 26 -11 25 -25 28 -43 10 -19 -19 -14 -37 14 -44 16 -4 23 -12 20
-20 -3 -8 -2 -14 2 -14 13 0 7 -67 -8 -85 -8 -10 -33 -26 -56 -36 -43 -18 -65
-39 -41 -39 7 0 26 -13 42 -30 15 -16 32 -27 37 -24 5 3 8 -1 6 -9 -4 -19 99
-132 123 -133 18 -1 23 7 20 32 -2 21 27 23 44 4 14 -16 15 -23 6 -34 -10 -11
-9 -16 2 -23 7 -4 16 -16 20 -26 4 -12 16 -17 34 -15 41 2 75 -11 69 -28 -3
-8 1 -14 8 -14 8 0 16 -7 20 -15 3 -8 15 -15 26 -15 15 0 20 -7 20 -29 0 -17
-5 -33 -10 -36 -6 -3 -10 -28 -10 -56 0 -36 -5 -54 -21 -70 -19 -19 -19 -22
-5 -38 9 -10 16 -25 16 -35 0 -9 7 -19 15 -23 14 -5 14 -8 2 -22 -8 -9 -15
-23 -15 -31 -1 -8 -3 -40 -6 -70 -3 -41 0 -60 12 -73 15 -17 15 -19 -1 -28 -9
-6 -17 -19 -17 -29 0 -13 -7 -20 -20 -20 -26 0 -26 -16 0 -32 25 -16 26 -28 1
-28 -19 0 -19 -3 5 -62 30 -77 30 -86 -1 -98 -23 -9 -35 -30 -17 -30 5 0 9 -6
9 -12 0 -7 3 -23 7 -34 5 -17 2 -23 -16 -28 -36 -9 -38 -8 -38 25 0 17 -5 39
-10 50 -13 23 -67 52 -85 45 -7 -2 -16 2 -19 10 -12 30 -23 12 -19 -29 4 -34
-1 -56 -23 -100 -15 -32 -31 -57 -37 -57 -5 0 -7 7 -4 15 9 21 -9 28 -27 9
-18 -18 -20 -30 -6 -39 6 -4 7 -11 4 -17 -5 -7 2 -9 20 -6 14 3 29 2 32 -3 10
-16 -16 -47 -47 -58 -27 -9 -30 -13 -19 -26 9 -11 10 -19 2 -27 -15 -15 -32
-1 -32 28 0 29 -45 52 -70 36 -25 -15 -35 -58 -21 -85 9 -18 10 -34 3 -60 -6
-20 -8 -38 -5 -41 10 -10 11 -66 2 -72 -17 -10 10 -41 41 -47 36 -8 38 -19 8
-36 -20 -10 -23 -20 -23 -72 l0 -60 39 -10 c34 -9 42 -7 80 17 22 15 45 33 49
41 11 18 36 17 43 -2 4 -8 12 -15 18 -15 26 0 57 -48 65 -101 5 -30 14 -65 19
-79 5 -14 12 -46 16 -72 4 -26 15 -62 24 -80 19 -40 19 -197 -1 -210 -6 -4
-12 -21 -13 -37 -2 -46 -12 -63 -31 -57 -25 8 -142 10 -150 3 -3 -4 8 -18 25
-32 17 -14 36 -41 42 -60 8 -23 18 -35 30 -35 16 0 17 -3 7 -24 -10 -20 -15
-22 -26 -13 -12 10 -13 8 -8 -13 3 -14 8 -35 12 -47 6 -18 2 -25 -19 -34 -25
-12 -35 -29 -17 -29 22 0 42 -33 36 -60 -8 -36 21 -63 39 -38 7 10 31 20 52
24 38 6 42 4 65 -30 13 -20 32 -36 42 -36 9 0 17 -5 17 -11 0 -5 -4 -8 -9 -5
-4 3 -9 -23 -9 -58 -1 -59 -13 -130 -28 -170 -6 -14 -2 -16 22 -10 16 4 35 7
44 7 8 0 22 5 30 12 18 15 90 27 90 15 0 -11 -30 -21 -42 -14 -6 4 -16 1 -22
-7 -12 -16 -80 -39 -115 -39 -41 0 -24 -34 26 -55 26 -11 50 -20 53 -20 3 -1
21 -9 40 -20 38 -21 90 -28 90 -13 0 6 13 7 31 3 25 -6 31 -4 36 14 3 12 10
21 15 21 5 0 6 4 3 10 -4 6 6 7 25 4 27 -6 30 -4 30 17 0 17 10 30 38 44 27
15 38 28 40 47 3 26 1 28 -36 28 -28 0 -45 -7 -62 -25 -13 -14 -30 -23 -37
-21 -6 3 -15 -3 -18 -13 -3 -10 -14 -26 -24 -35 -16 -14 -20 -15 -30 -2 -8 10
-9 16 -1 21 5 3 10 24 10 45 0 21 5 42 12 46 8 5 5 11 -7 20 -28 21 -11 27 32
14 21 -7 44 -14 51 -16 7 -2 11 -7 8 -12 -2 -4 12 -6 32 -4 26 3 45 13 65 35
18 20 30 27 33 20 8 -18 34 -4 27 14 -5 13 0 15 33 8 21 -4 47 -8 56 -7 11 0
15 -5 11 -14 -5 -13 4 -15 53 -14 33 1 75 1 94 1 l35 -1 -25 -14 c-16 -8 -29
-9 -37 -4 -18 14 -37 0 -23 -17 8 -10 4 -14 -17 -18 -16 -3 -32 -1 -38 6 -10
13 -45 11 -45 -2 0 -19 31 -46 66 -56 44 -13 97 2 107 30 4 8 15 15 26 15 11
0 24 7 29 16 7 13 20 16 62 12 29 -3 55 -10 59 -15 9 -15 48 -33 55 -26 3 3 6
17 6 30 0 26 27 32 36 8 7 -17 44 -19 92 -6 30 9 47 -1 20 -12 -16 -7 8 -9 89
-9 34 0 68 4 75 8 7 5 21 7 30 6 10 -2 27 2 39 8 18 10 20 9 15 -8 -6 -17 0
-20 41 -26 26 -3 51 -2 55 2 5 5 22 -3 39 -19 41 -38 81 -57 105 -49 10 4 23
5 28 2 24 -14 88 -4 107 16 11 13 32 22 48 22 15 0 31 3 34 7 9 8 67 10 67 2
0 -8 -53 -33 -63 -30 -5 1 -7 -4 -5 -11 7 -20 57 -28 156 -24 74 3 96 8 106
21 10 14 17 15 31 8 13 -8 22 -6 36 8 10 10 25 16 34 13 8 -4 23 -3 32 2 10 4
21 8 25 8 3 1 10 4 14 9 9 9 66 9 88 1 9 -3 16 -14 16 -25 0 -24 29 -39 77
-40 l38 -1 -42 -10 c-26 -5 -43 -15 -43 -23 0 -19 37 -39 45 -25 4 6 12 7 22
1 9 -4 24 -6 33 -4 10 3 21 0 24 -6 10 -16 26 -13 26 4 0 8 5 15 11 15 5 0 7
-5 3 -12 -4 -6 0 -16 8 -22 8 -6 17 -19 21 -29 4 -10 12 -15 18 -12 5 4 19 -1
29 -10 13 -12 27 -15 46 -11 24 6 25 8 10 19 -15 11 -15 17 -5 42 7 17 13 41
14 55 1 27 29 40 48 21 8 -8 6 -11 -5 -11 -15 0 -15 -5 -6 -31 6 -17 20 -34
31 -38 14 -5 17 -10 9 -15 -19 -12 -14 -24 15 -40 24 -12 30 -12 50 1 13 9 41
15 64 15 26 -1 42 4 46 14 3 8 11 14 18 14 20 0 30 -21 15 -30 -7 -4 -8 -10
-3 -13 10 -6 143 71 143 82 -1 7 -105 57 -139 67 l-24 6 23 13 c31 16 91 10
231 -26 64 -16 126 -29 138 -29 20 0 21 4 16 38 -10 55 -13 62 -30 62 -8 0
-15 -9 -15 -21 0 -11 -4 -17 -10 -14 -6 4 -8 15 -5 26 5 14 0 20 -19 25 -14 3
-24 9 -23 13 4 16 -30 71 -45 71 -20 0 -46 47 -41 72 3 11 -1 18 -11 18 -8 0
-19 6 -23 14 -4 7 -18 18 -30 25 -14 7 -20 17 -16 27 5 13 15 14 50 9 31 -4
51 -2 66 8 65 42 99 42 290 0 37 -8 76 -11 88 -8 34 11 352 13 374 2 10 -5 33
-10 49 -9 16 0 37 -3 47 -8 11 -7 29 -5 51 5 36 15 123 23 134 13 3 -4 -3 -11
-14 -17 -14 -7 -18 -20 -17 -48 1 -37 2 -38 36 -35 18 1 43 -1 54 -7 107 -49
144 -68 168 -84 31 -21 82 -24 136 -8 28 9 38 7 59 -9 13 -11 30 -20 37 -20
18 0 55 35 55 52 0 8 6 15 13 15 36 1 102 27 122 49 23 25 23 25 30 4 10 -32
49 -54 74 -40 17 9 21 8 21 -4 0 -8 -4 -18 -10 -21 -6 -3 -10 -16 -10 -27 0
-20 1 -20 18 -5 10 10 27 17 37 17 16 0 15 -4 -10 -30 -24 -25 -26 -30 -11
-36 9 -3 39 5 69 20 33 16 61 23 76 19 20 -5 22 -10 16 -42 -14 -65 -12 -91 4
-101 15 -8 14 -12 -1 -39 -18 -32 -9 -51 12 -26 15 18 57 20 63 3 7 -20 25 3
29 37 3 27 1 30 -24 27 -20 -3 -28 1 -28 12 0 9 5 16 11 16 6 0 8 9 4 20 -4
14 -2 20 9 20 10 0 14 10 14 30 -1 17 6 38 15 48 10 10 14 21 11 25 -4 3 1 14
11 23 13 13 19 14 24 5 8 -12 28 8 73 72 20 29 128 72 161 63 13 -3 41 -19 62
-36 21 -16 56 -35 78 -41 72 -19 87 -27 81 -44 -3 -8 -14 -15 -24 -15 -10 0
-20 -8 -22 -17 -3 -15 7 -20 51 -28 30 -6 56 -16 59 -24 3 -8 0 -11 -6 -7 -18
11 -112 -14 -112 -30 0 -24 20 -55 31 -48 5 3 16 1 24 -6 16 -13 61 -15 126
-5 31 5 49 4 53 -4 4 -6 18 -11 32 -11 17 0 24 5 24 20 0 11 -4 20 -10 20 -5
0 -10 5 -10 11 0 6 7 8 15 5 11 -4 22 5 36 28 11 19 26 37 34 40 8 3 19 23 25
45 6 23 24 51 45 70 l35 30 -25 17 c-28 18 -32 49 -10 81 11 15 12 22 3 25
-40 14 97 98 160 98 33 0 50 14 30 26 -7 5 -4 10 11 16 18 6 21 11 12 22 -9
11 -6 15 16 21 37 9 53 23 53 46 0 21 -11 24 -27 8 -16 -16 -32 -3 -26 21 4
16 -1 23 -26 33 -17 6 -31 15 -31 19 0 11 7 10 40 -7 27 -14 30 -14 40 6 10
18 6 30 -23 77 -19 32 -47 63 -62 71 -18 9 -23 16 -16 21 13 7 13 6 -30 110
-12 31 -23 78 -23 108 -1 47 -5 56 -34 78 -17 14 -32 30 -32 36 0 6 -7 19 -16
29 -8 9 -17 23 -18 31 -2 7 -9 26 -16 41 -15 31 -5 62 21 62 18 0 29 15 29 40
0 11 9 26 21 33 18 11 27 9 67 -14 26 -15 61 -35 78 -44 18 -9 45 -26 60 -37
l29 -21 -22 -19 c-21 -18 -34 -77 -21 -98 3 -6 9 -25 13 -43 5 -25 12 -32 31
-32 18 0 24 -5 24 -22 0 -12 7 -29 16 -39 15 -17 15 -18 -9 -16 -14 1 -26 -1
-26 -5 -4 -50 0 -68 17 -68 10 0 23 5 28 10 7 7 19 7 36 1 35 -13 46 -2 44 44
-1 22 5 55 13 74 16 33 16 33 -22 63 -20 16 -34 34 -31 39 3 5 -1 9 -8 9 -9 0
-12 14 -9 51 l3 51 32 -5 c36 -6 68 8 50 21 -14 10 -10 108 5 104 31 -6 -6 39
-43 52 -14 5 -17 13 -12 36 4 24 2 30 -12 30 -24 0 -41 31 -47 85 -11 89 -35
118 -88 108 -16 -3 -27 -1 -27 6 0 6 6 11 13 11 7 1 5 6 -5 14 -10 7 -18 23
-18 35 0 13 -9 25 -22 30 -22 8 -22 8 5 26 31 20 38 74 12 95 -9 7 -14 18 -12
24 3 6 0 19 -5 30 -9 16 -7 18 15 12 21 -5 25 -2 26 19 4 58 -1 105 -11 105
-11 0 -58 -46 -58 -57 0 -16 -69 -71 -93 -75 -14 -2 -21 -9 -21 -21 1 -9 -4
-17 -11 -17 -7 0 -16 -6 -19 -12 -3 -7 -4 -1 -1 14 3 15 0 30 -6 34 -6 3 -8
15 -6 26 3 10 -1 35 -9 54 -8 20 -12 44 -9 53 3 10 0 31 -6 47 -12 32 -19 78
-22 141 -1 24 -6 43 -11 43 -5 0 -2 7 5 17 15 17 14 20 -3 41 -14 16 -11 104
3 113 35 21 89 73 89 84 0 7 14 28 31 45 24 23 34 28 40 19 6 -10 15 -11 36
-3 34 12 42 39 13 47 -25 7 -26 27 -1 34 16 4 18 11 14 41 -3 21 -12 49 -19
63 -7 14 -12 46 -10 70 1 24 -1 58 -6 74 -9 31 7 125 22 125 10 0 22 -102 25
-206 1 -44 5 -86 9 -92 10 -16 36 -15 36 1 1 6 19 30 41 52 30 30 36 41 24 43
-10 2 -14 10 -11 19 15 38 17 64 7 77 -9 11 -9 16 -1 21 8 5 5 14 -10 30 -27
29 -39 95 -17 95 17 0 32 31 18 39 -5 3 -12 23 -15 44 -3 22 -13 48 -21 59 -9
13 -12 32 -8 51 4 22 3 28 -6 23 -15 -10 -53 3 -46 15 4 5 14 9 24 9 9 0 25 6
34 13 15 10 10 12 -30 15 -51 3 -93 24 -93 46 0 8 -12 28 -26 46 -24 27 -26
36 -20 83 5 40 13 58 31 71 14 11 25 25 25 33 0 8 4 12 9 8 5 -3 13 -1 16 5 5
8 11 7 21 -1 20 -16 74 7 74 32 0 21 20 25 38 7 8 -8 18 -9 36 0 22 10 23 14
15 51 -5 22 -6 64 -3 93 8 74 6 110 -7 119 -12 7 -7 54 18 152 8 32 12 65 9
73 -3 8 -2 22 3 32 21 40 32 100 28 150 -2 29 0 55 4 58 12 7 11 51 -1 59 -15
9 -12 51 5 65 8 7 12 16 9 22 -3 5 -2 14 4 21 5 7 12 20 15 30 5 13 1 17 -18
17 -16 0 -25 -6 -25 -15 0 -8 -6 -15 -14 -15 -20 0 -76 -49 -76 -66 0 -9 -14
-37 -32 -64 -31 -47 -32 -48 -55 -33 -18 12 -21 19 -12 29 9 11 8 18 -1 29
-21 25 -23 115 -4 136 13 14 15 29 10 63 -7 48 -18 56 -70 56 -45 0 -61 34
-44 90 13 40 28 53 28 24 0 -17 52 -74 68 -74 5 0 15 7 23 16 10 12 10 20 1
35 -18 28 -15 37 18 54 21 11 32 27 41 58 6 23 15 47 21 54 13 16 -5 48 -29
48 -10 0 -19 9 -21 20 -4 24 -29 45 -54 45 -10 0 -28 10 -40 22 -19 19 -19 21
-2 16 10 -3 24 -7 29 -9 6 -2 12 1 14 6 2 6 -12 15 -31 20 -42 12 -70 38 -62
58 3 9 -4 21 -15 29 -12 8 -18 18 -13 22 4 4 -2 14 -12 22 -25 18 -12 32 14
16 40 -24 55 -5 24 30 -19 20 -12 25 41 30 32 3 51 38 21 38 -9 0 -16 5 -16
11 0 7 12 9 35 5 30 -6 35 -4 40 17 10 36 -3 111 -20 123 -10 7 -12 15 -6 18
5 3 8 26 6 51 -2 38 0 44 19 47 17 2 22 12 27 48 15 102 29 165 39 168 17 6
11 22 -8 22 -10 0 -23 5 -29 11 -9 9 -20 9 -43 0 -28 -9 -31 -9 -26 5 3 9 6
18 6 20 0 2 7 4 15 4 8 0 15 6 15 13 1 7 6 4 15 -6 17 -23 48 -19 53 7 3 11 0
16 -7 12 -12 -8 -15 6 -5 17 15 15 12 81 -6 123 -12 26 -20 68 -20 99 0 46 4
58 27 80 31 28 45 32 37 10 -4 -10 0 -15 15 -15 12 0 25 8 28 18 4 9 10 19 13
22 4 3 23 31 43 63 20 31 41 58 47 58 5 1 15 3 20 4 6 1 15 3 20 4 6 0 10 18
10 39 -1 31 -6 40 -36 59 -19 12 -41 20 -50 16 -10 -4 -17 2 -21 16 -3 11 -9
21 -14 21 -16 0 -10 30 6 32 8 0 21 1 28 2 6 1 15 6 19 11 8 10 11 85 4 85 -2
0 -20 -7 -41 -16 -20 -8 -40 -13 -43 -10 -10 11 31 46 48 41 10 -3 23 1 30 10
7 8 25 15 40 15 19 0 37 11 59 35 17 20 31 39 31 43 0 14 -58 52 -78 52 -11 0
-26 7 -33 16 -11 14 -9 20 19 43 18 14 32 31 32 38 0 6 4 13 9 15 4 2 12 13
15 26 7 19 4 22 -23 22 -16 0 -42 7 -58 14 -15 8 -37 18 -47 21 -35 10 -3 24
36 16 30 -7 40 -5 53 8 21 24 19 28 -15 36 -41 9 -39 43 5 59 15 6 17 9 6 16
-12 7 -11 11 3 26 17 16 17 19 2 30 -13 9 -14 13 -3 23 8 6 17 8 20 4 4 -3 10
2 14 12 3 10 15 27 25 37 29 29 23 42 -14 33 -18 -5 -45 -8 -60 -8 -16 0 -28
-3 -28 -7 0 -4 -6 -10 -14 -13 -18 -7 -19 141 -1 163 19 23 27 58 15 65 -13 8
-52 -24 -45 -35 3 -5 -7 -17 -21 -27 -23 -17 -24 -21 -13 -46 9 -21 9 -30 -1
-42 -17 -21 -31 -19 -60 8 -14 13 -31 22 -37 20 -6 -2 -14 1 -18 6 -3 6 -17
11 -31 11 -16 0 -24 6 -24 18 0 10 -5 23 -11 29 -6 6 -9 21 -7 34 2 19 9 24
32 24 24 0 31 5 38 30 4 18 4 31 -2 33 -17 6 -11 30 10 37 25 8 26 21 1 35
-22 11 -83 -10 -117 -41 -12 -11 -25 -19 -30 -18 -22 4 -26 -2 -11 -19 20 -22
12 -58 -14 -65 -11 -3 -25 1 -32 9 -31 35 -37 44 -37 62 0 22 -19 42 -39 42
-13 0 -16 -14 -17 -75 -1 -62 2 -74 15 -73 69 5 82 -1 103 -48 22 -51 18 -60
-30 -67 -36 -6 -97 14 -85 27 5 4 -14 6 -40 3 -65 -5 -72 14 -24 60 21 19 37
38 37 42 0 10 -55 71 -65 71 -4 0 -13 -8 -20 -17 -11 -15 -14 -12 -26 25 -11
38 -29 58 -29 32 0 -5 -9 -10 -21 -10 -11 0 -18 4 -15 9 4 5 2 11 -4 13 -6 2
-7 15 -2 32 8 28 9 28 26 11 12 -12 20 -15 28 -7 7 7 18 3 34 -15 13 -15 27
-23 30 -20 4 3 13 0 20 -8 20 -20 47 -8 34 15 -7 13 -4 22 10 35 11 10 20 31
20 46 0 16 7 32 17 37 12 7 16 22 15 53 -2 51 -16 69 -31 41 -13 -23 -91 -29
-91 -6 0 8 8 14 18 14 26 0 58 25 44 34 -8 5 -6 18 8 44 11 20 20 44 20 53 0
18 -48 34 -87 30 -17 -1 -21 2 -17 14 4 10 0 15 -10 15 -9 0 -19 -7 -22 -15
-4 -8 -12 -15 -20 -15 -8 0 -14 -6 -14 -12 0 -8 -7 -5 -15 6 -16 21 -18 16
-15 -21 1 -17 -4 -23 -20 -23 -11 0 -31 -11 -44 -25 -28 -30 -30 -30 -67 -4
-34 24 -29 46 5 24 22 -15 22 -15 20 33 -4 56 -42 99 -73 83 -21 -12 -45 1
-39 20 9 28 -39 51 -117 54 -70 3 -75 2 -75 -17 0 -14 -5 -18 -16 -14 -9 4
-23 1 -30 -5 -8 -6 -14 -9 -14 -5 0 3 -18 -1 -40 -10 -28 -11 -55 -14 -97 -10
-32 4 -84 6 -115 6 -31 0 -59 4 -63 10 -10 16 -25 12 -19 -5 4 -8 1 -15 -4
-15 -6 0 -12 10 -14 22 -3 18 -10 21 -48 21 -54 0 -74 -21 -47 -51 9 -10 17
-21 17 -25 0 -7 -64 -29 -76 -26 -5 1 -17 -2 -28 -6 -23 -10 -52 7 -48 29 4
21 -6 20 -59 -6 -41 -20 -42 -22 -20 -28 29 -7 39 -28 17 -35 -9 -3 -24 -8
-33 -12 -10 -3 -24 -5 -31 -4 -8 1 -20 -3 -28 -10 -8 -6 -14 -7 -14 -2 0 8
-20 13 -67 17 -11 0 -19 4 -16 9 2 4 -6 7 -19 8 -56 1 -90 8 -123 24 -20 9
-49 17 -65 17 -17 1 -30 4 -30 7 0 3 -16 7 -36 8 -35 2 -74 26 -74 46 0 5 -9
22 -20 38 l-21 28 20 20 c20 20 21 20 31 1 9 -17 15 -18 31 -10 19 11 19 12
-11 46 -30 34 -39 64 -20 64 6 0 10 -4 10 -9 0 -5 21 -19 47 -32 l46 -22 19
24 c12 14 16 25 9 27 -6 2 -11 14 -11 27 0 23 -41 65 -64 65 -18 1 -56 37 -56
54 0 11 -9 16 -31 16 -26 0 -29 -3 -24 -21z m1745 -929 c0 -5 -8 -10 -17 -10
-15 0 -16 2 -3 10 19 12 20 12 20 0z m-6244 -4095 c12 -13 20 -27 16 -29 -4
-2 -20 9 -35 25 -14 16 -22 29 -15 29 6 0 21 -11 34 -25z m-56 -55 c0 -13 -28
-25 -38 -16 -3 4 0 11 8 16 20 13 30 12 30 0z"/>
</g>
</svg>
