<?xml version="1.0" standalone="no"?>
<!DOCTYPE svg PUBLIC "-//W3C//DTD SVG 20010904//EN"
 "http://www.w3.org/TR/2001/REC-SVG-20010904/DTD/svg10.dtd">
<svg version="1.0" xmlns="http://www.w3.org/2000/svg"
 width="707.000000pt" height="712.000000pt" viewBox="0 0 707.000000 712.000000"
 preserveAspectRatio="xMidYMid meet">

<g transform="translate(0.000000,712.000000) scale(0.100000,-0.100000)"
fill="#000000" stroke="none">
<path d="M2023 7095 c2 -5 21 -14 43 -18 21 -5 53 -13 69 -19 17 -6 44 -13 60
-15 17 -3 38 -13 49 -22 14 -12 42 -16 119 -18 121 -2 170 -10 164 -26 -2 -8
-26 -12 -68 -11 -180 4 -295 10 -306 17 -7 5 -16 -1 -23 -13 -9 -17 -14 -19
-25 -10 -8 6 -23 9 -33 6 -13 -5 -22 -1 -26 10 -6 15 -8 15 -19 2 -17 -22 -77
-32 -77 -13 0 7 5 17 10 20 18 11 -1 26 -22 19 -17 -5 -20 -3 -15 10 11 29
-21 66 -58 66 -27 0 -34 -4 -37 -25 -6 -30 7 -42 28 -24 20 16 31 2 16 -21 -7
-11 -12 -27 -12 -35 0 -19 -19 -19 -45 -1 -13 8 -61 16 -133 19 -62 3 -119 11
-127 17 -21 17 -87 5 -129 -24 -56 -38 -82 -34 -66 10 12 31 3 31 -22 -1 -11
-14 -27 -25 -37 -25 -9 0 -26 -7 -39 -15 -17 -13 -26 -13 -43 -5 -11 7 -55 13
-97 15 -64 3 -78 6 -92 25 -14 18 -23 21 -45 16 -24 -6 -33 -1 -67 34 -40 44
-68 48 -68 11 0 -26 -35 -47 -47 -28 -11 18 -41 28 -49 16 -3 -5 -14 -7 -25
-4 -13 5 -19 2 -19 -10 0 -13 -4 -14 -20 -5 -24 13 -26 3 -3 -22 16 -18 16
-19 -4 -24 -14 -4 -19 -12 -16 -28 4 -19 -1 -25 -21 -30 -14 -3 -26 -10 -26
-14 0 -4 -4 -13 -9 -20 -7 -12 -12 -12 -31 0 -20 12 -24 11 -37 -9 -9 -13 -22
-23 -29 -23 -8 0 -14 -4 -14 -10 0 -5 5 -10 10 -10 6 0 10 -7 10 -15 0 -10
-11 -15 -35 -15 -21 0 -41 -7 -52 -19 -10 -11 -31 -25 -47 -31 -27 -10 -28
-12 -12 -29 23 -25 6 -38 -63 -47 -51 -7 -53 -6 -46 15 8 27 -9 27 -35 1 -24
-24 -25 -36 -5 -44 23 -8 18 -33 -7 -40 -38 -10 -51 -7 -44 10 4 12 0 15 -17
12 -12 -2 -22 -10 -22 -20 0 -9 -9 -26 -19 -37 -19 -21 -19 -21 1 -21 31 0 37
-27 7 -34 -31 -8 -30 -21 1 -52 26 -26 32 -49 15 -59 -6 -4 -7 -11 -4 -17 5
-8 1 -9 -12 -4 -21 8 -24 9 -41 7 -7 0 -13 -6 -13 -12 0 -8 20 -10 65 -7 36 3
65 2 65 -3 0 -5 -4 -9 -9 -9 -5 0 -7 -9 -4 -20 6 -24 -22 -28 -31 -5 -3 8 -12
15 -20 15 -11 0 -14 -11 -12 -46 2 -25 9 -51 15 -57 6 -6 11 -16 11 -21 0 -6
-5 -5 -12 2 -14 14 -32 16 -24 3 4 -5 1 -11 -5 -13 -5 -2 3 -22 20 -45 33 -45
31 -60 -4 -37 -22 14 -23 14 -29 -21 -5 -24 -2 -46 8 -67 9 -17 13 -34 10 -39
-3 -5 4 -21 15 -35 19 -25 20 -51 1 -39 -4 3 -13 -9 -19 -26 -9 -27 -8 -37 10
-65 19 -32 15 -46 -7 -24 -6 6 -9 -10 -8 -45 1 -43 7 -62 33 -96 35 -48 32
-69 -4 -26 -13 15 -27 27 -30 27 -11 0 -5 -26 12 -49 11 -17 17 -48 19 -100 1
-42 5 -85 10 -95 5 -13 3 -21 -4 -24 -8 -2 -7 -12 4 -34 9 -17 14 -41 11 -54
-2 -13 0 -24 4 -24 15 0 10 -22 -8 -35 -15 -11 -14 -16 13 -58 18 -28 34 -44
43 -42 21 8 41 -14 41 -44 0 -31 -52 -71 -92 -71 -24 0 -25 -1 -17 -47 4 -27
11 -56 14 -66 5 -13 -1 -27 -20 -47 -27 -28 -61 -31 -51 -3 5 12 2 12 -15 -1
-12 -8 -28 -12 -36 -9 -11 4 -14 0 -12 -12 2 -10 12 -19 21 -21 42 -6 100
-105 67 -116 -18 -6 -18 -90 1 -118 25 -37 31 -60 17 -60 -8 0 -12 -15 -12
-40 0 -33 3 -40 18 -40 16 0 18 -5 14 -27 -3 -15 0 -37 6 -50 7 -16 7 -26 -2
-37 -7 -8 -10 -19 -8 -24 3 -4 2 -14 -3 -22 -14 -22 -44 1 -47 35 -4 48 -13
40 -13 -11 0 -28 -5 -55 -11 -61 -9 -9 0 -39 29 -95 2 -5 -3 -8 -12 -8 -24 0
-20 -13 24 -68 22 -27 40 -58 40 -69 0 -23 -47 -93 -62 -93 -7 0 0 -12 14 -27
42 -45 77 -126 46 -106 -7 4 -20 8 -28 8 -8 0 -14 7 -12 17 2 14 -1 15 -23 5
-21 -10 -25 -17 -21 -42 7 -43 27 -93 59 -147 30 -52 34 -73 12 -64 -20 7 -19
-3 2 -26 15 -17 15 -22 3 -41 -20 -31 -23 -146 -5 -174 18 -27 -1 -45 -20 -20
-18 24 -20 22 -21 -22 -1 -33 2 -40 20 -43 17 -2 22 -11 24 -49 2 -31 -2 -50
-12 -58 -19 -16 -36 -6 -36 19 0 24 -16 34 -24 15 -7 -19 2 -42 31 -81 34 -46
29 -72 -8 -38 -16 14 -17 13 -15 -23 2 -46 13 -66 32 -59 19 7 25 -7 18 -43
-9 -43 -34 -40 -70 9 -16 22 -32 40 -36 40 -15 0 -8 -46 10 -62 40 -39 72 -92
72 -123 0 -14 4 -33 9 -43 34 -69 29 -101 -11 -65 -17 15 -18 14 -18 -16 0
-19 8 -38 20 -48 11 -10 20 -25 20 -33 0 -9 6 -22 12 -28 8 -8 9 -15 3 -20
-13 -9 -13 -55 1 -73 25 -32 23 -46 -7 -46 -17 0 -29 6 -29 14 0 7 -5 13 -10
13 -17 0 0 -100 22 -137 19 -32 13 -44 -10 -21 -9 9 -12 9 -12 -3 0 -8 9 -23
21 -32 21 -19 23 -47 2 -54 -6 -2 -14 5 -17 15 -4 13 -13 18 -24 15 -12 -3
-23 5 -32 21 -20 38 -30 32 -30 -20 0 -30 7 -56 20 -75 16 -22 18 -33 10 -49
-5 -11 -14 -29 -20 -39 -7 -15 -4 -26 11 -45 18 -23 18 -26 3 -34 -26 -14 -7
-32 34 -32 28 0 33 3 24 12 -7 7 -12 18 -12 26 0 8 -8 20 -17 27 -15 12 -16
16 -4 39 8 14 18 26 22 26 10 0 22 -57 15 -69 -4 -5 -1 -11 4 -13 6 -2 14 -27
19 -55 9 -59 24 -83 53 -83 14 0 18 -5 14 -16 -7 -18 22 -66 35 -58 5 3 9 -1
9 -8 0 -7 -9 -19 -20 -26 -12 -7 -20 -23 -20 -38 0 -21 -3 -25 -17 -19 -45 18
-53 18 -53 -4 0 -12 11 -32 25 -45 28 -26 33 -41 10 -32 -9 3 -15 0 -15 -8 0
-8 7 -16 15 -20 18 -6 20 -53 3 -58 -21 -7 -61 4 -47 12 16 11 -29 69 -53 69
-20 1 -23 12 -8 27 7 7 5 17 -5 30 -13 16 -16 17 -25 4 -13 -19 -13 -81 0
-114 6 -17 6 -26 0 -26 -19 0 -10 -38 15 -68 14 -17 23 -37 19 -45 -3 -9 4
-25 15 -36 21 -21 28 -37 13 -27 -4 2 -19 -4 -32 -14 -23 -18 -24 -19 -7 -38
14 -16 16 -24 7 -47 -10 -25 -7 -31 30 -69 28 -27 36 -42 27 -44 -23 -5 -31
-106 -12 -136 14 -21 14 -24 0 -30 -23 -9 -38 -55 -23 -73 9 -11 9 -16 -3 -24
-13 -8 -12 -10 11 -13 5 0 14 -6 21 -13 8 -8 6 -14 -9 -22 -16 -8 -21 -7 -26
4 -3 8 -10 15 -15 15 -5 0 -5 -13 2 -30 6 -17 18 -30 25 -30 14 0 13 -39 -3
-100 -5 -21 -2 -27 24 -37 17 -6 31 -18 31 -27 0 -9 7 -16 16 -16 11 0 14 -5
10 -16 -17 -44 -17 -64 -2 -79 9 -9 16 -23 16 -31 0 -8 6 -14 13 -14 15 -1 74
-60 59 -60 -7 0 -12 -5 -12 -10 0 -6 6 -10 13 -9 15 3 67 -21 67 -31 0 -14 53
-60 62 -54 5 4 16 -3 24 -15 8 -12 22 -21 30 -21 8 0 14 -8 14 -18 0 -23 36
-68 42 -52 5 16 58 1 58 -16 0 -9 11 -14 30 -14 17 0 30 5 30 10 0 23 28 9 76
-39 19 -19 23 -31 19 -53 -6 -24 -4 -28 16 -28 18 0 20 -3 11 -12 -16 -16 -15
-28 3 -28 8 0 15 7 15 15 0 8 9 15 20 15 11 0 29 9 40 20 22 22 40 19 40 -6 0
-8 10 -14 24 -14 13 0 27 -7 30 -16 3 -9 11 -12 18 -8 7 5 23 8 35 7 13 -1 36
-1 52 -2 16 -1 37 -8 46 -17 12 -12 19 -13 30 -4 11 9 20 7 43 -10 27 -20 33
-21 67 -9 37 14 62 35 52 45 -3 3 -14 1 -25 -5 -18 -10 -32 -6 -32 9 0 8 74
50 87 50 6 0 8 -11 6 -24 -5 -26 25 -46 38 -24 7 10 11 10 21 0 19 -19 26 -15
33 18 6 29 25 42 25 18 0 -7 7 -2 16 10 17 25 39 30 30 7 -3 -8 0 -15 6 -15 6
0 3 -9 -7 -20 -10 -12 -25 -18 -32 -16 -7 3 -13 1 -13 -5 0 -10 28 -9 70 2 9
3 14 -2 14 -13 -2 -22 12 -24 20 -3 6 17 51 21 61 6 3 -6 20 -8 38 -6 17 3 45
-1 61 -7 24 -10 31 -9 40 4 6 9 17 25 25 37 11 14 18 17 27 10 8 -7 27 -6 59
2 39 10 49 9 57 -2 7 -11 11 -11 15 -1 12 29 63 5 63 -30 0 -10 5 -18 10 -18
6 0 9 3 9 8 -4 26 3 32 36 29 25 -3 35 0 35 9 0 12 19 19 43 15 4 0 7 4 7 10
0 6 7 8 16 5 8 -3 13 -2 10 3 -3 4 3 16 14 26 13 12 27 15 49 10 26 -6 31 -4
31 13 0 26 30 37 49 17 14 -13 13 -16 -4 -29 -11 -8 -17 -18 -13 -21 7 -8 -15
-35 -28 -35 -3 0 -15 -10 -26 -22 -19 -22 -19 -23 4 -29 75 -19 76 -19 81 1 3
13 10 18 21 14 10 -4 18 0 22 10 5 13 10 14 20 5 7 -6 17 -8 22 -5 5 3 18 -1
28 -8 16 -12 23 -12 46 0 34 18 52 18 45 0 -5 -11 0 -12 24 -3 16 6 29 17 29
24 0 21 46 38 63 24 12 -9 18 -6 31 14 9 14 21 23 26 20 5 -3 11 -1 15 4 3 6
12 8 21 4 8 -3 14 -2 13 3 -4 22 2 35 14 31 6 -2 26 2 44 10 18 7 44 13 57 13
14 0 30 8 35 19 6 11 26 21 51 25 22 3 40 11 40 16 0 6 6 10 14 10 8 0 16 6
18 12 4 10 9 9 21 -3 17 -18 6 -39 -21 -39 -7 0 -12 -8 -10 -17 4 -25 55 -29
79 -7 28 25 43 5 46 -59 1 -29 2 -55 3 -59 0 -14 57 -8 70 7 7 8 18 15 24 15
6 0 16 10 21 22 6 12 25 27 44 33 42 14 47 26 26 58 -15 23 -14 25 5 30 14 4
20 0 20 -11 1 -28 27 -56 42 -45 7 5 20 9 28 8 8 -1 21 -3 28 -3 7 -1 11 -5 9
-10 -3 -4 9 -8 26 -10 106 -9 146 -5 164 18 10 13 14 13 26 -4 11 -15 23 -18
59 -14 41 5 46 3 64 -23 22 -34 42 -43 59 -29 15 12 26 3 18 -16 -7 -18 6 -18
49 0 19 8 56 16 83 18 42 2 50 0 49 -14 -1 -9 4 -14 11 -12 6 3 18 -2 25 -11
19 -23 33 -18 26 10 -5 21 -3 25 14 25 12 0 19 -4 15 -9 -3 -5 -1 -12 5 -16 5
-3 10 -14 10 -24 0 -11 8 -17 24 -16 31 0 44 13 22 21 -9 3 -16 12 -16 19 0
17 31 28 43 16 7 -7 16 -7 29 0 14 7 18 6 18 -6 0 -11 12 -15 52 -15 40 0 49
-3 40 -12 -15 -15 -16 -55 -1 -63 5 -4 19 1 30 11 17 15 22 16 29 4 5 -8 12
-11 16 -7 4 4 0 15 -9 25 -23 25 -21 42 3 42 20 0 43 -36 33 -52 -2 -4 6 -17
18 -29 16 -16 23 -18 29 -9 5 9 13 9 27 1 11 -5 23 -8 26 -4 4 3 12 1 19 -4
20 -15 133 -1 134 17 1 8 2 18 3 22 0 4 21 -1 45 -12 24 -10 53 -16 64 -13 11
2 23 0 26 -6 9 -14 101 -14 126 -1 13 7 27 6 44 -1 22 -11 29 -9 51 13 17 17
32 24 49 21 14 -3 41 0 61 7 37 12 61 6 35 -10 -18 -11 -13 -16 21 -25 23 -6
27 -2 38 34 12 43 25 52 35 26 7 -19 40 -19 56 0 16 19 30 19 30 0 0 -8 9 -19
21 -25 23 -13 54 -6 44 10 -3 6 3 22 14 36 18 23 22 24 27 10 6 -16 8 -16 24
-1 10 9 29 15 43 13 13 -1 32 3 40 11 14 11 18 11 24 -5 3 -11 12 -23 20 -27
7 -4 13 -14 13 -21 0 -8 7 -19 15 -26 9 -7 13 -21 10 -31 -5 -16 -2 -17 24 -9
17 4 39 6 51 3 14 -4 20 -1 20 11 0 9 5 16 10 16 7 0 7 6 1 18 -7 14 -18 18
-40 14 -19 -2 -31 0 -31 7 0 6 11 11 25 11 18 0 25 5 25 20 0 10 9 24 19 30
25 13 34 13 26 0 -3 -5 -1 -10 4 -10 6 0 11 -7 11 -15 0 -12 9 -15 43 -11 23
2 50 6 60 10 9 3 24 8 32 11 8 2 12 11 9 20 -4 11 0 15 16 15 13 0 24 8 27 20
6 24 21 26 29 5 4 -9 -3 -23 -15 -34 -23 -20 -28 -40 -8 -42 6 -1 19 -3 27 -4
8 -1 22 -3 32 -4 11 -1 14 -7 11 -21 -7 -28 33 -28 42 0 9 28 19 25 59 -16 33
-34 37 -36 67 -25 17 6 73 16 122 22 81 10 94 14 119 41 15 17 28 26 28 22 1
-5 7 7 14 27 7 20 11 51 8 68 -4 28 -2 31 19 29 19 -2 24 2 22 17 -1 11 3 22
8 26 6 3 6 16 -1 33 -5 15 -10 43 -10 63 0 23 -13 60 -36 101 -32 57 -38 63
-49 49 -15 -21 -25 -22 -25 -2 0 8 5 15 10 15 6 0 10 11 10 25 0 31 8 31 41 2
15 -13 33 -46 43 -81 21 -68 62 -136 83 -136 7 0 16 -7 19 -15 5 -12 10 -13
20 -4 7 6 18 8 24 4 5 -3 13 1 16 9 3 9 12 16 19 16 8 0 17 9 20 20 4 13 18
23 36 27 16 3 29 9 29 14 0 5 10 10 23 10 16 1 18 2 5 6 -14 3 -18 15 -18 45
0 32 3 39 15 34 9 -3 18 1 21 8 3 8 16 17 30 20 25 7 34 26 12 26 -7 0 -20 4
-28 10 -11 7 -2 21 48 69 34 33 58 62 52 66 -5 3 -10 18 -10 33 0 15 -4 33 -9
41 -6 9 -5 22 3 35 6 12 12 36 11 54 -1 27 3 32 17 29 14 -4 16 0 11 27 -3 17
-10 36 -15 43 -5 6 -5 14 -1 16 5 3 9 18 8 34 0 15 7 37 17 47 10 10 14 24 10
30 -4 6 -12 26 -19 45 -10 29 -9 36 4 46 10 8 14 20 10 34 -3 11 -1 21 5 21 6
0 3 11 -6 25 -13 20 -16 52 -17 161 0 75 2 139 5 141 2 3 -2 23 -10 46 -12 35
-12 42 0 49 10 6 13 28 11 90 -2 46 -6 91 -10 101 -4 10 -3 23 3 29 7 7 6 19
-2 40 -15 34 -10 78 9 78 22 0 39 57 26 86 -9 20 -8 30 5 50 12 18 15 39 12
80 -3 30 -1 57 4 60 12 8 1 86 -13 94 -6 4 -12 20 -13 36 -1 16 -5 34 -9 41
-4 6 -5 18 -1 26 3 8 -2 21 -10 30 -9 9 -16 20 -16 26 0 6 -11 11 -25 11 -14
0 -25 5 -25 10 0 6 9 10 19 10 10 0 22 7 25 16 3 8 10 12 16 9 5 -3 15 6 20
20 13 35 13 38 -6 31 -21 -8 -47 56 -39 94 7 34 35 62 35 36 0 -9 6 -16 14
-16 18 0 30 50 21 89 -3 16 -2 32 3 35 5 3 9 39 10 81 2 58 -1 77 -12 81 -8 3
-12 12 -9 20 3 8 -1 14 -11 14 -18 0 -22 25 -6 35 6 3 10 17 10 31 0 13 5 24
10 24 6 0 8 10 4 24 -5 21 -3 24 16 19 19 -5 20 -3 14 23 -3 16 -12 47 -19 69
-25 80 -26 95 -10 101 20 8 19 28 -1 49 -10 9 -14 24 -10 37 3 13 -3 35 -16
55 -15 26 -21 56 -25 123 -2 50 -2 90 1 90 3 0 17 -5 32 -10 25 -10 26 -9 20
12 -3 13 -6 33 -6 45 0 13 -3 22 -8 20 -17 -5 -13 10 9 35 21 24 23 34 21 105
-2 43 -8 80 -13 84 -5 3 -10 23 -12 46 -1 22 -10 48 -20 57 -22 22 -22 35 0
51 15 11 15 15 4 29 -14 17 -8 31 12 31 7 0 12 16 12 38 0 20 4 37 9 37 5 0 6
18 2 39 -3 22 -2 42 3 45 10 7 6 222 -4 271 -11 46 -11 98 -2 118 5 12 3 17
-7 17 -7 0 -17 7 -20 16 -3 8 -10 12 -16 9 -19 -12 -29 5 -20 35 7 26 6 30
-11 30 -13 0 -19 7 -19 23 0 12 -4 29 -9 36 -6 10 -5 23 2 35 6 12 10 26 9 32
-1 7 5 14 14 18 10 4 13 13 9 26 -4 12 -2 20 5 20 8 0 10 17 6 58 -10 88 -9
133 3 145 17 17 13 31 -4 17 -23 -19 -45 -4 -45 30 0 16 5 30 10 30 6 0 10 9
10 20 0 11 -4 20 -9 20 -13 0 -34 95 -26 119 3 12 13 21 22 21 14 0 15 2 1 18
-8 9 -18 31 -22 47 -4 17 -9 37 -12 46 -2 9 8 28 23 43 l27 28 -23 18 c-27 20
-23 57 5 46 24 -9 35 3 23 25 -6 11 -7 28 -3 37 4 9 8 42 10 72 3 53 1 56 -27
69 -33 14 -50 42 -31 49 7 2 12 16 12 31 0 19 8 32 25 41 27 14 31 25 15 35
-6 4 -8 15 -5 24 3 11 -6 29 -25 49 -29 31 -41 72 -20 72 16 0 11 36 -9 61
-10 13 -21 42 -25 64 -4 22 -12 45 -17 52 -7 8 -4 15 8 22 17 9 16 11 -8 31
-23 19 -25 26 -19 65 5 34 4 42 -7 38 -8 -3 -26 0 -41 7 -42 20 -65 28 -95 35
-24 5 -28 10 -24 28 3 12 1 31 -3 42 -8 20 -9 20 -9 -1 -1 -11 -4 -23 -7 -27
-10 -10 -34 4 -34 20 0 8 -7 21 -15 29 -8 9 -15 24 -15 35 0 11 -7 22 -15 25
-8 4 -15 11 -15 17 0 6 -6 18 -14 26 -8 9 -16 23 -18 31 -4 18 -68 42 -83 31
-5 -5 -25 -12 -43 -16 -18 -4 -36 -13 -39 -21 -6 -16 15 -74 27 -74 8 0 60
-96 60 -111 0 -5 -8 -9 -19 -9 -11 0 -36 24 -62 60 -24 33 -47 60 -51 60 -5 0
-8 6 -8 13 0 25 -21 37 -38 21 -22 -23 -39 -2 -24 31 7 14 12 28 12 30 0 8
-72 24 -85 19 -7 -3 -17 7 -23 25 -6 17 -17 31 -25 31 -18 0 -30 27 -17 35 25
16 3 22 -72 20 -52 -1 -83 -6 -86 -14 -2 -6 -8 -8 -13 -5 -6 3 -19 -2 -30 -12
-17 -15 -23 -16 -41 -5 -17 11 -22 10 -29 0 -4 -8 -25 -14 -46 -15 -21 0 -46
-4 -55 -9 -14 -5 -18 -2 -19 11 0 11 -3 14 -5 7 -3 -7 -21 -17 -40 -23 -29
-10 -39 -9 -62 6 -15 10 -32 24 -39 33 -10 14 -15 14 -47 -1 -31 -15 -37 -16
-50 -3 -14 14 -67 21 -78 10 -3 -3 -57 -8 -121 -10 -103 -5 -117 -4 -117 11 0
13 -7 15 -42 9 -24 -4 -46 -12 -49 -18 -4 -5 -14 -7 -23 -4 -8 3 -18 2 -22 -4
-4 -7 -10 -6 -18 0 -7 6 -15 9 -17 6 -3 -2 -32 -6 -66 -9 -47 -3 -67 0 -91 14
-26 16 -34 17 -44 6 -7 -7 -20 -13 -28 -14 -8 -1 -36 -4 -61 -8 -39 -5 -48 -3
-60 13 -13 18 -20 19 -82 12 -37 -5 -76 -10 -85 -11 -9 -2 -16 3 -14 10 3 15
10 15 -87 -3 -59 -12 -86 -13 -101 -5 -12 6 -33 7 -58 2 -31 -7 -41 -6 -48 6
-9 13 -12 13 -25 -1 -19 -19 -56 -23 -89 -10 -14 6 -53 8 -87 5 -55 -4 -62 -2
-72 17 -14 26 -48 28 -55 3 -4 -11 -17 -25 -31 -32 -21 -11 -29 -11 -52 0 -16
8 -37 15 -48 16 -11 1 -42 6 -70 11 -58 12 -95 11 -116 -3 -7 -5 -92 -10 -187
-10 l-174 -1 -24 -27 c-14 -14 -30 -26 -37 -26 -7 -1 -32 -21 -57 -46 -48 -49
-134 -99 -151 -88 -7 4 6 24 31 49 41 42 42 43 26 73 -8 16 -13 32 -10 34 2 3
-10 8 -28 12 -27 5 -36 2 -50 -16 -9 -13 -20 -19 -24 -15 -4 4 -12 3 -18 -2
-21 -16 -74 -21 -85 -7 -15 18 -55 13 -59 -7 -2 -10 3 -17 11 -17 12 0 27 -19
27 -36 0 -14 -52 -1 -62 16 -7 11 -16 20 -21 20 -4 0 -5 -4 -2 -10 4 -6 -10
-10 -34 -10 -30 0 -41 4 -41 15 0 8 -5 15 -11 15 -5 0 -8 4 -5 9 4 5 3 17 0
26 -6 13 -15 16 -43 11 -53 -8 -69 6 -37 32 14 11 26 21 26 23 0 2 -106 4
-235 4 -152 0 -234 -4 -232 -10z"/>
</g>
</svg>
