<?xml version="1.0" standalone="no"?>
<!DOCTYPE svg PUBLIC "-//W3C//DTD SVG 20010904//EN"
 "http://www.w3.org/TR/2001/REC-SVG-20010904/DTD/svg10.dtd">
<svg version="1.0" xmlns="http://www.w3.org/2000/svg"
 width="1198.000000pt" height="1600.000000pt" viewBox="0 0 1198.000000 1600.000000"
 preserveAspectRatio="xMidYMid meet">

<g transform="translate(0.000000,1600.000000) scale(0.100000,-0.100000)"
fill="#000000" stroke="none">
<path id="path" d="M3625 15453 c-11 -3 -39 -11 -61 -18 -26 -9 -62 -12 -98 -8 -39 4
-72 1 -111 -12 -46 -14 -63 -15 -103 -6 -26 7 -67 11 -92 10 -25 -1 -83 3
-130 9 -93 12 -213 15 -360 9 -74 -3 -105 -9 -139 -26 -60 -31 -182 -27 -256
9 -48 24 -58 24 -226 22 -129 -1 -186 -6 -212 -17 -27 -11 -51 -13 -104 -6
-37 5 -78 4 -91 0 -13 -5 -96 -6 -185 -3 -154 7 -164 6 -215 -16 -40 -17 -69
-41 -113 -92 -32 -37 -61 -80 -65 -96 -15 -67 -29 -97 -68 -146 -23 -28 -54
-71 -69 -96 -14 -25 -45 -67 -67 -94 -47 -57 -45 -49 -65 -241 -9 -82 -20
-177 -24 -210 -6 -47 -4 -73 10 -120 23 -74 25 -234 5 -332 -27 -128 -29 -215
-6 -272 24 -63 26 -140 3 -199 -15 -41 -15 -47 2 -94 14 -40 16 -66 11 -134
-6 -68 -4 -88 8 -106 22 -31 20 -80 -5 -138 -19 -45 -20 -56 -10 -128 8 -66 7
-91 -6 -143 -12 -50 -14 -72 -5 -108 27 -114 22 -242 -13 -333 -18 -47 -21
-137 -7 -208 31 -155 34 -181 21 -230 -9 -37 -10 -63 -2 -107 9 -49 8 -66 -8
-112 -14 -41 -19 -86 -20 -190 -2 -139 -3 -135 46 -261 23 -59 19 -152 -11
-223 -21 -50 -25 -72 -21 -114 3 -29 1 -69 -5 -90 -7 -26 -5 -89 7 -228 22
-256 20 -534 -5 -594 -34 -84 -29 -149 27 -348 15 -53 16 -70 5 -121 -7 -35
-10 -83 -6 -115 4 -34 2 -68 -5 -89 -7 -18 -14 -100 -17 -181 -4 -129 -2 -157
16 -214 29 -93 27 -188 -7 -286 l-26 -78 16 -87 c9 -48 20 -105 24 -127 6 -27
5 -56 -4 -90 -17 -66 -16 -103 3 -174 14 -48 15 -68 6 -103 -10 -37 -9 -48 8
-81 25 -47 25 -101 1 -141 -17 -28 -18 -49 -15 -206 2 -96 6 -218 10 -270 5
-74 2 -115 -12 -180 -22 -99 -23 -289 -4 -370 8 -33 10 -73 5 -109 -4 -31 -6
-83 -5 -116 0 -33 -7 -91 -16 -130 -22 -97 -12 -266 21 -362 29 -80 33 -180
11 -270 -28 -111 -36 -349 -17 -498 15 -123 14 -240 -4 -304 -14 -55 -18 -127
-19 -331 0 -94 4 -127 22 -178 24 -68 27 -105 12 -169 -9 -37 -20 -282 -23
-489 -1 -34 5 -80 12 -102 16 -47 10 -238 -8 -285 -15 -37 -14 -183 1 -210 13
-24 14 -138 3 -205 -5 -30 -2 -62 10 -103 13 -49 14 -70 6 -111 -10 -45 -9
-55 9 -85 26 -44 25 -96 -2 -144 -21 -38 -21 -40 -6 -120 15 -79 15 -84 -5
-147 -17 -57 -18 -72 -9 -109 15 -56 15 -153 -1 -274 -7 -53 -12 -116 -11
-140 1 -24 5 -100 8 -169 7 -150 11 -173 37 -225 19 -40 122 -150 198 -213 22
-18 54 -59 72 -90 17 -31 51 -78 75 -104 24 -26 44 -52 44 -57 0 -6 11 -13 25
-17 14 -3 40 -28 60 -55 19 -27 38 -49 42 -49 5 0 28 -18 53 -40 50 -45 185
-115 242 -125 21 -4 91 -2 156 5 84 8 130 9 158 1 24 -6 62 -7 99 -2 43 6 68
5 91 -5 22 -9 89 -14 211 -16 164 -2 182 -1 223 19 25 11 78 24 118 28 65 6
78 4 130 -20 45 -21 70 -26 122 -24 36 1 84 -3 108 -9 28 -6 55 -7 75 -1 18 5
48 9 67 8 19 -1 78 4 130 10 52 6 111 10 130 10 19 0 58 2 85 6 35 5 65 3 95
-8 29 -10 65 -13 103 -10 32 3 71 0 90 -7 17 -6 57 -15 87 -20 54 -7 125 6
277 51 34 10 57 11 111 1 49 -8 79 -8 107 -1 31 9 48 7 97 -11 49 -18 67 -20
104 -12 29 6 70 6 120 -1 65 -10 85 -9 142 7 134 37 220 36 314 -4 66 -28 149
-26 234 6 73 27 102 27 180 -2 38 -14 45 -14 102 5 69 23 114 26 160 10 27 -9
38 -7 82 18 l51 28 49 -28 c56 -31 71 -32 170 -15 59 10 79 10 128 -3 51 -14
64 -14 103 -2 27 9 87 15 159 15 93 0 125 -4 168 -21 57 -23 122 -26 199 -12
158 30 212 33 369 22 172 -12 247 -8 439 28 141 27 220 27 285 1 30 -12 74
-20 107 -20 32 0 106 -5 165 -12 85 -9 121 -9 166 0 31 7 123 18 203 24 130
10 152 10 190 -5 70 -25 349 -32 464 -11 65 12 137 16 255 15 311 -4 572 1
604 11 17 6 110 14 206 19 264 12 249 8 348 103 46 44 107 97 136 116 89 62
235 276 267 392 11 37 19 91 19 120 0 29 5 69 11 88 17 55 20 355 4 401 -26
74 -29 168 -6 239 12 36 24 94 27 130 5 58 3 74 -25 143 -17 43 -31 87 -31 98
0 11 12 47 26 80 22 53 24 65 14 93 -26 69 -28 97 -13 152 15 50 14 56 0 72
-9 10 -22 32 -28 49 -9 27 -6 39 16 84 19 37 25 61 21 83 -26 139 -26 153 -5
201 20 44 20 47 3 90 -24 64 -16 267 15 343 25 62 26 90 7 180 -22 102 -26
156 -15 223 7 42 6 78 -2 120 -10 52 -9 64 8 106 16 40 19 70 18 188 -2 127
-4 146 -29 205 -38 92 -41 208 -7 263 21 35 23 46 18 112 -5 52 -2 85 7 113
15 41 14 54 -14 247 -7 44 -13 107 -15 140 -1 33 -5 74 -9 90 -4 18 0 50 9 80
8 28 15 82 15 120 0 39 5 86 11 105 5 19 10 76 10 126 -1 72 -6 107 -26 161
-13 38 -25 85 -26 104 -1 63 17 284 24 296 4 7 9 80 12 163 3 133 1 158 -17
208 -26 73 -28 199 -2 257 26 60 32 221 9 264 -21 42 -23 109 -5 188 13 57 12
67 -4 113 -14 39 -16 65 -11 123 6 64 4 78 -14 108 -27 44 -27 48 8 122 l30
62 -16 84 c-15 80 -15 88 2 138 18 53 18 55 -3 113 -18 52 -20 68 -12 154 5
52 17 112 26 133 22 51 22 161 0 308 -15 96 -16 126 -7 152 10 26 10 45 0 88
-10 47 -10 64 4 112 9 32 18 111 21 175 4 110 3 121 -25 200 -38 107 -49 250
-22 300 26 51 42 332 25 468 -21 183 -24 336 -7 371 12 22 14 47 9 102 -5 60
-3 79 15 117 11 25 21 62 21 82 0 48 -25 148 -57 225 -28 67 -28 62 -2 288 11
88 19 246 20 373 0 34 -7 88 -17 120 -21 72 -14 196 15 270 27 68 27 155 1
224 -24 63 -26 139 -5 199 14 40 14 48 -6 115 -20 69 -21 87 -4 169 5 24 1 35
-19 54 -33 31 -33 61 1 121 l27 48 -17 70 c-22 91 -21 124 3 172 24 48 25 86
4 141 -22 53 -12 215 18 302 14 41 19 74 15 106 -2 25 -12 109 -21 186 -10 77
-19 159 -22 182 -3 23 -16 56 -29 75 -14 18 -46 65 -72 103 -26 39 -66 94 -90
122 -23 29 -47 72 -53 95 -17 68 -27 86 -82 149 -35 40 -69 67 -107 85 -55 25
-59 26 -186 19 -71 -5 -143 -7 -160 -6 -16 1 -77 3 -135 5 -58 2 -166 9 -240
16 -165 14 -266 8 -321 -21 -25 -13 -70 -23 -113 -26 -61 -5 -79 -2 -133 21
-65 27 -62 27 -323 26 -124 -1 -326 -17 -392 -31 -38 -9 -59 -7 -105 6 -41 12
-75 15 -118 11 -47 -5 -73 -2 -117 14 -94 33 -174 25 -326 -33 -50 -18 -60
-19 -137 -8 -65 10 -92 10 -120 1 -32 -10 -43 -9 -87 10 -41 17 -60 20 -92 14
-69 -12 -156 -9 -253 9 -83 16 -96 16 -128 3 -29 -13 -74 -14 -248 -11 -117 3
-227 10 -246 16 -40 13 -93 8 -221 -20 -130 -30 -203 -31 -262 -3 -56 26 -73
27 -124 6 -39 -16 -126 -13 -196 7 -24 6 -42 4 -74 -10 -33 -15 -54 -18 -101
-12 -32 4 -64 10 -70 14 -7 4 -39 2 -71 -4 -54 -11 -66 -10 -132 11 -64 21
-78 22 -117 12 -66 -18 -153 -15 -219 9 -71 25 -145 21 -219 -11 -75 -33 -174
-37 -265 -11 -79 22 -94 23 -285 19 -92 -3 -128 -7 -153 -21 -28 -15 -38 -16
-73 -6 -31 10 -57 10 -117 0 -76 -12 -78 -12 -192 23 -108 34 -178 42 -235 29z"/>
</g>
</svg>
