<?xml version="1.0" standalone="no"?>
<!DOCTYPE svg PUBLIC "-//W3C//DTD SVG 20010904//EN"
 "http://www.w3.org/TR/2001/REC-SVG-20010904/DTD/svg10.dtd">
<svg version="1.0" xmlns="http://www.w3.org/2000/svg"
 width="635.000000pt" height="807.000000pt" viewBox="0 0 635.000000 807.000000"
 preserveAspectRatio="xMidYMid meet">

<g transform="translate(0.000000,807.000000) scale(0.100000,-0.100000)"
fill="#000000" stroke="none">
<path d="M2582 8046 c-9 -5 -25 -17 -35 -27 -10 -11 -27 -19 -37 -19 -11 0
-20 -5 -20 -10 0 -6 -12 -16 -27 -23 -33 -14 -62 -46 -63 -67 -1 -21 -13 -38
-30 -42 -20 -4 -40 -24 -40 -40 0 -7 -12 -19 -27 -25 -16 -7 -37 -26 -48 -42
-30 -45 -50 -51 -183 -54 -81 -2 -125 -6 -130 -14 -4 -7 -23 -14 -42 -16 -19
-2 -48 -9 -63 -16 -16 -6 -35 -11 -43 -11 -8 0 -13 -4 -10 -9 8 -12 -43 -33
-64 -26 -22 7 -32 42 -24 83 5 24 2 33 -17 45 -62 39 -286 61 -297 29 -2 -7
-8 -12 -14 -12 -6 0 -25 -14 -42 -30 -51 -51 -79 -75 -119 -104 -36 -26 -38
-31 -34 -68 3 -22 10 -44 17 -48 10 -6 7 -14 -9 -31 -22 -24 -24 -29 -25 -68
-1 -19 -8 -27 -35 -33 -52 -14 -71 -38 -75 -97 -4 -60 -20 -77 -79 -87 -28 -5
-41 -13 -47 -30 -5 -13 -20 -30 -33 -39 -13 -8 -29 -26 -35 -40 -7 -15 -20
-25 -32 -25 -17 0 -18 3 -8 25 10 23 8 29 -13 50 -21 22 -27 23 -49 12 -21
-11 -25 -20 -25 -57 0 -43 1 -45 33 -48 17 -2 32 -5 32 -8 0 -16 -42 -84 -49
-80 -5 3 -12 -13 -16 -37 -5 -23 -10 -49 -12 -57 -1 -8 -4 -25 -6 -38 -2 -12
-17 -37 -34 -55 -47 -49 -49 -70 -13 -107 16 -17 30 -39 30 -50 0 -10 5 -22
10 -25 7 -4 2 -15 -12 -29 -35 -34 -55 -62 -62 -84 -4 -11 -13 -26 -21 -32 -8
-7 -15 -25 -15 -40 0 -33 -28 -60 -63 -60 -14 0 -33 -7 -41 -16 -9 -8 -16 -13
-16 -9 0 4 -14 -7 -31 -24 -17 -17 -34 -31 -39 -31 -4 0 -11 -11 -14 -25 -4
-14 -11 -23 -16 -20 -6 4 -10 -8 -11 -27 0 -30 -17 -86 -18 -64 -1 6 -7 1 -15
-10 -9 -11 -13 -35 -11 -60 l3 -40 -79 -52 c-43 -29 -85 -52 -92 -52 -24 0
-57 -40 -53 -63 3 -12 8 -42 11 -67 14 -104 17 -115 53 -151 41 -40 88 -100
85 -109 -6 -20 -15 -101 -14 -128 0 -23 8 -40 26 -54 14 -11 25 -28 25 -38 0
-10 4 -21 8 -24 14 -8 12 -80 -2 -106 -13 -22 -12 -29 4 -55 16 -27 17 -42 8
-155 -5 -68 -14 -127 -20 -131 -11 -7 -13 -73 -3 -120 5 -22 -2 -46 -25 -94
-27 -56 -30 -68 -18 -82 10 -13 10 -17 0 -20 -6 -3 -10 -9 -6 -14 3 -5 -3 -9
-14 -9 -31 0 -83 -30 -94 -56 -8 -18 -7 -31 6 -59 10 -20 20 -34 23 -31 11 10
33 -16 33 -39 0 -12 -14 -36 -30 -53 -34 -36 -35 -42 -15 -82 14 -27 14 -31
-5 -48 -19 -18 -25 -72 -8 -72 14 0 8 -38 -7 -44 -8 -3 -15 -14 -15 -24 0 -11
-7 -25 -15 -32 -12 -10 -14 -31 -10 -109 2 -53 8 -112 13 -132 l9 -36 -43 5
c-42 4 -43 4 -50 -32 -4 -26 -1 -49 11 -76 14 -32 16 -52 11 -102 -14 -117 -2
-198 34 -240 35 -40 42 -51 55 -94 7 -26 23 -53 34 -61 12 -8 21 -20 21 -27 0
-8 12 -16 28 -19 15 -3 39 -17 53 -30 14 -14 35 -28 47 -31 12 -4 22 -16 22
-26 0 -10 5 -22 10 -25 6 -3 10 -23 10 -44 0 -30 -4 -40 -19 -44 -14 -3 -22
-17 -26 -43 -9 -52 -26 -102 -47 -142 -10 -18 -18 -39 -18 -46 0 -7 -7 -19
-15 -26 -16 -13 -22 -116 -6 -106 10 6 21 -26 21 -62 0 -13 7 -36 15 -52 12
-23 13 -30 3 -30 -8 -1 -6 -6 6 -15 10 -7 15 -18 11 -24 -3 -7 0 -8 9 -5 9 3
20 -3 28 -15 7 -12 18 -21 25 -21 7 0 13 -7 13 -15 0 -8 4 -15 8 -15 5 0 14
-11 20 -25 19 -42 -3 -64 -79 -79 -19 -4 -79 -42 -79 -51 0 -15 -37 -45 -55
-45 -9 0 -20 -10 -25 -22 -6 -13 -15 -31 -22 -40 -10 -14 -9 -24 4 -52 16 -33
16 -35 -3 -57 -16 -18 -18 -31 -13 -64 4 -31 2 -44 -10 -54 -18 -15 -22 -41
-6 -41 6 0 10 -8 10 -19 0 -10 6 -24 14 -30 15 -12 46 -5 46 11 0 5 7 8 16 6
10 -2 18 -15 20 -33 2 -16 8 -31 14 -33 5 -2 10 -9 10 -16 0 -7 13 -25 30 -39
18 -16 30 -37 30 -51 0 -24 23 -56 40 -56 5 0 16 -15 25 -34 9 -19 26 -37 38
-40 12 -3 34 -16 49 -29 25 -22 28 -31 28 -85 0 -33 4 -64 10 -67 6 -3 10 -15
10 -25 0 -10 11 -32 25 -48 14 -17 28 -44 31 -62 6 -27 2 -36 -21 -56 -25 -21
-27 -27 -17 -49 15 -32 57 -43 81 -21 23 21 25 21 84 -17 122 -78 137 -87 152
-87 8 0 32 -9 52 -20 21 -11 47 -20 59 -20 11 0 29 -9 40 -21 10 -12 32 -28
49 -37 38 -19 102 -86 125 -132 31 -60 125 -130 183 -135 9 -1 28 -11 40 -23
13 -12 27 -22 32 -22 4 0 37 -14 72 -30 86 -41 142 -26 143 38 0 25 28 41 40
23 4 -7 26 -15 49 -18 33 -5 45 -2 55 13 9 11 28 19 52 20 21 2 40 7 42 13 5
15 23 14 20 -1 -7 -41 24 -64 117 -86 25 -7 29 -13 30 -41 0 -25 12 -46 45
-83 70 -76 76 -83 83 -101 3 -9 17 -18 29 -18 13 -1 39 -3 59 -4 54 -3 69 -12
69 -38 0 -65 86 -74 109 -12 8 23 21 37 37 41 13 3 24 10 24 15 0 5 18 9 40 9
28 0 45 6 57 20 21 24 58 26 67 5 4 -12 17 -15 50 -13 l44 3 -2 47 c-2 27 0
48 3 49 3 0 16 3 29 5 12 2 32 6 45 8 12 2 25 5 28 5 4 1 12 14 19 31 7 17 20
30 29 29 9 0 11 -3 5 -5 -18 -8 -4 -58 24 -81 l25 -21 39 24 c25 16 47 23 65
20 15 -3 32 -1 39 5 15 12 70 -11 67 -27 -1 -5 12 -11 29 -12 22 -2 39 5 60
24 25 25 31 26 63 17 27 -9 38 -8 48 2 11 10 18 7 41 -16 22 -22 35 -27 55
-23 47 10 53 14 47 29 -9 23 21 30 49 11 14 -9 30 -14 35 -11 6 3 10 3 10 -2
0 -4 12 -9 26 -9 31 -2 35 -6 36 -35 1 -67 4 -71 66 -68 38 2 61 8 69 18 10
14 13 14 32 -3 11 -10 33 -19 48 -21 48 -4 75 -16 69 -31 -4 -10 0 -14 11 -12
9 2 17 -5 18 -14 6 -35 42 -54 92 -49 6 1 16 20 20 44 9 45 6 44 102 49 31 2
47 9 55 22 20 35 49 66 63 66 11 0 18 19 14 43 0 4 6 7 14 7 9 0 20 12 25 28
27 74 49 93 123 106 21 4 36 10 34 14 -3 4 2 23 9 42 12 32 13 33 19 13 8 -25
34 -38 48 -24 7 7 21 2 44 -14 24 -19 42 -25 68 -22 19 2 38 6 41 10 14 14 44
-15 44 -41 0 -25 4 -28 38 -30 31 -2 41 2 51 21 9 18 22 24 53 26 56 3 59 6
52 52 -4 25 -3 39 4 39 6 0 9 6 6 13 -9 25 22 40 58 29 31 -10 100 -16 141
-13 11 1 17 9 17 26 0 14 6 25 13 25 8 0 28 21 47 46 18 25 46 54 62 64 16 9
39 31 52 49 13 17 25 28 29 25 3 -3 16 0 28 7 13 7 37 16 54 20 75 19 170 68
232 119 20 17 58 21 86 11 32 -12 87 9 87 33 0 25 -12 46 -26 46 -25 0 -15 56
21 116 31 51 35 66 35 124 0 58 3 69 25 90 14 13 32 25 41 26 20 3 55 34 49
44 -2 3 12 21 30 39 19 18 35 39 35 46 0 32 24 65 47 65 24 0 32 15 11 22 -9
3 -8 13 4 39 9 19 20 47 24 63 l7 28 27 -32 27 -32 22 27 c25 33 26 53 5 83
-11 17 -13 30 -7 50 10 29 6 62 -7 62 -12 0 -20 39 -9 46 5 3 9 20 9 38 0 27
-11 43 -63 92 -78 75 -154 127 -173 120 -7 -3 -14 -2 -15 2 0 4 -2 17 -5 29
-2 12 1 25 6 28 6 3 10 14 10 25 0 11 10 20 25 24 14 4 25 11 25 16 0 6 16 27
35 47 27 29 33 42 28 61 -4 17 -2 23 6 18 7 -5 11 4 11 29 0 19 7 51 15 71 14
33 11 63 -7 75 -5 3 -11 21 -13 39 -3 18 -13 41 -24 51 -23 22 -41 78 -41 131
0 33 -4 38 -27 44 -47 10 -60 16 -45 21 6 3 12 12 12 21 0 10 7 30 15 46 8 15
12 32 9 37 -3 5 2 9 11 9 15 0 64 27 75 41 3 3 14 9 25 13 11 3 37 21 58 40
30 26 40 42 42 71 2 21 8 42 14 48 5 5 7 15 5 21 -3 7 6 18 19 25 44 23 54 64
56 224 1 81 6 160 11 175 4 16 4 36 -2 45 -10 20 -58 23 -76 5 -9 -9 -12 -9
-12 -1 0 7 4 15 10 18 5 3 7 19 3 35 -3 17 2 51 11 79 16 50 14 91 -8 144 -6
15 -14 27 -18 27 -5 0 -8 7 -8 15 0 8 -4 15 -8 15 -9 0 -8 26 1 50 4 8 5 24 3
35 -3 11 -5 23 -5 26 -1 3 -13 11 -27 18 -22 10 -28 9 -40 -6 -7 -10 -14 -24
-14 -30 0 -7 -9 -13 -19 -13 -23 0 -30 16 -21 50 5 22 11 25 46 22 44 -2 53 2
73 37 11 21 11 26 -1 35 -24 19 -58 68 -58 85 0 9 16 26 35 39 46 30 48 69 4
106 -17 14 -34 26 -38 26 -4 0 -17 9 -29 20 -16 15 -20 28 -16 44 3 14 -1 29
-10 39 -9 8 -16 25 -16 36 0 12 -5 21 -10 21 -20 0 -28 45 -17 94 8 36 8 52
-1 67 -7 12 -12 62 -12 133 0 93 -3 115 -15 120 -22 8 -15 36 15 62 20 18 22
24 11 37 -7 9 -13 28 -15 44 -1 15 -5 34 -9 40 -9 14 14 54 55 98 32 33 35 78
10 128 -12 25 -12 34 3 74 10 26 25 48 36 50 11 3 19 8 19 12 0 14 41 51 50
46 5 -3 11 21 15 52 3 32 11 86 17 121 13 69 10 75 -42 89 -14 3 -46 21 -72
40 -26 18 -50 33 -53 33 -3 0 -17 10 -31 23 -21 18 -25 28 -20 57 4 28 1 40
-14 53 -12 10 -20 29 -20 47 0 34 -37 97 -62 105 -9 3 -19 12 -22 20 -3 8 -12
15 -20 15 -7 0 -16 9 -19 20 -4 15 -14 20 -37 20 -18 0 -29 4 -25 10 3 6 2 10
-4 10 -5 0 -11 -5 -13 -12 -6 -18 -44 42 -58 95 -7 26 -17 47 -21 47 -5 0 -9
6 -9 14 0 8 -8 21 -18 28 -21 16 -46 68 -32 68 6 0 10 5 10 11 0 6 9 22 20 36
28 35 26 79 -5 107 -22 21 -41 78 -48 146 -1 8 -7 18 -14 23 -7 4 -10 14 -7
22 4 9 0 15 -10 15 -9 0 -16 4 -16 10 0 5 -15 23 -34 41 -19 17 -37 41 -40 55
-4 13 -13 24 -22 24 -8 0 -17 8 -21 18 -9 27 -65 75 -116 99 -41 20 -47 27
-48 55 -1 18 -1 37 0 41 1 5 -3 6 -9 2 -6 -3 -10 4 -10 17 0 27 -32 58 -60 58
-22 0 -40 28 -40 62 0 13 -9 29 -21 36 l-20 13 20 34 c11 20 17 43 14 57 -7
28 -71 91 -84 82 -16 -9 -39 16 -39 42 0 18 -6 24 -22 24 -21 0 -21 0 -2 14
10 8 16 18 12 22 -4 4 -14 2 -22 -5 -11 -9 -17 -9 -28 2 -23 24 -78 35 -188
38 -29 1 -108 -26 -134 -46 -23 -18 -26 -27 -26 -81 l0 -61 -35 2 c-20 1 -46
12 -59 24 -12 11 -32 21 -44 21 -12 0 -22 5 -22 10 0 6 -15 10 -34 10 -21 0
-36 6 -40 15 -4 11 -17 14 -57 10 -28 -3 -55 -8 -59 -10 -4 -3 -25 1 -46 9
-22 7 -56 11 -76 8 -28 -3 -39 0 -44 12 -3 9 -12 16 -20 16 -8 0 -14 9 -14 21
0 11 -4 17 -10 14 -5 -3 -10 -1 -10 4 0 6 -6 11 -13 11 -8 0 -19 11 -26 24 -7
13 -23 29 -35 36 -21 12 -86 104 -86 121 0 5 -10 9 -22 9 -13 0 -34 9 -48 20
-14 11 -30 20 -36 20 -7 0 -32 11 -55 25 -32 18 -59 25 -96 25 -29 0 -53 -4
-53 -9 0 -11 -43 -28 -92 -36 -21 -3 -38 -10 -38 -15 0 -6 -16 -27 -35 -47
-19 -20 -35 -33 -35 -29 0 5 -8 2 -18 -7 -10 -9 -32 -20 -49 -23 -32 -6 -45
-16 -119 -86 l-42 -40 -32 17 c-17 9 -46 33 -63 52 -51 59 -54 60 -101 67 -42
7 -80 37 -116 95 -4 7 -33 19 -66 27 -32 9 -64 20 -71 26 -14 11 -127 7 -151
-6z"/>
</g>
</svg>
