<?xml version="1.0" standalone="no"?>
<!DOCTYPE svg PUBLIC "-//W3C//DTD SVG 20010904//EN"
 "http://www.w3.org/TR/2001/REC-SVG-20010904/DTD/svg10.dtd">
<svg version="1.0" xmlns="http://www.w3.org/2000/svg"
 width="428.000000pt" height="567.000000pt" viewBox="0 0 428.000000 567.000000"
 preserveAspectRatio="xMidYMid meet">

<g transform="translate(0.000000,567.000000) scale(0.100000,-0.100000)"
fill="#000000" stroke="none">
<path d="M2094 5661 c-5 -4 -50 -13 -101 -20 -71 -10 -100 -10 -131 0 -36 10
-45 9 -86 -10 -42 -21 -107 -35 -216 -47 -58 -7 -214 -51 -267 -77 -13 -6 -23
-18 -23 -28 0 -14 -12 -19 -57 -24 -73 -8 -222 -65 -271 -103 -20 -16 -59 -41
-87 -55 -27 -14 -65 -40 -84 -57 -18 -17 -46 -33 -61 -37 -22 -4 -30 -12 -34
-37 -8 -42 -66 -112 -126 -153 -27 -18 -52 -33 -54 -33 -13 0 -45 -34 -40 -42
7 -12 -16 -68 -27 -68 -5 0 -9 -7 -9 -15 0 -26 -30 -77 -75 -127 -33 -36 -41
-53 -38 -73 3 -15 1 -25 -6 -25 -6 0 -11 -11 -11 -24 0 -14 -8 -31 -19 -38
-10 -7 -37 -49 -60 -93 -34 -64 -42 -87 -38 -116 3 -21 -2 -50 -11 -70 -9 -20
-18 -79 -22 -144 -5 -86 -11 -120 -29 -155 -20 -38 -23 -60 -22 -137 0 -60 -3
-93 -10 -93 -6 0 -8 -7 -5 -16 4 -9 -1 -29 -11 -43 -13 -21 -18 -57 -21 -191
-4 -169 -6 -293 -4 -435 0 -44 -4 -120 -9 -170 -5 -49 -10 -103 -9 -120 0 -16
0 -79 1 -139 0 -71 5 -121 14 -143 8 -19 14 -51 14 -71 -1 -20 -2 -111 -3
-202 -3 -197 -2 -190 -21 -190 -17 0 -15 -27 6 -151 11 -68 14 -173 4 -189 -3
-6 3 -31 15 -56 17 -34 21 -57 18 -94 -3 -27 0 -54 5 -59 6 -6 13 -49 15 -96
2 -47 8 -85 13 -85 5 0 9 -13 9 -29 0 -33 10 -60 39 -106 11 -16 20 -37 20
-45 2 -30 22 -90 35 -102 13 -14 86 -164 86 -178 0 -4 20 -21 45 -37 44 -27
77 -67 103 -125 6 -16 18 -40 25 -55 10 -23 173 -193 184 -193 4 0 22 -16 83
-74 14 -13 42 -30 64 -37 21 -8 41 -19 43 -26 3 -6 11 -9 19 -6 8 3 14 0 14
-6 0 -9 5 -9 20 -1 25 13 60 4 60 -16 0 -8 -4 -14 -10 -14 -5 0 -10 -4 -10
-10 0 -5 8 -10 18 -10 9 0 39 -11 66 -25 27 -14 57 -25 67 -25 10 0 21 -5 24
-10 3 -6 21 -10 39 -10 18 0 36 -3 40 -7 8 -8 21 -11 101 -24 32 -5 91 -25
130 -43 75 -37 133 -46 335 -50 52 -1 105 -8 117 -14 12 -7 40 -12 62 -12 22
0 43 -5 46 -10 5 -8 11 -8 20 0 7 6 20 8 29 4 10 -4 16 -1 16 8 0 19 55 68 76
68 12 0 15 -7 12 -24 -5 -24 1 -25 78 -1 14 5 23 2 27 -9 7 -19 37 -10 37 10
0 8 7 14 15 14 8 0 15 -4 15 -10 0 -6 9 -6 26 0 14 6 40 10 59 10 18 0 40 7
49 15 8 8 23 15 33 15 31 0 63 12 57 21 -9 15 41 28 85 22 27 -4 45 -13 52
-25 5 -10 13 -17 17 -14 10 6 153 19 224 20 31 1 60 4 64 9 4 4 20 7 36 7 15
0 28 4 28 9 0 5 15 11 33 14 80 14 97 20 97 33 0 10 12 14 38 14 53 -1 159 22
212 46 25 11 57 23 71 27 14 4 44 24 66 46 23 21 44 36 47 33 3 -3 6 0 6 6 0
6 30 25 68 44 37 18 73 40 79 48 50 60 103 136 103 147 0 7 5 13 10 13 6 0 10
5 10 11 0 6 8 27 17 47 12 26 14 37 5 40 -17 5 -15 32 3 32 8 0 15 5 15 10 0
6 -5 10 -11 10 -6 0 -9 6 -6 13 2 6 10 11 17 9 6 -1 14 6 17 17 3 14 13 19 32
19 52 -2 71 11 71 47 0 24 6 38 20 45 10 6 24 28 30 50 6 21 15 42 20 45 24
15 31 84 15 146 -19 73 -15 93 20 87 21 -4 25 -1 25 18 0 17 -6 24 -19 24 -17
0 -19 7 -19 65 0 36 4 65 8 65 5 0 14 17 20 38 7 20 19 45 27 54 12 13 13 28
5 80 -9 54 -8 73 10 133 11 39 29 88 41 111 17 35 19 52 13 111 -6 58 -3 82
14 132 20 61 27 165 11 175 -14 9 -19 93 -9 138 7 32 5 51 -7 82 -12 28 -14
54 -10 88 4 27 2 69 -5 97 -8 34 -9 60 -1 86 8 30 6 42 -11 71 -17 28 -19 44
-14 88 5 39 3 64 -10 95 -12 31 -15 57 -10 95 4 38 1 65 -9 90 -8 19 -15 62
-15 94 0 32 -6 78 -14 103 -8 24 -17 104 -20 176 -4 102 -9 139 -23 159 -11
17 -16 42 -14 71 2 27 -4 59 -15 81 -10 23 -17 59 -16 96 0 54 -9 91 -27 106
-32 27 -48 117 -31 170 12 37 11 43 -18 99 -20 37 -32 73 -32 98 0 21 -4 43
-9 48 -5 6 -14 28 -21 50 -7 22 -26 61 -42 86 -15 25 -28 53 -28 62 0 9 -11
27 -25 41 -14 14 -25 36 -25 50 0 13 -11 38 -25 54 -13 16 -34 50 -44 76 -14
31 -26 46 -39 46 -27 0 -52 32 -52 66 0 23 -14 45 -60 92 -33 35 -60 67 -60
71 0 5 -13 14 -28 20 -16 7 -51 34 -78 62 -81 83 -158 110 -193 69 -21 -24
-21 -25 -36 -6 -8 11 -15 27 -15 35 0 27 -67 88 -117 107 -27 10 -50 21 -53
26 -3 4 -46 10 -95 12 -108 7 -118 10 -134 40 -11 19 -24 25 -76 30 -35 3 -85
13 -111 22 -27 9 -114 20 -194 25 -171 11 -271 22 -286 31 -6 4 -15 4 -20 -1z"/>
</g>
</svg>
