<svg xmlns="http://www.w3.org/2000/svg" xmlns:xlink="http://www.w3.org/1999/xlink" width="306" zoomAndPan="magnify" viewBox="0 0 229.5 92.249997" height="123" preserveAspectRatio="xMidYMid meet" version="1.0"><defs><clipPath id="5ff532b3bf"><path d="M 0.867188 0.65625 L 228.328125 0.65625 L 228.328125 91.417969 L 0.867188 91.417969 Z M 0.867188 0.65625 " clip-rule="nonzero"/></clipPath></defs><g clip-path="url(#5ff532b3bf)"><path fill="#031f5c" d="M 4.285156 78.800781 L 0.867188 78.800781 L 0.867188 0.742188 L 4.285156 0.742188 Z M 117.671875 0.742188 L 114.25 0.742188 L 114.25 78.800781 L 117.671875 78.800781 Z M 149.007812 0.742188 L 143.925781 0.742188 L 143.925781 78.800781 L 149.007812 78.800781 Z M 167.183594 0.742188 L 159.632812 0.742188 L 159.632812 78.800781 L 167.183594 78.800781 Z M 123.367188 0.742188 L 121.660156 0.742188 L 121.660156 78.800781 L 123.367188 78.800781 Z M 17.339844 0.742188 L 6.847656 0.742188 L 6.847656 78.800781 L 17.339844 78.800781 Z M 24.367188 0.742188 L 23.515625 0.742188 L 23.515625 78.800781 L 24.367188 78.800781 Z M 191.457031 0.742188 L 190.605469 0.742188 L 190.605469 78.800781 L 191.457031 78.800781 Z M 196.226562 0.742188 L 193.726562 0.742188 L 193.726562 78.800781 L 196.226562 78.800781 Z M 92.3125 0.742188 L 91.460938 0.742188 L 91.460938 78.800781 L 92.3125 78.800781 Z M 156.984375 0.742188 L 156.132812 0.742188 L 156.132812 78.800781 L 156.984375 78.800781 Z M 222.230469 0.742188 L 221.378906 0.742188 L 221.378906 78.800781 L 222.230469 78.800781 Z M 80.921875 0.742188 L 80.066406 0.742188 L 80.066406 78.800781 L 80.921875 78.800781 Z M 84.195312 0.742188 L 83.34375 0.742188 L 83.34375 78.800781 L 84.195312 78.800781 Z M 86.476562 0.742188 L 86.050781 0.742188 L 86.050781 78.800781 L 86.476562 78.800781 Z M 200.179688 0.742188 L 199.324219 0.742188 L 199.324219 78.800781 L 200.179688 78.800781 Z M 203.453125 0.742188 L 202.601562 0.742188 L 202.601562 78.800781 L 203.453125 78.800781 Z M 228.15625 0.742188 L 224.789062 0.742188 L 224.789062 78.800781 L 228.15625 78.800781 Z M 205.734375 0.742188 L 205.308594 0.742188 L 205.308594 78.800781 L 205.734375 78.800781 Z M 127.820312 0.742188 L 127.394531 0.742188 L 127.394531 78.800781 L 127.820312 78.800781 Z M 132.621094 0.742188 L 130.90625 0.742188 L 130.90625 78.800781 L 132.621094 78.800781 Z M 33.882812 0.742188 L 28.644531 0.742188 L 28.644531 78.800781 L 33.882812 78.800781 C 33.882812 78.800781 33.882812 0.742188 33.882812 0.742188 Z M 39.183594 0.742188 L 35.269531 0.742188 L 35.269531 78.800781 L 39.183594 78.800781 C 39.183594 78.800781 39.183594 0.742188 39.183594 0.742188 Z M 138.039062 0.742188 L 134.128906 0.742188 L 134.128906 78.800781 L 138.039062 78.800781 Z M 52.816406 0.742188 L 40.828125 0.742188 L 40.828125 78.800781 L 52.816406 78.800781 Z M 72.414062 0.742188 L 54.078125 0.742188 L 54.078125 78.800781 L 72.414062 78.800781 Z M 187.511719 0.742188 L 169.175781 0.742188 L 169.175781 78.800781 L 187.511719 78.800781 Z M 98.582031 0.742188 L 93.960938 0.742188 L 93.960938 78.800781 L 98.582031 78.800781 Z M 112.257812 0.742188 L 103.777344 0.742188 L 103.777344 78.800781 L 112.257812 78.800781 Z M 78.785156 0.742188 L 73.734375 0.742188 L 73.734375 78.800781 L 78.785156 78.800781 Z M 216.996094 0.742188 L 208.632812 0.742188 L 208.632812 78.800781 L 216.996094 78.800781 Z M 6.75 87.761719 C 6.75 88.816406 6.585938 89.632812 6.257812 90.203125 C 5.929688 90.777344 5.355469 91.0625 4.539062 91.0625 C 3.722656 91.0625 3.148438 90.777344 2.820312 90.203125 C 2.492188 89.632812 2.328125 88.816406 2.328125 87.761719 C 2.328125 86.699219 2.492188 85.886719 2.820312 85.308594 C 3.148438 84.734375 3.722656 84.445312 4.539062 84.445312 C 5.355469 84.445312 5.929688 84.734375 6.257812 85.308594 C 6.585938 85.886719 6.75 86.699219 6.75 87.761719 Z M 5.449219 87.761719 C 5.449219 86.988281 5.390625 86.414062 5.277344 86.042969 C 5.160156 85.671875 4.914062 85.484375 4.539062 85.484375 C 4.164062 85.484375 3.917969 85.671875 3.796875 86.042969 C 3.675781 86.414062 3.613281 86.988281 3.613281 87.761719 C 3.613281 88.496094 3.675781 89.058594 3.796875 89.449219 C 3.917969 89.839844 4.164062 90.035156 4.539062 90.035156 C 4.914062 90.035156 5.160156 89.839844 5.277344 89.449219 C 5.390625 89.058594 5.449219 88.496094 5.449219 87.761719 Z M 51.441406 88.957031 L 51.949219 88.597656 C 52.375 88.296875 52.679688 88.027344 52.867188 87.78125 C 53.148438 87.414062 53.289062 86.992188 53.289062 86.515625 C 53.289062 85.898438 53.089844 85.398438 52.6875 85.023438 C 52.285156 84.648438 51.746094 84.460938 51.070312 84.460938 C 50.210938 84.460938 49.613281 84.78125 49.277344 85.421875 C 49.097656 85.757812 49 86.195312 48.980469 86.742188 L 50.203125 86.742188 C 50.21875 86.382812 50.265625 86.121094 50.347656 85.957031 C 50.484375 85.667969 50.746094 85.527344 51.128906 85.527344 C 51.410156 85.527344 51.625 85.617188 51.773438 85.796875 C 51.925781 85.976562 52 86.199219 52 86.472656 C 52 86.804688 51.867188 87.113281 51.605469 87.390625 C 51.433594 87.570312 51.058594 87.871094 50.476562 88.285156 C 49.808594 88.761719 49.382812 89.214844 49.203125 89.644531 C 49.019531 90.023438 48.917969 90.445312 48.90625 90.902344 L 53.300781 90.902344 L 53.300781 89.792969 L 50.5 89.792969 C 50.578125 89.660156 50.679688 89.542969 50.792969 89.445312 C 50.910156 89.34375 51.125 89.179688 51.441406 88.957031 Z M 57.945312 88.539062 L 57.945312 89.523438 L 57.21875 89.523438 L 57.21875 90.902344 L 55.988281 90.902344 L 55.988281 89.523438 L 53.449219 89.523438 L 53.449219 88.421875 L 55.804688 84.53125 L 57.21875 84.53125 L 57.21875 88.539062 Z M 55.988281 85.777344 L 54.386719 88.539062 L 55.988281 88.539062 Z M 60.191406 90.046875 C 59.921875 90.046875 59.714844 89.972656 59.574219 89.820312 C 59.433594 89.671875 59.339844 89.460938 59.289062 89.1875 L 58.03125 89.1875 C 58.078125 89.789062 58.292969 90.253906 58.683594 90.582031 C 59.078125 90.910156 59.578125 91.070312 60.1875 91.070312 C 60.945312 91.070312 61.511719 90.839844 61.894531 90.375 C 62.273438 89.90625 62.464844 89.378906 62.464844 88.785156 C 62.464844 88.105469 62.265625 87.585938 61.871094 87.230469 C 61.476562 86.871094 61.015625 86.695312 60.484375 86.695312 C 60.222656 86.695312 60 86.726562 59.816406 86.792969 C 59.710938 86.835938 59.558594 86.921875 59.363281 87.046875 L 59.59375 85.644531 L 62.210938 85.644531 L 62.210938 84.574219 L 58.683594 84.574219 L 58.234375 88.117188 L 59.363281 88.171875 C 59.460938 87.980469 59.613281 87.847656 59.808594 87.777344 C 59.921875 87.738281 60.050781 87.71875 60.207031 87.71875 C 60.527344 87.71875 60.769531 87.832031 60.921875 88.058594 C 61.074219 88.28125 61.148438 88.558594 61.148438 88.886719 C 61.148438 89.222656 61.070312 89.496094 60.90625 89.714844 C 60.742188 89.9375 60.503906 90.046875 60.191406 90.046875 Z M 67.09375 88.804688 C 67.09375 89.402344 66.914062 89.929688 66.558594 90.386719 C 66.199219 90.84375 65.644531 91.070312 64.894531 91.070312 C 64.085938 91.070312 63.492188 90.734375 63.109375 90.058594 C 62.808594 89.53125 62.660156 88.851562 62.660156 88.015625 C 62.660156 87.527344 62.679688 87.128906 62.722656 86.824219 C 62.796875 86.277344 62.9375 85.820312 63.152344 85.460938 C 63.335938 85.148438 63.574219 84.902344 63.871094 84.710938 C 64.167969 84.523438 64.519531 84.429688 64.933594 84.429688 C 65.527344 84.429688 66.003906 84.582031 66.359375 84.886719 C 66.710938 85.191406 66.910156 85.597656 66.953125 86.105469 L 65.699219 86.105469 C 65.699219 86.003906 65.660156 85.886719 65.578125 85.765625 C 65.445312 85.5625 65.238281 85.464844 64.964844 85.464844 C 64.554688 85.464844 64.261719 85.695312 64.089844 86.152344 C 63.996094 86.40625 63.929688 86.78125 63.894531 87.277344 C 64.050781 87.089844 64.234375 86.957031 64.4375 86.871094 C 64.644531 86.785156 64.878906 86.742188 65.144531 86.742188 C 65.714844 86.742188 66.183594 86.933594 66.546875 87.320312 C 66.910156 87.707031 67.09375 88.203125 67.09375 88.804688 Z M 65.816406 88.910156 C 65.816406 88.535156 65.722656 88.246094 65.539062 88.050781 C 65.355469 87.851562 65.132812 87.75 64.867188 87.75 C 64.652344 87.75 64.460938 87.816406 64.296875 87.945312 C 64.050781 88.136719 63.925781 88.445312 63.925781 88.875 C 63.925781 89.21875 64.019531 89.5 64.203125 89.71875 C 64.390625 89.9375 64.625 90.046875 64.914062 90.046875 C 65.191406 90.046875 65.414062 89.941406 65.574219 89.730469 C 65.734375 89.519531 65.816406 89.246094 65.816406 88.910156 Z M 69.398438 90.035156 C 68.992188 90.035156 68.714844 89.882812 68.5625 89.570312 C 68.480469 89.40625 68.4375 89.191406 68.4375 88.933594 L 67.199219 88.933594 C 67.222656 89.445312 67.324219 89.859375 67.511719 90.171875 C 67.863281 90.765625 68.492188 91.0625 69.402344 91.0625 C 70.136719 91.0625 70.691406 90.855469 71.070312 90.445312 C 71.445312 90.035156 71.632812 89.558594 71.632812 89.015625 C 71.632812 88.5 71.472656 88.09375 71.148438 87.796875 C 70.933594 87.597656 70.769531 87.5 70.652344 87.5 C 70.808594 87.4375 70.953125 87.328125 71.097656 87.167969 C 71.320312 86.90625 71.433594 86.589844 71.433594 86.210938 C 71.433594 85.675781 71.246094 85.253906 70.871094 84.9375 C 70.496094 84.617188 70 84.460938 69.386719 84.460938 C 69.058594 84.460938 68.777344 84.5 68.550781 84.578125 C 68.324219 84.660156 68.128906 84.773438 67.964844 84.925781 C 67.742188 85.136719 67.582031 85.367188 67.480469 85.621094 C 67.382812 85.90625 67.328125 86.207031 67.316406 86.527344 L 68.492188 86.527344 C 68.484375 86.210938 68.550781 85.957031 68.691406 85.769531 C 68.832031 85.582031 69.050781 85.484375 69.347656 85.484375 C 69.605469 85.484375 69.808594 85.5625 69.949219 85.714844 C 70.09375 85.871094 70.164062 86.066406 70.164062 86.3125 C 70.164062 86.691406 70.023438 86.941406 69.746094 87.066406 C 69.582031 87.136719 69.296875 87.179688 68.890625 87.183594 L 68.890625 88.085938 C 69.308594 88.085938 69.613281 88.125 69.808594 88.207031 C 70.148438 88.347656 70.316406 88.628906 70.316406 89.050781 C 70.316406 89.371094 70.226562 89.613281 70.042969 89.78125 C 69.859375 89.953125 69.644531 90.035156 69.398438 90.035156 Z M 99.898438 89.125 C 99.898438 89.664062 99.699219 90.125 99.300781 90.503906 C 98.898438 90.882812 98.339844 91.070312 97.625 91.070312 C 96.90625 91.070312 96.363281 90.882812 95.996094 90.503906 C 95.625 90.125 95.441406 89.664062 95.441406 89.125 C 95.441406 88.765625 95.523438 88.441406 95.683594 88.148438 C 95.847656 87.855469 96.085938 87.636719 96.398438 87.488281 C 96.089844 87.285156 95.886719 87.058594 95.792969 86.820312 C 95.699219 86.578125 95.652344 86.355469 95.652344 86.144531 C 95.652344 85.679688 95.828125 85.28125 96.179688 84.953125 C 96.53125 84.625 97.03125 84.460938 97.671875 84.460938 C 98.3125 84.460938 98.808594 84.625 99.160156 84.953125 C 99.511719 85.28125 99.6875 85.679688 99.6875 86.144531 C 99.6875 86.355469 99.640625 86.578125 99.546875 86.820312 C 99.453125 87.058594 99.253906 87.269531 98.945312 87.445312 C 99.261719 87.621094 99.5 87.855469 99.660156 88.148438 C 99.820312 88.441406 99.898438 88.765625 99.898438 89.125 Z M 96.859375 86.285156 C 96.859375 86.519531 96.933594 86.710938 97.078125 86.859375 C 97.21875 87.003906 97.417969 87.078125 97.671875 87.078125 C 97.929688 87.078125 98.128906 87.003906 98.269531 86.859375 C 98.410156 86.710938 98.480469 86.519531 98.480469 86.285156 C 98.480469 86.03125 98.410156 85.835938 98.269531 85.691406 C 98.128906 85.546875 97.929688 85.476562 97.671875 85.476562 C 97.417969 85.476562 97.21875 85.546875 97.078125 85.691406 C 96.933594 85.835938 96.859375 86.03125 96.859375 86.285156 Z M 98.597656 89.042969 C 98.597656 88.714844 98.515625 88.464844 98.347656 88.296875 C 98.183594 88.128906 97.957031 88.042969 97.675781 88.042969 C 97.390625 88.042969 97.167969 88.128906 97 88.296875 C 96.832031 88.464844 96.75 88.714844 96.75 89.042969 C 96.75 89.355469 96.832031 89.601562 96.996094 89.777344 C 97.160156 89.949219 97.386719 90.035156 97.675781 90.035156 C 97.964844 90.035156 98.191406 89.949219 98.355469 89.777344 C 98.515625 89.601562 98.597656 89.355469 98.597656 89.042969 Z M 104.523438 88.539062 L 104.523438 89.523438 L 103.796875 89.523438 L 103.796875 90.902344 L 102.5625 90.902344 L 102.5625 89.523438 L 100.027344 89.523438 L 100.027344 88.421875 L 102.382812 84.53125 L 103.796875 84.53125 L 103.796875 88.539062 Z M 102.5625 85.777344 L 100.964844 88.539062 L 102.5625 88.539062 Z M 109.109375 87.667969 C 109.109375 88.441406 109.007812 89.089844 108.8125 89.605469 C 108.433594 90.59375 107.742188 91.089844 106.734375 91.089844 C 106.253906 91.089844 105.820312 90.945312 105.4375 90.664062 C 105.054688 90.378906 104.832031 89.964844 104.777344 89.417969 L 106.035156 89.417969 C 106.0625 89.605469 106.140625 89.761719 106.273438 89.878906 C 106.402344 89.996094 106.574219 90.054688 106.789062 90.054688 C 107.203125 90.054688 107.5 89.824219 107.664062 89.363281 C 107.757812 89.109375 107.8125 88.742188 107.839844 88.253906 C 107.722656 88.398438 107.601562 88.507812 107.46875 88.585938 C 107.234375 88.726562 106.945312 88.796875 106.601562 88.796875 C 106.089844 88.796875 105.636719 88.621094 105.242188 88.269531 C 104.847656 87.917969 104.648438 87.410156 104.648438 86.746094 C 104.648438 86.058594 104.847656 85.503906 105.242188 85.078125 C 105.640625 84.652344 106.15625 84.4375 106.789062 84.4375 C 107.765625 84.4375 108.4375 84.871094 108.796875 85.734375 C 109.003906 86.222656 109.109375 86.867188 109.109375 87.667969 Z M 107.792969 86.671875 C 107.792969 86.308594 107.710938 86.019531 107.539062 85.808594 C 107.371094 85.597656 107.136719 85.492188 106.84375 85.492188 C 106.628906 85.492188 106.441406 85.550781 106.289062 85.671875 C 106.050781 85.859375 105.925781 86.179688 105.925781 86.632812 C 105.925781 87.011719 106.003906 87.296875 106.160156 87.488281 C 106.3125 87.679688 106.554688 87.773438 106.875 87.773438 C 107.046875 87.773438 107.210938 87.722656 107.363281 87.621094 C 107.652344 87.4375 107.792969 87.125 107.792969 86.671875 Z M 109.613281 85.421875 C 109.4375 85.757812 109.339844 86.195312 109.316406 86.742188 L 110.542969 86.742188 C 110.558594 86.382812 110.605469 86.121094 110.683594 85.957031 C 110.824219 85.667969 111.085938 85.527344 111.46875 85.527344 C 111.746094 85.527344 111.960938 85.617188 112.113281 85.796875 C 112.261719 85.976562 112.335938 86.199219 112.335938 86.472656 C 112.335938 86.804688 112.207031 87.113281 111.945312 87.390625 C 111.773438 87.570312 111.398438 87.871094 110.816406 88.285156 C 110.148438 88.761719 109.722656 89.214844 109.542969 89.644531 C 109.359375 90.023438 109.257812 90.445312 109.246094 90.902344 L 113.640625 90.902344 L 113.640625 89.792969 L 110.839844 89.792969 C 110.917969 89.660156 111.015625 89.542969 111.132812 89.445312 C 111.25 89.34375 111.464844 89.179688 111.78125 88.957031 L 112.285156 88.597656 C 112.714844 88.296875 113.019531 88.027344 113.203125 87.78125 C 113.488281 87.414062 113.628906 86.992188 113.628906 86.515625 C 113.628906 85.898438 113.429688 85.398438 113.027344 85.023438 C 112.625 84.648438 112.085938 84.460938 111.40625 84.460938 C 110.546875 84.460938 109.949219 84.78125 109.613281 85.421875 Z M 118.261719 88.804688 C 118.261719 89.402344 118.085938 89.929688 117.726562 90.386719 C 117.371094 90.84375 116.816406 91.070312 116.066406 91.070312 C 115.257812 91.070312 114.660156 90.734375 114.277344 90.058594 C 113.980469 89.53125 113.832031 88.851562 113.832031 88.015625 C 113.832031 87.527344 113.851562 87.128906 113.894531 86.824219 C 113.964844 86.277344 114.109375 85.820312 114.320312 85.460938 C 114.503906 85.148438 114.746094 84.902344 115.039062 84.710938 C 115.335938 84.523438 115.691406 84.429688 116.105469 84.429688 C 116.699219 84.429688 117.175781 84.582031 117.527344 84.886719 C 117.882812 85.191406 118.082031 85.597656 118.125 86.105469 L 116.867188 86.105469 C 116.867188 86.003906 116.828125 85.886719 116.75 85.765625 C 116.613281 85.5625 116.410156 85.464844 116.136719 85.464844 C 115.726562 85.464844 115.433594 85.695312 115.257812 86.152344 C 115.164062 86.40625 115.101562 86.78125 115.0625 87.277344 C 115.222656 87.089844 115.402344 86.957031 115.609375 86.871094 C 115.816406 86.785156 116.050781 86.742188 116.316406 86.742188 C 116.886719 86.742188 117.351562 86.933594 117.714844 87.320312 C 118.082031 87.707031 118.261719 88.203125 118.261719 88.804688 Z M 116.984375 88.910156 C 116.984375 88.535156 116.894531 88.246094 116.710938 88.050781 C 116.527344 87.851562 116.300781 87.75 116.039062 87.75 C 115.824219 87.75 115.632812 87.816406 115.46875 87.945312 C 115.21875 88.136719 115.097656 88.445312 115.097656 88.875 C 115.097656 89.21875 115.1875 89.5 115.375 89.71875 C 115.558594 89.9375 115.796875 90.046875 116.082031 90.046875 C 116.363281 90.046875 116.582031 89.941406 116.742188 89.730469 C 116.902344 89.519531 116.984375 89.246094 116.984375 88.910156 Z M 190.769531 90.046875 C 190.496094 90.046875 190.292969 89.972656 190.148438 89.820312 C 190.007812 89.671875 189.914062 89.460938 189.863281 89.1875 L 188.609375 89.1875 C 188.652344 89.789062 188.867188 90.253906 189.261719 90.582031 C 189.652344 90.910156 190.152344 91.070312 190.761719 91.070312 C 191.519531 91.070312 192.089844 90.839844 192.46875 90.375 C 192.847656 89.90625 193.039062 89.378906 193.039062 88.785156 C 193.039062 88.105469 192.839844 87.585938 192.449219 87.230469 C 192.050781 86.871094 191.589844 86.695312 191.058594 86.695312 C 190.796875 86.695312 190.574219 86.726562 190.394531 86.792969 C 190.285156 86.835938 190.132812 86.921875 189.9375 87.046875 L 190.167969 85.644531 L 192.785156 85.644531 L 192.785156 84.574219 L 189.257812 84.574219 L 188.808594 88.117188 L 189.9375 88.171875 C 190.039062 87.980469 190.1875 87.847656 190.382812 87.777344 C 190.496094 87.738281 190.628906 87.71875 190.78125 87.71875 C 191.105469 87.71875 191.34375 87.832031 191.496094 88.058594 C 191.648438 88.28125 191.726562 88.558594 191.726562 88.886719 C 191.726562 89.222656 191.644531 89.496094 191.480469 89.714844 C 191.316406 89.9375 191.082031 90.046875 190.769531 90.046875 Z M 197.6875 88.539062 L 197.6875 89.523438 L 196.964844 89.523438 L 196.964844 90.902344 L 195.730469 90.902344 L 195.730469 89.523438 L 193.191406 89.523438 L 193.191406 88.421875 L 195.546875 84.53125 L 196.964844 84.53125 L 196.964844 88.539062 Z M 195.730469 85.777344 L 194.128906 88.539062 L 195.730469 88.539062 Z M 224.214844 88.285156 C 223.546875 88.761719 223.121094 89.214844 222.941406 89.644531 C 222.757812 90.023438 222.65625 90.445312 222.648438 90.902344 L 227.039062 90.902344 L 227.039062 89.792969 L 224.238281 89.792969 C 224.316406 89.660156 224.417969 89.542969 224.53125 89.445312 C 224.648438 89.34375 224.867188 89.179688 225.179688 88.957031 L 225.6875 88.597656 C 226.113281 88.296875 226.417969 88.027344 226.605469 87.78125 C 226.886719 87.414062 227.027344 86.992188 227.027344 86.515625 C 227.027344 85.898438 226.828125 85.398438 226.425781 85.023438 C 226.023438 84.648438 225.484375 84.460938 224.808594 84.460938 C 223.949219 84.460938 223.351562 84.78125 223.015625 85.421875 C 222.835938 85.757812 222.738281 86.195312 222.71875 86.742188 L 223.941406 86.742188 C 223.957031 86.382812 224.003906 86.121094 224.085938 85.957031 C 224.222656 85.667969 224.484375 85.527344 224.867188 85.527344 C 225.148438 85.527344 225.363281 85.617188 225.511719 85.796875 C 225.664062 85.976562 225.738281 86.199219 225.738281 86.472656 C 225.738281 86.804688 225.605469 87.113281 225.34375 87.390625 C 225.171875 87.570312 224.796875 87.871094 224.214844 88.285156 Z M 224.214844 88.285156 " fill-opacity="1" fill-rule="nonzero"/></g></svg>