<svg xmlns="http://www.w3.org/2000/svg" xmlns:xlink="http://www.w3.org/1999/xlink" width="150" zoomAndPan="magnify" viewBox="0 0 112.5 112.499997" height="150" preserveAspectRatio="xMidYMid meet" version="1.0"><defs><clipPath id="404804fdf1"><path d="M 11.199219 11.199219 L 100.800781 11.199219 L 100.800781 100.800781 L 11.199219 100.800781 Z M 11.199219 11.199219 " clip-rule="nonzero"/></clipPath></defs><g clip-path="url(#404804fdf1)"><path fill="#000000" d="M 41.066406 3.734375 L 63.46875 3.734375 L 63.46875 18.667969 L 41.066406 18.667969 Z M 70.933594 3.734375 L 93.335938 3.734375 L 93.335938 18.667969 L 70.933594 18.667969 Z M 108.269531 11.199219 L 108.269531 33.601562 L 93.335938 33.601562 L 93.335938 11.199219 Z M 108.269531 41.066406 L 108.269531 63.46875 L 93.335938 63.46875 L 93.335938 41.066406 Z M 108.269531 70.933594 L 108.269531 93.335938 L 93.335938 93.335938 L 93.335938 70.933594 Z M 100.800781 108.269531 L 78.402344 108.269531 L 78.402344 93.335938 L 100.800781 93.335938 Z M 70.933594 108.269531 L 48.535156 108.269531 L 48.535156 93.335938 L 70.933594 93.335938 Z M 41.066406 108.269531 L 18.667969 108.269531 L 18.667969 93.335938 L 41.066406 93.335938 Z M 3.734375 100.800781 L 3.734375 78.402344 L 18.667969 78.402344 L 18.667969 100.800781 Z M 3.734375 70.933594 L 3.734375 48.535156 L 18.667969 48.535156 L 18.667969 70.933594 Z M 3.734375 41.066406 L 3.734375 18.667969 L 18.667969 18.667969 L 18.667969 41.066406 Z M 11.199219 3.734375 L 33.601562 3.734375 L 33.601562 18.667969 L 11.199219 18.667969 Z M 11.199219 3.734375 " fill-opacity="1" fill-rule="nonzero"/></g></svg>