<?xml version="1.0" encoding="utf-8"?>
<svg viewBox="0 0 512 512" xmlns="http://www.w3.org/2000/svg">
  <g fill="#000000" fill-opacity="1" transform="matrix(1.3976730108261106, 0, 0, 1.3984830379486082, -86.41757965087896, 42.70849609374994)">
    <g transform="translate(57.813966, 204.000708)">
      <g>
        <path d="M 81.355469 0 L 81.355469 -40.445312 L 69.933594 -51.714844 L 81.355469 -63.140625 L 81.355469 -102.96875 L 4.015625 -102.96875 L 4.015625 0 Z M 55.574219 -63.140625 L 29.792969 -63.140625 L 29.792969 -79.351562 L 55.574219 -79.351562 Z M 55.574219 -23.464844 L 29.792969 -23.464844 L 29.792969 -40.445312 L 55.574219 -40.445312 Z M 55.574219 -23.464844 "/>
      </g>
    </g>
  </g>
  <g fill="#000000" fill-opacity="1" transform="matrix(1.3976730108261106, 0, 0, 1.3984830379486082, -86.41757965087896, 42.70849609374994)">
    <g transform="translate(143.181379, 204.000708)">
      <g>
        <path d="M 81.355469 0 L 81.355469 -102.96875 L 55.574219 -102.96875 L 55.574219 -23.464844 L 29.792969 -23.464844 L 29.792969 -102.96875 L 4.015625 -102.96875 L 4.015625 0 Z M 81.355469 0 "/>
      </g>
    </g>
  </g>
  <g fill="#000000" fill-opacity="1" transform="matrix(1.3976730108261106, 0, 0, 1.3984830379486082, -86.41757965087896, 42.70849609374994)">
    <g transform="translate(228.548791, 204.000708)">
      <g>
        <path d="M 80.429688 0 L 80.429688 -102.96875 L 54.496094 -102.96875 L 54.496094 -23.464844 L 28.867188 -23.464844 L 28.867188 -40.445312 L 3.085938 -40.445312 L 3.085938 0 Z M 80.429688 0 "/>
      </g>
    </g>
  </g>
  <g fill="#000000" fill-opacity="1" transform="matrix(1.3976730108261106, 0, 0, 1.3984830379486082, -86.41757965087896, 42.70849609374994)">
    <g transform="translate(312.989995, 204.000708)">
      <g>
        <path d="M 29.792969 0 L 29.792969 -102.96875 L 4.015625 -102.96875 L 4.015625 0 Z M 29.792969 0 "/>
      </g>
    </g>
  </g>
  <g fill="#000000" fill-opacity="1" transform="matrix(1.3976730108261106, 0, 0, 1.3984830379486082, -86.41757965087896, 42.70849609374994)">
    <g transform="translate(346.797325, 204.000708)">
      <g>
        <path d="M 81.355469 0 L 81.355469 -102.96875 L 55.574219 -102.96875 L 55.574219 -63.140625 L 29.792969 -63.140625 L 29.792969 -102.96875 L 4.015625 -102.96875 L 4.015625 0 L 29.792969 0 L 29.792969 -40.445312 L 55.574219 -40.445312 L 55.574219 0 Z M 81.355469 0 "/>
      </g>
    </g>
  </g>
</svg>