<svg xmlns="http://www.w3.org/2000/svg" xmlns:xlink="http://www.w3.org/1999/xlink" width="150" zoomAndPan="magnify" viewBox="0 0 112.5 112.499997" height="150" preserveAspectRatio="xMidYMid meet" version="1.0"><defs><clipPath id="90222b8d3e"><path d="M 11.199219 28 L 100 28 L 100 84 L 11.199219 84 Z M 11.199219 28 " clip-rule="nonzero"/></clipPath></defs><g clip-path="url(#90222b8d3e)"><path fill="#000000" d="M 11.199219 39.128906 C 11.199219 36.546875 12.171875 33.984375 14.132812 32.019531 C 18.0625 28.054688 24.460938 28.035156 28.40625 31.964844 L 55.457031 58.863281 L 82.578125 31.738281 C 86.527344 27.792969 92.90625 27.792969 96.851562 31.738281 C 100.800781 35.6875 100.800781 42.066406 96.851562 46.011719 L 62.601562 80.261719 C 58.671875 84.191406 52.296875 84.210938 48.347656 80.28125 L 14.171875 46.273438 C 12.1875 44.308594 11.199219 41.710938 11.199219 39.128906 Z M 11.199219 39.128906 " fill-opacity="1" fill-rule="nonzero"/></g></svg>