<svg xmlns="http://www.w3.org/2000/svg" xmlns:xlink="http://www.w3.org/1999/xlink" width="1096" zoomAndPan="magnify" viewBox="0 0 822 1190.249948" height="1587" preserveAspectRatio="xMidYMid meet" version="1.0"><defs><clipPath id="49ea91f21b"><path d="M 91.140625 906.839844 L 320.496094 906.839844 L 320.496094 998 L 91.140625 998 Z M 91.140625 906.839844 " clip-rule="nonzero"/></clipPath><clipPath id="56a9aa2a26"><path d="M 0.257812 186.277344 L 234.859375 186.277344 L 234.859375 420.878906 L 0.257812 420.878906 Z M 0.257812 186.277344 " clip-rule="nonzero"/></clipPath></defs><g clip-path="url(#49ea91f21b)"><path fill="#031f5c" d="M 94.585938 985.570312 L 91.140625 985.570312 L 91.140625 906.925781 L 94.585938 906.925781 Z M 208.824219 906.925781 L 205.378906 906.925781 L 205.378906 985.570312 L 208.824219 985.570312 Z M 240.394531 906.925781 L 235.273438 906.925781 L 235.273438 985.570312 L 240.394531 985.570312 Z M 258.703125 906.925781 L 251.097656 906.925781 L 251.097656 985.570312 L 258.703125 985.570312 Z M 214.5625 906.925781 L 212.839844 906.925781 L 212.839844 985.570312 L 214.5625 985.570312 Z M 107.738281 906.925781 L 97.167969 906.925781 L 97.167969 985.570312 L 107.738281 985.570312 Z M 114.820312 906.925781 L 113.960938 906.925781 L 113.960938 985.570312 L 114.820312 985.570312 Z M 283.164062 906.925781 L 282.304688 906.925781 L 282.304688 985.570312 L 283.164062 985.570312 Z M 287.964844 906.925781 L 285.449219 906.925781 L 285.449219 985.570312 L 287.964844 985.570312 Z M 183.273438 906.925781 L 182.414062 906.925781 L 182.414062 985.570312 L 183.273438 985.570312 Z M 248.429688 906.925781 L 247.570312 906.925781 L 247.570312 985.570312 L 248.429688 985.570312 Z M 314.164062 906.925781 L 313.304688 906.925781 L 313.304688 985.570312 L 314.164062 985.570312 Z M 171.796875 906.925781 L 170.9375 906.925781 L 170.9375 985.570312 L 171.796875 985.570312 Z M 175.097656 906.925781 L 174.238281 906.925781 L 174.238281 985.570312 L 175.097656 985.570312 Z M 177.394531 906.925781 L 176.964844 906.925781 L 176.964844 985.570312 L 177.394531 985.570312 Z M 291.949219 906.925781 L 291.089844 906.925781 L 291.089844 985.570312 L 291.949219 985.570312 Z M 295.25 906.925781 L 294.386719 906.925781 L 294.386719 985.570312 L 295.25 985.570312 Z M 320.132812 906.925781 L 316.746094 906.925781 L 316.746094 985.570312 L 320.132812 985.570312 Z M 297.546875 906.925781 L 297.113281 906.925781 L 297.113281 985.570312 L 297.546875 985.570312 Z M 219.046875 906.925781 L 218.617188 906.925781 L 218.617188 985.570312 L 219.046875 985.570312 Z M 223.886719 906.925781 L 222.160156 906.925781 L 222.160156 985.570312 L 223.886719 985.570312 Z M 124.40625 906.925781 L 119.128906 906.925781 L 119.128906 985.570312 L 124.40625 985.570312 C 124.40625 985.570312 124.40625 906.925781 124.40625 906.925781 Z M 129.746094 906.925781 L 125.804688 906.925781 L 125.804688 985.570312 L 129.746094 985.570312 C 129.746094 985.570312 129.746094 906.925781 129.746094 906.925781 Z M 229.34375 906.925781 L 225.402344 906.925781 L 225.402344 985.570312 L 229.34375 985.570312 Z M 143.480469 906.925781 L 131.402344 906.925781 L 131.402344 985.570312 L 143.480469 985.570312 Z M 163.226562 906.925781 L 144.753906 906.925781 L 144.753906 985.570312 L 163.226562 985.570312 Z M 279.1875 906.925781 L 260.710938 906.925781 L 260.710938 985.570312 L 279.1875 985.570312 Z M 189.59375 906.925781 L 184.9375 906.925781 L 184.9375 985.570312 L 189.59375 985.570312 Z M 203.367188 906.925781 L 194.824219 906.925781 L 194.824219 985.570312 L 203.367188 985.570312 Z M 169.644531 906.925781 L 164.558594 906.925781 L 164.558594 985.570312 L 169.644531 985.570312 Z M 308.890625 906.925781 L 300.464844 906.925781 L 300.464844 985.570312 L 308.890625 985.570312 Z M 97.070312 994.597656 C 97.070312 995.664062 96.90625 996.484375 96.574219 997.058594 C 96.242188 997.636719 95.664062 997.925781 94.84375 997.925781 C 94.019531 997.925781 93.441406 997.636719 93.109375 997.058594 C 92.78125 996.484375 92.613281 995.664062 92.613281 994.597656 C 92.613281 993.53125 92.78125 992.707031 93.109375 992.128906 C 93.441406 991.550781 94.019531 991.257812 94.84375 991.257812 C 95.664062 991.257812 96.242188 991.550781 96.574219 992.128906 C 96.90625 992.707031 97.070312 993.53125 97.070312 994.597656 Z M 95.761719 994.597656 C 95.761719 993.816406 95.703125 993.242188 95.585938 992.867188 C 95.46875 992.492188 95.21875 992.304688 94.84375 992.304688 C 94.464844 992.304688 94.214844 992.492188 94.09375 992.867188 C 93.972656 993.242188 93.910156 993.816406 93.910156 994.597656 C 93.910156 995.339844 93.972656 995.90625 94.09375 996.300781 C 94.214844 996.695312 94.464844 996.890625 94.84375 996.890625 C 95.21875 996.890625 95.46875 996.695312 95.585938 996.300781 C 95.703125 995.90625 95.761719 995.339844 95.761719 994.597656 Z M 142.097656 995.804688 L 142.605469 995.441406 C 143.035156 995.140625 143.34375 994.867188 143.53125 994.617188 C 143.816406 994.246094 143.957031 993.824219 143.957031 993.34375 C 143.957031 992.71875 143.757812 992.21875 143.351562 991.839844 C 142.949219 991.460938 142.40625 991.273438 141.722656 991.273438 C 140.855469 991.273438 140.253906 991.59375 139.914062 992.238281 C 139.734375 992.578125 139.636719 993.023438 139.613281 993.570312 L 140.851562 993.570312 C 140.863281 993.210938 140.910156 992.945312 140.992188 992.777344 C 141.132812 992.488281 141.394531 992.347656 141.78125 992.347656 C 142.0625 992.347656 142.28125 992.4375 142.429688 992.617188 C 142.582031 992.800781 142.65625 993.027344 142.65625 993.300781 C 142.65625 993.636719 142.527344 993.945312 142.261719 994.226562 C 142.089844 994.40625 141.710938 994.707031 141.125 995.125 C 140.453125 995.609375 140.023438 996.0625 139.839844 996.492188 C 139.65625 996.878906 139.554688 997.300781 139.542969 997.765625 L 143.96875 997.765625 L 143.96875 996.644531 L 141.148438 996.644531 C 141.226562 996.511719 141.328125 996.394531 141.445312 996.292969 C 141.5625 996.191406 141.777344 996.027344 142.097656 995.804688 Z M 148.648438 995.382812 L 148.648438 996.375 L 147.917969 996.375 L 147.917969 997.765625 L 146.675781 997.765625 L 146.675781 996.375 L 144.117188 996.375 L 144.117188 995.265625 L 146.492188 991.34375 L 147.917969 991.34375 L 147.917969 995.382812 Z M 146.675781 992.597656 L 145.0625 995.382812 L 146.675781 995.382812 Z M 150.914062 996.898438 C 150.640625 996.898438 150.433594 996.824219 150.289062 996.675781 C 150.148438 996.523438 150.050781 996.3125 150 996.035156 L 148.738281 996.035156 C 148.78125 996.640625 149 997.109375 149.394531 997.4375 C 149.789062 997.769531 150.292969 997.933594 150.90625 997.933594 C 151.671875 997.933594 152.242188 997.699219 152.625 997.230469 C 153.011719 996.757812 153.199219 996.226562 153.199219 995.628906 C 153.199219 994.941406 153.003906 994.421875 152.605469 994.0625 C 152.207031 993.703125 151.742188 993.523438 151.207031 993.523438 C 150.945312 993.523438 150.71875 993.558594 150.535156 993.625 C 150.425781 993.667969 150.273438 993.75 150.078125 993.878906 L 150.308594 992.464844 L 152.945312 992.464844 L 152.945312 991.390625 L 149.390625 991.390625 L 148.9375 994.957031 L 150.078125 995.011719 C 150.175781 994.816406 150.328125 994.6875 150.527344 994.613281 C 150.636719 994.574219 150.773438 994.554688 150.925781 994.554688 C 151.25 994.554688 151.492188 994.667969 151.648438 994.898438 C 151.800781 995.125 151.878906 995.402344 151.878906 995.730469 C 151.878906 996.066406 151.796875 996.347656 151.632812 996.566406 C 151.46875 996.789062 151.226562 996.898438 150.914062 996.898438 Z M 157.863281 995.648438 C 157.863281 996.25 157.683594 996.78125 157.324219 997.242188 C 156.964844 997.703125 156.40625 997.933594 155.648438 997.933594 C 154.835938 997.933594 154.234375 997.59375 153.851562 996.914062 C 153.550781 996.382812 153.398438 995.695312 153.398438 994.855469 C 153.398438 994.359375 153.417969 993.960938 153.460938 993.652344 C 153.535156 993.101562 153.679688 992.644531 153.894531 992.28125 C 154.078125 991.964844 154.320312 991.714844 154.617188 991.527344 C 154.917969 991.335938 155.273438 991.242188 155.691406 991.242188 C 156.289062 991.242188 156.769531 991.394531 157.125 991.703125 C 157.480469 992.011719 157.683594 992.417969 157.726562 992.929688 L 156.460938 992.929688 C 156.460938 992.824219 156.421875 992.710938 156.339844 992.585938 C 156.203125 992.382812 155.996094 992.285156 155.722656 992.285156 C 155.308594 992.285156 155.015625 992.515625 154.839844 992.980469 C 154.742188 993.234375 154.675781 993.613281 154.640625 994.109375 C 154.800781 993.921875 154.984375 993.785156 155.191406 993.699219 C 155.398438 993.613281 155.636719 993.570312 155.902344 993.570312 C 156.476562 993.570312 156.949219 993.765625 157.3125 994.15625 C 157.679688 994.542969 157.863281 995.042969 157.863281 995.648438 Z M 156.578125 995.753906 C 156.578125 995.378906 156.484375 995.089844 156.300781 994.886719 C 156.117188 994.6875 155.890625 994.585938 155.621094 994.585938 C 155.40625 994.585938 155.214844 994.652344 155.046875 994.78125 C 154.796875 994.976562 154.671875 995.289062 154.671875 995.71875 C 154.671875 996.066406 154.765625 996.351562 154.957031 996.570312 C 155.140625 996.789062 155.378906 996.898438 155.667969 996.898438 C 155.949219 996.898438 156.171875 996.792969 156.332031 996.582031 C 156.496094 996.367188 156.578125 996.09375 156.578125 995.753906 Z M 160.1875 996.890625 C 159.78125 996.890625 159.5 996.734375 159.347656 996.421875 C 159.261719 996.253906 159.222656 996.039062 159.222656 995.78125 L 157.972656 995.78125 C 157.992188 996.296875 158.097656 996.710938 158.285156 997.027344 C 158.640625 997.625 159.277344 997.925781 160.191406 997.925781 C 160.933594 997.925781 161.492188 997.71875 161.871094 997.304688 C 162.25 996.886719 162.4375 996.410156 162.4375 995.863281 C 162.4375 995.339844 162.277344 994.929688 161.953125 994.632812 C 161.734375 994.433594 161.570312 994.332031 161.453125 994.332031 C 161.609375 994.273438 161.753906 994.164062 161.898438 994 C 162.125 993.738281 162.238281 993.417969 162.238281 993.035156 C 162.238281 992.5 162.046875 992.070312 161.671875 991.75 C 161.292969 991.433594 160.792969 991.273438 160.175781 991.273438 C 159.84375 991.273438 159.5625 991.3125 159.335938 991.390625 C 159.105469 991.472656 158.910156 991.589844 158.742188 991.738281 C 158.519531 991.953125 158.359375 992.1875 158.253906 992.441406 C 158.15625 992.726562 158.101562 993.03125 158.089844 993.351562 L 159.273438 993.351562 C 159.269531 993.035156 159.335938 992.78125 159.476562 992.589844 C 159.617188 992.402344 159.835938 992.304688 160.136719 992.304688 C 160.398438 992.304688 160.601562 992.382812 160.742188 992.535156 C 160.886719 992.691406 160.957031 992.890625 160.957031 993.140625 C 160.957031 993.519531 160.820312 993.773438 160.539062 993.898438 C 160.375 993.96875 160.085938 994.011719 159.675781 994.015625 L 159.675781 994.925781 C 160.09375 994.925781 160.402344 994.964844 160.601562 995.046875 C 160.945312 995.1875 161.113281 995.472656 161.113281 995.898438 C 161.113281 996.21875 161.023438 996.464844 160.835938 996.636719 C 160.652344 996.804688 160.433594 996.890625 160.1875 996.890625 Z M 190.917969 995.972656 C 190.917969 996.515625 190.714844 996.980469 190.3125 997.359375 C 189.910156 997.742188 189.347656 997.933594 188.625 997.933594 C 187.902344 997.933594 187.355469 997.742188 186.984375 997.359375 C 186.613281 996.980469 186.425781 996.515625 186.425781 995.972656 C 186.425781 995.609375 186.507812 995.28125 186.671875 994.988281 C 186.835938 994.695312 187.074219 994.472656 187.390625 994.324219 C 187.078125 994.117188 186.875 993.890625 186.78125 993.648438 C 186.6875 993.40625 186.640625 993.179688 186.640625 992.96875 C 186.640625 992.5 186.816406 992.101562 187.171875 991.769531 C 187.527344 991.4375 188.027344 991.273438 188.671875 991.273438 C 189.316406 991.273438 189.816406 991.4375 190.171875 991.769531 C 190.527344 992.101562 190.703125 992.5 190.703125 992.96875 C 190.703125 993.179688 190.65625 993.40625 190.5625 993.648438 C 190.46875 993.890625 190.265625 994.101562 189.953125 994.28125 C 190.273438 994.457031 190.515625 994.695312 190.675781 994.988281 C 190.835938 995.28125 190.917969 995.609375 190.917969 995.972656 Z M 187.855469 993.113281 C 187.855469 993.347656 187.929688 993.539062 188.074219 993.6875 C 188.21875 993.835938 188.417969 993.910156 188.675781 993.910156 C 188.933594 993.910156 189.132812 993.835938 189.273438 993.6875 C 189.417969 993.539062 189.488281 993.347656 189.488281 993.113281 C 189.488281 992.855469 189.417969 992.65625 189.273438 992.511719 C 189.132812 992.367188 188.933594 992.296875 188.675781 992.296875 C 188.417969 992.296875 188.21875 992.367188 188.074219 992.511719 C 187.929688 992.65625 187.855469 992.855469 187.855469 993.113281 Z M 189.605469 995.886719 C 189.605469 995.558594 189.523438 995.308594 189.355469 995.136719 C 189.1875 994.96875 188.960938 994.882812 188.675781 994.882812 C 188.390625 994.882812 188.164062 994.96875 187.996094 995.136719 C 187.828125 995.308594 187.746094 995.558594 187.746094 995.886719 C 187.746094 996.207031 187.828125 996.453125 187.992188 996.628906 C 188.15625 996.804688 188.386719 996.890625 188.675781 996.890625 C 188.964844 996.890625 189.195312 996.804688 189.359375 996.628906 C 189.523438 996.453125 189.605469 996.207031 189.605469 995.886719 Z M 195.574219 995.382812 L 195.574219 996.375 L 194.84375 996.375 L 194.84375 997.765625 L 193.601562 997.765625 L 193.601562 996.375 L 191.042969 996.375 L 191.042969 995.265625 L 193.417969 991.34375 L 194.84375 991.34375 L 194.84375 995.382812 Z M 193.601562 992.597656 L 191.988281 995.382812 L 193.601562 995.382812 Z M 200.195312 994.503906 C 200.195312 995.285156 200.09375 995.9375 199.894531 996.457031 C 199.515625 997.453125 198.816406 997.949219 197.800781 997.949219 C 197.316406 997.949219 196.882812 997.808594 196.496094 997.519531 C 196.109375 997.234375 195.886719 996.816406 195.832031 996.265625 L 197.097656 996.265625 C 197.125 996.457031 197.207031 996.613281 197.339844 996.730469 C 197.46875 996.847656 197.640625 996.910156 197.859375 996.910156 C 198.277344 996.910156 198.574219 996.675781 198.742188 996.214844 C 198.835938 995.957031 198.890625 995.585938 198.914062 995.097656 C 198.800781 995.242188 198.675781 995.351562 198.546875 995.429688 C 198.308594 995.570312 198.015625 995.644531 197.667969 995.644531 C 197.152344 995.644531 196.699219 995.464844 196.300781 995.109375 C 195.902344 994.757812 195.703125 994.242188 195.703125 993.574219 C 195.703125 992.882812 195.902344 992.324219 196.300781 991.894531 C 196.703125 991.464844 197.222656 991.25 197.859375 991.25 C 198.84375 991.25 199.519531 991.683594 199.882812 992.554688 C 200.089844 993.046875 200.195312 993.699219 200.195312 994.503906 Z M 198.871094 993.5 C 198.871094 993.136719 198.785156 992.84375 198.613281 992.632812 C 198.445312 992.417969 198.210938 992.308594 197.914062 992.308594 C 197.695312 992.308594 197.511719 992.371094 197.355469 992.492188 C 197.113281 992.683594 196.992188 993.003906 196.992188 993.460938 C 196.992188 993.84375 197.066406 994.128906 197.226562 994.320312 C 197.378906 994.515625 197.621094 994.609375 197.945312 994.609375 C 198.121094 994.609375 198.285156 994.558594 198.4375 994.457031 C 198.726562 994.273438 198.871094 993.957031 198.871094 993.5 Z M 200.707031 992.238281 C 200.527344 992.578125 200.425781 993.023438 200.40625 993.570312 L 201.640625 993.570312 C 201.65625 993.210938 201.703125 992.945312 201.785156 992.777344 C 201.921875 992.488281 202.1875 992.347656 202.570312 992.347656 C 202.855469 992.347656 203.070312 992.4375 203.222656 992.617188 C 203.375 992.800781 203.449219 993.027344 203.449219 993.300781 C 203.449219 993.636719 203.316406 993.945312 203.054688 994.226562 C 202.882812 994.40625 202.5 994.707031 201.917969 995.125 C 201.242188 995.609375 200.816406 996.0625 200.632812 996.492188 C 200.445312 996.878906 200.347656 997.300781 200.335938 997.765625 L 204.761719 997.765625 L 204.761719 996.644531 L 201.9375 996.644531 C 202.019531 996.511719 202.117188 996.394531 202.234375 996.292969 C 202.351562 996.191406 202.570312 996.027344 202.886719 995.804688 L 203.398438 995.441406 C 203.828125 995.140625 204.136719 994.867188 204.320312 994.617188 C 204.605469 994.246094 204.75 993.824219 204.75 993.34375 C 204.75 992.71875 204.546875 992.21875 204.144531 991.839844 C 203.738281 991.460938 203.195312 991.273438 202.511719 991.273438 C 201.644531 991.273438 201.042969 991.59375 200.707031 992.238281 Z M 209.417969 995.648438 C 209.417969 996.25 209.238281 996.78125 208.878906 997.242188 C 208.519531 997.703125 207.960938 997.933594 207.203125 997.933594 C 206.390625 997.933594 205.789062 997.59375 205.402344 996.914062 C 205.105469 996.382812 204.953125 995.695312 204.953125 994.855469 C 204.953125 994.359375 204.972656 993.960938 205.015625 993.652344 C 205.089844 993.101562 205.234375 992.644531 205.449219 992.28125 C 205.632812 991.964844 205.875 991.714844 206.171875 991.527344 C 206.472656 991.335938 206.828125 991.242188 207.242188 991.242188 C 207.84375 991.242188 208.320312 991.394531 208.679688 991.703125 C 209.035156 992.011719 209.234375 992.417969 209.277344 992.929688 L 208.015625 992.929688 C 208.015625 992.824219 207.972656 992.710938 207.894531 992.585938 C 207.757812 992.382812 207.550781 992.285156 207.277344 992.285156 C 206.863281 992.285156 206.566406 992.515625 206.390625 992.980469 C 206.296875 993.234375 206.230469 993.613281 206.195312 994.109375 C 206.355469 993.921875 206.539062 993.785156 206.746094 993.699219 C 206.953125 993.613281 207.191406 993.570312 207.457031 993.570312 C 208.03125 993.570312 208.5 993.765625 208.867188 994.15625 C 209.234375 994.542969 209.417969 995.042969 209.417969 995.648438 Z M 208.132812 995.753906 C 208.132812 995.378906 208.039062 995.089844 207.851562 994.886719 C 207.671875 994.6875 207.445312 994.585938 207.175781 994.585938 C 206.960938 994.585938 206.769531 994.652344 206.601562 994.78125 C 206.351562 994.976562 206.226562 995.289062 206.226562 995.71875 C 206.226562 996.066406 206.320312 996.351562 206.507812 996.570312 C 206.695312 996.789062 206.933594 996.898438 207.222656 996.898438 C 207.503906 996.898438 207.726562 996.792969 207.886719 996.582031 C 208.050781 996.367188 208.132812 996.09375 208.132812 995.753906 Z M 282.46875 996.898438 C 282.195312 996.898438 281.988281 996.824219 281.84375 996.675781 C 281.703125 996.523438 281.605469 996.3125 281.554688 996.035156 L 280.289062 996.035156 C 280.335938 996.640625 280.554688 997.109375 280.949219 997.4375 C 281.34375 997.769531 281.847656 997.933594 282.460938 997.933594 C 283.226562 997.933594 283.796875 997.699219 284.179688 997.230469 C 284.5625 996.757812 284.753906 996.226562 284.753906 995.628906 C 284.753906 994.941406 284.554688 994.421875 284.160156 994.0625 C 283.761719 993.703125 283.296875 993.523438 282.761719 993.523438 C 282.496094 993.523438 282.273438 993.558594 282.089844 993.625 C 281.980469 993.667969 281.828125 993.75 281.628906 993.878906 L 281.863281 992.464844 L 284.5 992.464844 L 284.5 991.390625 L 280.945312 991.390625 L 280.492188 994.957031 L 281.628906 995.011719 C 281.730469 994.816406 281.882812 994.6875 282.082031 994.613281 C 282.191406 994.574219 282.324219 994.554688 282.480469 994.554688 C 282.804688 994.554688 283.046875 994.667969 283.199219 994.898438 C 283.355469 995.125 283.429688 995.402344 283.429688 995.730469 C 283.429688 996.066406 283.347656 996.347656 283.183594 996.566406 C 283.019531 996.789062 282.78125 996.898438 282.46875 996.898438 Z M 289.441406 995.382812 L 289.441406 996.375 L 288.707031 996.375 L 288.707031 997.765625 L 287.464844 997.765625 L 287.464844 996.375 L 284.910156 996.375 L 284.910156 995.265625 L 287.28125 991.34375 L 288.707031 991.34375 L 288.707031 995.382812 Z M 287.464844 992.597656 L 285.851562 995.382812 L 287.464844 995.382812 Z M 316.164062 995.125 C 315.492188 995.609375 315.0625 996.0625 314.882812 996.492188 C 314.695312 996.878906 314.597656 997.300781 314.585938 997.765625 L 319.007812 997.765625 L 319.007812 996.644531 L 316.1875 996.644531 C 316.269531 996.511719 316.367188 996.394531 316.484375 996.292969 C 316.601562 996.191406 316.820312 996.027344 317.136719 995.804688 L 317.648438 995.441406 C 318.078125 995.140625 318.382812 994.867188 318.570312 994.617188 C 318.855469 994.246094 319 993.824219 319 993.34375 C 319 992.71875 318.796875 992.21875 318.394531 991.839844 C 317.988281 991.460938 317.445312 991.273438 316.761719 991.273438 C 315.894531 991.273438 315.292969 991.59375 314.953125 992.238281 C 314.777344 992.578125 314.675781 993.023438 314.65625 993.570312 L 315.890625 993.570312 C 315.90625 993.210938 315.953125 992.945312 316.035156 992.777344 C 316.171875 992.488281 316.433594 992.347656 316.820312 992.347656 C 317.105469 992.347656 317.320312 992.4375 317.472656 992.617188 C 317.625 992.800781 317.699219 993.027344 317.699219 993.300781 C 317.699219 993.636719 317.566406 993.945312 317.300781 994.226562 C 317.128906 994.40625 316.75 994.707031 316.164062 995.125 Z M 316.164062 995.125 " fill-opacity="1" fill-rule="nonzero"/></g><g clip-path="url(#56a9aa2a26)"><path fill="#031f5c" d="M 190.113281 305.125 L 234.667969 303.492188 L 190.113281 301.859375 C 189.242188 263.066406 157.902344 231.730469 119.109375 230.859375 L 117.476562 186.304688 L 115.84375 230.859375 C 77.050781 231.730469 45.710938 263.066406 44.839844 301.859375 L 0.285156 303.492188 L 44.839844 305.125 C 45.710938 343.921875 77.050781 375.257812 115.84375 376.128906 L 117.476562 420.683594 L 119.109375 376.128906 C 157.902344 375.257812 189.242188 343.921875 190.113281 305.125 Z M 188.332031 301.796875 L 151.144531 300.4375 C 134.496094 299.828125 121.152344 286.472656 120.535156 269.824219 L 119.171875 232.636719 C 156.933594 233.535156 187.433594 264.039062 188.332031 301.796875 Z M 115.78125 232.636719 L 114.417969 269.824219 C 113.8125 286.472656 100.457031 299.820312 83.808594 300.4375 L 46.621094 301.796875 C 47.519531 264.039062 78.019531 233.535156 115.78125 232.636719 Z M 46.621094 305.191406 L 83.808594 306.550781 C 100.457031 307.160156 113.800781 320.515625 114.417969 337.160156 L 115.78125 374.351562 C 78.019531 373.453125 47.519531 342.949219 46.621094 305.191406 Z M 119.171875 374.351562 L 120.535156 337.160156 C 121.140625 320.515625 134.496094 307.167969 151.144531 306.550781 L 188.332031 305.191406 C 187.433594 342.949219 156.933594 373.453125 119.171875 374.351562 Z M 119.171875 374.351562 " fill-opacity="1" fill-rule="nonzero"/></g></svg>