<svg xmlns="http://www.w3.org/2000/svg" xmlns:xlink="http://www.w3.org/1999/xlink" width="1096" zoomAndPan="magnify" viewBox="0 0 822 1190.249948" height="1587" preserveAspectRatio="xMidYMid meet" version="1.0"><defs><clipPath id="2f924a601c"><path d="M 0.257812 186.277344 L 234.859375 186.277344 L 234.859375 420.878906 L 0.257812 420.878906 Z M 0.257812 186.277344 " clip-rule="nonzero"/></clipPath></defs><g clip-path="url(#2f924a601c)"><path fill="#031f5c" d="M 190.113281 305.125 L 234.667969 303.492188 L 190.113281 301.859375 C 189.242188 263.066406 157.902344 231.730469 119.109375 230.859375 L 117.476562 186.304688 L 115.84375 230.859375 C 77.050781 231.730469 45.710938 263.066406 44.839844 301.859375 L 0.285156 303.492188 L 44.839844 305.125 C 45.710938 343.921875 77.050781 375.257812 115.84375 376.128906 L 117.476562 420.683594 L 119.109375 376.128906 C 157.902344 375.257812 189.242188 343.921875 190.113281 305.125 Z M 188.332031 301.796875 L 151.144531 300.4375 C 134.496094 299.828125 121.152344 286.472656 120.535156 269.824219 L 119.171875 232.636719 C 156.933594 233.535156 187.433594 264.039062 188.332031 301.796875 Z M 115.78125 232.636719 L 114.417969 269.824219 C 113.8125 286.472656 100.457031 299.820312 83.808594 300.4375 L 46.621094 301.796875 C 47.519531 264.039062 78.019531 233.535156 115.78125 232.636719 Z M 46.621094 305.191406 L 83.808594 306.550781 C 100.457031 307.160156 113.800781 320.515625 114.417969 337.160156 L 115.78125 374.351562 C 78.019531 373.453125 47.519531 342.949219 46.621094 305.191406 Z M 119.171875 374.351562 L 120.535156 337.160156 C 121.140625 320.515625 134.496094 307.167969 151.144531 306.550781 L 188.332031 305.191406 C 187.433594 342.949219 156.933594 373.453125 119.171875 374.351562 Z M 119.171875 374.351562 " fill-opacity="1" fill-rule="nonzero"/></g></svg>