<svg xmlns="http://www.w3.org/2000/svg" xmlns:xlink="http://www.w3.org/1999/xlink" width="1096" zoomAndPan="magnify" viewBox="0 0 822 1190.249948" height="1587" preserveAspectRatio="xMidYMid meet" version="1.0"><defs><g/><clipPath id="a48b166e79"><path d="M 117.4375 906.839844 L 346.792969 906.839844 L 346.792969 998 L 117.4375 998 Z M 117.4375 906.839844 " clip-rule="nonzero"/></clipPath><clipPath id="2152f56792"><path d="M 0.257812 186.277344 L 234.859375 186.277344 L 234.859375 420.878906 L 0.257812 420.878906 Z M 0.257812 186.277344 " clip-rule="nonzero"/></clipPath></defs><g clip-path="url(#a48b166e79)"><path fill="#031f5c" d="M 120.878906 985.570312 L 117.4375 985.570312 L 117.4375 906.925781 L 120.878906 906.925781 Z M 235.117188 906.925781 L 231.671875 906.925781 L 231.671875 985.570312 L 235.117188 985.570312 Z M 266.691406 906.925781 L 261.566406 906.925781 L 261.566406 985.570312 L 266.691406 985.570312 Z M 285 906.925781 L 277.394531 906.925781 L 277.394531 985.570312 L 285 985.570312 Z M 240.859375 906.925781 L 239.136719 906.925781 L 239.136719 985.570312 L 240.859375 985.570312 Z M 134.03125 906.925781 L 123.464844 906.925781 L 123.464844 985.570312 L 134.03125 985.570312 Z M 141.113281 906.925781 L 140.253906 906.925781 L 140.253906 985.570312 L 141.113281 985.570312 Z M 309.457031 906.925781 L 308.597656 906.925781 L 308.597656 985.570312 L 309.457031 985.570312 Z M 314.261719 906.925781 L 311.742188 906.925781 L 311.742188 985.570312 L 314.261719 985.570312 Z M 209.570312 906.925781 L 208.710938 906.925781 L 208.710938 985.570312 L 209.570312 985.570312 Z M 274.726562 906.925781 L 273.867188 906.925781 L 273.867188 985.570312 L 274.726562 985.570312 Z M 340.460938 906.925781 L 339.601562 906.925781 L 339.601562 985.570312 L 340.460938 985.570312 Z M 198.089844 906.925781 L 197.230469 906.925781 L 197.230469 985.570312 L 198.089844 985.570312 Z M 201.390625 906.925781 L 200.53125 906.925781 L 200.53125 985.570312 L 201.390625 985.570312 Z M 203.6875 906.925781 L 203.257812 906.925781 L 203.257812 985.570312 L 203.6875 985.570312 Z M 318.242188 906.925781 L 317.382812 906.925781 L 317.382812 985.570312 L 318.242188 985.570312 Z M 321.542969 906.925781 L 320.683594 906.925781 L 320.683594 985.570312 L 321.542969 985.570312 Z M 346.429688 906.925781 L 343.039062 906.925781 L 343.039062 985.570312 L 346.429688 985.570312 Z M 323.839844 906.925781 L 323.410156 906.925781 L 323.410156 985.570312 L 323.839844 985.570312 Z M 245.34375 906.925781 L 244.914062 906.925781 L 244.914062 985.570312 L 245.34375 985.570312 Z M 250.179688 906.925781 L 248.453125 906.925781 L 248.453125 985.570312 L 250.179688 985.570312 Z M 150.699219 906.925781 L 145.421875 906.925781 L 145.421875 985.570312 L 150.699219 985.570312 C 150.699219 985.570312 150.699219 906.925781 150.699219 906.925781 Z M 156.042969 906.925781 L 152.101562 906.925781 L 152.101562 985.570312 L 156.042969 985.570312 C 156.042969 985.570312 156.042969 906.925781 156.042969 906.925781 Z M 255.640625 906.925781 L 251.699219 906.925781 L 251.699219 985.570312 L 255.640625 985.570312 Z M 169.773438 906.925781 L 157.695312 906.925781 L 157.695312 985.570312 L 169.773438 985.570312 Z M 189.523438 906.925781 L 171.046875 906.925781 L 171.046875 985.570312 L 189.523438 985.570312 Z M 305.480469 906.925781 L 287.007812 906.925781 L 287.007812 985.570312 L 305.480469 985.570312 Z M 215.886719 906.925781 L 211.230469 906.925781 L 211.230469 985.570312 L 215.886719 985.570312 Z M 229.664062 906.925781 L 221.121094 906.925781 L 221.121094 985.570312 L 229.664062 985.570312 Z M 195.9375 906.925781 L 190.851562 906.925781 L 190.851562 985.570312 L 195.9375 985.570312 Z M 335.1875 906.925781 L 326.761719 906.925781 L 326.761719 985.570312 L 335.1875 985.570312 Z M 123.367188 994.597656 C 123.367188 995.664062 123.199219 996.484375 122.867188 997.058594 C 122.539062 997.636719 121.960938 997.925781 121.136719 997.925781 C 120.316406 997.925781 119.738281 997.636719 119.40625 997.058594 C 119.074219 996.484375 118.910156 995.664062 118.910156 994.597656 C 118.910156 993.53125 119.074219 992.707031 119.40625 992.128906 C 119.738281 991.550781 120.316406 991.257812 121.136719 991.257812 C 121.960938 991.257812 122.539062 991.550781 122.867188 992.128906 C 123.199219 992.707031 123.367188 993.53125 123.367188 994.597656 Z M 122.054688 994.597656 C 122.054688 993.816406 121.996094 993.242188 121.878906 992.867188 C 121.761719 992.492188 121.515625 992.304688 121.136719 992.304688 C 120.761719 992.304688 120.511719 992.492188 120.390625 992.867188 C 120.265625 993.242188 120.207031 993.816406 120.207031 994.597656 C 120.207031 995.339844 120.265625 995.90625 120.390625 996.300781 C 120.511719 996.695312 120.761719 996.890625 121.136719 996.890625 C 121.515625 996.890625 121.761719 996.695312 121.878906 996.300781 C 121.996094 995.90625 122.054688 995.339844 122.054688 994.597656 Z M 168.394531 995.804688 L 168.902344 995.441406 C 169.332031 995.140625 169.640625 994.867188 169.824219 994.617188 C 170.109375 994.246094 170.253906 993.824219 170.253906 993.34375 C 170.253906 992.71875 170.050781 992.21875 169.648438 991.839844 C 169.242188 991.460938 168.699219 991.273438 168.015625 991.273438 C 167.148438 991.273438 166.546875 991.59375 166.210938 992.238281 C 166.03125 992.578125 165.929688 993.023438 165.910156 993.570312 L 167.144531 993.570312 C 167.160156 993.210938 167.207031 992.945312 167.289062 992.777344 C 167.425781 992.488281 167.691406 992.347656 168.074219 992.347656 C 168.359375 992.347656 168.574219 992.4375 168.726562 992.617188 C 168.878906 992.800781 168.953125 993.027344 168.953125 993.300781 C 168.953125 993.636719 168.820312 993.945312 168.558594 994.226562 C 168.386719 994.40625 168.003906 994.707031 167.421875 995.125 C 166.746094 995.609375 166.320312 996.0625 166.136719 996.492188 C 165.949219 996.878906 165.851562 997.300781 165.839844 997.765625 L 170.265625 997.765625 L 170.265625 996.644531 L 167.441406 996.644531 C 167.523438 996.511719 167.621094 996.394531 167.738281 996.292969 C 167.855469 996.191406 168.074219 996.027344 168.394531 995.804688 Z M 174.945312 995.382812 L 174.945312 996.375 L 174.214844 996.375 L 174.214844 997.765625 L 172.96875 997.765625 L 172.96875 996.375 L 170.414062 996.375 L 170.414062 995.265625 L 172.785156 991.34375 L 174.214844 991.34375 L 174.214844 995.382812 Z M 172.96875 992.597656 L 171.359375 995.382812 L 172.96875 995.382812 Z M 177.207031 996.898438 C 176.9375 996.898438 176.726562 996.824219 176.585938 996.675781 C 176.441406 996.523438 176.347656 996.3125 176.296875 996.035156 L 175.03125 996.035156 C 175.074219 996.640625 175.296875 997.109375 175.691406 997.4375 C 176.085938 997.769531 176.589844 997.933594 177.203125 997.933594 C 177.964844 997.933594 178.539062 997.699219 178.921875 997.230469 C 179.304688 996.757812 179.496094 996.226562 179.496094 995.628906 C 179.496094 994.941406 179.296875 994.421875 178.898438 994.0625 C 178.5 993.703125 178.035156 993.523438 177.503906 993.523438 C 177.238281 993.523438 177.015625 993.558594 176.832031 993.625 C 176.722656 993.667969 176.566406 993.75 176.371094 993.878906 L 176.605469 992.464844 L 179.242188 992.464844 L 179.242188 991.390625 L 175.6875 991.390625 L 175.234375 994.957031 L 176.371094 995.011719 C 176.472656 994.816406 176.621094 994.6875 176.820312 994.613281 C 176.933594 994.574219 177.066406 994.554688 177.222656 994.554688 C 177.546875 994.554688 177.789062 994.667969 177.941406 994.898438 C 178.09375 995.125 178.171875 995.402344 178.171875 995.730469 C 178.171875 996.066406 178.089844 996.347656 177.925781 996.566406 C 177.761719 996.789062 177.523438 996.898438 177.207031 996.898438 Z M 184.160156 995.648438 C 184.160156 996.25 183.980469 996.78125 183.621094 997.242188 C 183.261719 997.703125 182.703125 997.933594 181.945312 997.933594 C 181.128906 997.933594 180.53125 997.59375 180.144531 996.914062 C 179.84375 996.382812 179.695312 995.695312 179.695312 994.855469 C 179.695312 994.359375 179.714844 993.960938 179.757812 993.652344 C 179.832031 993.101562 179.976562 992.644531 180.1875 992.28125 C 180.375 991.964844 180.613281 991.714844 180.914062 991.527344 C 181.210938 991.335938 181.570312 991.242188 181.984375 991.242188 C 182.585938 991.242188 183.0625 991.394531 183.417969 991.703125 C 183.777344 992.011719 183.976562 992.417969 184.019531 992.929688 L 182.753906 992.929688 C 182.753906 992.824219 182.714844 992.710938 182.636719 992.585938 C 182.5 992.382812 182.292969 992.285156 182.015625 992.285156 C 181.601562 992.285156 181.308594 992.515625 181.132812 992.980469 C 181.039062 993.234375 180.972656 993.613281 180.9375 994.109375 C 181.09375 993.921875 181.277344 993.785156 181.484375 993.699219 C 181.691406 993.613281 181.929688 993.570312 182.199219 993.570312 C 182.769531 993.570312 183.242188 993.765625 183.609375 994.15625 C 183.976562 994.542969 184.160156 995.042969 184.160156 995.648438 Z M 182.871094 995.753906 C 182.871094 995.378906 182.777344 995.089844 182.59375 994.886719 C 182.410156 994.6875 182.183594 994.585938 181.917969 994.585938 C 181.699219 994.585938 181.511719 994.652344 181.34375 994.78125 C 181.09375 994.976562 180.96875 995.289062 180.96875 995.71875 C 180.96875 996.066406 181.0625 996.351562 181.25 996.570312 C 181.4375 996.789062 181.675781 996.898438 181.964844 996.898438 C 182.246094 996.898438 182.46875 996.792969 182.628906 996.582031 C 182.789062 996.367188 182.871094 996.09375 182.871094 995.753906 Z M 186.480469 996.890625 C 186.074219 996.890625 185.796875 996.734375 185.640625 996.421875 C 185.558594 996.253906 185.515625 996.039062 185.515625 995.78125 L 184.269531 995.78125 C 184.289062 996.296875 184.394531 996.710938 184.582031 997.027344 C 184.9375 997.625 185.570312 997.925781 186.484375 997.925781 C 187.226562 997.925781 187.789062 997.71875 188.164062 997.304688 C 188.542969 996.886719 188.734375 996.410156 188.734375 995.863281 C 188.734375 995.339844 188.570312 994.929688 188.246094 994.632812 C 188.03125 994.433594 187.863281 994.332031 187.746094 994.332031 C 187.902344 994.273438 188.050781 994.164062 188.191406 994 C 188.421875 993.738281 188.53125 993.417969 188.53125 993.035156 C 188.53125 992.5 188.34375 992.070312 187.964844 991.75 C 187.585938 991.433594 187.089844 991.273438 186.472656 991.273438 C 186.140625 991.273438 185.859375 991.3125 185.628906 991.390625 C 185.402344 991.472656 185.203125 991.589844 185.039062 991.738281 C 184.816406 991.953125 184.652344 992.1875 184.546875 992.441406 C 184.449219 992.726562 184.394531 993.03125 184.382812 993.351562 L 185.570312 993.351562 C 185.5625 993.035156 185.628906 992.78125 185.773438 992.589844 C 185.910156 992.402344 186.132812 992.304688 186.429688 992.304688 C 186.691406 992.304688 186.894531 992.382812 187.039062 992.535156 C 187.183594 992.691406 187.253906 992.890625 187.253906 993.140625 C 187.253906 993.519531 187.113281 993.773438 186.832031 993.898438 C 186.667969 993.96875 186.382812 994.011719 185.96875 994.015625 L 185.96875 994.925781 C 186.390625 994.925781 186.699219 994.964844 186.894531 995.046875 C 187.238281 995.1875 187.410156 995.472656 187.410156 995.898438 C 187.410156 996.21875 187.316406 996.464844 187.132812 996.636719 C 186.945312 996.804688 186.730469 996.890625 186.480469 996.890625 Z M 217.210938 995.972656 C 217.210938 996.515625 217.011719 996.980469 216.605469 997.359375 C 216.207031 997.742188 215.640625 997.933594 214.917969 997.933594 C 214.199219 997.933594 213.648438 997.742188 213.277344 997.359375 C 212.90625 996.980469 212.722656 996.515625 212.722656 995.972656 C 212.722656 995.609375 212.800781 995.28125 212.964844 994.988281 C 213.128906 994.695312 213.371094 994.472656 213.6875 994.324219 C 213.371094 994.117188 213.167969 993.890625 213.074219 993.648438 C 212.980469 993.40625 212.933594 993.179688 212.933594 992.96875 C 212.933594 992.5 213.113281 992.101562 213.464844 991.769531 C 213.820312 991.4375 214.320312 991.273438 214.964844 991.273438 C 215.613281 991.273438 216.113281 991.4375 216.46875 991.769531 C 216.820312 992.101562 217 992.5 217 992.96875 C 217 993.179688 216.949219 993.40625 216.859375 993.648438 C 216.765625 993.890625 216.5625 994.101562 216.25 994.28125 C 216.570312 994.457031 216.808594 994.695312 216.96875 994.988281 C 217.132812 995.28125 217.210938 995.609375 217.210938 995.972656 Z M 214.152344 993.113281 C 214.152344 993.347656 214.222656 993.539062 214.367188 993.6875 C 214.511719 993.835938 214.714844 993.910156 214.96875 993.910156 C 215.226562 993.910156 215.429688 993.835938 215.570312 993.6875 C 215.710938 993.539062 215.78125 993.347656 215.78125 993.113281 C 215.78125 992.855469 215.710938 992.65625 215.570312 992.511719 C 215.429688 992.367188 215.226562 992.296875 214.96875 992.296875 C 214.714844 992.296875 214.511719 992.367188 214.367188 992.511719 C 214.222656 992.65625 214.152344 992.855469 214.152344 993.113281 Z M 215.902344 995.886719 C 215.902344 995.558594 215.816406 995.308594 215.648438 995.136719 C 215.480469 994.96875 215.253906 994.882812 214.96875 994.882812 C 214.683594 994.882812 214.460938 994.96875 214.292969 995.136719 C 214.125 995.308594 214.039062 995.558594 214.039062 995.886719 C 214.039062 996.207031 214.121094 996.453125 214.285156 996.628906 C 214.453125 996.804688 214.679688 996.890625 214.96875 996.890625 C 215.261719 996.890625 215.488281 996.804688 215.65625 996.628906 C 215.820312 996.453125 215.902344 996.207031 215.902344 995.886719 Z M 221.871094 995.382812 L 221.871094 996.375 L 221.140625 996.375 L 221.140625 997.765625 L 219.898438 997.765625 L 219.898438 996.375 L 217.339844 996.375 L 217.339844 995.265625 L 219.714844 991.34375 L 221.140625 991.34375 L 221.140625 995.382812 Z M 219.898438 992.597656 L 218.285156 995.382812 L 219.898438 995.382812 Z M 226.488281 994.503906 C 226.488281 995.285156 226.390625 995.9375 226.191406 996.457031 C 225.808594 997.453125 225.113281 997.949219 224.097656 997.949219 C 223.613281 997.949219 223.175781 997.808594 222.789062 997.519531 C 222.40625 997.234375 222.183594 996.816406 222.128906 996.265625 L 223.394531 996.265625 C 223.421875 996.457031 223.503906 996.613281 223.632812 996.730469 C 223.765625 996.847656 223.9375 996.910156 224.15625 996.910156 C 224.574219 996.910156 224.867188 996.675781 225.035156 996.214844 C 225.128906 995.957031 225.1875 995.585938 225.210938 995.097656 C 225.09375 995.242188 224.972656 995.351562 224.839844 995.429688 C 224.601562 995.570312 224.3125 995.644531 223.964844 995.644531 C 223.449219 995.644531 222.992188 995.464844 222.59375 995.109375 C 222.199219 994.757812 222 994.242188 222 993.574219 C 222 992.882812 222.199219 992.324219 222.597656 991.894531 C 222.996094 991.464844 223.515625 991.25 224.15625 991.25 C 225.136719 991.25 225.8125 991.683594 226.175781 992.554688 C 226.386719 993.046875 226.488281 993.699219 226.488281 994.503906 Z M 225.164062 993.5 C 225.164062 993.136719 225.082031 992.84375 224.910156 992.632812 C 224.738281 992.417969 224.503906 992.308594 224.207031 992.308594 C 223.992188 992.308594 223.804688 992.371094 223.652344 992.492188 C 223.40625 992.683594 223.285156 993.003906 223.285156 993.460938 C 223.285156 993.84375 223.363281 994.128906 223.519531 994.320312 C 223.675781 994.515625 223.914062 994.609375 224.238281 994.609375 C 224.414062 994.609375 224.578125 994.558594 224.734375 994.457031 C 225.023438 994.273438 225.164062 993.957031 225.164062 993.5 Z M 227 992.238281 C 226.824219 992.578125 226.722656 993.023438 226.703125 993.570312 L 227.9375 993.570312 C 227.949219 993.210938 227.996094 992.945312 228.078125 992.777344 C 228.21875 992.488281 228.480469 992.347656 228.867188 992.347656 C 229.148438 992.347656 229.367188 992.4375 229.515625 992.617188 C 229.667969 992.800781 229.742188 993.027344 229.742188 993.300781 C 229.742188 993.636719 229.613281 993.945312 229.347656 994.226562 C 229.175781 994.40625 228.796875 994.707031 228.210938 995.125 C 227.539062 995.609375 227.109375 996.0625 226.929688 996.492188 C 226.742188 996.878906 226.640625 997.300781 226.628906 997.765625 L 231.054688 997.765625 L 231.054688 996.644531 L 228.234375 996.644531 C 228.3125 996.511719 228.414062 996.394531 228.53125 996.292969 C 228.648438 996.191406 228.867188 996.027344 229.183594 995.804688 L 229.691406 995.441406 C 230.121094 995.140625 230.429688 994.867188 230.617188 994.617188 C 230.902344 994.246094 231.042969 993.824219 231.042969 993.34375 C 231.042969 992.71875 230.84375 992.21875 230.4375 991.839844 C 230.035156 991.460938 229.492188 991.273438 228.808594 991.273438 C 227.941406 991.273438 227.339844 991.59375 227 992.238281 Z M 235.714844 995.648438 C 235.714844 996.25 235.535156 996.78125 235.175781 997.242188 C 234.8125 997.703125 234.253906 997.933594 233.5 997.933594 C 232.683594 997.933594 232.085938 997.59375 231.699219 996.914062 C 231.398438 996.382812 231.25 995.695312 231.25 994.855469 C 231.25 994.359375 231.269531 993.960938 231.3125 993.652344 C 231.382812 993.101562 231.527344 992.644531 231.742188 992.28125 C 231.925781 991.964844 232.167969 991.714844 232.46875 991.527344 C 232.765625 991.335938 233.121094 991.242188 233.539062 991.242188 C 234.136719 991.242188 234.617188 991.394531 234.972656 991.703125 C 235.328125 992.011719 235.53125 992.417969 235.574219 992.929688 L 234.308594 992.929688 C 234.308594 992.824219 234.269531 992.710938 234.1875 992.585938 C 234.054688 992.382812 233.84375 992.285156 233.570312 992.285156 C 233.15625 992.285156 232.863281 992.515625 232.6875 992.980469 C 232.59375 993.234375 232.527344 993.613281 232.492188 994.109375 C 232.648438 993.921875 232.832031 993.785156 233.039062 993.699219 C 233.246094 993.613281 233.484375 993.570312 233.753906 993.570312 C 234.324219 993.570312 234.796875 993.765625 235.164062 994.15625 C 235.53125 994.542969 235.714844 995.042969 235.714844 995.648438 Z M 234.425781 995.753906 C 234.425781 995.378906 234.332031 995.089844 234.148438 994.886719 C 233.964844 994.6875 233.738281 994.585938 233.472656 994.585938 C 233.253906 994.585938 233.0625 994.652344 232.898438 994.78125 C 232.648438 994.976562 232.523438 995.289062 232.523438 995.71875 C 232.523438 996.066406 232.617188 996.351562 232.804688 996.570312 C 232.988281 996.789062 233.226562 996.898438 233.515625 996.898438 C 233.796875 996.898438 234.019531 996.792969 234.183594 996.582031 C 234.34375 996.367188 234.425781 996.09375 234.425781 995.753906 Z M 308.761719 996.898438 C 308.488281 996.898438 308.28125 996.824219 308.140625 996.675781 C 307.996094 996.523438 307.902344 996.3125 307.851562 996.035156 L 306.585938 996.035156 C 306.628906 996.640625 306.847656 997.109375 307.242188 997.4375 C 307.636719 997.769531 308.144531 997.933594 308.757812 997.933594 C 309.519531 997.933594 310.09375 997.699219 310.476562 997.230469 C 310.859375 996.757812 311.050781 996.226562 311.050781 995.628906 C 311.050781 994.941406 310.851562 994.421875 310.453125 994.0625 C 310.054688 993.703125 309.589844 993.523438 309.054688 993.523438 C 308.792969 993.523438 308.570312 993.558594 308.382812 993.625 C 308.273438 993.667969 308.121094 993.75 307.925781 993.878906 L 308.15625 992.464844 L 310.796875 992.464844 L 310.796875 991.390625 L 307.242188 991.390625 L 306.789062 994.957031 L 307.925781 995.011719 C 308.027344 994.816406 308.175781 994.6875 308.375 994.613281 C 308.488281 994.574219 308.621094 994.554688 308.773438 994.554688 C 309.101562 994.554688 309.339844 994.667969 309.496094 994.898438 C 309.648438 995.125 309.726562 995.402344 309.726562 995.730469 C 309.726562 996.066406 309.644531 996.347656 309.480469 996.566406 C 309.316406 996.789062 309.078125 996.898438 308.761719 996.898438 Z M 315.734375 995.382812 L 315.734375 996.375 L 315.003906 996.375 L 315.003906 997.765625 L 313.761719 997.765625 L 313.761719 996.375 L 311.203125 996.375 L 311.203125 995.265625 L 313.578125 991.34375 L 315.003906 991.34375 L 315.003906 995.382812 Z M 313.761719 992.597656 L 312.148438 995.382812 L 313.761719 995.382812 Z M 342.460938 995.125 C 341.789062 995.609375 341.359375 996.0625 341.175781 996.492188 C 340.992188 996.878906 340.890625 997.300781 340.878906 997.765625 L 345.304688 997.765625 L 345.304688 996.644531 L 342.484375 996.644531 C 342.5625 996.511719 342.664062 996.394531 342.78125 996.292969 C 342.898438 996.191406 343.113281 996.027344 343.433594 995.804688 L 343.941406 995.441406 C 344.371094 995.140625 344.679688 994.867188 344.867188 994.617188 C 345.152344 994.246094 345.292969 993.824219 345.292969 993.34375 C 345.292969 992.71875 345.09375 992.21875 344.6875 991.839844 C 344.285156 991.460938 343.738281 991.273438 343.054688 991.273438 C 342.191406 991.273438 341.589844 991.59375 341.25 992.238281 C 341.070312 992.578125 340.972656 993.023438 340.949219 993.570312 L 342.1875 993.570312 C 342.199219 993.210938 342.246094 992.945312 342.328125 992.777344 C 342.46875 992.488281 342.730469 992.347656 343.117188 992.347656 C 343.398438 992.347656 343.617188 992.4375 343.765625 992.617188 C 343.917969 992.800781 343.992188 993.027344 343.992188 993.300781 C 343.992188 993.636719 343.863281 993.945312 343.597656 994.226562 C 343.425781 994.40625 343.046875 994.707031 342.460938 995.125 Z M 342.460938 995.125 " fill-opacity="1" fill-rule="nonzero"/></g><g clip-path="url(#2152f56792)"><path fill="#031f5c" d="M 190.113281 305.125 L 234.667969 303.492188 L 190.113281 301.859375 C 189.242188 263.066406 157.902344 231.730469 119.109375 230.859375 L 117.476562 186.304688 L 115.84375 230.859375 C 77.050781 231.730469 45.710938 263.066406 44.839844 301.859375 L 0.285156 303.492188 L 44.839844 305.125 C 45.710938 343.921875 77.050781 375.257812 115.84375 376.128906 L 117.476562 420.683594 L 119.109375 376.128906 C 157.902344 375.257812 189.242188 343.921875 190.113281 305.125 Z M 188.332031 301.796875 L 151.144531 300.4375 C 134.496094 299.828125 121.152344 286.472656 120.535156 269.824219 L 119.171875 232.636719 C 156.933594 233.535156 187.433594 264.039062 188.332031 301.796875 Z M 115.78125 232.636719 L 114.417969 269.824219 C 113.8125 286.472656 100.457031 299.820312 83.808594 300.4375 L 46.621094 301.796875 C 47.519531 264.039062 78.019531 233.535156 115.78125 232.636719 Z M 46.621094 305.191406 L 83.808594 306.550781 C 100.457031 307.160156 113.800781 320.515625 114.417969 337.160156 L 115.78125 374.351562 C 78.019531 373.453125 47.519531 342.949219 46.621094 305.191406 Z M 119.171875 374.351562 L 120.535156 337.160156 C 121.140625 320.515625 134.496094 307.167969 151.144531 306.550781 L 188.332031 305.191406 C 187.433594 342.949219 156.933594 373.453125 119.171875 374.351562 Z M 119.171875 374.351562 " fill-opacity="1" fill-rule="nonzero"/></g><g fill="#031f5c" fill-opacity="1"><g transform="translate(436.337591, 981.639522)"><g><path d="M 50.558594 0 L 50.558594 -25.136719 L 43.460938 -32.140625 L 50.558594 -39.238281 L 50.558594 -63.992188 L 2.496094 -63.992188 L 2.496094 0 Z M 34.539062 -39.238281 L 18.515625 -39.238281 L 18.515625 -49.3125 L 34.539062 -49.3125 Z M 34.539062 -14.582031 L 18.515625 -14.582031 L 18.515625 -25.136719 L 34.539062 -25.136719 Z M 34.539062 -14.582031 "/></g></g></g><g fill="#031f5c" fill-opacity="1"><g transform="translate(489.392165, 981.639522)"><g><path d="M 50.558594 0 L 50.558594 -63.992188 L 34.539062 -63.992188 L 34.539062 -14.582031 L 18.515625 -14.582031 L 18.515625 -63.992188 L 2.496094 -63.992188 L 2.496094 0 Z M 50.558594 0 "/></g></g></g><g fill="#031f5c" fill-opacity="1"><g transform="translate(542.446738, 981.639522)"><g><path d="M 49.984375 0 L 49.984375 -63.992188 L 33.867188 -63.992188 L 33.867188 -14.582031 L 17.941406 -14.582031 L 17.941406 -25.136719 L 1.917969 -25.136719 L 1.917969 0 Z M 49.984375 0 "/></g></g><g transform="translate(594.925669, 981.639522)"><g><path d="M 18.515625 0 L 18.515625 -63.992188 L 2.496094 -63.992188 L 2.496094 0 Z M 18.515625 0 "/></g></g><g transform="translate(615.936429, 981.639522)"><g><path d="M 50.558594 0 L 50.558594 -63.992188 L 34.539062 -63.992188 L 34.539062 -39.238281 L 18.515625 -39.238281 L 18.515625 -63.992188 L 2.496094 -63.992188 L 2.496094 0 L 18.515625 0 L 18.515625 -25.136719 L 34.539062 -25.136719 L 34.539062 0 Z M 50.558594 0 "/></g></g></g></svg>