<svg xmlns="http://www.w3.org/2000/svg" xmlns:xlink="http://www.w3.org/1999/xlink" width="150" zoomAndPan="magnify" viewBox="0 0 112.5 112.499997" height="150" preserveAspectRatio="xMidYMid meet" version="1.0"><defs><clipPath id="c01b86c5c6"><path d="M 10.625 4.65625 L 101.71875 4.65625 L 101.71875 107.695312 L 10.625 107.695312 Z M 10.625 4.65625 " clip-rule="nonzero"/></clipPath></defs><g clip-path="url(#c01b86c5c6)"><path fill="#000000" d="M 53.257812 22.484375 C 58.914062 26.085938 62.859375 32.085938 63.546875 38.945312 C 65.777344 39.972656 68.347656 40.660156 71.09375 40.660156 C 81.039062 40.660156 89.101562 32.601562 89.101562 22.65625 C 89.101562 12.714844 81.039062 4.65625 71.09375 4.65625 C 61.316406 4.828125 53.257812 12.714844 53.257812 22.484375 Z M 41.421875 59.175781 C 51.371094 59.175781 59.429688 51.117188 59.429688 41.175781 C 59.429688 31.230469 51.371094 23.171875 41.421875 23.171875 C 31.472656 23.171875 23.414062 31.230469 23.414062 41.175781 C 23.414062 51.117188 31.472656 59.175781 41.421875 59.175781 Z M 48.96875 60.375 L 33.703125 60.375 C 21.011719 60.375 10.722656 70.664062 10.722656 83.351562 L 10.722656 102.382812 L 11.921875 102.726562 C 23.929688 106.496094 34.5625 107.695312 43.136719 107.695312 C 59.945312 107.695312 69.722656 102.898438 70.40625 102.554688 L 71.609375 101.867188 L 71.777344 101.867188 L 71.777344 83.351562 C 71.949219 70.664062 61.660156 60.375 48.96875 60.375 Z M 78.640625 41.859375 L 63.546875 41.859375 C 63.375 47.859375 60.800781 53.347656 56.6875 57.289062 C 68.003906 60.71875 76.238281 71.007812 76.238281 83.351562 L 76.238281 89.007812 C 91.160156 88.496094 99.734375 84.207031 100.25 84.035156 L 101.449219 83.351562 L 101.621094 83.351562 L 101.621094 64.835938 C 101.621094 52.148438 91.332031 41.859375 78.640625 41.859375 Z M 78.640625 41.859375 " fill-opacity="1" fill-rule="nonzero"/></g></svg>