<svg xmlns="http://www.w3.org/2000/svg" xmlns:xlink="http://www.w3.org/1999/xlink" width="150" zoomAndPan="magnify" viewBox="0 0 112.5 112.499997" height="150" preserveAspectRatio="xMidYMid meet" version="1.0"><defs><clipPath id="d7ee984edc"><path d="M 28 11.199219 L 84 11.199219 L 84 100 L 28 100 Z M 28 11.199219 " clip-rule="nonzero"/></clipPath></defs><g clip-path="url(#d7ee984edc)"><path fill="#000000" d="M 72.871094 11.199219 C 75.453125 11.199219 78.015625 12.171875 79.980469 14.136719 C 83.945312 18.066406 83.964844 24.460938 80.035156 28.410156 L 53.136719 55.457031 L 80.261719 82.582031 C 84.207031 86.53125 84.207031 92.90625 80.261719 96.855469 C 76.3125 100.800781 69.933594 100.800781 65.988281 96.855469 L 31.738281 62.605469 C 27.808594 58.675781 27.789062 52.296875 31.71875 48.351562 L 65.726562 14.175781 C 67.691406 12.191406 70.289062 11.199219 72.871094 11.199219 Z M 72.871094 11.199219 " fill-opacity="1" fill-rule="nonzero"/></g></svg>