<svg xmlns="http://www.w3.org/2000/svg" version="1.0" width="774.000000pt" height="1024.000000pt" viewBox="0 0 774.000000 1024.000000" preserveAspectRatio="xMidYMid meet">
<g transform="translate(0.000000,1024.000000) scale(0.100000,-0.100000)" fill="#000000" stroke="none">
<path id="path" d="M3686 10125 c-3 -9 -6 -46 -6 -82 0 -58 -2 -65 -17 -60 -10 4 -49 18 -88 31 -117 42 -205 29 -245 -36 -11 -18 -21 -36 -22 -40 -3 -7 -172 53 -185 65 -11 12 -23 8 -23 -8 0 -9 14 -43 31 -76 17 -34 27 -59 22 -57 -4 2 -41 20 -81 41 -184 95 -370 84 -521 -30 l-34 -26 7 24 c13 42 19 216 9 222 -9 5 -142 -148 -208 -238 -13 -19 -14 -17 -15 27 0 55 -18 146 -30 153 -10 6 -71 -75 -108 -144 l-27 -48 -70 28 c-96 38 -187 52 -318 47 -102 -4 -121 -7 -206 -42 -90 -36 -97 -38 -154 -29 -56 9 -88 7 -144 -11 -21 -7 -23 -4 -23 28 0 20 -2 36 -4 36 -2 0 -25 -9 -51 -21 -56 -25 -67 -19 -34 17 30 33 78 54 124 54 19 0 35 3 35 8 0 4 -26 23 -58 42 -51 31 -66 35 -144 38 -76 4 -94 1 -142 -21 -88 -41 -122 -72 -161 -149 -19 -39 -35 -79 -35 -89 0 -10 -3 -20 -8 -23 -19 -11 -140 63 -200 122 -35 35 -65 62 -66 60 -9 -11 -28 -73 -41 -128 -19 -85 -19 -203 1 -269 8 -29 14 -55 12 -57 -2 -2 -25 3 -51 11 -26 8 -47 12 -47 9 0 -3 15 -33 34 -67 47 -84 79 -160 63 -150 -6 4 -27 17 -46 30 -21 14 -49 23 -73 23 l-38 0 44 -55 c51 -62 66 -105 66 -187 0 -56 -15 -86 -26 -51 -16 54 -40 107 -50 110 -7 2 -19 -46 -33 -129 -20 -122 -21 -137 -7 -176 8 -23 11 -42 7 -42 -5 0 -33 21 -61 47 l-53 48 5 -68 c8 -93 44 -162 119 -231 l61 -55 -29 -15 c-59 -30 -213 -223 -213 -267 0 -5 18 2 40 17 34 22 46 25 87 19 76 -10 82 -20 25 -39 -65 -22 -97 -47 -125 -99 -19 -36 -22 -58 -22 -152 0 -96 4 -120 28 -187 16 -42 46 -106 67 -141 34 -56 38 -69 30 -95 -22 -79 -22 -157 0 -245 20 -79 21 -93 10 -152 -14 -73 -7 -190 16 -264 8 -25 14 -49 14 -53 0 -3 -34 -4 -75 -1 -41 3 -75 4 -75 1 0 -3 23 -19 51 -36 l50 -32 -39 -37 c-52 -50 -70 -126 -52 -217 12 -65 12 -69 10 -186 -1 -86 10 -123 48 -163 l26 -27 -34 -68 c-34 -67 -48 -140 -36 -186 4 -17 15 -26 36 -31 28 -6 30 -10 30 -49 0 -43 46 -152 74 -175 11 -10 7 -32 -25 -129 -51 -157 -50 -245 8 -390 23 -56 24 -65 10 -80 -32 -37 -47 -82 -47 -143 l0 -61 -40 36 c-64 58 -69 51 -45 -52 18 -75 60 -164 109 -228 l35 -46 -25 -66 c-23 -61 -25 -78 -22 -182 3 -67 10 -125 17 -139 11 -21 10 -27 -18 -60 -43 -51 -98 -148 -121 -216 -29 -86 -27 -204 5 -272 13 -29 22 -53 18 -53 -3 0 -38 32 -79 72 -41 39 -74 66 -74 59 0 -24 71 -205 101 -257 27 -49 102 -127 162 -170 l29 -20 -27 -49 c-24 -44 -26 -58 -22 -120 2 -38 15 -97 27 -130 14 -37 22 -79 22 -110 -1 -27 -3 -126 -5 -220 -3 -93 -9 -181 -15 -195 -5 -14 -28 -65 -50 -115 -52 -118 -62 -171 -62 -320 0 -106 2 -125 15 -125 9 0 18 8 21 18 12 36 57 143 60 140 1 -2 7 -41 12 -88 8 -76 28 -133 80 -232 2 -4 -9 -10 -25 -14 -49 -11 -110 -52 -160 -108 -54 -62 -109 -148 -118 -188 -10 -38 8 -37 95 7 38 19 72 35 74 35 2 0 -4 -25 -15 -55 -21 -62 -24 -114 -8 -201 17 -99 17 -99 41 -77 11 10 31 37 45 60 14 24 28 43 32 43 3 0 12 -13 19 -29 7 -16 41 -61 77 -101 l63 -73 -19 -27 c-11 -14 -21 -43 -22 -63 -1 -20 -3 -37 -5 -37 -16 0 -67 38 -110 84 l-53 56 7 -47 c10 -73 52 -202 85 -261 l30 -53 -28 -22 c-42 -33 -84 -79 -94 -104 -9 -24 -31 -324 -24 -332 3 -2 22 7 42 21 23 15 61 28 93 32 117 15 259 81 282 131 13 29 30 32 49 9 22 -27 56 -34 111 -24 l51 10 63 -60 c85 -82 151 -111 263 -117 71 -4 104 0 188 21 56 14 118 26 137 26 46 0 46 12 -1 41 l-37 23 29 7 c107 26 157 28 222 11 l65 -17 -6 -42 c-6 -46 9 -58 35 -27 27 33 91 54 206 69 77 11 130 23 152 36 18 11 35 18 37 17 1 -2 -11 -36 -28 -76 -17 -40 -28 -75 -26 -78 7 -6 160 42 214 67 23 10 45 19 49 19 5 0 29 -17 54 -38 119 -100 237 -123 430 -82 52 11 117 20 144 20 l51 0 -32 33 -32 33 54 35 54 36 106 -22 c95 -20 111 -26 144 -58 45 -43 78 -57 140 -57 44 0 50 -3 96 -56 84 -95 167 -117 265 -68 34 17 65 43 89 75 l36 49 61 0 c64 0 84 9 143 64 28 26 50 34 137 51 l104 20 37 -27 c21 -16 44 -28 51 -28 20 0 16 -14 -12 -40 -34 -32 -32 -40 14 -40 22 0 89 -9 148 -21 188 -37 316 -14 426 76 39 31 58 41 68 34 20 -13 238 -81 249 -77 5 2 -4 36 -20 75 -15 40 -27 73 -25 73 1 0 16 -7 34 -16 17 -8 77 -20 133 -25 103 -10 165 -30 215 -69 39 -30 46 -26 39 24 l-7 44 43 7 c24 4 51 12 61 17 11 6 37 5 70 -1 29 -6 74 -13 100 -16 l49 -6 -41 -27 c-45 -29 -45 -42 2 -42 18 0 75 -12 127 -26 192 -53 350 -19 464 101 l53 55 52 -10 c54 -10 71 -7 112 21 26 18 26 18 47 -11 31 -42 165 -105 254 -120 40 -7 93 -23 117 -36 24 -13 45 -23 47 -21 1 1 -1 72 -5 158 -6 136 -10 161 -30 192 -22 35 -79 91 -100 98 -8 3 -1 24 19 59 35 64 75 184 85 255 l7 50 -49 -51 c-27 -28 -62 -58 -79 -67 l-32 -16 -6 38 c-3 21 -15 49 -25 63 l-20 24 55 59 c31 32 67 79 82 103 29 51 20 55 83 -37 17 -24 34 -39 39 -35 12 13 30 133 30 198 0 31 -7 73 -15 93 -8 19 -15 39 -15 44 0 5 31 -7 70 -26 76 -38 100 -43 100 -20 0 43 -107 205 -164 249 -20 15 -58 37 -84 48 -26 11 -48 22 -50 23 -1 1 11 31 28 66 31 68 50 146 50 211 0 52 13 42 40 -34 29 -80 37 -89 57 -63 12 16 14 42 10 140 -7 139 -12 160 -78 317 l-49 116 0 137 c0 75 -5 167 -11 205 -10 66 -9 74 17 137 18 46 29 92 31 143 4 65 1 81 -20 123 l-24 47 61 50 c73 60 110 104 147 179 33 67 69 165 76 206 5 28 1 25 -70 -42 -41 -40 -77 -73 -80 -73 -3 0 6 26 21 58 23 49 27 70 26 144 0 83 -2 92 -47 182 -26 52 -64 116 -85 143 -38 47 -38 49 -26 91 7 24 16 80 19 125 5 74 3 90 -23 164 l-29 82 40 53 c22 29 53 80 69 114 28 61 56 179 44 191 -4 4 -23 -10 -44 -30 -21 -20 -41 -37 -45 -37 -4 0 -6 26 -6 58 2 62 -12 106 -42 138 -19 21 -19 21 13 95 30 69 32 81 33 189 0 109 -2 120 -37 209 l-37 94 30 36 c31 40 69 135 69 175 0 18 6 25 22 28 58 8 58 99 2 216 l-36 74 25 26 c52 54 71 148 48 230 -7 24 -6 44 5 74 31 88 8 224 -45 265 -37 29 -31 42 31 74 21 11 38 22 38 26 0 3 -36 3 -80 -1 -44 -3 -80 -5 -80 -4 0 2 8 26 17 53 12 38 17 92 18 220 1 94 8 207 15 252 11 67 12 96 2 154 l-12 72 41 76 c107 199 124 382 44 502 -22 34 -43 46 -135 76 -23 7 26 24 77 26 29 1 50 -5 72 -21 42 -31 40 -12 -6 66 -38 65 -116 152 -168 188 l-30 21 62 57 c34 31 71 76 82 99 20 41 47 175 37 184 -3 3 -27 -16 -54 -41 -27 -25 -51 -46 -54 -46 -3 0 -3 31 0 69 5 69 -21 256 -38 274 -7 8 -50 -90 -50 -113 0 -6 -4 -10 -10 -10 -17 0 -22 67 -10 126 15 72 33 109 73 152 l31 32 -33 0 c-17 0 -51 -9 -73 -20 -23 -11 -44 -18 -46 -15 -6 6 35 100 64 147 34 53 31 59 -23 43 -26 -8 -48 -13 -50 -11 -2 1 4 22 12 46 28 79 18 248 -22 373 l-15 47 -61 -64 c-55 -56 -164 -126 -196 -126 -6 0 -15 17 -20 38 -44 160 -213 271 -373 243 -60 -10 -133 -45 -158 -75 -11 -14 -7 -16 36 -16 54 0 105 -25 124 -60 17 -31 9 -33 -41 -10 -59 26 -73 26 -59 -1 13 -23 -4 -54 -22 -43 -25 16 -80 20 -136 12 -57 -9 -67 -7 -155 26 -51 19 -122 40 -157 45 -87 14 -229 -2 -346 -40 -50 -16 -94 -29 -97 -29 -4 0 -16 19 -28 43 -31 61 -101 149 -111 139 -4 -4 -14 -48 -21 -97 l-13 -88 -98 124 c-53 68 -103 124 -109 124 -14 0 -17 -148 -5 -203 l8 -34 -33 22 c-61 41 -142 73 -212 83 -94 14 -202 -8 -308 -62 -43 -22 -76 -34 -74 -28 3 7 15 36 28 65 12 29 19 55 16 58 -6 7 -143 -42 -174 -62 -21 -13 -24 -12 -43 27 -42 82 -157 100 -287 45 l-58 -24 -7 36 c-4 20 -7 56 -7 80 -1 50 -9 52 -36 9 -11 -18 -41 -43 -66 -56 l-46 -25 -47 28 c-26 15 -55 41 -65 57 -15 24 -20 27 -25 14z"/>
</g>
</svg>