<svg xmlns="http://www.w3.org/2000/svg" xmlns:xlink="http://www.w3.org/1999/xlink" width="150" zoomAndPan="magnify" viewBox="0 0 112.5 112.499997" height="150" preserveAspectRatio="xMidYMid meet" version="1.0"><defs><clipPath id="cd30bee3f7"><path d="M 28 12 L 84 12 L 84 100.800781 L 28 100.800781 Z M 28 12 " clip-rule="nonzero"/></clipPath></defs><g clip-path="url(#cd30bee3f7)"><path fill="#000000" d="M 39.125 100.800781 C 36.542969 100.800781 33.980469 99.828125 32.019531 97.863281 C 28.050781 93.9375 28.035156 87.539062 31.960938 83.59375 L 58.859375 56.542969 L 31.738281 29.417969 C 27.789062 25.472656 27.789062 19.09375 31.738281 15.148438 C 35.683594 11.199219 42.0625 11.199219 46.007812 15.148438 L 80.261719 49.398438 C 84.1875 53.324219 84.207031 59.703125 80.277344 63.652344 L 46.273438 97.828125 C 44.308594 99.8125 41.707031 100.800781 39.125 100.800781 Z M 39.125 100.800781 " fill-opacity="1" fill-rule="nonzero"/></g></svg>