<svg xmlns="http://www.w3.org/2000/svg" xmlns:xlink="http://www.w3.org/1999/xlink" width="150" zoomAndPan="magnify" viewBox="0 0 112.5 112.499997" height="150" preserveAspectRatio="xMidYMid meet" version="1.0"><defs><clipPath id="74463702a8"><path d="M 64 64 L 100.800781 64 L 100.800781 100.800781 L 64 100.800781 Z M 64 64 " clip-rule="nonzero"/></clipPath><clipPath id="2dbb556813"><path d="M 13 64 L 50 64 L 50 100.800781 L 13 100.800781 Z M 13 64 " clip-rule="nonzero"/></clipPath><clipPath id="75cd2e9b8e"><path d="M 65 11.199219 L 100 11.199219 L 100 48 L 65 48 Z M 65 11.199219 " clip-rule="nonzero"/></clipPath><clipPath id="e04239f40e"><path d="M 11.199219 11.199219 L 49 11.199219 L 49 49 L 11.199219 49 Z M 11.199219 11.199219 " clip-rule="nonzero"/></clipPath></defs><g clip-path="url(#74463702a8)"><path fill="#000000" d="M 96.703125 68.59375 C 94.359375 68.59375 92.015625 70.347656 92.015625 73.277344 L 92.015625 85.574219 L 72.105469 65.664062 C 70.347656 63.90625 67.421875 63.90625 65.664062 65.664062 C 63.90625 67.421875 63.90625 70.347656 65.664062 72.105469 L 85.574219 92.015625 L 72.105469 92.015625 C 69.761719 92.015625 67.421875 93.1875 67.421875 96.117188 C 67.421875 98.460938 68.59375 100.800781 71.519531 100.800781 C 72.105469 100.800781 72.105469 100.800781 72.691406 100.800781 L 96.117188 100.800781 C 98.460938 100.800781 100.800781 99.046875 100.800781 96.117188 L 100.800781 72.691406 C 100.800781 70.347656 99.046875 68.59375 96.703125 68.59375 Z M 96.703125 68.59375 " fill-opacity="1" fill-rule="nonzero"/></g><g clip-path="url(#2dbb556813)"><path fill="#000000" d="M 45.167969 64.492188 C 43.996094 64.492188 42.824219 65.078125 42.238281 65.664062 L 22.328125 85.574219 L 22.328125 72.691406 C 22.328125 70.347656 19.984375 68.59375 17.640625 68.59375 C 15.886719 68.59375 14.128906 70.347656 13.542969 72.691406 L 13.542969 96.117188 C 13.542969 98.460938 15.300781 100.800781 18.226562 100.800781 L 41.652344 100.800781 C 43.996094 100.800781 46.339844 99.628906 46.339844 96.703125 C 46.339844 94.359375 45.167969 92.015625 42.238281 92.015625 C 41.652344 92.015625 41.652344 92.015625 41.066406 92.015625 L 28.183594 92.015625 L 48.09375 72.105469 C 49.851562 70.347656 49.265625 67.421875 47.507812 65.664062 C 46.921875 65.078125 46.339844 64.492188 45.167969 64.492188 Z M 45.167969 64.492188 " fill-opacity="1" fill-rule="nonzero"/></g><g clip-path="url(#75cd2e9b8e)"><path fill="#000000" d="M 70.347656 46.921875 L 90.261719 27.011719 L 90.261719 39.894531 C 90.261719 42.238281 91.433594 44.582031 94.359375 44.582031 C 96.703125 44.582031 99.046875 43.410156 99.046875 40.480469 C 99.046875 39.894531 99.046875 39.894531 99.046875 39.3125 L 99.046875 15.886719 C 99.046875 13.542969 97.289062 11.199219 94.945312 11.199219 L 71.519531 11.199219 C 69.179688 11.199219 66.835938 12.371094 66.835938 15.300781 C 66.835938 17.640625 68.007812 19.984375 70.933594 19.984375 C 71.519531 19.984375 71.519531 19.984375 72.105469 19.984375 L 85.574219 19.984375 L 65.664062 39.894531 C 64.492188 41.652344 65.078125 44.582031 66.835938 45.753906 C 66.835938 47.507812 68.59375 48.09375 70.347656 46.921875 Z M 70.347656 46.921875 " fill-opacity="1" fill-rule="nonzero"/></g><g clip-path="url(#e04239f40e)"><path fill="#000000" d="M 20.570312 39.894531 L 20.570312 27.011719 L 40.480469 46.921875 C 41.066406 47.507812 42.238281 48.09375 43.410156 48.09375 C 45.753906 48.09375 48.09375 46.339844 48.09375 43.996094 C 48.09375 42.824219 47.507812 41.652344 46.921875 40.480469 L 26.425781 20.570312 L 39.894531 20.570312 C 42.238281 20.570312 44.582031 19.398438 44.582031 16.472656 C 44.582031 14.128906 43.410156 11.785156 40.480469 11.785156 C 39.894531 11.785156 39.894531 11.785156 39.3125 11.785156 L 15.886719 11.785156 C 13.542969 11.785156 11.199219 13.542969 11.199219 15.886719 L 11.199219 39.3125 C 11.199219 41.652344 13.542969 43.410156 15.886719 43.410156 C 18.8125 43.410156 19.984375 41.652344 20.570312 39.894531 Z M 20.570312 39.894531 " fill-opacity="1" fill-rule="nonzero"/></g></svg>