<svg xmlns="http://www.w3.org/2000/svg" xmlns:xlink="http://www.w3.org/1999/xlink" width="256" zoomAndPan="magnify" viewBox="0 0 192 225" height="300" preserveAspectRatio="xMidYMid meet" version="1.0"><defs><clipPath id="02fbcfce72"><path d="M 0.378906 0.0507812 L 191.628906 0.0507812 L 191.628906 225 L 0.378906 225 Z M 0.378906 0.0507812 " clip-rule="nonzero"/></clipPath><clipPath id="4e5a329aeb"><path d="M 79.640625 102.714844 L 107.765625 102.714844 L 107.765625 129.085938 L 79.640625 129.085938 Z M 79.640625 102.714844 " clip-rule="nonzero"/></clipPath></defs><g clip-path="url(#02fbcfce72)"><path fill="#084eaf" d="M 191.675781 112.292969 C 143.851562 112.292969 96.457031 112.539062 96.457031 2.101562 L 96.027344 0.132812 L 96.449219 2.101562 C 96.449219 112.292969 52.882812 112.292969 0.378906 112.292969 L 0.378906 112.539062 C 51.0625 112.539062 96.449219 135.839844 96.449219 224.023438 L 96.027344 224.699219 L 96.457031 224.023438 C 96.457031 128.535156 143.59375 112.539062 191.675781 112.539062 L 190.601562 112.292969 Z M 191.675781 112.292969 " fill-opacity="1" fill-rule="evenodd"/></g><g clip-path="url(#4e5a329aeb)"><path fill="#084eaf" d="M 79.640625 102.714844 L 107.765625 102.714844 L 107.765625 129.085938 L 79.640625 129.085938 Z M 79.640625 102.714844 " fill-opacity="1" fill-rule="nonzero"/></g></svg>