<svg xmlns="http://www.w3.org/2000/svg" xmlns:xlink="http://www.w3.org/1999/xlink" width="150" zoomAndPan="magnify" viewBox="0 0 112.5 112.499997" height="150" preserveAspectRatio="xMidYMid meet" version="1.0"><defs><clipPath id="a1ded43952"><path d="M 0 2.519531 L 112 2.519531 L 112 109.296875 L 0 109.296875 Z M 0 2.519531 " clip-rule="nonzero"/></clipPath></defs><g clip-path="url(#a1ded43952)"><path fill="#000000" d="M 57.246094 3.734375 L 69.582031 41.824219 C 69.675781 42.066406 69.832031 42.257812 70.054688 42.398438 C 70.273438 42.539062 70.511719 42.601562 70.773438 42.582031 L 110.8125 42.582031 C 111.066406 42.589844 111.296875 42.671875 111.5 42.828125 C 111.707031 42.984375 111.84375 43.183594 111.917969 43.429688 C 111.992188 43.675781 111.984375 43.921875 111.902344 44.164062 C 111.816406 44.40625 111.671875 44.597656 111.460938 44.746094 L 79.105469 68.335938 C 78.886719 68.476562 78.738281 68.664062 78.65625 68.910156 C 78.574219 69.152344 78.582031 69.394531 78.671875 69.636719 L 91.007812 107.726562 C 91.121094 107.980469 91.144531 108.238281 91.074219 108.507812 C 91.007812 108.773438 90.863281 108.988281 90.644531 109.15625 C 90.425781 109.324219 90.179688 109.40625 89.902344 109.402344 C 89.628906 109.398438 89.382812 109.308594 89.167969 109.132812 L 56.8125 85.542969 C 56.308594 85.316406 55.800781 85.316406 55.296875 85.542969 L 22.941406 109.132812 C 22.726562 109.308594 22.484375 109.398438 22.207031 109.402344 C 21.933594 109.40625 21.683594 109.324219 21.464844 109.15625 C 21.246094 108.988281 21.105469 108.773438 21.035156 108.507812 C 20.96875 108.238281 20.988281 107.980469 21.101562 107.726562 L 33.4375 69.636719 C 33.53125 69.394531 33.535156 69.152344 33.453125 68.910156 C 33.371094 68.664062 33.222656 68.476562 33.003906 68.335938 L 0.648438 44.746094 C 0.4375 44.597656 0.292969 44.40625 0.207031 44.164062 C 0.125 43.921875 0.117188 43.675781 0.191406 43.429688 C 0.265625 43.183594 0.40625 42.984375 0.609375 42.828125 C 0.8125 42.671875 1.042969 42.589844 1.296875 42.582031 L 41.339844 42.582031 C 41.597656 42.601562 41.835938 42.539062 42.058594 42.398438 C 42.277344 42.257812 42.433594 42.066406 42.527344 41.824219 L 54.863281 3.734375 C 54.863281 3.574219 54.894531 3.421875 54.957031 3.277344 C 55.015625 3.132812 55.101562 3.003906 55.214844 2.890625 C 55.324219 2.78125 55.453125 2.695312 55.601562 2.632812 C 55.746094 2.574219 55.898438 2.542969 56.054688 2.542969 C 56.214844 2.542969 56.363281 2.574219 56.511719 2.632812 C 56.65625 2.695312 56.785156 2.78125 56.898438 2.890625 C 57.007812 3.003906 57.09375 3.132812 57.15625 3.277344 C 57.214844 3.421875 57.246094 3.574219 57.246094 3.734375 Z M 57.246094 3.734375 " fill-opacity="1" fill-rule="nonzero"/></g></svg>