<svg xmlns="http://www.w3.org/2000/svg" xmlns:xlink="http://www.w3.org/1999/xlink" width="150" zoomAndPan="magnify" viewBox="0 0 112.5 112.499997" height="150" preserveAspectRatio="xMidYMid meet" version="1.0"><defs><clipPath id="f0677b4703"><path d="M 18 2 L 94 2 L 94 85 L 18 85 Z M 18 2 " clip-rule="nonzero"/></clipPath><clipPath id="a1ae8a5617"><path d="M 55.9375 88.292969 L 11.589844 43.941406 L 55.9375 -0.410156 L 100.289062 43.941406 Z M 55.9375 88.292969 " clip-rule="nonzero"/></clipPath><clipPath id="0163b64275"><path d="M 55.9375 88.292969 L 11.589844 43.941406 L 55.9375 -0.410156 L 100.289062 43.941406 Z M 55.9375 88.292969 " clip-rule="nonzero"/></clipPath><clipPath id="669aa227d4"><path d="M 18 27 L 94 27 L 94 110 L 18 110 Z M 18 27 " clip-rule="nonzero"/></clipPath><clipPath id="ec44133fc8"><path d="M 56.054688 23.710938 L 100.40625 68.058594 L 56.054688 112.410156 L 11.703125 68.058594 Z M 56.054688 23.710938 " clip-rule="nonzero"/></clipPath><clipPath id="84390e30b3"><path d="M 56.054688 23.710938 L 100.40625 68.058594 L 56.054688 112.410156 L 11.703125 68.058594 Z M 56.054688 23.710938 " clip-rule="nonzero"/></clipPath></defs><g clip-path="url(#f0677b4703)"><g clip-path="url(#a1ae8a5617)"><g clip-path="url(#0163b64275)"><path fill="#000000" d="M 20.648438 43.957031 C 23.007812 46.316406 26.832031 46.308594 29.179688 43.957031 L 49.878906 23.257812 L 49.890625 78.902344 C 49.890625 82.242188 52.589844 84.941406 55.929688 84.941406 C 59.273438 84.941406 61.972656 82.242188 61.972656 78.902344 L 61.972656 23.117188 L 82.707031 43.742188 C 85.078125 46.089844 88.902344 46.082031 91.25 43.714844 C 93.59375 41.351562 93.59375 37.539062 91.242188 35.191406 C 91.242188 35.191406 91.230469 35.179688 91.230469 35.179688 L 60.246094 4.363281 C 57.882812 2.023438 54.070312 2.023438 51.722656 4.371094 L 20.667969 35.425781 C 18.296875 37.777344 18.289062 41.597656 20.648438 43.957031 Z M 20.648438 43.957031 " fill-opacity="1" fill-rule="nonzero"/></g></g></g><g clip-path="url(#669aa227d4)"><g clip-path="url(#ec44133fc8)"><g clip-path="url(#84390e30b3)"><path fill="#000000" d="M 91.34375 68.042969 C 88.984375 65.683594 85.164062 65.691406 82.8125 68.042969 L 62.113281 88.742188 L 62.105469 33.101562 C 62.105469 29.757812 59.40625 27.058594 56.0625 27.058594 C 52.722656 27.058594 50.023438 29.757812 50.023438 33.101562 L 50.023438 88.882812 L 29.285156 68.257812 C 26.914062 65.910156 23.09375 65.917969 20.742188 68.289062 C 18.402344 70.648438 18.402344 74.460938 20.753906 76.8125 C 20.753906 76.8125 20.761719 76.820312 20.761719 76.820312 L 51.75 107.636719 C 54.109375 109.980469 57.921875 109.980469 60.273438 107.628906 L 91.328125 76.574219 C 93.695312 74.226562 93.707031 70.402344 91.34375 68.042969 Z M 91.34375 68.042969 " fill-opacity="1" fill-rule="nonzero"/></g></g></g></svg>