<svg xmlns="http://www.w3.org/2000/svg" xmlns:xlink="http://www.w3.org/1999/xlink" width="150" zoomAndPan="magnify" viewBox="0 0 112.5 112.499997" height="150" preserveAspectRatio="xMidYMid meet" version="1.0"><defs><clipPath id="fa398bb275"><path d="M 12 28 L 100.800781 28 L 100.800781 84 L 12 84 Z M 12 28 " clip-rule="nonzero"/></clipPath></defs><g clip-path="url(#fa398bb275)"><path fill="#000000" d="M 100.800781 72.875 C 100.800781 75.457031 99.828125 78.019531 97.863281 79.980469 C 93.933594 83.949219 87.535156 83.964844 83.589844 80.039062 L 56.542969 53.140625 L 29.417969 80.261719 C 25.46875 84.210938 19.09375 84.210938 15.144531 80.261719 C 11.199219 76.316406 11.199219 69.9375 15.144531 65.988281 L 49.394531 31.738281 C 53.324219 27.8125 59.703125 27.792969 63.648438 31.71875 L 97.824219 65.726562 C 99.808594 67.691406 100.800781 70.292969 100.800781 72.875 Z M 100.800781 72.875 " fill-opacity="1" fill-rule="nonzero"/></g></svg>