<svg xmlns="http://www.w3.org/2000/svg" xmlns:xlink="http://www.w3.org/1999/xlink" width="150" zoomAndPan="magnify" viewBox="0 0 112.5 112.499997" height="150" preserveAspectRatio="xMidYMid meet" version="1.0"><defs><clipPath id="bb93fd699b"><path d="M 67 58 L 100.800781 58 L 100.800781 91.84375 L 67 91.84375 Z M 67 58 " clip-rule="nonzero"/></clipPath><clipPath id="f859f73d51"><path d="M 11.199219 20.160156 L 86 20.160156 L 86 77 L 11.199219 77 Z M 11.199219 20.160156 " clip-rule="nonzero"/></clipPath></defs><g clip-path="url(#bb93fd699b)"><path fill="#000000" d="M 84.375 58.988281 C 83.835938 58.988281 83.300781 59.015625 82.765625 59.066406 C 82.230469 59.121094 81.699219 59.199219 81.171875 59.304688 C 80.644531 59.410156 80.121094 59.539062 79.605469 59.695312 C 79.089844 59.851562 78.585938 60.03125 78.089844 60.238281 C 77.589844 60.445312 77.105469 60.675781 76.632812 60.925781 C 76.15625 61.179688 75.695312 61.457031 75.25 61.757812 C 74.800781 62.054688 74.371094 62.375 73.953125 62.714844 C 73.539062 63.058594 73.140625 63.417969 72.757812 63.800781 C 72.378906 64.179688 72.019531 64.578125 71.675781 64.992188 C 71.335938 65.410156 71.015625 65.839844 70.714844 66.289062 C 70.417969 66.734375 70.140625 67.195312 69.886719 67.671875 C 69.632812 68.144531 69.40625 68.632812 69.199219 69.128906 C 68.992188 69.625 68.8125 70.132812 68.65625 70.644531 C 68.5 71.160156 68.367188 71.683594 68.261719 72.210938 C 68.160156 72.738281 68.078125 73.269531 68.027344 73.804688 C 67.972656 74.339844 67.949219 74.875 67.949219 75.414062 C 67.949219 75.953125 67.972656 76.488281 68.027344 77.023438 C 68.078125 77.558594 68.160156 78.09375 68.261719 78.621094 C 68.367188 79.148438 68.5 79.667969 68.65625 80.183594 C 68.8125 80.699219 68.992188 81.203125 69.199219 81.699219 C 69.40625 82.199219 69.632812 82.683594 69.886719 83.160156 C 70.140625 83.632812 70.417969 84.09375 70.714844 84.542969 C 71.015625 84.988281 71.335938 85.421875 71.675781 85.835938 C 72.019531 86.25 72.378906 86.648438 72.757812 87.03125 C 73.140625 87.410156 73.539062 87.773438 73.953125 88.113281 C 74.371094 88.453125 74.800781 88.773438 75.25 89.074219 C 75.695312 89.371094 76.15625 89.648438 76.632812 89.902344 C 77.105469 90.15625 77.589844 90.386719 78.089844 90.589844 C 78.585938 90.796875 79.089844 90.976562 79.605469 91.132812 C 80.121094 91.289062 80.644531 91.421875 81.171875 91.527344 C 81.699219 91.632812 82.230469 91.710938 82.765625 91.761719 C 83.300781 91.816406 83.835938 91.84375 84.375 91.84375 C 84.914062 91.84375 85.449219 91.816406 85.984375 91.761719 C 86.519531 91.710938 87.050781 91.632812 87.578125 91.527344 C 88.105469 91.421875 88.628906 91.289062 89.144531 91.132812 C 89.660156 90.976562 90.164062 90.796875 90.660156 90.589844 C 91.160156 90.386719 91.644531 90.15625 92.117188 89.902344 C 92.59375 89.648438 93.054688 89.371094 93.5 89.074219 C 93.949219 88.773438 94.378906 88.453125 94.796875 88.113281 C 95.210938 87.773438 95.609375 87.410156 95.992188 87.03125 C 96.371094 86.648438 96.730469 86.25 97.074219 85.835938 C 97.414062 85.421875 97.734375 84.988281 98.035156 84.542969 C 98.332031 84.09375 98.609375 83.632812 98.863281 83.160156 C 99.117188 82.683594 99.34375 82.199219 99.550781 81.699219 C 99.757812 81.203125 99.9375 80.699219 100.09375 80.183594 C 100.25 79.667969 100.382812 79.148438 100.488281 78.621094 C 100.589844 78.09375 100.671875 77.558594 100.722656 77.023438 C 100.777344 76.488281 100.800781 75.953125 100.800781 75.414062 C 100.800781 74.878906 100.773438 74.339844 100.722656 73.804688 C 100.667969 73.269531 100.589844 72.738281 100.484375 72.210938 C 100.378906 71.683594 100.246094 71.164062 100.089844 70.648438 C 99.933594 70.132812 99.753906 69.628906 99.546875 69.132812 C 99.339844 68.632812 99.109375 68.148438 98.855469 67.675781 C 98.601562 67.199219 98.328125 66.738281 98.027344 66.292969 C 97.730469 65.847656 97.410156 65.414062 97.066406 65 C 96.726562 64.582031 96.367188 64.183594 95.984375 63.804688 C 95.605469 63.425781 95.207031 63.0625 94.792969 62.722656 C 94.375 62.382812 93.945312 62.0625 93.496094 61.761719 C 93.050781 61.464844 92.589844 61.1875 92.113281 60.933594 C 91.640625 60.679688 91.15625 60.449219 90.660156 60.242188 C 90.160156 60.035156 89.65625 59.855469 89.140625 59.699219 C 88.625 59.542969 88.105469 59.410156 87.578125 59.304688 C 87.050781 59.199219 86.519531 59.121094 85.984375 59.070312 C 85.449219 59.015625 84.914062 58.988281 84.375 58.988281 Z M 84.375 88.855469 C 83.492188 88.855469 82.617188 88.769531 81.753906 88.597656 C 80.886719 88.425781 80.046875 88.167969 79.230469 87.832031 C 78.417969 87.496094 77.640625 87.082031 76.90625 86.589844 C 76.175781 86.101562 75.496094 85.542969 74.871094 84.917969 C 74.246094 84.292969 73.691406 83.617188 73.199219 82.882812 C 72.710938 82.148438 72.296875 81.375 71.957031 80.558594 C 71.621094 79.742188 71.363281 78.902344 71.191406 78.035156 C 71.019531 77.171875 70.933594 76.296875 70.933594 75.414062 C 70.933594 74.53125 71.019531 73.660156 71.191406 72.792969 C 71.363281 71.925781 71.621094 71.085938 71.957031 70.269531 C 72.296875 69.457031 72.710938 68.679688 73.199219 67.949219 C 73.691406 67.214844 74.246094 66.535156 74.871094 65.910156 C 75.496094 65.285156 76.175781 64.730469 76.90625 64.238281 C 77.640625 63.75 78.417969 63.335938 79.230469 62.996094 C 80.046875 62.660156 80.886719 62.40625 81.753906 62.234375 C 82.617188 62.0625 83.492188 61.972656 84.375 61.972656 C 85.257812 61.972656 86.132812 62.0625 86.996094 62.234375 C 87.863281 62.40625 88.703125 62.660156 89.519531 62.996094 C 90.332031 63.335938 91.109375 63.75 91.84375 64.238281 C 92.574219 64.730469 93.253906 65.285156 93.878906 65.910156 C 94.503906 66.535156 95.058594 67.214844 95.550781 67.949219 C 96.039062 68.679688 96.453125 69.457031 96.792969 70.269531 C 97.128906 71.085938 97.386719 71.925781 97.558594 72.792969 C 97.730469 73.660156 97.816406 74.53125 97.816406 75.414062 C 97.8125 76.296875 97.726562 77.171875 97.554688 78.035156 C 97.382812 78.902344 97.125 79.742188 96.789062 80.554688 C 96.449219 81.371094 96.035156 82.144531 95.546875 82.878906 C 95.054688 83.613281 94.5 84.289062 93.875 84.914062 C 93.25 85.539062 92.570312 86.09375 91.839844 86.585938 C 91.105469 87.074219 90.332031 87.488281 89.515625 87.828125 C 88.699219 88.167969 87.859375 88.421875 86.996094 88.59375 C 86.132812 88.765625 85.257812 88.855469 84.375 88.855469 Z M 84.375 88.855469 " fill-opacity="1" fill-rule="nonzero"/></g><g clip-path="url(#f859f73d51)"><path fill="#000000" d="M 82.882812 52.140625 L 82.882812 54.507812 C 82.882812 54.707031 82.917969 54.894531 82.996094 55.078125 C 83.070312 55.261719 83.179688 55.421875 83.320312 55.5625 C 83.460938 55.703125 83.621094 55.8125 83.804688 55.886719 C 83.988281 55.964844 84.175781 56 84.375 56 C 84.574219 56 84.761719 55.964844 84.945312 55.886719 C 85.128906 55.8125 85.289062 55.703125 85.429688 55.5625 C 85.570312 55.421875 85.679688 55.261719 85.753906 55.078125 C 85.832031 54.894531 85.867188 54.707031 85.867188 54.507812 L 85.867188 27.628906 C 85.867188 27.136719 85.820312 26.652344 85.722656 26.171875 C 85.628906 25.691406 85.484375 25.222656 85.296875 24.769531 C 85.109375 24.320312 84.878906 23.886719 84.605469 23.480469 C 84.335938 23.074219 84.023438 22.695312 83.679688 22.351562 C 83.332031 22.003906 82.957031 21.695312 82.546875 21.421875 C 82.140625 21.148438 81.710938 20.917969 81.257812 20.730469 C 80.804688 20.542969 80.339844 20.402344 79.859375 20.304688 C 79.378906 20.210938 78.890625 20.160156 78.402344 20.160156 L 18.667969 20.160156 C 18.175781 20.160156 17.691406 20.210938 17.210938 20.304688 C 16.730469 20.402344 16.265625 20.542969 15.8125 20.730469 C 15.359375 20.917969 14.929688 21.148438 14.519531 21.421875 C 14.113281 21.695312 13.738281 22.003906 13.390625 22.351562 C 13.042969 22.695312 12.734375 23.074219 12.460938 23.480469 C 12.1875 23.886719 11.957031 24.320312 11.769531 24.769531 C 11.582031 25.222656 11.441406 25.691406 11.34375 26.171875 C 11.25 26.652344 11.199219 27.136719 11.199219 27.628906 L 11.199219 69.449219 C 11.203125 69.9375 11.25 70.421875 11.347656 70.902344 C 11.441406 71.382812 11.585938 71.851562 11.773438 72.300781 C 11.960938 72.753906 12.191406 73.183594 12.464844 73.589844 C 12.734375 74 13.046875 74.375 13.390625 74.722656 C 13.738281 75.066406 14.117188 75.375 14.523438 75.648438 C 14.929688 75.921875 15.359375 76.152344 15.8125 76.339844 C 16.265625 76.527344 16.730469 76.667969 17.210938 76.761719 C 17.691406 76.859375 18.175781 76.90625 18.667969 76.90625 L 63.46875 76.90625 C 63.664062 76.90625 63.855469 76.871094 64.039062 76.792969 C 64.222656 76.71875 64.382812 76.609375 64.523438 76.472656 C 64.664062 76.332031 64.773438 76.167969 64.847656 75.984375 C 64.921875 75.804688 64.960938 75.613281 64.960938 75.414062 C 64.960938 75.214844 64.921875 75.027344 64.847656 74.84375 C 64.773438 74.660156 64.664062 74.5 64.523438 74.359375 C 64.382812 74.21875 64.222656 74.109375 64.039062 74.035156 C 63.855469 73.960938 63.664062 73.921875 63.46875 73.921875 L 18.667969 73.921875 C 18.121094 73.917969 17.597656 73.820312 17.089844 73.628906 C 16.578125 73.433594 16.121094 73.15625 15.714844 72.796875 C 15.308594 72.433594 14.976562 72.015625 14.722656 71.53125 C 14.46875 71.050781 14.308594 70.539062 14.242188 70 L 39.515625 44.613281 L 56.4375 61.539062 C 56.578125 61.675781 56.742188 61.777344 56.921875 61.851562 C 57.105469 61.921875 57.292969 61.957031 57.488281 61.957031 C 57.683594 61.957031 57.875 61.917969 58.054688 61.839844 C 58.234375 61.765625 58.394531 61.660156 58.53125 61.519531 C 58.671875 61.382812 58.777344 61.222656 58.851562 61.042969 C 58.929688 60.859375 58.96875 60.671875 58.96875 60.476562 C 58.972656 60.28125 58.9375 60.09375 58.863281 59.910156 C 58.789062 59.726562 58.6875 59.566406 58.550781 59.425781 L 50.648438 51.519531 L 66.425781 35.683594 Z M 66.421875 32.078125 C 66.011719 32.078125 65.65625 32.222656 65.367188 32.515625 L 48.535156 49.410156 L 40.566406 41.441406 C 40.273438 41.152344 39.921875 41.003906 39.511719 41.003906 C 39.097656 41.003906 38.746094 41.152344 38.453125 41.445312 L 14.1875 65.824219 L 14.1875 27.628906 C 14.1875 27.332031 14.214844 27.042969 14.273438 26.753906 C 14.332031 26.464844 14.417969 26.183594 14.53125 25.914062 C 14.640625 25.640625 14.78125 25.382812 14.945312 25.140625 C 15.105469 24.894531 15.292969 24.667969 15.5 24.460938 C 15.707031 24.253906 15.933594 24.066406 16.179688 23.902344 C 16.421875 23.742188 16.683594 23.601562 16.953125 23.488281 C 17.226562 23.375 17.503906 23.292969 17.792969 23.234375 C 18.082031 23.175781 18.371094 23.148438 18.667969 23.148438 L 78.402344 23.148438 C 78.695312 23.148438 78.988281 23.175781 79.273438 23.234375 C 79.5625 23.292969 79.84375 23.375 80.113281 23.488281 C 80.386719 23.601562 80.644531 23.742188 80.890625 23.902344 C 81.132812 24.066406 81.359375 24.253906 81.566406 24.460938 C 81.777344 24.667969 81.960938 24.894531 82.125 25.140625 C 82.289062 25.382812 82.425781 25.640625 82.539062 25.914062 C 82.652344 26.183594 82.738281 26.464844 82.792969 26.753906 C 82.851562 27.042969 82.882812 27.332031 82.882812 27.628906 L 82.882812 47.917969 L 67.480469 32.515625 C 67.1875 32.222656 66.835938 32.078125 66.425781 32.078125 Z M 66.421875 32.078125 " fill-opacity="1" fill-rule="nonzero"/></g><path fill="#000000" d="M 48.535156 32.105469 C 48.238281 32.105469 47.949219 32.136719 47.660156 32.195312 C 47.371094 32.25 47.089844 32.335938 46.820312 32.449219 C 46.546875 32.5625 46.289062 32.699219 46.046875 32.863281 C 45.800781 33.027344 45.574219 33.210938 45.367188 33.417969 C 45.160156 33.628906 44.972656 33.855469 44.808594 34.097656 C 44.644531 34.34375 44.507812 34.601562 44.394531 34.871094 C 44.28125 35.144531 44.199219 35.425781 44.140625 35.714844 C 44.082031 36 44.054688 36.292969 44.054688 36.585938 C 44.054688 36.882812 44.082031 37.171875 44.140625 37.460938 C 44.199219 37.75 44.28125 38.03125 44.394531 38.300781 C 44.507812 38.574219 44.644531 38.832031 44.808594 39.078125 C 44.972656 39.320312 45.160156 39.546875 45.367188 39.753906 C 45.574219 39.964844 45.800781 40.148438 46.046875 40.3125 C 46.289062 40.476562 46.546875 40.613281 46.820312 40.726562 C 47.089844 40.839844 47.371094 40.925781 47.660156 40.980469 C 47.949219 41.039062 48.238281 41.066406 48.535156 41.066406 C 48.828125 41.066406 49.121094 41.039062 49.410156 40.980469 C 49.695312 40.925781 49.976562 40.839844 50.25 40.726562 C 50.519531 40.613281 50.777344 40.476562 51.023438 40.3125 C 51.269531 40.148438 51.496094 39.964844 51.703125 39.753906 C 51.910156 39.546875 52.097656 39.320312 52.257812 39.078125 C 52.421875 38.832031 52.5625 38.574219 52.671875 38.300781 C 52.785156 38.03125 52.871094 37.75 52.929688 37.460938 C 52.984375 37.171875 53.015625 36.882812 53.015625 36.585938 C 53.015625 36.292969 52.984375 36.003906 52.925781 35.714844 C 52.871094 35.425781 52.785156 35.144531 52.671875 34.875 C 52.558594 34.601562 52.421875 34.34375 52.257812 34.097656 C 52.09375 33.855469 51.910156 33.628906 51.699219 33.421875 C 51.492188 33.214844 51.265625 33.027344 51.023438 32.863281 C 50.777344 32.699219 50.519531 32.5625 50.246094 32.449219 C 49.976562 32.335938 49.695312 32.25 49.40625 32.195312 C 49.121094 32.136719 48.828125 32.109375 48.535156 32.105469 Z M 48.535156 38.082031 C 48.335938 38.082031 48.144531 38.042969 47.960938 37.96875 C 47.78125 37.890625 47.617188 37.785156 47.476562 37.644531 C 47.339844 37.503906 47.230469 37.34375 47.15625 37.160156 C 47.078125 36.976562 47.039062 36.785156 47.039062 36.585938 C 47.039062 36.390625 47.078125 36.199219 47.15625 36.015625 C 47.230469 35.832031 47.339844 35.671875 47.476562 35.53125 C 47.617188 35.390625 47.78125 35.285156 47.960938 35.207031 C 48.144531 35.132812 48.335938 35.09375 48.535156 35.09375 C 48.730469 35.09375 48.921875 35.132812 49.105469 35.207031 C 49.289062 35.285156 49.449219 35.390625 49.589844 35.53125 C 49.730469 35.671875 49.839844 35.832031 49.914062 36.015625 C 49.988281 36.199219 50.027344 36.390625 50.027344 36.585938 C 50.027344 36.785156 49.988281 36.976562 49.914062 37.160156 C 49.839844 37.34375 49.730469 37.503906 49.589844 37.644531 C 49.449219 37.785156 49.289062 37.890625 49.105469 37.96875 C 48.921875 38.042969 48.730469 38.082031 48.535156 38.082031 Z M 48.535156 38.082031 " fill-opacity="1" fill-rule="nonzero"/><path fill="#000000" d="M 85.433594 65.402344 C 85.292969 65.261719 85.128906 65.152344 84.945312 65.078125 C 84.765625 65 84.574219 64.964844 84.375 64.964844 C 84.175781 64.964844 83.984375 65 83.804688 65.078125 C 83.621094 65.152344 83.457031 65.261719 83.316406 65.402344 L 77.347656 71.371094 C 77.210938 71.511719 77.105469 71.675781 77.03125 71.855469 C 76.960938 72.039062 76.925781 72.226562 76.925781 72.421875 C 76.929688 72.617188 76.96875 72.808594 77.042969 72.988281 C 77.117188 73.167969 77.226562 73.328125 77.363281 73.464844 C 77.503906 73.605469 77.660156 73.710938 77.84375 73.785156 C 78.023438 73.863281 78.210938 73.902344 78.40625 73.902344 C 78.601562 73.90625 78.792969 73.871094 78.972656 73.796875 C 79.15625 73.722656 79.316406 73.621094 79.457031 73.484375 L 82.882812 70.058594 L 82.882812 84.375 C 82.882812 84.574219 82.917969 84.761719 82.996094 84.945312 C 83.070312 85.128906 83.179688 85.289062 83.320312 85.429688 C 83.460938 85.570312 83.621094 85.679688 83.804688 85.753906 C 83.988281 85.832031 84.175781 85.867188 84.375 85.867188 C 84.574219 85.867188 84.761719 85.832031 84.945312 85.753906 C 85.128906 85.679688 85.289062 85.570312 85.429688 85.429688 C 85.570312 85.289062 85.679688 85.128906 85.753906 84.945312 C 85.832031 84.761719 85.867188 84.574219 85.867188 84.375 L 85.867188 70.058594 L 89.292969 73.484375 C 89.433594 73.621094 89.59375 73.722656 89.777344 73.796875 C 89.957031 73.871094 90.148438 73.90625 90.34375 73.902344 C 90.539062 73.902344 90.726562 73.863281 90.90625 73.785156 C 91.089844 73.710938 91.246094 73.605469 91.386719 73.464844 C 91.523438 73.328125 91.632812 73.167969 91.707031 72.988281 C 91.78125 72.808594 91.820312 72.617188 91.824219 72.421875 C 91.824219 72.226562 91.789062 72.039062 91.71875 71.855469 C 91.644531 71.675781 91.539062 71.511719 91.402344 71.371094 Z M 85.433594 65.402344 " fill-opacity="1" fill-rule="nonzero"/></svg>