<svg xmlns="http://www.w3.org/2000/svg" xmlns:xlink="http://www.w3.org/1999/xlink" width="150" zoomAndPan="magnify" viewBox="0 0 112.5 112.499997" height="150" preserveAspectRatio="xMidYMid meet" version="1.0"><defs><clipPath id="cfc44cd227"><path d="M 11.199219 11.199219 L 100.800781 11.199219 L 100.800781 100.800781 L 11.199219 100.800781 Z M 11.199219 11.199219 " clip-rule="nonzero"/></clipPath></defs><path fill="#000000" d="M 56.691406 44.382812 L 50.1875 44.382812 L 50.1875 37.515625 C 50.1875 35.871094 48.855469 34.535156 47.210938 34.535156 C 45.566406 34.535156 44.234375 35.871094 44.234375 37.515625 L 44.234375 44.382812 L 37.726562 44.382812 C 36.085938 44.382812 34.75 45.714844 34.75 47.359375 C 34.75 49.003906 36.085938 50.335938 37.726562 50.335938 L 44.234375 50.335938 L 44.234375 57.207031 C 44.234375 58.847656 45.566406 60.183594 47.210938 60.183594 C 48.855469 60.183594 50.1875 58.847656 50.1875 57.207031 L 50.1875 50.335938 L 56.691406 50.335938 C 58.335938 50.335938 59.667969 49.003906 59.667969 47.359375 C 59.667969 45.714844 58.335938 44.382812 56.691406 44.382812 Z M 56.691406 44.382812 " fill-opacity="1" fill-rule="nonzero"/><g clip-path="url(#cfc44cd227)"><path fill="#000000" d="M 99.632812 95.570312 L 74.675781 70.613281 C 80 64.332031 83.21875 56.21875 83.21875 47.359375 C 83.21875 27.503906 67.066406 11.347656 47.210938 11.347656 C 27.355469 11.347656 11.199219 27.503906 11.199219 47.359375 C 11.199219 67.214844 27.355469 83.371094 47.210938 83.371094 C 56.070312 83.371094 64.183594 80.148438 70.464844 74.824219 L 95.421875 99.78125 C 96.003906 100.363281 96.765625 100.652344 97.527344 100.652344 C 98.289062 100.652344 99.050781 100.363281 99.632812 99.78125 C 100.796875 98.621094 100.796875 96.734375 99.632812 95.570312 Z M 17.152344 47.359375 C 17.152344 30.785156 30.636719 17.300781 47.210938 17.300781 C 63.785156 17.300781 77.265625 30.785156 77.265625 47.359375 C 77.265625 63.933594 63.785156 77.417969 47.210938 77.417969 C 30.636719 77.414062 17.152344 63.933594 17.152344 47.359375 Z M 17.152344 47.359375 " fill-opacity="1" fill-rule="nonzero"/></g></svg>