<svg class="img-fluid" id="outputsvg" xmlns="http://www.w3.org/2000/svg" style="transform: matrix(0.591716, 0, 0, 0.591716, 0, 0); transform-origin: 50% 50%; cursor: move; transition: transform 200ms ease-in-out 0s;" width="564" height="1010" viewBox="0 0 5640 10100"><g id="l3x5qvyq4wIn7RgRlMoEAWD" fill="rgb(221,222,226)" style="transform: none;"><g><path id="p21Kpv3qT" d="M0 9495 c0 -605 0 -605 28 -605 16 0 55 9 88 20 59 20 59 20 24 -13 -20 -17 -59 -53 -88 -79 -52 -46 -52 -46 -52 -221 0 -175 0 -175 31 -182 17 -4 56 -4 88 0 166 20 322 162 444 408 36 72 83 155 104 182 78 102 239 178 373 177 115 -1 235 -51 369 -155 163 -126 225 -160 340 -181 66 -13 66 -13 26 -30 -132 -58 -217 -57 -402 3 -156 51 -255 65 -407 58 -92 -4 -135 -11 -179 -28 -71 -27 -138 -85 -165 -142 -26 -55 -52 -181 -52 -249 0 -52 27 -129 49 -142 6 -4 11 -25 11 -47 0 -38 1 -39 35 -39 23 0 35 5 35 14 0 11 8 11 52 0 79 -21 269 -15 369 11 23 6 27 3 31 -20 5 -21 -2 -33 -32 -62 -60 -55 -101 -83 -165 -114 -114 -55 -249 -31 -430 75 -149 88 -249 106 -378 66 -51 -16 -73 -30 -106 -65 -41 -45 -41 -45 -41 -125 0 -150 59 -211 306 -316 155 -66 224 -122 306 -249 31 -48 36 -61 24 -63 -11 -2 -16 -15 -16 -38 0 -31 3 -34 29 -34 35 0 41 -13 41 -89 0 -194 -156 -384 -362 -439 -54 -15 -50 6 8 43 159 100 225 317 130 424 -29 32 -99 61 -148 61 -99 0 -173 -50 -249 -167 -24 -37 -49 -74 -56 -81 -10 -11 -13 -171 -13 -753 0 -685 1 -739 17 -739 9 0 44 9 77 20 34 11 113 26 177 34 288 36 394 155 438 489 14 105 52 212 91 258 29 34 29 34 30 -11 0 -55 13 -70 57 -70 51 0 54 -43 8 -166 -84 -223 -151 -320 -305 -436 -39 -29 -175 -112 -233 -142 -58 -30 -113 -82 -136 -129 -11 -23 -34 -101 -51 -172 -32 -131 -32 -131 -101 -127 -69 4 -69 4 -69 -1857 0 -1795 1 -1861 18 -1861 19 0 62 43 231 228 96 105 144 141 218 163 37 10 48 10 82 -6 95 -42 122 -102 119 -259 -3 -103 -1 -117 18 -143 95 -128 376 -103 582 52 35 26 70 58 78 70 8 12 19 66 24 121 19 205 32 279 62 352 31 74 83 160 120 197 21 20 21 20 14 -5 -16 -54 -27 -463 -15 -554 6 -48 11 -129 11 -180 0 -158 -38 -232 -144 -286 -63 -31 -63 -31 -208 -24 -152 7 -283 -4 -371 -32 -31 -10 -67 -34 -107 -72 -53 -51 -62 -66 -85 -138 -26 -84 -76 -172 -118 -211 -59 -53 -107 -68 -221 -68 -59 0 -112 5 -117 10 -7 7 7 19 44 39 59 30 92 73 141 181 29 64 43 179 30 250 -8 42 -63 107 -106 125 -32 13 -248 9 -282 -5 -17 -7 -18 -45 -18 -606 0 -599 0 -599 776 -597 777 3 777 3 821 108 74 179 115 251 175 315 58 60 58 60 42 20 -38 -94 -84 -327 -84 -427 0 -17 31 -18 615 -18 595 0 615 1 615 19 0 10 -7 38 -15 62 -15 44 -15 44 43 -19 57 -62 57 -62 256 -62 199 0 199 0 194 68 -8 103 -43 164 -158 276 -89 86 -108 99 -248 170 -227 115 -292 185 -343 371 -20 73 -21 86 -10 155 17 100 66 199 159 323 137 181 152 210 177 342 11 60 11 60 27 30 9 -16 24 -63 33 -103 23 -93 17 -158 -28 -292 -47 -139 -67 -251 -67 -369 0 -168 27 -265 97 -342 46 -51 91 -72 202 -95 168 -33 260 -2 316 111 29 59 30 61 27 205 -1 101 -8 169 -21 225 -11 44 -18 82 -16 84 3 2 42 -35 88 -82 195 -196 205 -349 41 -622 -23 -38 -49 -94 -58 -124 -30 -102 -14 -243 35 -305 20 -26 20 -26 174 -26 154 0 154 0 185 38 17 20 47 71 67 112 121 256 124 261 190 328 39 41 66 62 70 55 2 -7 20 -13 38 -13 32 0 34 2 37 37 3 35 6 37 68 61 185 69 418 -40 514 -240 19 -40 40 -93 46 -118 6 -25 14 -54 17 -65 3 -11 -12 8 -34 43 -51 83 -125 157 -190 188 -47 23 -62 26 -140 23 -80 -4 -91 -7 -120 -33 -44 -39 -63 -84 -63 -150 0 -95 36 -154 141 -232 47 -34 47 -34 498 -34 451 0 451 0 451 1255 0 1255 0 1255 -25 1255 -32 0 -91 -30 -128 -65 -64 -61 -125 -201 -162 -372 -48 -224 -75 -271 -173 -299 -79 -23 -133 -14 -307 49 -82 31 -165 58 -182 62 -28 6 -33 11 -33 36 0 27 -3 29 -35 29 -25 0 -35 -4 -35 -16 0 -11 -5 -14 -16 -10 -47 18 -162 38 -254 45 -105 7 -105 7 -49 34 31 15 94 37 140 49 79 20 91 20 198 9 62 -7 146 -19 185 -28 142 -30 222 1 342 129 84 91 136 196 142 291 8 134 -34 210 -126 222 -130 19 -215 63 -247 131 -25 53 -22 85 15 149 30 53 112 125 118 105 2 -5 19 -10 37 -10 31 0 34 3 37 32 3 28 11 35 83 73 249 128 284 152 372 255 113 131 103 43 103 874 0 639 -2 726 -15 726 -8 0 -15 9 -15 19 0 11 -5 21 -10 23 -6 2 1 19 15 38 25 33 25 36 25 226 0 193 0 193 -37 205 -53 16 -413 24 -515 10 -46 -6 -119 -22 -161 -35 -79 -24 -79 -24 -60 -3 147 175 353 281 658 338 115 22 115 22 115 392 0 305 -3 380 -16 431 -15 56 -15 70 1 166 13 88 16 175 13 545 -3 440 -3 440 -42 459 -24 12 -69 20 -125 24 -81 4 -90 3 -128 -21 -50 -32 -94 -94 -116 -162 -22 -70 -41 -251 -34 -330 2 -37 1 -63 -3 -58 -33 34 -113 175 -131 231 -45 133 -28 191 107 367 82 108 95 129 119 196 22 62 30 194 15 249 -7 25 -15 68 -17 97 -5 51 -5 51 -96 58 -210 16 -293 -32 -389 -223 -52 -104 -149 -208 -223 -242 -89 -39 -109 -48 -144 -59 -43 -14 -41 -14 -41 9 0 16 -7 20 -35 20 -31 0 -35 -3 -35 -25 0 -30 -5 -30 -100 -10 -204 43 -291 138 -350 378 -22 91 -22 129 0 60 38 -115 106 -210 177 -244 42 -20 63 -23 158 -23 88 0 118 4 149 20 59 29 81 65 81 132 0 53 -4 62 -60 142 -33 46 -67 92 -76 101 -67 67 -119 180 -119 260 0 58 1 59 28 59 24 0 29 -6 46 -62 21 -67 67 -126 126 -163 19 -12 80 -39 135 -60 92 -36 108 -39 200 -39 158 0 221 25 332 128 64 59 94 122 121 251 27 124 118 315 150 315 4 0 6 -51 4 -114 -3 -104 -2 -117 21 -162 14 -27 33 -56 43 -65 48 -40 196 -109 237 -109 16 0 17 39 17 675 0 675 0 675 -1065 675 -1064 0 -1064 0 -1070 -37 -22 -131 -82 -258 -174 -368 -57 -70 -59 -71 -100 -67 -41 4 -41 4 -41 -36 0 -40 0 -40 -45 -34 -45 5 -45 5 -45 -33 0 -28 -9 -47 -36 -78 -55 -65 -92 -151 -104 -242 -6 -44 -16 -103 -22 -131 -10 -51 -10 -51 -57 -47 -62 5 -92 -13 -113 -67 -30 -80 -24 -195 23 -403 47 -204 55 -341 26 -427 -16 -45 -16 -45 -16 -4 -2 81 -34 186 -92 303 -32 64 -54 118 -49 119 6 2 10 19 10 38 0 32 -2 34 -32 34 -37 0 -56 25 -121 155 -48 98 -59 138 -59 209 1 121 98 324 203 422 39 36 133 104 144 104 2 0 27 14 56 30 28 17 115 63 193 102 165 84 256 162 276 236 9 35 15 42 35 42 22 0 25 4 25 35 0 28 -4 35 -20 35 -18 0 -20 7 -20 55 0 55 0 55 -1125 55 -1125 0 -1125 0 -1125 -67 0 -38 7 -97 14 -133 8 -36 13 -66 12 -67 -3 -3 -155 164 -200 220 -38 47 -38 47 -482 47 -444 0 -444 0 -444 -605z m2085 -1948 c34 -112 39 -165 26 -279 -6 -61 -19 -140 -27 -177 -22 -92 -14 -159 27 -218 25 -38 32 -57 30 -90 -2 -43 -2 -43 38 -43 32 0 52 -9 93 -40 82 -62 163 -90 259 -90 61 0 89 5 120 20 46 24 79 72 79 116 0 93 66 211 133 239 48 19 73 19 119 -3 83 -39 125 -96 245 -331 37 -73 76 -149 87 -169 21 -43 162 -184 223 -226 23 -15 79 -41 125 -57 120 -42 257 -40 383 5 11 4 1 -10 -24 -33 -43 -41 -121 -73 -211 -87 -80 -13 -236 41 -377 131 -48 31 -131 77 -183 102 -78 38 -107 47 -167 51 -39 2 -88 1 -107 -2 -42 -8 -100 -55 -123 -99 -20 -39 -28 -167 -15 -239 24 -128 42 -171 90 -215 26 -25 38 -43 30 -43 -37 0 -167 35 -209 56 -105 52 -169 180 -169 337 0 78 -26 141 -88 209 -57 63 -192 121 -378 162 -84 19 -169 42 -189 51 -52 25 -92 80 -105 142 -15 69 -7 112 45 253 110 300 146 434 152 579 6 114 6 114 29 75 14 -21 31 -61 39 -87z m2 -2334 c-4 -3 -10 -3 -14 0 -3 4 0 7 7 7 7 0 10 -3 7 -7z m-87 -16 c0 -6 -21 -23 -47 -37 -64 -34 -120 -85 -146 -134 -18 -35 -22 -58 -22 -151 0 -135 13 -176 67 -216 64 -46 107 -41 204 22 44 29 102 72 129 96 28 24 82 60 121 79 60 30 81 36 135 35 36 0 85 -9 112 -19 47 -18 47 -18 -26 -30 -138 -24 -220 -81 -272 -190 -67 -142 -80 -190 -79 -302 1 -162 36 -246 145 -344 63 -57 87 -67 240 -105 125 -31 269 -97 295 -136 13 -20 11 -20 -114 -20 -127 0 -127 0 -174 -33 -59 -40 -85 -85 -152 -255 -29 -73 -66 -153 -83 -178 -37 -53 -117 -133 -162 -160 -41 -25 -133 -46 -238 -55 -83 -7 -83 -7 -83 17 0 20 11 30 53 52 214 110 247 149 247 295 0 34 4 62 10 62 6 0 10 16 10 35 0 34 -1 35 -38 35 -21 0 -48 7 -61 16 -18 13 -40 15 -104 12 -70 -4 -91 -9 -142 -39 -88 -49 -223 -185 -304 -303 -97 -142 -148 -195 -238 -248 -102 -60 -163 -80 -249 -82 -64 -1 -78 3 -155 41 -46 23 -104 60 -129 81 -41 36 -44 43 -41 81 2 40 2 41 -28 41 -28 0 -31 3 -31 30 0 28 -3 30 -35 30 -19 0 -35 -5 -35 -10 0 -6 -16 7 -35 29 -25 27 -35 48 -35 70 0 31 -1 32 -43 30 -33 -2 -52 3 -78 23 -19 14 -55 31 -82 38 -61 16 -65 24 -19 38 75 22 109 23 196 8 67 -12 108 -26 174 -62 48 -26 114 -62 147 -80 147 -80 385 -95 507 -33 125 64 208 205 208 357 0 74 -26 122 -93 169 -62 44 -128 63 -264 75 -123 11 -123 11 -123 44 0 28 6 36 43 56 24 14 80 35 124 48 73 21 87 22 125 11 58 -17 104 -45 230 -139 142 -106 192 -126 328 -126 122 -1 174 17 229 80 33 37 33 38 29 126 -3 68 -1 88 9 88 8 0 13 13 13 35 0 32 -2 35 -29 35 -22 0 -43 13 -80 50 -28 28 -55 50 -61 50 -5 0 -10 16 -10 35 0 33 -2 35 -35 35 -19 0 -35 -4 -35 -10 0 -18 -20 -11 -78 29 -106 72 -162 148 -207 281 -30 89 -39 148 -31 205 6 39 10 45 32 45 21 0 24 5 24 35 0 24 -5 35 -15 35 -24 0 14 83 64 141 46 53 85 77 201 120 88 32 90 33 90 16z m1680 -322 c0 -5 -5 -3 -10 5 -5 8 -10 20 -10 25 0 6 5 3 10 -5 5 -8 10 -19 10 -25z m117 -142 c38 -38 123 -108 189 -158 153 -116 199 -158 240 -221 82 -127 90 -327 18 -479 -32 -68 -148 -223 -258 -342 -105 -114 -135 -174 -143 -284 -6 -85 13 -168 67 -283 73 -158 84 -191 52 -163 -11 10 -36 17 -62 17 -51 0 -63 11 -114 112 -53 105 -72 210 -57 310 16 106 53 207 110 308 27 47 56 107 65 133 23 70 21 233 -4 325 -27 96 -26 102 9 102 16 0 39 9 52 19 22 17 24 27 23 99 -1 66 -6 90 -29 139 -24 48 -120 194 -168 253 -7 8 -32 52 -55 98 -38 72 -41 82 -24 82 10 0 50 -30 89 -67z m-2827 -853 c0 -5 -7 -10 -16 -10 -8 0 -12 5 -9 10 3 6 10 10 16 10 5 0 9 -4 9 -10z"></path><path id="psWZoqMe7" d="M5533 8448 c-44 -47 -53 -70 -53 -135 0 -78 12 -114 61 -189 35 -54 46 -64 70 -64 29 0 29 0 29 210 0 210 0 210 -38 210 -30 0 -45 -7 -69 -32z"></path><path id="pBcmI1uoo" d="M0 7565 c0 -88 1 -95 20 -95 19 0 20 7 20 95 0 88 -1 95 -20 95 -19 0 -20 -7 -20 -95z"></path><path id="pkXgq3ywv" d="M5542 3203 c-43 -91 -47 -105 -50 -190 -3 -81 -1 -97 19 -133 25 -44 73 -80 108 -80 21 0 21 2 21 250 0 250 0 250 -26 250 -22 0 -31 -12 -72 -97z"></path></g></g><g id="l68mF2oMiwQybgK6oIJsb40" fill="rgb(187,189,201)" style="transform: none;"><g><path id="pKtNeSFi5" d="M860 10084 c0 -21 47 -81 139 -176 64 -67 79 -78 108 -78 32 0 33 2 33 38 0 20 -7 62 -15 92 -8 30 -15 74 -15 98 0 42 0 42 -125 42 -108 0 -125 -2 -125 -16z"></path><path id="pz0ehQ0cY" d="M3330 10066 c0 -52 -36 -182 -59 -215 -30 -41 -100 -102 -151 -129 -23 -12 -54 -28 -69 -36 -14 -8 -60 -31 -101 -51 -41 -21 -82 -43 -90 -51 -9 -7 -33 -21 -55 -31 -68 -31 -152 -92 -204 -149 -49 -54 -125 -189 -152 -274 -19 -57 -23 -168 -10 -240 11 -59 73 -191 131 -280 60 -93 159 -301 176 -370 20 -80 28 -90 70 -90 34 0 34 0 34 123 0 97 -6 150 -30 262 -50 232 -52 248 -47 310 5 63 24 112 58 146 14 14 33 19 68 19 58 0 57 -3 70 127 9 88 51 213 72 213 4 0 21 22 37 49 31 49 116 128 133 123 11 -3 89 75 161 161 84 101 158 279 158 379 0 38 0 38 -100 38 -100 0 -100 0 -100 -34z m30 -111 c0 -3 -2 -5 -5 -5 -3 0 -5 2 -5 5 0 3 2 5 5 5 3 0 5 -2 5 -5z m-130 -360 c0 -3 -2 -5 -5 -5 -3 0 -5 2 -5 5 0 3 2 5 5 5 3 0 5 -2 5 -5z m-90 -70 c0 -3 -2 -5 -5 -5 -3 0 -5 2 -5 5 0 3 2 5 5 5 3 0 5 -2 5 -5z m-500 -940 c0 -3 -2 -5 -5 -5 -3 0 -5 2 -5 5 0 3 2 5 5 5 3 0 5 -2 5 -5z"></path><path id="p1C4b89RP8" d="M945 9193 c-63 -6 -134 -33 -207 -76 -70 -42 -98 -66 -102 -89 -1 -7 -11 -29 -23 -48 -12 -19 -46 -85 -76 -147 -55 -114 -67 -129 -220 -284 -93 -92 -161 -129 -254 -137 -63 -5 -63 -5 -63 -168 0 -157 1 -164 20 -164 11 0 44 22 74 49 53 48 126 81 181 81 41 0 133 -38 221 -91 170 -103 350 -134 474 -83 107 45 297 203 255 212 -8 2 -15 12 -15 21 0 27 -62 34 -130 15 -30 -9 -59 -20 -64 -25 -6 -5 -53 -9 -106 -9 -174 0 -277 59 -310 176 -12 42 -11 56 9 133 33 124 55 158 159 243 57 46 138 68 257 68 106 0 177 -15 340 -72 117 -41 123 -42 250 -42 103 0 137 4 163 17 31 17 43 37 22 37 -5 0 -10 13 -10 29 0 25 -5 30 -32 37 -52 11 -149 56 -199 91 -26 18 -49 33 -51 33 -3 0 -22 16 -42 35 -21 19 -42 35 -49 35 -6 0 -38 18 -71 39 -34 22 -88 48 -121 59 -61 20 -205 33 -280 25z m-275 -928 c0 -3 -2 -5 -5 -5 -3 0 -5 2 -5 5 0 3 2 5 5 5 3 0 5 -2 5 -5z m520 -10 c0 -3 -2 -5 -5 -5 -3 0 -5 2 -5 5 0 3 2 5 5 5 3 0 5 -2 5 -5z"></path><path id="p16pEhhy7p" d="M5215 9087 c-25 -51 -51 -124 -60 -162 -28 -122 -87 -223 -175 -297 -26 -22 -79 -58 -85 -58 -3 0 -27 -10 -53 -21 -73 -34 -159 -31 -254 9 -43 18 -81 31 -85 30 -15 -5 -118 61 -156 100 -37 38 -86 150 -87 199 0 32 -10 53 -26 53 -8 0 -14 -4 -14 -10 0 -5 -10 -9 -22 -7 -18 2 -25 -6 -36 -38 -22 -64 -19 -191 6 -248 22 -48 76 -133 97 -152 23 -20 104 -131 124 -171 18 -34 20 -46 11 -70 -13 -34 -48 -74 -65 -74 -7 0 -24 -9 -38 -20 -19 -15 -40 -20 -84 -20 -32 0 -63 4 -68 8 -6 5 -32 17 -58 26 -52 20 -102 72 -146 153 -24 45 -29 48 -68 51 -39 3 -43 1 -43 -19 0 -47 36 -162 78 -249 59 -120 204 -189 411 -192 97 -2 135 5 221 44 25 11 61 27 80 35 61 27 160 140 210 239 30 61 64 109 106 153 61 62 63 63 108 60 25 -2 46 -1 46 3 0 14 60 9 90 -7 36 -18 63 -56 90 -126 20 -49 21 -59 10 -109 -30 -133 -50 -175 -134 -284 -83 -106 -105 -141 -122 -188 -28 -81 -12 -215 39 -323 42 -88 59 -105 104 -105 36 0 36 0 30 75 -16 186 65 371 188 429 66 32 68 32 153 1 109 -39 102 -48 102 125 0 122 -3 152 -14 156 -28 11 -99 134 -113 195 -13 56 -12 63 6 92 22 36 64 70 99 81 22 7 22 9 21 189 -1 100 -4 172 -6 161 -4 -22 -4 -22 -51 -4 -182 70 -242 140 -250 293 -4 87 -4 87 -39 87 -33 0 -35 -2 -78 -93z m-995 -185 c0 -5 -7 -17 -16 -28 -8 -10 -14 -14 -11 -9 2 6 7 18 10 28 7 17 17 23 17 9z m1030 -467 c0 -3 -2 -5 -5 -5 -3 0 -5 2 -5 5 0 3 2 5 5 5 3 0 5 -2 5 -5z m-890 -490 c0 -3 -2 -5 -5 -5 -3 0 -5 2 -5 5 0 3 2 5 5 5 3 0 5 -2 5 -5z"></path><path id="phWBbAGd" d="M65 8915 c-5 -2 -22 -6 -37 -9 -28 -6 -28 -8 -28 -81 0 -93 12 -97 88 -24 43 42 52 57 52 85 0 32 -2 34 -32 33 -18 0 -37 -2 -43 -4z"></path><path id="pNWJP36HM" d="M2 7489 c-1 -355 2 -455 12 -465 16 -15 31 0 66 67 34 61 148 173 193 188 33 11 42 10 94 -14 64 -31 86 -53 104 -107 29 -90 -50 -228 -182 -314 -63 -41 -69 -48 -69 -79 0 -30 3 -35 24 -35 62 0 256 68 256 90 0 4 14 13 30 20 41 17 113 100 147 170 25 50 27 67 31 195 4 141 4 141 -46 227 -27 48 -67 108 -88 133 -40 49 -131 117 -174 130 -14 4 -77 32 -140 62 -93 44 -125 66 -167 111 -29 30 -53 59 -53 64 0 4 -8 8 -19 8 -18 0 -19 -17 -19 -451z m658 -144 c0 -3 -2 -5 -5 -5 -3 0 -5 2 -5 5 0 3 2 5 5 5 3 0 5 -2 5 -5z m-400 -570 c0 -3 -2 -5 -5 -5 -3 0 -5 2 -5 5 0 3 2 5 5 5 3 0 5 -2 5 -5z"></path><path id="p1414cI2Gz" d="M2006 7623 c-3 -15 -8 -53 -11 -83 -8 -74 -90 -344 -167 -553 -39 -105 -40 -112 -34 -190 9 -109 19 -151 47 -192 26 -37 52 -55 90 -60 48 -6 215 -46 275 -66 114 -37 229 -101 268 -148 77 -92 90 -125 97 -246 8 -133 34 -204 94 -250 53 -40 186 -85 252 -85 53 0 53 0 53 33 0 20 -9 42 -24 58 -34 37 -72 115 -91 189 -34 132 6 245 106 296 100 50 178 29 417 -113 51 -31 139 -74 195 -96 94 -38 109 -41 192 -40 135 1 213 10 245 30 26 15 30 23 30 60 0 39 -2 43 -24 43 -13 0 -52 -7 -85 -16 -47 -12 -72 -13 -113 -5 -86 16 -222 75 -285 124 -71 54 -167 156 -191 202 -9 18 -42 82 -73 141 -114 224 -172 310 -233 346 -7 4 -49 11 -94 15 -111 12 -143 -1 -175 -70 -14 -29 -27 -75 -30 -103 -10 -90 -33 -131 -99 -175 -62 -41 -102 -48 -153 -29 -14 5 -39 12 -55 15 -31 5 -137 72 -191 120 -19 17 -56 64 -83 104 -58 86 -59 97 -32 296 22 159 17 279 -16 390 -23 80 -23 80 -60 83 -33 3 -37 0 -42 -25z m174 -848 c0 -3 -2 -5 -5 -5 -3 0 -5 2 -5 5 0 3 2 5 5 5 3 0 5 -2 5 -5z"></path><path id="p18YH73vQi" d="M745 6333 c-29 -64 -55 -168 -55 -217 0 -19 -11 -63 -25 -99 -13 -36 -26 -77 -29 -91 -2 -14 -16 -42 -30 -63 -14 -21 -26 -42 -26 -48 -1 -20 -112 -100 -173 -125 -34 -13 -64 -27 -67 -31 -10 -12 -84 -24 -271 -44 -74 -8 -69 12 -69 -265 0 -248 0 -248 43 -254 125 -20 117 -25 152 114 17 69 41 146 54 172 24 51 81 106 140 135 88 45 224 131 271 173 14 12 32 27 40 34 31 22 109 133 143 201 83 167 107 240 107 323 0 43 -3 81 -6 85 -3 3 -17 2 -30 -3 -32 -13 -50 -4 -64 31 -10 24 -18 29 -46 29 -32 0 -36 -4 -59 -57z"></path><path id="pMImzOvO5" d="M5510 5855 c-233 -40 -413 -107 -536 -200 -76 -58 -164 -156 -164 -183 0 -24 2 -24 63 -19 63 5 98 14 107 28 9 13 119 39 215 50 90 10 261 4 302 -12 11 -4 49 -11 82 -15 61 -7 61 -7 61 180 0 213 14 195 -130 171z"></path><path id="pyGZoymn1" d="M1930 5229 c-14 -6 -32 -12 -41 -14 -10 -2 -50 -19 -91 -38 -99 -45 -155 -109 -191 -215 -14 -42 -28 -92 -31 -110 -7 -40 10 -223 26 -272 22 -72 73 -166 112 -208 46 -50 133 -111 186 -132 48 -19 130 -80 160 -120 14 -18 30 -38 36 -44 22 -22 37 -113 25 -149 -24 -71 -135 -141 -222 -140 -96 1 -188 42 -326 147 -142 106 -170 119 -273 120 -118 1 -179 -12 -255 -57 -72 -42 -85 -56 -85 -93 0 -32 0 -32 138 -36 175 -5 222 -22 317 -112 80 -76 90 -107 64 -201 -34 -121 -126 -237 -222 -281 -51 -22 -75 -27 -142 -26 -103 0 -231 37 -307 88 -29 20 -87 55 -128 78 -75 41 -75 41 -235 41 -160 0 -160 0 -163 -36 -3 -34 0 -37 60 -74 35 -21 67 -45 71 -52 4 -7 12 -13 18 -13 5 0 39 -28 74 -62 36 -35 66 -61 67 -59 4 6 83 -75 115 -116 30 -39 112 -90 203 -128 60 -24 72 -26 154 -20 116 9 201 36 286 90 68 43 90 67 242 265 130 169 291 296 398 315 29 5 43 1 78 -25 77 -55 99 -118 68 -192 -17 -40 -79 -99 -133 -126 -60 -30 -185 -101 -200 -113 -7 -6 -13 -20 -13 -30 0 -11 -4 -19 -10 -19 -5 0 -10 -10 -10 -21 0 -17 5 -20 25 -17 13 3 26 0 29 -6 3 -7 5 -7 5 2 1 8 23 12 74 12 98 0 252 26 303 52 53 26 137 108 181 176 19 29 53 106 77 172 55 153 92 210 170 263 58 39 65 41 148 45 88 4 88 4 88 37 0 31 -5 35 -77 73 -43 22 -121 52 -173 67 -52 15 -99 30 -105 34 -5 4 -26 14 -45 21 -115 44 -224 181 -250 316 -16 82 7 185 66 301 78 151 119 184 272 223 40 10 42 12 42 50 0 53 -21 62 -135 64 -87 1 -96 -1 -166 -37 -41 -20 -113 -70 -161 -110 -48 -40 -110 -84 -137 -97 -51 -24 -51 -24 -94 6 -55 38 -92 111 -92 180 1 62 41 147 94 197 35 32 117 86 154 100 12 4 17 17 17 42 0 35 0 35 -52 34 -29 0 -64 -5 -78 -10z m110 -24 c0 -3 -2 -5 -5 -5 -3 0 -5 2 -5 5 0 3 2 5 5 5 3 0 5 -2 5 -5z m-410 -320 c0 -3 -2 -5 -5 -5 -3 0 -5 2 -5 5 0 3 2 5 5 5 3 0 5 -2 5 -5z m330 -620 c0 -3 -2 -5 -5 -5 -3 0 -5 2 -5 5 0 3 2 5 5 5 3 0 5 -2 5 -5z m180 -170 c0 -3 -2 -5 -5 -5 -3 0 -5 2 -5 5 0 3 2 5 5 5 3 0 5 -2 5 -5z m-1130 -180 c0 -3 -2 -5 -5 -5 -3 0 -5 2 -5 5 0 3 2 5 5 5 3 0 5 -2 5 -5z m1130 -390 c0 -3 -2 -5 -5 -5 -3 0 -5 2 -5 5 0 3 2 5 5 5 3 0 5 -2 5 -5z m-1660 -220 c0 -3 -2 -5 -5 -5 -3 0 -5 2 -5 5 0 3 2 5 5 5 3 0 5 -2 5 -5z m140 -120 c0 -3 -2 -5 -5 -5 -3 0 -5 2 -5 5 0 3 2 5 5 5 3 0 5 -2 5 -5z m60 -60 c0 -3 -2 -5 -5 -5 -3 0 -5 2 -5 5 0 3 2 5 5 5 3 0 5 -2 5 -5z m1137 -52 c-4 -3 -10 -3 -14 0 -3 4 0 7 7 7 7 0 10 -3 7 -7z"></path><path id="p139MloPSR" d="M5558 5080 c-28 -40 -48 -81 -48 -96 0 -25 2 -26 43 -21 23 2 49 8 59 12 11 4 18 1 21 -12 3 -10 5 28 6 85 1 91 -1 102 -16 102 -11 0 -37 -29 -65 -70z m22 -65 c0 -3 -2 -5 -5 -5 -3 0 -5 2 -5 5 0 3 2 5 5 5 3 0 5 -2 5 -5z"></path><path id="pM5LAJacV" d="M3648 4848 c-3 -32 3 -55 24 -96 15 -30 31 -59 36 -65 5 -7 15 -28 23 -47 7 -19 23 -46 35 -60 32 -36 112 -151 126 -180 7 -14 20 -36 29 -50 27 -40 50 -118 40 -138 -31 -65 -42 -78 -70 -87 -39 -12 -40 -34 -6 -155 14 -49 25 -111 25 -137 0 -54 -28 -138 -63 -192 -13 -20 -39 -70 -57 -111 -19 -41 -37 -77 -41 -80 -7 -6 -19 -41 -26 -78 -11 -64 -14 -292 -4 -347 11 -58 77 -215 91 -215 4 0 13 -11 20 -25 15 -28 38 -33 46 -10 7 17 35 20 51 4 6 -6 26 -9 44 -7 58 5 52 47 -31 223 -29 62 -67 174 -71 210 -3 29 11 94 32 140 22 48 50 88 115 159 63 68 81 89 140 167 136 179 151 219 159 417 6 145 -2 193 -51 281 -29 54 -99 124 -184 186 -148 106 -360 299 -360 326 0 5 -15 9 -34 9 -33 0 -34 -2 -38 -42z m52 -13 c0 -3 -2 -5 -5 -5 -3 0 -5 2 -5 5 0 3 2 5 5 5 3 0 5 -2 5 -5z"></path><path id="p18pUDsWCY" d="M5570 3518 c-115 -158 -167 -197 -475 -354 -183 -93 -218 -126 -251 -233 -19 -62 -18 -91 5 -144 24 -57 83 -91 172 -101 73 -9 103 -22 148 -68 41 -40 61 -85 61 -134 0 -41 -19 -114 -30 -114 -4 0 -16 -17 -25 -37 -49 -105 -120 -183 -222 -246 -58 -36 -103 -41 -203 -22 -165 32 -194 34 -280 25 -85 -9 -182 -30 -233 -49 -22 -9 -27 -17 -27 -45 0 -38 12 -46 70 -46 67 0 234 -43 316 -81 22 -10 54 -19 72 -19 17 0 33 -4 37 -9 3 -5 20 -13 38 -16 17 -4 50 -15 72 -25 23 -10 54 -22 70 -26 17 -4 36 -12 44 -18 19 -15 183 -12 251 4 30 8 58 13 61 12 10 -2 49 44 54 64 2 10 9 37 15 59 6 22 17 69 25 105 29 126 77 266 114 324 38 63 117 146 137 146 7 0 19 3 27 6 10 3 17 -2 20 -13 3 -10 5 62 6 159 1 177 1 177 -39 205 -27 19 -51 48 -71 90 -41 83 -36 114 46 282 65 130 65 130 65 241 0 108 0 110 -23 110 -15 0 -32 -12 -47 -32z m-520 -433 c0 -3 -2 -5 -5 -5 -3 0 -5 2 -5 5 0 3 2 5 5 5 3 0 5 -2 5 -5z m-450 -1170 c0 -3 -2 -5 -5 -5 -3 0 -5 2 -5 5 0 3 2 5 5 5 3 0 5 -2 5 -5z"></path><path id="pLmcuxhRS" d="M1483 2151 c-17 -21 -48 -79 -67 -129 -34 -86 -45 -141 -66 -332 -12 -104 -24 -148 -52 -177 -25 -28 -123 -103 -134 -103 -3 0 -41 -16 -83 -36 -96 -45 -168 -61 -212 -45 -17 6 -44 11 -59 11 -19 0 -41 13 -68 40 -63 63 -70 87 -66 225 3 133 -2 148 -58 183 -27 17 -52 21 -125 23 -82 1 -97 -1 -136 -24 -24 -14 -86 -72 -138 -129 -51 -57 -122 -132 -156 -168 -63 -65 -63 -65 -63 -184 0 -119 0 -119 53 -112 175 21 160 22 224 -17 74 -45 108 -82 123 -133 10 -34 9 -50 -9 -110 -24 -80 -83 -177 -131 -214 -52 -41 -70 -62 -70 -87 0 -18 -6 -23 -25 -23 -30 0 -31 -4 -5 -30 21 -21 40 -26 40 -12 0 5 48 10 108 11 125 3 200 21 246 62 40 35 90 126 106 194 23 96 68 149 191 228 48 31 170 46 375 47 192 0 192 0 240 40 54 44 71 72 90 145 15 56 18 298 5 379 -8 47 0 280 15 444 7 72 7 72 -27 72 -27 0 -41 -8 -66 -39z"></path><path id="p12Q40dz20" d="M2986 1739 c-3 -16 -9 -44 -13 -61 -4 -18 -6 -37 -5 -41 1 -5 -7 -21 -18 -37 -11 -15 -20 -31 -20 -34 0 -8 -62 -96 -116 -166 -24 -30 -41 -56 -39 -59 3 -2 -4 -18 -14 -35 -79 -127 -108 -246 -96 -384 13 -134 76 -263 157 -323 24 -17 108 -63 187 -101 143 -70 146 -72 262 -189 122 -123 162 -184 175 -266 7 -43 7 -43 140 -43 108 0 134 3 134 14 0 8 -16 48 -36 90 -47 99 -45 152 11 258 142 272 149 293 143 442 -2 76 -8 101 -30 144 -37 71 -129 182 -150 182 -10 0 -18 7 -18 15 0 10 -11 15 -35 15 -43 0 -43 -6 -15 -150 46 -233 6 -381 -120 -445 -49 -25 -123 -34 -134 -16 -6 9 -145 47 -158 43 -17 -4 -112 97 -138 147 -40 81 -51 128 -51 233 0 109 15 178 72 343 38 107 43 130 43 215 1 100 -9 193 -23 219 -6 9 -25 16 -49 17 -38 2 -41 0 -46 -27z"></path><path id="pErVvvfBE" d="M4503 642 c-29 -10 -55 -17 -57 -14 -10 10 -126 -71 -173 -121 -47 -50 -111 -165 -153 -277 -16 -41 -89 -168 -101 -176 -5 -3 -9 -16 -9 -30 0 -24 0 -24 365 -24 365 0 365 0 365 25 0 19 -13 34 -49 60 -74 53 -121 125 -121 184 0 58 79 138 151 151 47 9 57 7 113 -20 69 -33 133 -91 184 -167 30 -46 39 -53 68 -53 32 0 34 2 34 33 0 41 -43 178 -69 223 -47 79 -114 142 -193 183 -58 29 -74 32 -183 37 -101 4 -128 2 -172 -14z m-83 -87 c0 -3 -2 -5 -5 -5 -3 0 -5 2 -5 5 0 3 2 5 5 5 3 0 5 -2 5 -5z"></path><path id="p1HQqeESzG" d="M1749 457 c-53 -48 -86 -93 -93 -128 -3 -13 -30 -80 -61 -149 -31 -68 -59 -137 -62 -152 -5 -28 -5 -28 104 -28 110 0 110 0 122 97 12 93 40 197 82 307 11 27 19 59 19 72 0 20 -5 24 -32 24 -25 0 -45 -11 -79 -43z"></path><path id="p17COAwRlB" d="M2950 35 c0 -35 0 -35 50 -35 42 0 50 3 50 18 0 28 -32 52 -68 52 -30 0 -32 -2 -32 -35z"></path></g></g><g id="l30kZG3Bjha0yoSMVbNFILq" fill="rgb(56,55,58)" style="transform: none;"><g><path id="pDrM8RvfR" d="M904 10013 c101 -121 231 -253 248 -253 33 0 36 21 11 98 -13 42 -27 114 -30 159 -6 79 -7 83 -29 83 -22 0 -24 -4 -24 -56 0 -31 7 -83 16 -116 8 -33 13 -62 11 -65 -3 -2 -56 50 -118 116 -80 85 -121 121 -137 121 -19 0 -12 -12 52 -87z"></path><path id="pDOuLbXiu" d="M3320 10032 c0 -91 -22 -151 -78 -213 -55 -62 -77 -76 -268 -174 -288 -148 -372 -212 -452 -347 -38 -65 -88 -203 -97 -273 -14 -108 33 -250 138 -415 22 -36 71 -124 108 -197 81 -159 102 -238 97 -377 -2 -53 0 -96 4 -96 13 0 51 77 71 145 16 55 21 97 20 195 0 110 -5 147 -41 307 -25 106 -42 207 -41 240 0 77 26 144 63 162 25 12 31 11 56 -8 57 -41 52 -50 84 164 12 79 25 128 48 174 39 82 61 105 181 203 166 135 278 301 312 463 20 96 19 115 -5 115 -14 0 -20 -7 -20 -23 0 -45 -42 -173 -82 -250 -45 -87 -155 -205 -283 -307 -120 -96 -180 -204 -196 -352 -13 -125 -15 -131 -46 -123 -45 11 -91 -12 -120 -63 -23 -39 -28 -60 -31 -137 -4 -93 -2 -106 48 -340 31 -145 43 -342 19 -318 -6 6 -12 19 -14 29 -2 11 -4 20 -5 22 -2 1 -3 5 -4 10 -16 71 -114 277 -189 396 -95 149 -145 291 -133 371 23 144 91 282 185 376 68 67 133 107 407 249 67 34 142 80 167 101 93 80 137 180 137 311 0 41 -3 48 -20 48 -18 0 -20 -7 -20 -68z"></path><path id="paQh9rgbF" d="M5635 9445 c0 -363 1 -510 2 -327 2 184 2 481 0 660 -1 180 -2 30 -2 -333z"></path><path id="pNqt29fAP" d="M5289 9227 c-51 -34 -124 -186 -151 -312 -26 -128 -57 -193 -118 -251 -93 -88 -128 -105 -252 -125 -92 -14 -170 5 -335 82 -107 51 -175 177 -177 331 -2 105 -18 119 -50 46 -37 -84 -56 -167 -56 -248 0 -85 32 -162 100 -244 65 -78 148 -200 155 -227 8 -34 -30 -89 -79 -113 -30 -15 -60 -19 -127 -19 -77 1 -94 4 -134 27 -25 15 -63 50 -84 79 -45 59 -109 218 -118 288 -6 51 -18 78 -29 66 -13 -13 -17 -206 -5 -268 19 -94 60 -209 97 -265 94 -148 348 -213 556 -143 173 58 264 135 345 292 60 116 127 187 202 212 69 23 142 17 176 -15 59 -55 89 -187 65 -277 -20 -73 -45 -119 -130 -233 -115 -155 -135 -197 -135 -290 1 -100 31 -187 105 -298 119 -178 136 -183 119 -32 -12 106 1 257 28 345 21 67 66 130 114 162 36 24 45 25 107 19 43 -5 82 -16 110 -32 42 -25 42 -25 42 -420 0 -258 -4 -402 -11 -415 -14 -26 -39 -173 -39 -229 0 -25 11 -86 25 -135 24 -87 25 -101 25 -396 0 -306 0 -306 -82 -318 -313 -48 -517 -147 -701 -341 -134 -140 -131 -152 23 -93 152 59 214 68 450 67 163 0 226 -4 260 -15 45 -15 45 -15 48 -158 3 -143 3 -143 -52 -225 -30 -46 -78 -107 -106 -137 -49 -52 -57 -79 -25 -79 20 0 87 34 143 72 42 29 42 29 42 -426 0 -456 0 -456 -32 -436 -18 11 -36 20 -40 20 -15 0 -8 -32 12 -60 52 -73 60 -106 60 -268 0 -147 -1 -155 -29 -215 -38 -84 -143 -202 -234 -265 -42 -29 -78 -52 -82 -52 -12 0 -330 -173 -360 -196 -16 -12 -46 -48 -65 -80 -28 -47 -34 -67 -35 -113 0 -128 85 -200 267 -226 86 -11 137 -93 124 -195 -3 -25 -24 -81 -46 -126 -31 -64 -56 -96 -119 -157 -44 -42 -101 -86 -127 -98 -47 -21 -50 -21 -133 -5 -259 48 -387 45 -544 -14 -53 -20 -150 -89 -148 -105 1 -4 61 -9 133 -10 73 -1 156 -7 183 -14 119 -31 280 -83 410 -131 164 -62 261 -74 357 -46 97 28 125 77 173 298 24 111 77 260 113 317 23 36 69 77 119 105 43 25 43 25 46 -1222 2 -1127 2 -1083 4 448 2 1695 2 1695 -19 1670 -11 -14 -48 -80 -81 -148 -51 -105 -61 -134 -65 -193 -4 -63 -2 -75 26 -132 30 -58 90 -117 121 -117 7 0 11 -39 11 -115 0 -115 0 -115 -42 -136 -71 -36 -142 -103 -175 -166 -32 -61 -83 -212 -108 -323 -42 -188 -58 -214 -154 -240 -54 -14 -176 -17 -193 -3 -7 6 -26 13 -43 17 -16 4 -48 16 -72 27 -23 10 -47 19 -53 19 -7 0 -26 6 -43 14 -44 19 -247 81 -330 100 -38 9 -88 16 -113 16 -24 0 -44 5 -44 11 0 5 -6 7 -12 3 -10 -5 -10 -4 -2 5 6 6 57 23 115 37 123 31 148 30 450 -16 87 -14 87 -14 142 14 52 27 154 115 204 178 13 15 39 60 60 99 32 61 38 84 42 147 4 94 -8 137 -55 185 -50 51 -78 64 -153 73 -133 15 -205 91 -176 187 28 94 87 148 245 227 249 124 358 203 459 335 46 60 46 60 52 -10 3 -38 6 414 7 1005 2 1075 2 1075 -40 1077 -23 2 -58 8 -78 15 -48 16 -357 16 -435 -1 -54 -11 -198 -53 -234 -68 -21 -9 106 109 142 132 18 11 38 25 46 33 17 17 134 76 203 102 89 35 337 88 386 83 9 -1 12 299 12 1471 0 1471 0 1471 -68 1498 -161 66 -221 136 -222 261 0 38 5 88 11 113 9 34 9 47 -1 59 -17 20 -31 19 -71 -8z m10 -144 c1 -38 4 -77 7 -88 11 -42 47 -104 78 -133 31 -30 166 -108 166 -96 0 4 7 0 17 -7 9 -8 17 -12 17 -10 1 2 11 1 24 -3 22 -7 23 -10 20 -129 -3 -121 -3 -121 -36 -131 -41 -12 -109 -77 -118 -113 -4 -15 -2 -58 4 -96 13 -71 50 -141 118 -221 34 -39 34 -40 34 -143 0 -57 -1 -103 -3 -103 -2 0 -23 10 -47 21 -87 42 -208 35 -269 -16 -39 -34 -97 -122 -114 -176 -26 -80 -40 -186 -34 -248 6 -51 4 -59 -8 -55 -29 11 -96 165 -107 245 -10 70 -9 78 15 130 13 30 59 100 100 156 89 120 97 134 131 238 44 136 28 241 -49 321 -58 60 -121 75 -225 53 -83 -18 -150 -91 -230 -248 -23 -46 -61 -104 -85 -130 -45 -48 -143 -103 -240 -136 -156 -53 -382 -11 -474 87 -31 34 -88 138 -94 173 -2 11 -7 27 -10 35 -33 89 -25 104 20 38 57 -86 109 -145 145 -167 46 -26 166 -43 228 -31 25 4 48 6 52 4 5 -3 8 2 8 10 0 9 5 16 12 16 15 0 67 58 79 88 5 13 9 35 9 50 0 37 -43 126 -77 159 -57 57 -127 150 -154 208 -24 49 -29 73 -29 131 0 44 6 87 16 110 9 22 18 35 19 29 36 -143 83 -239 139 -277 17 -12 33 -25 36 -28 5 -6 46 -29 70 -40 8 -4 25 -12 37 -18 22 -12 65 -24 153 -43 99 -22 265 15 340 77 108 90 157 168 191 307 18 70 100 267 112 267 2 0 5 -30 6 -67z m331 -813 c0 -100 -4 -180 -9 -180 -13 0 -82 107 -97 150 -16 44 -17 95 -3 123 19 36 72 87 91 87 17 0 18 -13 18 -180z m-14 -3228 c-8 -10 -29 -25 -46 -35 -31 -19 -31 -19 12 46 42 64 43 65 46 35 2 -17 -3 -37 -12 -46z m14 -1993 c0 -220 0 -220 -31 -202 -17 10 -42 37 -56 61 -39 65 -30 139 29 265 26 53 49 97 52 97 3 0 6 -99 6 -221z"></path><path id="ppaf1IlPZ" d="M950 9210 c-109 -20 -229 -78 -281 -137 -46 -52 -89 -121 -142 -231 -65 -133 -108 -193 -194 -271 -109 -98 -212 -140 -296 -121 -37 8 -37 8 -37 -32 0 -41 0 -41 78 -36 119 7 172 37 312 177 112 112 118 120 178 245 81 168 132 239 201 283 87 56 152 74 261 75 150 0 229 -34 430 -183 64 -48 105 -73 180 -109 8 -4 39 -13 68 -20 31 -7 51 -17 49 -24 -7 -22 -82 -40 -162 -39 -67 0 -100 7 -200 41 -173 60 -241 73 -371 73 -127 0 -184 -11 -265 -52 -93 -46 -140 -113 -178 -252 -38 -140 -25 -224 49 -297 63 -63 122 -80 276 -80 78 0 138 6 174 16 30 9 69 18 85 21 30 5 30 5 -10 -37 -43 -45 -139 -117 -193 -144 -112 -57 -259 -32 -442 76 -52 31 -119 64 -149 73 -111 36 -255 1 -334 -81 -37 -38 -37 -38 -37 -134 0 -80 4 -101 23 -135 29 -52 115 -116 202 -150 221 -87 301 -144 378 -272 66 -108 79 -156 75 -263 -6 -166 -72 -269 -218 -342 -96 -48 -213 -91 -208 -77 2 6 24 22 48 36 56 30 147 125 181 190 37 71 39 157 4 221 -67 124 -221 138 -335 29 -41 -38 -80 -84 -80 -93 0 -4 -16 -28 -35 -54 -34 -47 -48 -106 -23 -98 7 3 44 49 82 104 74 107 116 144 183 164 36 11 49 11 86 -4 77 -29 126 -108 113 -179 -15 -82 -92 -182 -185 -242 -80 -51 -185 -105 -206 -105 -8 0 -15 -7 -15 -16 0 -15 10 -16 83 -11 101 7 239 47 329 94 86 45 149 114 197 213 35 73 36 78 36 195 0 118 -1 121 -37 195 -46 95 -118 184 -186 231 -29 21 -96 56 -150 79 -144 62 -179 81 -228 124 -57 49 -84 102 -84 164 0 87 67 148 193 174 75 16 150 -6 271 -77 132 -77 221 -105 339 -105 88 0 99 2 163 35 38 19 92 55 121 80 62 54 188 203 179 212 -3 3 -65 -9 -138 -27 -112 -28 -152 -33 -253 -34 -106 -1 -126 2 -173 23 -62 28 -106 75 -123 131 -15 50 9 187 47 265 48 96 152 151 308 162 121 8 228 -9 379 -58 171 -56 280 -63 396 -24 78 26 161 70 161 86 0 11 -28 19 -69 19 -55 0 -173 33 -224 63 -24 15 -84 58 -133 96 -113 89 -193 137 -271 161 -74 23 -190 32 -253 20z"></path><path id="pRmwUULws" d="M172 8980 c-23 -15 -71 -36 -107 -46 -55 -16 -65 -22 -65 -41 0 -25 12 -28 72 -14 30 7 35 6 31 -6 -3 -7 -7 -12 -10 -9 -2 2 -24 -17 -49 -44 -30 -32 -44 -56 -44 -74 0 -28 0 -28 52 16 114 95 218 203 218 226 0 31 -43 28 -98 -8z"></path><path id="p1AUVKuu4u" d="M5 7700 c10 -110 10 -136 1 -285 -6 -99 -6 -108 8 -85 8 14 22 55 31 90 21 77 15 219 -10 290 -9 25 -18 50 -19 57 -1 7 -6 16 -10 20 -5 4 -5 -35 -1 -87z"></path><path id="p18gCmi6Xf" d="M1989 7753 c0 -5 0 -55 1 -113 1 -168 -31 -296 -155 -630 -87 -234 -68 -387 57 -451 23 -12 111 -37 196 -55 85 -19 171 -43 191 -53 20 -10 53 -24 73 -30 54 -18 129 -90 166 -159 27 -50 32 -71 32 -128 0 -110 34 -214 90 -278 59 -67 156 -102 305 -112 108 -7 113 4 34 79 -57 53 -69 71 -83 120 -40 139 -43 234 -11 297 21 41 80 88 121 96 19 3 56 4 80 0 56 -7 200 -76 315 -150 232 -147 418 -173 599 -81 53 27 119 95 149 153 26 51 13 61 -36 28 -183 -121 -402 -110 -583 29 -112 86 -169 160 -259 336 -111 216 -143 269 -192 314 -103 92 -230 90 -312 -5 -35 -42 -67 -129 -67 -187 0 -16 -10 -45 -23 -64 -50 -74 -158 -90 -269 -40 -125 56 -251 176 -295 281 -14 31 -14 43 0 110 41 193 46 336 17 459 -22 91 -54 157 -100 209 -30 32 -40 38 -41 25z m98 -254 c26 -102 26 -106 14 -242 -7 -75 -19 -160 -27 -188 -18 -61 -12 -114 21 -179 54 -105 209 -236 327 -276 65 -21 175 -21 217 0 77 40 131 129 131 217 0 40 24 90 60 124 27 26 38 30 88 29 43 -1 67 -7 97 -26 68 -44 76 -55 243 -364 85 -156 110 -188 210 -276 102 -89 214 -143 342 -164 53 -9 86 -7 152 11 69 18 56 -3 -20 -32 -46 -17 -86 -23 -150 -25 -80 -1 -95 2 -189 39 -56 22 -144 65 -195 96 -51 30 -133 75 -183 98 -82 40 -97 44 -165 44 -98 -1 -170 -36 -213 -106 -69 -112 -33 -358 69 -467 13 -14 22 -27 21 -29 -2 -1 -42 7 -90 18 -177 42 -236 117 -247 314 -5 96 -9 117 -32 156 -40 67 -95 130 -142 161 -48 33 -213 89 -341 117 -210 46 -235 68 -255 222 -11 84 -11 84 35 204 76 195 151 445 159 530 16 146 25 145 63 -6z"></path><path id="pNnnj6mdd" d="M805 6443 c-76 -79 -114 -178 -135 -359 -23 -194 -99 -318 -235 -384 -46 -23 -89 -33 -185 -45 -139 -18 -147 -19 -207 -43 -33 -13 -43 -22 -43 -39 0 -28 -3 -28 70 -3 33 11 102 24 153 30 161 16 281 67 362 153 59 62 135 252 135 337 0 46 28 152 56 216 26 59 26 59 42 27 18 -38 55 -57 83 -43 18 10 19 7 19 -40 0 -55 -40 -163 -116 -311 -40 -78 -100 -151 -180 -220 -29 -25 -161 -111 -229 -149 -76 -42 -150 -112 -180 -171 -23 -44 -45 -119 -71 -244 -9 -44 -11 -45 -47 -31 -17 8 -47 11 -64 9 -26 -4 -33 -10 -33 -28 0 -21 4 -22 44 -18 36 4 47 1 65 -18 21 -23 21 -23 40 -4 12 12 33 76 54 163 20 79 46 159 57 177 28 46 85 90 190 150 134 76 199 123 280 204 84 85 133 169 194 333 37 101 44 161 25 216 -10 28 -13 30 -36 21 -45 -17 -56 4 -48 88 5 51 3 73 -4 73 -6 0 -32 -21 -56 -47z"></path><path id="pgpBUcYIO" d="M5634 5690 c0 -69 1 -97 3 -62 2 34 2 90 0 125 -2 34 -3 6 -3 -63z"></path><path id="pS470OQSe" d="M2085 5250 c-161 -13 -333 -78 -399 -150 -109 -121 -144 -345 -82 -527 53 -159 129 -245 288 -329 159 -84 228 -173 228 -298 0 -34 -6 -46 -49 -87 -40 -38 -60 -49 -106 -59 -124 -26 -228 10 -390 134 -181 138 -261 160 -407 113 -97 -32 -121 -45 -223 -118 -128 -91 -126 -102 15 -88 109 12 268 -1 345 -27 69 -24 126 -65 159 -115 26 -39 28 -48 23 -107 -11 -109 -93 -230 -197 -286 -128 -70 -322 -50 -495 50 -148 85 -196 105 -284 121 -102 18 -180 13 -278 -17 -66 -20 -99 -45 -70 -55 6 -2 46 -14 87 -26 99 -30 178 -88 362 -266 128 -123 158 -147 234 -185 87 -42 89 -43 188 -42 118 1 165 15 279 82 90 53 141 106 237 247 80 117 219 257 303 304 40 23 76 35 115 38 53 5 60 3 99 -28 55 -45 66 -88 42 -174 -16 -57 -66 -100 -204 -175 -148 -81 -269 -190 -211 -190 8 0 17 4 20 9 10 16 91 30 206 35 197 9 276 35 364 123 73 72 103 121 158 261 67 169 90 213 132 249 62 55 91 59 300 41 46 -5 55 22 23 70 -38 58 -168 121 -323 158 -136 31 -187 56 -247 121 -88 96 -119 169 -120 291 -1 66 4 91 37 179 40 107 80 173 132 216 45 38 146 69 247 75 48 2 90 9 93 13 7 11 -79 53 -150 74 -31 9 -93 17 -136 18 -72 0 -86 -3 -152 -36 -40 -20 -95 -56 -123 -80 -57 -51 -202 -147 -220 -147 -26 0 -81 47 -100 85 -29 58 -28 194 2 251 25 48 86 105 142 133 67 35 203 81 237 81 68 0 87 25 27 35 -21 4 -45 8 -53 9 -8 2 -55 0 -105 -4z m-65 -53 c-43 -19 -168 -117 -200 -155 -87 -105 -76 -299 22 -371 59 -44 105 -48 174 -17 30 14 68 38 82 54 49 50 146 129 187 150 77 40 119 45 225 28 14 -2 28 -5 33 -5 4 -1 7 -8 7 -16 0 -8 -3 -15 -7 -16 -45 -4 -136 -40 -179 -70 -78 -53 -151 -176 -184 -307 -43 -169 -9 -308 105 -438 55 -64 132 -105 270 -144 61 -18 146 -51 190 -73 80 -42 80 -42 -11 -48 -74 -4 -100 -11 -137 -32 -78 -46 -127 -118 -178 -262 -51 -145 -95 -223 -164 -291 -37 -36 -81 -68 -106 -78 -98 -37 -356 -62 -347 -34 3 7 62 43 133 80 185 97 226 144 227 258 0 71 -12 100 -62 150 -37 37 -44 40 -93 40 -72 0 -133 -20 -198 -63 -76 -51 -225 -199 -299 -298 -111 -147 -143 -181 -210 -224 -79 -51 -141 -73 -241 -86 -72 -9 -79 -8 -148 20 -93 39 -117 56 -231 167 -52 51 -126 118 -165 149 -38 32 -72 61 -75 64 -3 4 -33 25 -68 46 -40 24 -59 42 -53 48 5 5 61 8 133 5 122 -4 124 -4 198 -45 41 -22 99 -57 128 -77 85 -57 205 -89 337 -90 103 0 114 2 175 30 89 43 135 91 186 198 50 104 58 139 48 213 -12 97 -102 183 -233 223 -47 15 -95 21 -183 21 -116 2 -118 2 -102 21 26 28 132 77 204 94 116 27 173 8 334 -113 145 -109 235 -147 356 -147 64 -1 84 3 135 29 77 39 116 88 123 154 10 105 -32 191 -127 263 -31 24 -58 45 -61 48 -3 3 -34 19 -70 35 -130 61 -198 136 -254 287 -49 130 -43 305 16 423 34 69 46 84 97 119 42 30 224 96 261 95 25 0 25 0 0 -12z"></path><path id="p1Bkll50TZ" d="M3626 5049 c-31 -158 34 -329 225 -590 65 -88 98 -163 101 -229 3 -47 0 -55 -24 -73 -24 -18 -31 -19 -54 -8 -37 17 -48 3 -35 -45 75 -282 70 -360 -30 -526 -141 -233 -155 -520 -34 -708 19 -30 43 -67 53 -82 21 -33 35 -35 54 -7 14 22 14 22 50 -10 33 -28 39 -30 62 -19 38 16 32 40 -50 233 -59 139 -78 208 -71 266 6 50 45 141 75 176 75 89 103 121 119 138 64 69 184 231 205 276 50 106 68 262 44 382 -30 152 -71 206 -278 363 -206 156 -284 237 -341 353 -26 51 -47 101 -47 111 0 32 -17 31 -24 -1z m134 -280 c38 -46 147 -138 280 -239 112 -84 180 -154 208 -212 54 -116 49 -331 -10 -451 -31 -62 -88 -140 -195 -265 -132 -155 -169 -208 -194 -278 -33 -95 -12 -203 78 -394 22 -47 43 -93 46 -102 9 -26 -8 -30 -29 -7 -15 17 -26 20 -56 15 -33 -5 -39 -3 -61 26 -14 18 -37 65 -52 103 -23 58 -29 90 -33 187 -4 107 -2 124 23 205 15 48 44 119 64 157 20 38 45 85 55 105 72 137 75 250 11 452 -5 15 -1 19 15 19 12 0 38 16 57 35 35 35 36 37 31 103 -5 69 -50 185 -87 227 -71 79 -210 311 -227 380 -7 30 -7 30 17 3 13 -15 40 -46 59 -69z"></path><path id="p1FvE3W791" d="M1585 2258 c-27 -18 -67 -55 -88 -83 -55 -72 -116 -203 -127 -271 -25 -164 -30 -208 -30 -266 0 -80 -17 -109 -101 -173 -81 -61 -167 -101 -255 -120 -95 -20 -131 -19 -189 9 -86 40 -108 82 -94 180 16 123 -23 226 -106 274 -33 18 -51 22 -100 19 -97 -5 -159 -43 -268 -161 -50 -55 -122 -133 -160 -172 -40 -43 -67 -79 -67 -92 0 -12 2 -22 5 -22 8 0 62 56 213 217 140 151 190 183 287 183 49 0 60 -4 91 -32 44 -41 55 -87 47 -199 -7 -100 5 -135 69 -198 52 -52 145 -76 234 -60 144 25 263 82 362 173 51 47 65 82 73 181 13 162 29 257 55 323 27 67 103 196 111 188 3 -2 0 -37 -6 -78 -13 -94 -16 -363 -6 -544 11 -205 -10 -280 -99 -354 -48 -40 -48 -40 -240 -40 -197 -1 -317 -15 -373 -43 -56 -30 -132 -97 -156 -139 -14 -24 -30 -65 -37 -93 -17 -72 -68 -161 -111 -196 -21 -16 -59 -36 -86 -44 -49 -15 -150 -20 -190 -9 -21 6 -19 10 29 53 124 111 195 297 157 412 -15 44 -82 114 -134 139 -48 23 -134 26 -231 8 -58 -10 -64 -14 -64 -36 0 -23 1 -24 53 -15 28 4 91 8 139 8 87 0 87 0 127 -39 23 -22 46 -55 52 -74 25 -76 -6 -196 -83 -315 -23 -35 -46 -56 -87 -77 -85 -43 -98 -55 -82 -73 28 -34 245 -52 326 -27 103 31 186 129 232 274 22 70 33 88 80 134 30 30 71 60 91 69 73 30 217 45 380 37 152 -7 152 -7 218 26 76 37 115 84 136 163 15 60 15 244 0 357 -7 47 -8 149 -3 275 7 179 11 208 35 279 15 43 25 83 24 87 -2 5 -25 -6 -53 -23z"></path><path id="pGNBCKM1w" d="M2996 1834 c-3 -9 -6 -38 -6 -65 0 -104 -56 -216 -199 -401 -137 -178 -179 -343 -130 -518 50 -181 116 -252 341 -366 140 -71 159 -84 248 -170 108 -105 148 -171 157 -260 6 -54 6 -54 41 -54 35 0 35 0 29 56 -10 93 -47 153 -176 283 -116 117 -119 119 -262 189 -79 38 -163 84 -187 101 -75 55 -138 174 -153 291 -18 145 21 258 159 453 43 59 82 116 87 125 6 9 17 28 26 42 20 32 49 122 49 154 0 47 19 36 36 -21 31 -100 24 -189 -25 -328 -69 -198 -86 -302 -71 -453 11 -123 52 -214 126 -281 29 -27 63 -51 76 -54 13 -3 66 -18 118 -32 108 -30 145 -28 221 10 58 30 103 87 124 158 19 64 19 230 1 317 -10 46 -11 69 -3 78 14 18 19 15 80 -60 87 -106 102 -145 101 -258 0 -84 -4 -104 -32 -170 -18 -41 -50 -104 -72 -140 -59 -96 -80 -159 -80 -243 0 -62 5 -83 35 -145 33 -69 36 -72 70 -72 19 0 35 3 35 6 0 4 -13 22 -30 40 -31 36 -60 117 -60 169 0 52 30 136 74 210 91 153 120 248 114 378 -4 98 -31 162 -102 249 -60 74 -216 205 -225 190 -4 -7 8 -70 26 -142 27 -110 33 -151 34 -252 1 -112 -1 -123 -28 -176 -20 -40 -41 -66 -73 -87 -40 -26 -53 -30 -113 -29 -201 4 -322 102 -356 290 -25 131 -6 282 57 464 33 97 36 114 37 220 0 127 -18 197 -71 278 -30 46 -39 50 -48 26z m614 -709 c0 -3 -2 -5 -5 -5 -3 0 -5 2 -5 5 0 3 2 5 5 5 3 0 5 -2 5 -5z"></path><path id="pLGRMHOgY" d="M4490 649 c-81 -32 -181 -101 -234 -161 -43 -49 -66 -90 -171 -313 -24 -49 -56 -97 -86 -127 -48 -48 -48 -48 -6 -48 36 0 45 5 63 33 51 77 76 120 95 170 79 204 157 304 289 369 108 52 150 61 249 53 97 -8 192 -49 248 -107 38 -40 105 -163 133 -243 23 -67 23 -65 11 -65 -4 0 -25 27 -45 60 -40 65 -110 126 -188 166 -35 18 -64 24 -110 24 -79 0 -122 -21 -164 -83 -69 -99 -50 -191 62 -305 68 -69 73 -72 118 -72 25 0 46 2 46 5 0 2 -26 22 -57 44 -142 97 -189 189 -145 283 59 124 218 119 347 -11 52 -52 151 -207 161 -251 10 -45 13 -50 30 -50 38 0 -11 259 -73 388 -50 101 -119 170 -220 218 -73 36 -85 38 -188 41 -94 3 -118 0 -165 -18z"></path><path id="p56zVE1k7" d="M1923 606 c-71 -34 -194 -153 -248 -243 -36 -59 -102 -202 -162 -351 -4 -10 2 -13 21 -10 24 3 33 15 75 113 55 127 124 261 149 290 26 29 79 73 62 52 -40 -53 -100 -305 -100 -421 0 -29 4 -36 20 -36 11 0 20 1 20 3 0 36 34 255 49 314 20 83 71 178 138 261 20 24 33 45 31 47 -2 2 -27 -6 -55 -19z"></path><path id="pXQF9djJS" d="M2850 194 c0 -14 11 -42 25 -62 14 -20 32 -58 41 -84 14 -43 19 -48 46 -48 26 0 30 3 25 21 -6 21 -6 21 17 0 21 -20 86 -30 86 -13 0 4 -44 54 -97 110 -68 71 -105 102 -120 102 -18 0 -23 -6 -23 -26z"></path><path id="p159TxC6fE" d="M4260 10 c-17 -5 1 -8 54 -9 44 -1 77 1 75 3 -10 8 -106 13 -129 6z"></path></g></g></svg>