<?xml version="1.0" encoding="UTF-8" standalone="no"?>
<!DOCTYPE svg PUBLIC "-//W3C//DTD SVG 1.1//EN" "http://www.w3.org/Graphics/SVG/1.1/DTD/svg11.dtd">
<svg xmlns="http://www.w3.org/2000/svg" version="1.1" viewBox="0.00 0.00 675.00 1200.00">
<g stroke-width="2.00" fill="none" stroke-linecap="butt">
<path stroke="#b5b3c1" vector-effect="non-scaling-stroke" d="
  M 134.84 0.00
  Q 145.58 3.06 156.06 7.12
  Q 174.34 14.19 190.46 22.10
  Q 199.41 26.50 214.90 34.91
  C 223.23 39.43 231.78 45.33 239.85 50.62
  Q 247.01 55.32 256.10 62.08
  Q 271.56 73.57 279.50 80.56
  Q 290.95 90.63 304.82 104.25
  Q 315.04 114.26 328.16 129.67
  C 330.85 132.83 333.26 136.22 336.07 139.29
  A 1.83 1.83 0.0 0 0 338.92 139.09
  Q 341.77 135.00 344.63 131.98
  C 346.67 129.83 348.23 127.34 350.21 125.18
  Q 356.53 118.29 362.99 111.37
  Q 374.87 98.63 388.58 86.52
  Q 399.13 77.21 417.13 63.24
  Q 422.67 58.94 429.57 54.26
  Q 436.00 49.89 441.74 46.29
  Q 454.55 38.25 472.06 28.58
  Q 481.52 23.36 489.97 19.45
  Q 512.30 9.14 536.51 1.05
  Q 538.46 0.39 540.51 0.00"
/>
<path stroke="#cbc8d5" vector-effect="non-scaling-stroke" d="
  M 675.00 43.88
  Q 674.71 43.30 674.67 42.50
  Q 674.64 42.01 674.15 41.98
  Q 644.32 40.24 620.29 41.22
  Q 575.64 43.05 532.98 55.42
  Q 508.04 62.65 491.05 69.90
  Q 483.88 72.97 477.33 75.96
  Q 470.81 78.93 464.22 82.43
  Q 454.63 87.53 446.76 91.93
  Q 433.39 99.40 415.00 112.28
  Q 411.13 114.99 407.25 117.95
  C 404.86 119.78 402.84 121.81 400.34 123.47
  Q 397.62 125.27 395.02 127.46
  Q 373.65 145.50 354.41 166.11
  C 348.99 171.91 343.86 178.31 338.91 184.62
  Q 337.52 186.40 336.06 184.66
  Q 330.51 178.07 324.78 171.38
  C 316.80 162.06 308.01 153.25 299.36 144.97
  Q 279.00 125.46 256.73 109.95
  Q 188.37 62.33 107.98 47.40
  Q 97.72 45.50 87.37 44.25
  C 80.52 43.42 73.30 42.34 66.51 41.90
  Q 33.26 39.78 0.00 42.23"
/>
<path stroke="#9f9ca8" vector-effect="non-scaling-stroke" d="
  M 263.62 0.00
  L 261.81 0.22
  Q 259.20 0.54 261.50 1.83
  C 263.76 3.11 265.90 5.59 267.60 6.97
  Q 278.87 16.19 284.82 21.68
  Q 312.82 47.56 336.37 77.27
  A 1.30 1.30 0.0 0 0 338.31 77.38
  C 340.70 74.99 342.43 72.14 344.60 69.55
  Q 365.74 44.23 389.95 21.87
  Q 392.61 19.40 402.45 11.06
  Q 408.68 5.78 414.71 0.00"
/>
<path stroke="#b4b1bb" vector-effect="non-scaling-stroke" d="
  M 675.00 106.22
  Q 666.12 104.59 657.22 103.25
  Q 582.76 92.02 511.63 112.46
  Q 501.84 115.27 492.67 118.54
  Q 407.68 148.86 347.87 216.79
  Q 342.73 222.63 338.16 228.83
  A 0.80 0.80 0.0 0 1 336.90 228.86
  C 303.90 187.71 262.22 154.01 214.83 131.84
  Q 128.39 91.40 31.38 101.27
  Q 16.33 102.80 1.10 106.00
  Q 0.57 106.12 0.31 105.65
  Q 0.01 105.10 0.00 103.99"
/>
<path stroke="#9f9ca8" vector-effect="non-scaling-stroke" d="
  M 675.00 170.08
  Q 662.39 166.36 655.75 164.72
  Q 628.61 158.05 603.87 156.36
  Q 583.23 154.95 556.83 156.59
  C 547.42 157.17 538.41 158.67 529.06 159.87
  C 525.50 160.33 522.33 161.23 518.89 162.06
  Q 515.41 162.91 511.33 163.72
  Q 501.70 165.65 488.84 169.72
  Q 465.31 177.19 445.50 187.03
  Q 436.27 191.62 427.59 196.38
  Q 414.87 203.35 399.33 214.66
  Q 364.52 240.01 339.35 271.89
  Q 337.92 273.71 336.23 272.13
  Q 334.79 270.78 333.59 269.31
  Q 301.99 230.77 260.78 204.45
  Q 243.64 193.50 228.07 186.15
  Q 217.73 181.27 207.98 177.36
  Q 198.17 173.41 183.85 169.00
  Q 175.41 166.40 166.29 164.26
  Q 156.09 161.86 148.40 160.41
  Q 134.82 157.83 118.65 156.59
  Q 101.59 155.27 72.35 156.40
  Q 64.28 156.71 45.44 159.27
  C 38.27 160.24 31.63 161.86 24.80 163.29
  Q 19.40 164.42 12.42 166.41
  Q 6.25 168.17 0.00 169.71"
/>
<path stroke="#b5b3c1" vector-effect="non-scaling-stroke" d="
  M 675.00 256.17
  Q 674.08 254.50 670.21 252.84
  Q 646.74 242.74 640.30 240.50
  Q 613.52 231.17 586.20 227.52
  C 566.58 224.90 544.17 224.69 526.38 226.22
  Q 508.99 227.72 484.20 233.49
  C 478.60 234.79 473.02 236.78 467.54 238.42
  Q 461.49 240.23 455.29 242.76
  C 445.12 246.91 434.95 250.65 425.43 255.97
  C 409.95 264.64 394.53 273.81 381.39 284.41
  Q 373.34 290.92 363.99 299.79
  Q 350.93 312.20 338.95 327.01
  A 1.87 1.87 0.0 0 1 336.11 327.10
  Q 330.93 321.46 325.35 314.79
  Q 318.05 306.06 309.69 298.95
  C 305.35 295.26 301.52 291.01 297.14 287.46
  Q 282.77 275.81 264.26 264.37
  Q 250.28 255.73 237.69 250.21
  C 229.05 246.42 220.47 242.64 211.51 239.66
  Q 169.38 225.64 125.05 225.31
  C 118.70 225.26 112.63 225.83 106.42 226.03
  Q 99.93 226.23 92.75 227.06
  Q 71.94 229.45 52.12 235.00
  C 46.56 236.55 41.17 238.51 35.66 240.11
  Q 29.50 241.89 23.49 244.36
  Q 11.31 249.36 0.00 255.47"
/>
<path stroke="#cbc8d5" vector-effect="non-scaling-stroke" d="
  M 675.00 332.63
  Q 674.55 330.42 674.79 327.96
  Q 674.93 326.63 673.25 326.53
  Q 672.73 326.50 672.30 326.19
  Q 654.56 313.63 634.68 303.89
  Q 605.90 289.79 570.99 283.21
  C 565.55 282.19 559.86 282.02 554.35 281.17
  Q 548.01 280.19 542.05 280.04
  Q 528.50 279.69 515.83 280.04
  Q 507.18 280.27 500.02 281.31
  C 487.73 283.10 475.72 284.98 463.88 288.46
  Q 453.91 291.39 441.62 295.83
  Q 425.38 301.70 410.38 310.33
  C 398.75 317.01 387.74 323.98 377.31 332.48
  Q 360.95 345.81 350.16 357.44
  Q 345.33 362.65 339.68 369.99
  C 338.77 371.17 337.25 371.96 336.08 370.56
  C 326.01 358.41 315.73 347.51 303.82 337.56
  Q 296.04 331.06 289.16 326.05
  Q 248.16 296.22 197.08 284.96
  Q 189.48 283.28 180.27 282.21
  Q 170.58 281.09 162.46 280.43
  Q 151.25 279.52 134.33 279.90
  Q 126.78 280.07 118.73 281.23
  Q 110.59 282.40 103.26 283.60
  Q 74.33 288.34 46.78 300.83
  Q 22.13 312.01 0.00 327.83"
/>
<path stroke="#c0bdca" vector-effect="non-scaling-stroke" d="
  M 675.00 393.03
  L 674.37 393.97"
/>
<path stroke="#b4b1bb" vector-effect="non-scaling-stroke" d="
  M 674.37 393.97
  Q 654.36 371.75 629.51 355.94
  C 591.69 331.87 547.05 319.25 501.98 321.23
  Q 441.49 323.89 390.79 356.58
  Q 360.50 376.10 338.41 403.94
  A 0.83 0.83 0.0 0 1 337.11 403.94
  Q 319.99 382.18 297.54 365.13
  Q 288.91 358.57 280.86 353.60
  Q 215.63 313.33 138.35 321.76
  C 111.44 324.70 84.44 333.30 61.02 345.81
  Q 27.52 363.72 0.00 393.36"
/>
<path stroke="#c0bdca" vector-effect="non-scaling-stroke" d="
  M 0.00 388.92
  Q 0.53 386.00 0.00 383.12"
/>
<path stroke="#9f9ca8" vector-effect="non-scaling-stroke" d="
  M 674.37 393.97
  Q 674.43 395.55 675.00 397.01"
/>
<path stroke="#9f9ca8" vector-effect="non-scaling-stroke" d="
  M 675.00 522.87
  Q 674.83 526.32 674.25 529.65
  Q 674.23 529.76 674.16 529.84
  Q 674.12 529.87 674.07 529.88
  Q 673.79 529.92 673.80 529.64
  Q 673.83 525.49 673.47 523.70
  Q 669.27 502.60 663.82 488.41
  Q 659.53 477.24 651.87 463.27
  Q 647.07 454.51 641.03 446.07
  Q 608.55 400.70 555.56 379.28
  Q 552.88 378.19 550.00 377.22
  C 545.34 375.66 540.76 374.10 535.98 372.97
  Q 522.60 369.81 513.46 368.38
  Q 500.47 366.35 488.65 366.43
  Q 479.44 366.49 466.66 367.46
  C 458.12 368.10 450.12 370.20 441.87 371.88
  C 433.34 373.61 424.38 376.87 416.30 380.05
  Q 389.21 390.74 368.01 408.09
  Q 362.27 412.79 356.37 418.16
  Q 351.20 422.87 346.66 428.13
  Q 341.74 433.81 337.38 438.90
  A 1.05 1.05 0.0 0 1 336.00 439.08
  Q 335.36 438.64 334.84 438.04
  C 328.37 430.61 321.68 423.17 314.41 416.69
  C 295.65 399.95 272.65 386.27 248.18 378.41
  C 224.41 370.77 199.12 367.40 174.36 369.42
  Q 152.27 371.23 133.70 376.80
  Q 122.65 380.11 112.91 384.32
  Q 98.41 390.58 83.55 400.18
  C 79.45 402.82 75.58 405.93 71.69 408.94
  C 65.12 414.02 58.95 419.97 53.08 425.75
  Q 39.34 439.29 28.41 456.49
  Q 16.93 474.55 10.32 493.27
  Q 4.29 510.34 3.32 515.53
  Q 2.06 522.35 0.91 529.36
  Q 0.76 530.27 0.49 529.39
  Q 0.21 528.47 0.25 527.00
  Q 0.41 521.05 0.00 515.13"
/>
<path stroke="#9f9ca8" vector-effect="non-scaling-stroke" d="
  M 675.00 587.88
  L 674.69 585.14
  Q 674.32 581.75 673.82 585.13
  C 673.29 588.73 673.00 592.24 672.07 595.80
  C 668.77 608.53 665.31 621.12 659.83 633.04
  C 655.69 642.03 651.11 651.23 645.62 659.47
  Q 642.52 664.11 639.38 668.52
  Q 633.68 676.53 624.29 686.53
  Q 604.87 707.20 585.58 727.58
  Q 580.08 733.39 574.17 739.68
  Q 550.79 764.55 528.19 788.98
  C 521.93 795.76 515.56 802.28 509.41 809.05
  Q 501.94 817.27 495.82 823.70
  Q 476.93 843.54 458.49 863.45
  Q 452.02 870.45 445.05 877.59
  C 435.99 886.89 427.15 896.90 418.13 906.44
  Q 395.20 930.69 370.82 957.03
  C 357.43 971.50 336.79 974.99 319.73 965.02
  Q 314.06 961.70 304.83 951.92
  Q 293.41 939.80 281.30 927.34
  Q 243.68 888.60 210.82 854.42
  Q 170.10 812.06 131.80 772.93
  Q 119.13 759.99 107.48 747.64
  Q 100.89 740.66 93.62 733.22
  Q 59.48 698.33 46.64 684.30
  Q 21.95 657.36 9.06 620.38
  Q 5.70 610.73 2.92 599.43
  C 1.94 595.46 1.46 591.27 0.71 587.12
  Q 0.54 586.16 0.44 587.12
  L 0.00 591.72"
/>
<path stroke="#b5b3c1" vector-effect="non-scaling-stroke" d="
  M 629.70 601.25
  Q 632.30 581.99 631.12 566.19
  C 630.69 560.46 629.63 554.56 628.73 548.79
  Q 627.45 540.47 624.16 529.10
  C 622.81 524.41 620.52 519.80 618.76 515.12
  Q 616.85 510.05 614.28 504.86
  Q 607.85 491.87 600.56 482.01
  Q 592.21 470.71 583.29 461.69
  Q 569.57 447.82 551.05 436.91
  Q 502.96 408.58 445.91 414.92
  Q 438.93 415.70 430.61 417.85
  Q 422.42 419.96 414.62 422.13
  C 408.95 423.71 403.55 426.68 398.18 428.89
  Q 392.10 431.39 387.98 433.69
  Q 359.59 449.54 339.03 474.79
  Q 337.49 476.68 335.95 474.79
  Q 322.60 458.37 303.73 444.40
  Q 296.35 438.94 287.38 434.07
  Q 273.38 426.47 261.43 422.52
  Q 210.33 405.63 159.70 420.81
  Q 147.90 424.35 131.26 432.62
  C 123.68 436.39 116.36 441.74 109.42 446.70
  Q 99.01 454.15 88.34 465.23
  C 85.80 467.86 83.39 471.11 80.88 474.05
  Q 77.20 478.36 75.44 480.76
  Q 55.62 507.76 47.98 540.08
  Q 44.63 554.24 43.85 565.43
  Q 43.11 576.23 43.64 587.59
  Q 44.18 599.00 47.14 613.59
  C 48.22 618.92 50.00 623.87 51.46 629.12
  Q 53.09 635.00 55.50 640.60
  Q 62.82 657.57 72.49 672.05
  Q 77.15 679.03 84.99 687.62
  Q 101.07 705.24 116.09 720.91
  Q 118.01 722.91 120.00 724.99
  Q 141.97 747.87 163.27 769.99
  Q 176.81 784.07 194.71 803.21
  C 202.02 811.04 210.66 819.46 218.47 827.78
  Q 241.45 852.25 269.22 881.47
  Q 286.20 899.34 300.03 913.54
  C 305.60 919.26 310.74 925.77 316.90 930.38
  Q 329.20 939.60 345.59 936.08
  Q 347.81 935.60 349.92 934.59
  C 353.45 932.90 357.11 931.81 360.07 929.20
  Q 362.55 927.02 364.81 924.56
  Q 384.77 902.79 408.59 878.40
  C 418.11 868.67 426.78 858.85 436.43 849.09
  Q 443.42 842.01 450.25 834.61
  C 462.01 821.86 473.82 809.90 485.69 797.15
  C 490.41 792.08 495.50 787.15 500.29 781.95
  Q 505.79 775.97 511.12 770.43
  C 517.38 763.94 523.35 757.23 529.72 750.92
  C 537.96 742.74 545.71 734.03 553.62 725.87
  C 563.77 715.39 573.66 704.91 583.72 694.58
  Q 603.65 674.11 616.04 648.09
  C 617.84 644.31 619.17 640.40 620.80 636.61
  Q 622.50 632.66 623.77 628.42
  Q 627.87 614.75 629.70 601.25"
/>
<path stroke="#cbc8d5" vector-effect="non-scaling-stroke" d="
  M 592.40 571.04
  C 591.23 561.68 588.67 551.64 585.47 542.86
  Q 580.90 530.28 574.03 518.20
  Q 569.34 509.96 562.71 501.78
  Q 553.91 490.92 546.04 483.98
  Q 511.11 453.15 464.59 448.08
  Q 453.80 446.90 437.59 447.80
  C 432.37 448.08 427.27 449.37 422.16 450.26
  Q 416.61 451.23 410.68 452.94
  Q 375.20 463.23 348.23 489.89
  Q 342.91 495.16 338.63 500.66
  A 1.45 1.45 0.0 0 1 336.37 500.69
  Q 306.26 463.85 260.55 451.89
  Q 255.20 450.49 249.77 449.60
  Q 242.39 448.40 238.88 448.04
  Q 226.70 446.81 213.55 447.71
  C 208.16 448.08 202.88 449.23 197.53 450.10
  Q 191.54 451.08 185.36 452.83
  Q 149.86 462.89 123.13 489.53
  Q 106.54 506.06 97.07 525.23
  Q 90.84 537.85 87.54 548.93
  Q 82.56 565.66 81.75 580.80
  Q 81.24 590.27 81.87 603.77
  Q 81.98 606.05 82.36 608.12
  C 83.01 611.63 83.17 615.14 83.89 618.63
  Q 90.96 653.04 112.74 680.61
  C 118.52 687.93 126.33 695.70 133.21 702.76
  Q 139.18 708.89 144.03 714.15
  C 151.67 722.44 159.76 730.44 167.45 738.66
  C 188.76 761.48 210.47 783.90 231.72 806.35
  Q 238.31 813.31 245.54 820.84
  Q 270.04 846.33 307.87 886.31
  Q 311.87 890.54 317.17 895.79
  C 321.33 899.90 328.71 902.51 334.00 903.08
  Q 337.80 903.48 343.94 902.61
  C 351.07 901.60 356.04 897.66 360.98 892.51
  Q 397.12 854.80 432.89 816.89
  Q 437.73 811.75 442.07 807.34
  Q 446.43 802.90 450.61 798.34
  C 456.54 791.88 462.65 785.86 468.27 779.39
  C 470.06 777.33 472.15 775.70 474.02 773.75
  Q 491.03 755.96 508.99 737.02
  Q 527.79 717.20 546.55 697.79
  Q 559.56 684.33 563.88 678.37
  Q 572.84 666.01 577.87 656.14
  Q 598.09 616.46 592.40 571.04"
/>
<path stroke="#b4b1bb" vector-effect="non-scaling-stroke" d="
  M 338.07 522.57
  Q 337.43 523.35 336.81 522.56
  C 308.00 486.06 260.30 469.48 215.09 479.43
  Q 176.71 487.88 150.34 517.03
  Q 120.70 549.79 118.56 595.45
  C 118.13 604.80 119.38 615.10 121.26 624.13
  Q 127.12 652.28 144.59 674.56
  Q 148.32 679.33 157.96 689.43
  Q 235.56 770.85 313.06 852.36
  C 316.73 856.21 319.96 860.35 324.55 862.79
  Q 337.19 869.50 349.36 863.42
  Q 353.74 861.23 361.97 852.43
  Q 376.20 837.18 390.70 822.20
  Q 393.48 819.33 396.33 816.33
  Q 458.39 750.84 517.22 689.34
  Q 525.74 680.44 530.65 674.15
  Q 550.23 649.10 555.23 615.96
  Q 556.17 609.70 556.20 599.65
  Q 556.31 569.62 543.33 544.28
  Q 523.09 504.80 482.96 486.88
  C 461.30 477.21 436.29 474.21 413.47 478.27
  Q 367.58 486.44 338.07 522.57"
/>
<path stroke="#9f9ca8" vector-effect="non-scaling-stroke" d="
  M 523.90 588.17
  C 520.60 570.44 512.05 552.28 499.76 538.47
  Q 478.54 514.62 446.76 505.96
  C 436.30 503.12 426.13 502.53 415.25 502.84
  Q 406.19 503.09 398.49 504.90
  Q 378.91 509.50 365.32 518.25
  C 359.19 522.19 352.47 526.86 347.39 532.02
  Q 342.54 536.96 338.48 541.86
  Q 337.44 543.11 336.42 541.85
  Q 314.99 515.59 282.66 506.48
  Q 272.25 503.55 263.34 503.12
  C 248.67 502.42 234.83 503.29 221.05 508.07
  Q 186.35 520.13 166.46 550.25
  C 141.87 587.48 143.41 635.96 170.37 672.04
  Q 174.61 677.70 183.48 686.94
  Q 215.20 719.97 247.73 754.24
  C 258.84 765.94 270.35 777.65 281.31 789.42
  Q 293.53 802.53 308.87 818.49
  C 313.37 823.18 317.44 827.77 322.41 832.33
  C 332.41 841.51 346.53 839.29 355.11 830.10
  Q 371.10 812.99 386.19 797.19
  Q 400.65 782.06 414.43 767.68
  Q 446.25 734.48 467.75 711.39
  Q 474.33 704.33 481.59 696.94
  Q 495.38 682.91 501.01 676.21
  Q 523.22 649.80 525.46 615.31
  Q 526.36 601.39 523.90 588.17"
/>
<path stroke="#b5b3c1" vector-effect="non-scaling-stroke" d="
  M 441.06 706.07
  C 448.54 698.11 455.73 690.44 463.58 682.43
  Q 471.68 674.16 479.13 665.33
  C 481.96 661.98 483.58 658.02 485.71 654.26
  C 490.07 646.55 492.20 638.67 494.10 629.48
  C 496.13 619.60 496.83 610.74 494.85 600.92
  Q 492.15 587.45 489.45 580.08
  C 485.76 570.04 479.35 561.52 472.26 553.30
  C 469.70 550.33 466.77 548.08 464.02 545.43
  C 461.18 542.69 457.32 539.81 454.19 538.09
  Q 442.34 531.55 437.34 529.87
  Q 420.19 524.11 401.69 524.98
  C 392.78 525.40 384.39 526.94 376.46 530.38
  Q 372.22 532.22 368.10 533.81
  C 365.54 534.81 363.39 536.49 360.96 537.76
  Q 358.60 538.98 356.15 540.75
  Q 346.38 547.80 338.98 557.19
  A 1.41 1.41 0.0 0 1 336.99 557.42
  C 333.96 554.98 332.02 551.95 329.15 549.42
  C 325.77 546.46 322.65 543.29 318.90 540.78
  Q 308.69 533.96 297.48 529.76
  C 283.91 524.68 269.78 524.27 255.07 525.65
  C 246.78 526.42 239.31 529.25 231.66 532.19
  C 225.35 534.62 219.39 538.90 213.97 543.01
  Q 203.13 551.24 195.04 562.41
  Q 190.80 568.27 187.60 575.69
  Q 183.10 586.14 182.07 590.40
  Q 172.09 631.77 195.92 665.26
  Q 200.01 671.00 208.87 680.06
  Q 224.26 695.81 238.24 710.87
  Q 240.29 713.09 242.76 715.51
  Q 244.90 717.59 247.05 720.03
  Q 252.25 725.94 258.70 732.51
  Q 270.27 744.28 284.06 758.98
  Q 289.96 765.27 296.57 772.08
  C 304.70 780.45 312.43 789.18 320.68 797.57
  C 324.66 801.61 330.13 806.57 335.60 806.64
  Q 341.26 806.71 345.69 804.57
  Q 349.43 802.77 353.69 798.17
  Q 366.98 783.80 379.65 770.65
  Q 399.19 750.37 416.43 732.18
  Q 428.77 719.14 441.06 706.07"
/>
<path stroke="#cbc8d5" vector-effect="non-scaling-stroke" d="
  M 336.10 573.75
  Q 336.08 573.61 336.15 573.47
  Q 336.22 573.31 336.10 573.17
  C 334.15 570.95 332.49 568.48 330.25 566.48
  C 321.29 558.50 309.74 551.41 297.85 549.20
  Q 293.00 548.30 287.77 547.33
  C 284.95 546.81 282.07 546.99 279.23 546.99
  Q 276.06 546.99 272.86 547.50
  C 268.35 548.23 263.82 548.63 259.41 550.00
  Q 248.59 553.36 240.21 558.67
  Q 233.87 562.69 226.71 570.52
  C 213.79 584.68 207.57 601.77 207.39 620.71
  C 207.31 629.13 209.56 637.34 212.23 644.91
  C 216.08 655.84 222.85 664.69 231.45 673.67
  Q 258.89 702.32 286.21 731.20
  C 294.21 739.66 302.36 747.60 310.39 756.34
  Q 316.52 763.02 323.48 770.12
  Q 328.47 775.21 331.68 776.38
  Q 338.40 778.85 344.41 775.95
  C 346.84 774.77 348.74 772.50 350.75 770.66
  Q 352.90 768.70 354.84 766.44
  C 361.10 759.16 368.13 752.51 374.77 745.54
  Q 380.20 739.84 385.61 734.13
  C 389.03 730.52 392.22 726.70 395.78 723.20
  Q 399.65 719.40 403.50 715.30
  Q 423.13 694.42 443.57 673.17
  Q 448.15 668.40 451.43 664.19
  Q 465.45 646.19 466.89 623.51
  Q 467.56 613.11 465.13 603.16
  Q 460.22 583.02 447.45 569.84
  Q 422.11 543.68 385.51 547.23
  Q 378.26 547.93 370.23 550.92
  Q 350.66 558.20 339.13 572.54
  Q 338.04 573.90 336.31 573.92
  Q 336.13 573.92 336.10 573.75"
/>
<path stroke="#b4b1bb" vector-effect="non-scaling-stroke" d="
  M 336.88 586.36
  C 327.41 575.57 316.52 568.35 302.58 565.37
  Q 283.55 561.29 266.05 568.53
  C 248.34 575.84 235.21 591.35 230.38 609.85
  Q 228.01 618.91 228.85 629.95
  Q 230.20 647.87 241.04 662.11
  Q 243.14 664.85 254.56 676.81
  Q 289.97 713.90 326.86 752.91
  Q 332.23 758.60 339.99 757.76
  Q 343.48 757.39 345.72 755.07
  Q 368.85 731.22 392.88 705.68
  Q 406.90 690.79 420.10 677.25
  Q 430.12 666.96 433.59 662.51
  Q 448.28 643.68 446.09 618.93
  Q 444.96 606.07 439.07 595.80
  Q 425.02 571.28 398.27 565.37
  C 375.76 560.41 352.61 568.52 338.26 586.33
  A 0.91 0.90 43.7 0 1 336.88 586.36"
/>
<path stroke="#9f9ca8" vector-effect="non-scaling-stroke" d="
  M 427.70 620.10
  Q 423.96 602.69 409.27 591.10
  Q 402.15 585.49 392.02 582.36
  Q 378.58 578.19 363.98 582.24
  Q 356.31 584.37 348.48 589.31
  C 344.64 591.73 341.97 594.89 339.15 598.29
  A 1.80 1.80 0.0 0 1 336.60 598.51
  C 332.81 595.29 329.46 591.37 325.32 588.69
  Q 307.85 577.39 286.36 581.42
  C 272.15 584.08 259.26 593.96 252.60 606.11
  Q 239.49 630.06 251.31 654.50
  Q 254.75 661.61 259.87 666.99
  Q 285.37 693.78 310.24 719.57
  Q 319.66 729.34 328.26 738.97
  C 332.66 743.90 340.11 745.19 345.26 739.95
  C 358.56 726.43 371.18 712.74 384.06 699.39
  C 392.18 690.98 400.16 682.33 408.52 673.53
  C 412.59 669.25 416.88 664.80 420.18 659.95
  Q 432.41 642.01 427.70 620.10"
/>
<path stroke="#b5b3c1" vector-effect="non-scaling-stroke" d="
  M 408.22 634.76
  Q 406.21 618.83 394.27 608.56
  Q 385.45 600.97 373.19 599.35
  Q 356.41 597.12 341.58 609.81
  Q 340.06 611.11 338.93 613.11
  A 1.62 1.61 46.9 0 1 336.07 613.01
  Q 335.65 612.12 334.98 611.44
  Q 323.82 600.16 307.89 599.16
  Q 298.27 598.55 289.82 602.65
  Q 283.61 605.66 279.83 609.12
  Q 270.72 617.45 267.63 629.95
  Q 265.16 639.97 267.95 649.04
  Q 271.10 659.29 277.80 666.22
  Q 285.93 674.63 293.62 682.86
  Q 295.69 685.07 297.87 687.37
  Q 303.61 693.44 309.33 699.17
  C 315.38 705.24 321.15 712.14 327.01 718.39
  C 328.57 720.05 330.46 721.31 332.13 722.87
  C 336.27 726.75 340.43 725.51 344.06 721.82
  Q 350.79 714.97 356.58 708.65
  Q 362.78 701.89 369.06 695.45
  Q 377.42 686.87 384.30 679.53
  Q 389.64 673.83 395.21 668.42
  Q 399.56 664.20 401.97 660.19
  C 406.45 652.74 409.30 643.35 408.22 634.76"
/>
<path stroke="#b4b1bb" vector-effect="non-scaling-stroke" d="
  M 675.00 688.22
  Q 629.27 736.33 582.71 784.97
  Q 504.03 867.16 425.36 949.35
  Q 423.95 950.83 422.54 952.29
  Q 396.52 979.40 370.62 1006.62
  Q 356.05 1021.94 333.93 1021.16
  Q 324.92 1020.85 317.00 1017.08
  Q 308.21 1012.89 302.57 1006.93
  Q 171.79 868.95 41.01 730.99
  Q 20.40 709.25 0.00 687.47"
/>
<path stroke="#cbc8d5" vector-effect="non-scaling-stroke" d="
  M 332.34 617.12
  Q 325.97 612.18 318.40 610.92
  Q 313.14 610.04 308.05 611.12
  Q 301.95 612.41 298.15 614.60
  C 283.14 623.25 278.53 641.91 287.09 656.90
  C 289.21 660.61 292.65 663.54 295.47 666.91
  Q 298.07 670.02 302.39 674.14
  Q 313.02 684.25 322.23 694.88
  C 325.97 699.19 329.79 702.67 333.89 706.50
  C 337.17 709.55 341.89 707.09 344.22 704.10
  C 348.42 698.69 353.58 694.25 357.46 689.77
  Q 365.01 681.05 374.01 672.57
  C 376.73 670.02 378.65 667.07 381.34 664.65
  C 391.62 655.37 394.90 642.40 389.88 629.43
  C 387.48 623.20 382.07 617.98 376.59 614.22
  C 372.80 611.62 367.05 611.16 362.64 610.67
  Q 358.03 610.16 352.57 611.59
  C 348.70 612.61 345.59 615.27 342.14 617.24
  C 340.54 618.15 339.35 619.52 338.14 620.88
  A 0.95 0.95 0.0 0 1 336.57 620.65
  C 335.69 618.75 333.85 618.29 332.34 617.12"
/>
<path stroke="#b4b1bb" vector-effect="non-scaling-stroke" d="
  M 338.05 626.28
  Q 337.37 626.70 336.81 626.12
  C 327.13 616.15 313.82 614.79 302.93 623.90
  C 294.66 630.82 292.64 642.07 296.82 651.90
  Q 298.35 655.51 302.33 659.60
  Q 317.75 675.45 332.76 691.58
  C 335.09 694.09 338.41 695.45 341.24 692.49
  Q 355.53 677.56 371.01 661.23
  Q 376.28 655.67 377.89 652.28
  C 386.17 634.88 372.40 616.23 353.48 618.02
  Q 346.43 618.69 340.38 624.01
  C 339.55 624.74 338.99 625.70 338.05 626.28"
/>
<path stroke="#9f9ca8" vector-effect="non-scaling-stroke" d="
  M 345.03 626.01
  Q 340.98 627.09 338.63 630.61
  A 1.19 1.18 -48.1 0 1 336.74 630.72
  Q 332.68 625.87 325.86 624.96
  C 316.18 623.66 307.65 630.48 306.02 639.92
  C 304.79 647.06 308.29 652.78 313.34 657.73
  Q 319.59 663.88 324.70 669.45
  Q 329.54 674.72 334.38 679.74
  C 337.81 683.29 340.04 679.86 342.45 677.77
  Q 343.65 676.72 344.75 675.54
  Q 354.27 665.30 364.66 654.33
  C 367.49 651.34 368.52 648.52 369.20 644.62
  C 369.70 641.78 368.57 637.36 367.37 634.86
  Q 363.47 626.77 354.06 624.94
  Q 351.53 624.44 349.17 624.98
  Q 347.21 625.43 345.03 626.01"
/>
<path stroke="#b5b3c1" vector-effect="non-scaling-stroke" d="
  M 337.01 633.06
  C 334.41 631.47 331.50 629.72 328.37 629.71
  Q 320.52 629.69 316.32 636.65
  C 313.37 641.52 314.38 646.78 318.05 650.73
  Q 323.56 656.67 329.03 662.74
  C 331.28 665.24 333.99 667.34 336.47 669.66
  A 1.95 1.95 0.0 0 0 339.04 669.72
  C 343.10 666.31 345.90 662.01 349.53 658.46
  C 353.26 654.82 359.20 649.98 359.93 644.97
  Q 361.59 633.71 350.66 629.51
  C 348.39 628.64 346.26 629.61 343.95 629.73
  C 341.82 629.84 340.35 631.06 339.13 632.67
  A 1.60 1.60 0.0 0 1 337.01 633.06"
/>
<path stroke="#cbc8d5" vector-effect="non-scaling-stroke" d="
  M 336.25 636.06
  Q 332.31 633.36 328.42 634.39
  C 323.84 635.61 320.98 640.62 322.75 645.10
  Q 323.78 647.70 326.20 650.10
  Q 331.63 655.49 336.60 660.65
  A 1.24 1.24 0.0 0 0 338.35 660.68
  Q 344.35 654.95 350.66 647.90
  Q 354.48 643.61 351.79 638.99
  Q 348.06 632.58 340.84 634.84
  Q 339.44 635.27 338.23 636.07
  Q 337.24 636.73 336.25 636.06"
/>
<path stroke="#c0bdca" vector-effect="non-scaling-stroke" d="
  M 675.00 721.78
  Q 674.53 723.36 674.64 724.17"
/>
<path stroke="#cbc8d5" vector-effect="non-scaling-stroke" d="
  M 674.64 724.17
  Q 668.37 729.21 663.19 734.68
  Q 628.38 771.47 587.74 814.23
  Q 586.09 815.97 584.31 817.80
  Q 562.45 840.30 540.67 863.52
  Q 533.82 870.82 526.88 878.02
  Q 507.54 898.08 487.04 919.79
  Q 478.06 929.31 470.76 937.00
  Q 458.64 949.79 447.66 961.16
  Q 440.03 969.05 433.00 976.63
  Q 426.39 983.75 419.18 991.08
  Q 408.60 1001.83 397.98 1013.38
  Q 393.07 1018.73 387.41 1024.48
  Q 382.02 1029.97 376.85 1035.59
  Q 364.12 1049.44 346.04 1052.77
  Q 336.31 1054.57 326.16 1052.27
  Q 314.29 1049.59 305.29 1042.48
  C 300.58 1038.77 296.39 1033.74 291.98 1029.35
  Q 287.11 1024.47 282.35 1019.30
  Q 273.95 1010.14 264.69 1000.65
  C 261.98 997.87 259.68 994.85 256.83 992.23
  Q 253.91 989.56 250.96 986.38
  Q 237.37 971.76 232.82 967.05
  C 225.31 959.28 218.40 951.85 210.80 944.19
  C 205.52 938.86 200.70 932.98 195.51 927.81
  Q 188.21 920.53 179.55 911.19
  Q 169.06 899.88 155.17 885.50
  C 147.32 877.38 139.84 869.09 131.46 860.55
  Q 118.69 847.51 105.88 833.68
  Q 105.25 833.00 93.30 820.62
  Q 87.40 814.50 80.98 807.48
  Q 72.58 798.28 52.06 777.32
  C 42.50 767.55 33.85 757.76 23.97 748.06
  C 21.72 745.85 20.00 743.12 17.78 740.97
  Q 15.42 738.68 13.54 736.64
  Q 6.90 729.46 0.00 722.96"
/>
<path stroke="#b5b3c1" vector-effect="non-scaling-stroke" d="
  M 675.00 735.08
  L 674.64 724.17"
/>
<path stroke="#b5b3c1" vector-effect="non-scaling-stroke" d="
  M 675.00 759.47
  Q 664.88 770.61 654.19 782.10
  C 649.85 786.77 645.12 791.27 640.77 796.04
  C 633.20 804.35 625.44 812.18 617.65 820.14
  C 616.27 821.56 614.97 823.43 613.48 824.97
  Q 590.13 849.10 567.02 873.46
  C 560.39 880.46 553.26 887.46 546.85 894.61
  C 543.08 898.81 538.86 902.57 535.11 906.86
  C 528.66 914.21 521.21 921.22 514.48 928.57
  C 508.39 935.21 502.04 941.35 495.83 948.12
  Q 486.17 958.63 476.31 969.07
  C 470.77 974.92 464.84 980.26 459.61 986.32
  C 457.58 988.67 455.22 990.56 453.27 992.99
  C 450.75 996.15 447.53 999.00 444.66 1002.01
  Q 416.67 1031.37 389.81 1059.66
  C 381.94 1067.95 374.30 1076.73 364.26 1082.04
  C 351.94 1088.57 333.22 1090.83 319.57 1085.63
  Q 306.53 1080.66 298.41 1073.48
  Q 293.36 1069.02 285.54 1060.36
  C 273.06 1046.55 260.05 1033.28 246.97 1019.93
  C 242.54 1015.40 238.41 1010.52 233.90 1005.83
  C 220.40 991.81 207.28 978.34 194.32 964.29
  C 182.49 951.47 170.25 939.21 158.33 926.48
  Q 144.03 911.23 129.62 896.52
  Q 122.80 889.57 115.80 882.05
  C 96.92 861.76 78.36 842.86 58.88 821.90
  C 53.77 816.41 48.19 811.01 43.12 805.47
  C 37.59 799.42 31.74 793.84 26.26 787.74
  C 25.05 786.38 23.48 785.17 22.36 783.97
  Q 10.95 771.83 0.00 759.87"
/>
<path stroke="#9f9ca8" vector-effect="non-scaling-stroke" d="
  M 675.00 819.63
  Q 674.74 818.82 674.36 818.62
  Q 674.01 818.44 673.49 818.95
  Q 666.85 825.42 656.58 836.33
  Q 613.89 881.66 565.12 932.62
  Q 553.96 944.29 543.85 954.73
  Q 536.40 962.42 530.08 969.21
  Q 510.34 990.40 489.85 1011.60
  C 486.57 1014.99 483.50 1018.76 480.07 1022.06
  Q 476.33 1025.67 472.75 1029.49
  Q 465.47 1037.23 458.88 1044.14
  Q 423.50 1081.26 388.68 1117.93
  C 382.35 1124.60 374.50 1131.55 366.15 1135.32
  C 339.48 1147.36 309.21 1142.11 288.98 1120.78
  Q 260.06 1090.28 231.29 1060.31
  Q 224.44 1053.18 217.52 1045.82
  Q 188.48 1014.95 159.40 984.55
  C 142.63 967.02 125.72 949.64 109.18 931.93
  Q 95.53 917.33 82.03 903.37
  C 76.92 898.08 71.88 892.44 66.64 887.08
  Q 60.73 881.04 55.13 875.05
  C 46.24 865.53 37.28 856.48 28.32 846.95
  Q 18.76 836.77 8.22 825.76
  Q 5.02 822.41 1.44 818.28
  A 0.73 0.73 0.0 0 0 0.60 818.09
  Q 0.28 818.23 0.00 818.64"
/>
<path stroke="#b4b1bb" vector-effect="non-scaling-stroke" d="
  M 675.00 863.89
  Q 658.24 881.21 615.80 925.80
  Q 505.57 1041.62 395.31 1157.42
  Q 385.91 1167.29 380.76 1171.08
  C 361.28 1185.42 335.48 1189.27 312.52 1180.84
  Q 296.74 1175.04 286.28 1164.23
  Q 254.59 1131.47 214.93 1089.41
  C 193.35 1066.53 171.45 1043.94 149.84 1021.16
  Q 75.00 942.28 0.00 863.76"
/>
<path stroke="#cbc8d5" vector-effect="non-scaling-stroke" d="
  M 675.00 934.74
  Q 674.59 935.34 674.70 936.51
  Q 674.85 937.94 673.88 938.51
  C 672.16 939.53 670.48 941.29 669.10 942.76
  Q 658.41 954.18 647.25 965.56
  C 641.28 971.66 635.65 978.05 629.63 984.21
  Q 622.89 991.09 616.31 998.18
  Q 611.58 1003.28 606.67 1008.22
  C 600.80 1014.12 595.32 1020.24 589.74 1026.00
  Q 583.17 1032.77 577.00 1039.27
  Q 560.21 1056.97 542.83 1075.33
  Q 534.35 1084.29 526.41 1092.65
  Q 481.15 1140.29 436.68 1187.16
  Q 430.49 1193.69 424.23 1200.00"
/>
<path stroke="#cbc8d5" vector-effect="non-scaling-stroke" d="
  M 250.73 1200.00
  L 0.00 936.50"
/>
<path stroke="#b5b3c1" vector-effect="non-scaling-stroke" d="
  M 675.00 1008.12
  Q 674.96 1011.83 671.91 1014.91
  Q 655.48 1031.52 631.37 1057.62
  Q 626.75 1062.63 621.82 1067.56
  Q 617.07 1072.31 612.21 1077.46
  Q 611.18 1078.56 610.13 1079.64
  Q 592.37 1097.83 575.11 1116.48
  Q 567.92 1124.25 561.38 1131.02
  Q 540.28 1152.86 519.54 1175.03
  C 512.34 1182.74 503.28 1191.50 495.44 1200.00"
/>
<path stroke="#b5b3c1" vector-effect="non-scaling-stroke" d="
  M 179.83 1200.00
  Q 171.48 1192.50 165.19 1185.57
  Q 156.60 1176.10 148.84 1168.16
  C 143.41 1162.60 137.70 1156.04 131.85 1150.17
  Q 123.53 1141.82 115.36 1132.97
  C 113.68 1131.14 111.81 1129.65 110.14 1127.83
  Q 91.64 1107.62 73.07 1088.54
  Q 66.16 1081.44 59.24 1074.08
  Q 40.45 1054.10 22.01 1035.06
  Q 16.80 1029.69 10.99 1023.41
  Q 5.50 1017.46 0.00 1011.74"
/>
<path stroke="#9f9ca8" vector-effect="non-scaling-stroke" d="
  M 675.00 1106.04
  L 674.57 1104.00
  A 0.64 0.64 0.0 0 0 673.48 1103.69
  Q 628.50 1150.99 583.61 1198.36
  Q 582.49 1199.54 583.75 1200.00"
/>
<path stroke="#9f9ca8" vector-effect="non-scaling-stroke" d="
  M 91.25 1200.00
  Q 91.75 1199.79 91.75 1199.78
  A 0.83 0.82 -46.9 0 0 91.72 1198.68
  Q 46.39 1151.07 1.06 1103.66
  Q 0.76 1103.34 0.45 1103.64
  Q 0.12 1103.95 0.00 1105.00"
/>
</g>
<path fill="#c0becc" d="
  M 0.00 0.00
  L 134.84 0.00
  Q 145.58 3.06 156.06 7.12
  Q 174.34 14.19 190.46 22.10
  Q 199.41 26.50 214.90 34.91
  C 223.23 39.43 231.78 45.33 239.85 50.62
  Q 247.01 55.32 256.10 62.08
  Q 271.56 73.57 279.50 80.56
  Q 290.95 90.63 304.82 104.25
  Q 315.04 114.26 328.16 129.67
  C 330.85 132.83 333.26 136.22 336.07 139.29
  A 1.83 1.83 0.0 0 0 338.92 139.09
  Q 341.77 135.00 344.63 131.98
  C 346.67 129.83 348.23 127.34 350.21 125.18
  Q 356.53 118.29 362.99 111.37
  Q 374.87 98.63 388.58 86.52
  Q 399.13 77.21 417.13 63.24
  Q 422.67 58.94 429.57 54.26
  Q 436.00 49.89 441.74 46.29
  Q 454.55 38.25 472.06 28.58
  Q 481.52 23.36 489.97 19.45
  Q 512.30 9.14 536.51 1.05
  Q 538.46 0.39 540.51 0.00
  L 675.00 0.00
  L 675.00 43.88
  Q 674.71 43.30 674.67 42.50
  Q 674.64 42.01 674.15 41.98
  Q 644.32 40.24 620.29 41.22
  Q 575.64 43.05 532.98 55.42
  Q 508.04 62.65 491.05 69.90
  Q 483.88 72.97 477.33 75.96
  Q 470.81 78.93 464.22 82.43
  Q 454.63 87.53 446.76 91.93
  Q 433.39 99.40 415.00 112.28
  Q 411.13 114.99 407.25 117.95
  C 404.86 119.78 402.84 121.81 400.34 123.47
  Q 397.62 125.27 395.02 127.46
  Q 373.65 145.50 354.41 166.11
  C 348.99 171.91 343.86 178.31 338.91 184.62
  Q 337.52 186.40 336.06 184.66
  Q 330.51 178.07 324.78 171.38
  C 316.80 162.06 308.01 153.25 299.36 144.97
  Q 279.00 125.46 256.73 109.95
  Q 188.37 62.33 107.98 47.40
  Q 97.72 45.50 87.37 44.25
  C 80.52 43.42 73.30 42.34 66.51 41.90
  Q 33.26 39.78 0.00 42.23
  L 0.00 0.00
  Z"
/>
<path fill="#aaa8b6" d="
  M 134.84 0.00
  L 263.62 0.00
  L 261.81 0.22
  Q 259.20 0.54 261.50 1.83
  C 263.76 3.11 265.90 5.59 267.60 6.97
  Q 278.87 16.19 284.82 21.68
  Q 312.82 47.56 336.37 77.27
  A 1.30 1.30 0.0 0 0 338.31 77.38
  C 340.70 74.99 342.43 72.14 344.60 69.55
  Q 365.74 44.23 389.95 21.87
  Q 392.61 19.40 402.45 11.06
  Q 408.68 5.78 414.71 0.00
  L 540.51 0.00
  Q 538.46 0.39 536.51 1.05
  Q 512.30 9.14 489.97 19.45
  Q 481.52 23.36 472.06 28.58
  Q 454.55 38.25 441.74 46.29
  Q 436.00 49.89 429.57 54.26
  Q 422.67 58.94 417.13 63.24
  Q 399.13 77.21 388.58 86.52
  Q 374.87 98.63 362.99 111.37
  Q 356.53 118.29 350.21 125.18
  C 348.23 127.34 346.67 129.83 344.63 131.98
  Q 341.77 135.00 338.92 139.09
  A 1.83 1.83 0.0 0 1 336.07 139.29
  C 333.26 136.22 330.85 132.83 328.16 129.67
  Q 315.04 114.26 304.82 104.25
  Q 290.95 90.63 279.50 80.56
  Q 271.56 73.57 256.10 62.08
  Q 247.01 55.32 239.85 50.62
  C 231.78 45.33 223.23 39.43 214.90 34.91
  Q 199.41 26.50 190.46 22.10
  Q 174.34 14.19 156.06 7.12
  Q 145.58 3.06 134.84 0.00
  Z"
/>
<path fill="#939099" d="
  M 263.62 0.00
  L 414.71 0.00
  Q 408.68 5.78 402.45 11.06
  Q 392.61 19.40 389.95 21.87
  Q 365.74 44.23 344.60 69.55
  C 342.43 72.14 340.70 74.99 338.31 77.38
  A 1.30 1.30 0.0 0 1 336.37 77.27
  Q 312.82 47.56 284.82 21.68
  Q 278.87 16.19 267.60 6.97
  C 265.90 5.59 263.76 3.11 261.50 1.83
  Q 259.20 0.54 261.81 0.22
  L 263.62 0.00
  Z"
/>
<path fill="#d5d2dd" d="
  M 675.00 43.88
  L 675.00 106.22
  Q 666.12 104.59 657.22 103.25
  Q 582.76 92.02 511.63 112.46
  Q 501.84 115.27 492.67 118.54
  Q 407.68 148.86 347.87 216.79
  Q 342.73 222.63 338.16 228.83
  A 0.80 0.80 0.0 0 1 336.90 228.86
  C 303.90 187.71 262.22 154.01 214.83 131.84
  Q 128.39 91.40 31.38 101.27
  Q 16.33 102.80 1.10 106.00
  Q 0.57 106.12 0.31 105.65
  Q 0.01 105.10 0.00 103.99
  L 0.00 42.23
  Q 33.26 39.78 66.51 41.90
  C 73.30 42.34 80.52 43.42 87.37 44.25
  Q 97.72 45.50 107.98 47.40
  Q 188.37 62.33 256.73 109.95
  Q 279.00 125.46 299.36 144.97
  C 308.01 153.25 316.80 162.06 324.78 171.38
  Q 330.51 178.07 336.06 184.66
  Q 337.52 186.40 338.91 184.62
  C 343.86 178.31 348.99 171.91 354.41 166.11
  Q 373.65 145.50 395.02 127.46
  Q 397.62 125.27 400.34 123.47
  C 402.84 121.81 404.86 119.78 407.25 117.95
  Q 411.13 114.99 415.00 112.28
  Q 433.39 99.40 446.76 91.93
  Q 454.63 87.53 464.22 82.43
  Q 470.81 78.93 477.33 75.96
  Q 483.88 72.97 491.05 69.90
  Q 508.04 62.65 532.98 55.42
  Q 575.64 43.05 620.29 41.22
  Q 644.32 40.24 674.15 41.98
  Q 674.64 42.01 674.67 42.50
  Q 674.71 43.30 675.00 43.88
  Z"
/>
<path fill="#939099" d="
  M 675.00 106.22
  L 675.00 170.08
  Q 662.39 166.36 655.75 164.72
  Q 628.61 158.05 603.87 156.36
  Q 583.23 154.95 556.83 156.59
  C 547.42 157.17 538.41 158.67 529.06 159.87
  C 525.50 160.33 522.33 161.23 518.89 162.06
  Q 515.41 162.91 511.33 163.72
  Q 501.70 165.65 488.84 169.72
  Q 465.31 177.19 445.50 187.03
  Q 436.27 191.62 427.59 196.38
  Q 414.87 203.35 399.33 214.66
  Q 364.52 240.01 339.35 271.89
  Q 337.92 273.71 336.23 272.13
  Q 334.79 270.78 333.59 269.31
  Q 301.99 230.77 260.78 204.45
  Q 243.64 193.50 228.07 186.15
  Q 217.73 181.27 207.98 177.36
  Q 198.17 173.41 183.85 169.00
  Q 175.41 166.40 166.29 164.26
  Q 156.09 161.86 148.40 160.41
  Q 134.82 157.83 118.65 156.59
  Q 101.59 155.27 72.35 156.40
  Q 64.28 156.71 45.44 159.27
  C 38.27 160.24 31.63 161.86 24.80 163.29
  Q 19.40 164.42 12.42 166.41
  Q 6.25 168.17 0.00 169.71
  L 0.00 103.99
  Q 0.01 105.10 0.31 105.65
  Q 0.57 106.12 1.10 106.00
  Q 16.33 102.80 31.38 101.27
  Q 128.39 91.40 214.83 131.84
  C 262.22 154.01 303.90 187.71 336.90 228.86
  A 0.80 0.80 0.0 0 0 338.16 228.83
  Q 342.73 222.63 347.87 216.79
  Q 407.68 148.86 492.67 118.54
  Q 501.84 115.27 511.63 112.46
  Q 582.76 92.02 657.22 103.25
  Q 666.12 104.59 675.00 106.22
  Z"
/>
<path fill="#aaa8b6" d="
  M 675.00 170.08
  L 675.00 256.17
  Q 674.08 254.50 670.21 252.84
  Q 646.74 242.74 640.30 240.50
  Q 613.52 231.17 586.20 227.52
  C 566.58 224.90 544.17 224.69 526.38 226.22
  Q 508.99 227.72 484.20 233.49
  C 478.60 234.79 473.02 236.78 467.54 238.42
  Q 461.49 240.23 455.29 242.76
  C 445.12 246.91 434.95 250.65 425.43 255.97
  C 409.95 264.64 394.53 273.81 381.39 284.41
  Q 373.34 290.92 363.99 299.79
  Q 350.93 312.20 338.95 327.01
  A 1.87 1.87 0.0 0 1 336.11 327.10
  Q 330.93 321.46 325.35 314.79
  Q 318.05 306.06 309.69 298.95
  C 305.35 295.26 301.52 291.01 297.14 287.46
  Q 282.77 275.81 264.26 264.37
  Q 250.28 255.73 237.69 250.21
  C 229.05 246.42 220.47 242.64 211.51 239.66
  Q 169.38 225.64 125.05 225.31
  C 118.70 225.26 112.63 225.83 106.42 226.03
  Q 99.93 226.23 92.75 227.06
  Q 71.94 229.45 52.12 235.00
  C 46.56 236.55 41.17 238.51 35.66 240.11
  Q 29.50 241.89 23.49 244.36
  Q 11.31 249.36 0.00 255.47
  L 0.00 169.71
  Q 6.25 168.17 12.42 166.41
  Q 19.40 164.42 24.80 163.29
  C 31.63 161.86 38.27 160.24 45.44 159.27
  Q 64.28 156.71 72.35 156.40
  Q 101.59 155.27 118.65 156.59
  Q 134.82 157.83 148.40 160.41
  Q 156.09 161.86 166.29 164.26
  Q 175.41 166.40 183.85 169.00
  Q 198.17 173.41 207.98 177.36
  Q 217.73 181.27 228.07 186.15
  Q 243.64 193.50 260.78 204.45
  Q 301.99 230.77 333.59 269.31
  Q 334.79 270.78 336.23 272.13
  Q 337.92 273.71 339.35 271.89
  Q 364.52 240.01 399.33 214.66
  Q 414.87 203.35 427.59 196.38
  Q 436.27 191.62 445.50 187.03
  Q 465.31 177.19 488.84 169.72
  Q 501.70 165.65 511.33 163.72
  Q 515.41 162.91 518.89 162.06
  C 522.33 161.23 525.50 160.33 529.06 159.87
  C 538.41 158.67 547.42 157.17 556.83 156.59
  Q 583.23 154.95 603.87 156.36
  Q 628.61 158.05 655.75 164.72
  Q 662.39 166.36 675.00 170.08
  Z"
/>
<path fill="#c0becc" d="
  M 675.00 256.17
  L 675.00 332.63
  Q 674.55 330.42 674.79 327.96
  Q 674.93 326.63 673.25 326.53
  Q 672.73 326.50 672.30 326.19
  Q 654.56 313.63 634.68 303.89
  Q 605.90 289.79 570.99 283.21
  C 565.55 282.19 559.86 282.02 554.35 281.17
  Q 548.01 280.19 542.05 280.04
  Q 528.50 279.69 515.83 280.04
  Q 507.18 280.27 500.02 281.31
  C 487.73 283.10 475.72 284.98 463.88 288.46
  Q 453.91 291.39 441.62 295.83
  Q 425.38 301.70 410.38 310.33
  C 398.75 317.01 387.74 323.98 377.31 332.48
  Q 360.95 345.81 350.16 357.44
  Q 345.33 362.65 339.68 369.99
  C 338.77 371.17 337.25 371.96 336.08 370.56
  C 326.01 358.41 315.73 347.51 303.82 337.56
  Q 296.04 331.06 289.16 326.05
  Q 248.16 296.22 197.08 284.96
  Q 189.48 283.28 180.27 282.21
  Q 170.58 281.09 162.46 280.43
  Q 151.25 279.52 134.33 279.90
  Q 126.78 280.07 118.73 281.23
  Q 110.59 282.40 103.26 283.60
  Q 74.33 288.34 46.78 300.83
  Q 22.13 312.01 0.00 327.83
  L 0.00 255.47
  Q 11.31 249.36 23.49 244.36
  Q 29.50 241.89 35.66 240.11
  C 41.17 238.51 46.56 236.55 52.12 235.00
  Q 71.94 229.45 92.75 227.06
  Q 99.93 226.23 106.42 226.03
  C 112.63 225.83 118.70 225.26 125.05 225.31
  Q 169.38 225.64 211.51 239.66
  C 220.47 242.64 229.05 246.42 237.69 250.21
  Q 250.28 255.73 264.26 264.37
  Q 282.77 275.81 297.14 287.46
  C 301.52 291.01 305.35 295.26 309.69 298.95
  Q 318.05 306.06 325.35 314.79
  Q 330.93 321.46 336.11 327.10
  A 1.87 1.87 0.0 0 0 338.95 327.01
  Q 350.93 312.20 363.99 299.79
  Q 373.34 290.92 381.39 284.41
  C 394.53 273.81 409.95 264.64 425.43 255.97
  C 434.95 250.65 445.12 246.91 455.29 242.76
  Q 461.49 240.23 467.54 238.42
  C 473.02 236.78 478.60 234.79 484.20 233.49
  Q 508.99 227.72 526.38 226.22
  C 544.17 224.69 566.58 224.90 586.20 227.52
  Q 613.52 231.17 640.30 240.50
  Q 646.74 242.74 670.21 252.84
  Q 674.08 254.50 675.00 256.17
  Z"
/>
<path fill="#d5d2dd" d="
  M 675.00 332.63
  L 675.00 393.03
  L 674.37 393.97
  Q 654.36 371.75 629.51 355.94
  C 591.69 331.87 547.05 319.25 501.98 321.23
  Q 441.49 323.89 390.79 356.58
  Q 360.50 376.10 338.41 403.94
  A 0.83 0.83 0.0 0 1 337.11 403.94
  Q 319.99 382.18 297.54 365.13
  Q 288.91 358.57 280.86 353.60
  Q 215.63 313.33 138.35 321.76
  C 111.44 324.70 84.44 333.30 61.02 345.81
  Q 27.52 363.72 0.00 393.36
  L 0.00 388.92
  Q 0.53 386.00 0.00 383.12
  L 0.00 327.83
  Q 22.13 312.01 46.78 300.83
  Q 74.33 288.34 103.26 283.60
  Q 110.59 282.40 118.73 281.23
  Q 126.78 280.07 134.33 279.90
  Q 151.25 279.52 162.46 280.43
  Q 170.58 281.09 180.27 282.21
  Q 189.48 283.28 197.08 284.96
  Q 248.16 296.22 289.16 326.05
  Q 296.04 331.06 303.82 337.56
  C 315.73 347.51 326.01 358.41 336.08 370.56
  C 337.25 371.96 338.77 371.17 339.68 369.99
  Q 345.33 362.65 350.16 357.44
  Q 360.95 345.81 377.31 332.48
  C 387.74 323.98 398.75 317.01 410.38 310.33
  Q 425.38 301.70 441.62 295.83
  Q 453.91 291.39 463.88 288.46
  C 475.72 284.98 487.73 283.10 500.02 281.31
  Q 507.18 280.27 515.83 280.04
  Q 528.50 279.69 542.05 280.04
  Q 548.01 280.19 554.35 281.17
  C 559.86 282.02 565.55 282.19 570.99 283.21
  Q 605.90 289.79 634.68 303.89
  Q 654.56 313.63 672.30 326.19
  Q 672.73 326.50 673.25 326.53
  Q 674.93 326.63 674.79 327.96
  Q 674.55 330.42 675.00 332.63
  Z"
/>
<path fill="#939099" d="
  M 674.37 393.97
  Q 674.43 395.55 675.00 397.01
  L 675.00 522.87
  Q 674.83 526.32 674.25 529.65
  Q 674.23 529.76 674.16 529.84
  Q 674.12 529.87 674.07 529.88
  Q 673.79 529.92 673.80 529.64
  Q 673.83 525.49 673.47 523.70
  Q 669.27 502.60 663.82 488.41
  Q 659.53 477.24 651.87 463.27
  Q 647.07 454.51 641.03 446.07
  Q 608.55 400.70 555.56 379.28
  Q 552.88 378.19 550.00 377.22
  C 545.34 375.66 540.76 374.10 535.98 372.97
  Q 522.60 369.81 513.46 368.38
  Q 500.47 366.35 488.65 366.43
  Q 479.44 366.49 466.66 367.46
  C 458.12 368.10 450.12 370.20 441.87 371.88
  C 433.34 373.61 424.38 376.87 416.30 380.05
  Q 389.21 390.74 368.01 408.09
  Q 362.27 412.79 356.37 418.16
  Q 351.20 422.87 346.66 428.13
  Q 341.74 433.81 337.38 438.90
  A 1.05 1.05 0.0 0 1 336.00 439.08
  Q 335.36 438.64 334.84 438.04
  C 328.37 430.61 321.68 423.17 314.41 416.69
  C 295.65 399.95 272.65 386.27 248.18 378.41
  C 224.41 370.77 199.12 367.40 174.36 369.42
  Q 152.27 371.23 133.70 376.80
  Q 122.65 380.11 112.91 384.32
  Q 98.41 390.58 83.55 400.18
  C 79.45 402.82 75.58 405.93 71.69 408.94
  C 65.12 414.02 58.95 419.97 53.08 425.75
  Q 39.34 439.29 28.41 456.49
  Q 16.93 474.55 10.32 493.27
  Q 4.29 510.34 3.32 515.53
  Q 2.06 522.35 0.91 529.36
  Q 0.76 530.27 0.49 529.39
  Q 0.21 528.47 0.25 527.00
  Q 0.41 521.05 0.00 515.13
  L 0.00 393.36
  Q 27.52 363.72 61.02 345.81
  C 84.44 333.30 111.44 324.70 138.35 321.76
  Q 215.63 313.33 280.86 353.60
  Q 288.91 358.57 297.54 365.13
  Q 319.99 382.18 337.11 403.94
  A 0.83 0.83 0.0 0 0 338.41 403.94
  Q 360.50 376.10 390.79 356.58
  Q 441.49 323.89 501.98 321.23
  C 547.05 319.25 591.69 331.87 629.51 355.94
  Q 654.36 371.75 674.37 393.97
  Z"
/>
<path fill="#aaa8b6" d="
  M 675.00 522.87
  L 675.00 587.88
  L 674.69 585.14
  Q 674.32 581.75 673.82 585.13
  C 673.29 588.73 673.00 592.24 672.07 595.80
  C 668.77 608.53 665.31 621.12 659.83 633.04
  C 655.69 642.03 651.11 651.23 645.62 659.47
  Q 642.52 664.11 639.38 668.52
  Q 633.68 676.53 624.29 686.53
  Q 604.87 707.20 585.58 727.58
  Q 580.08 733.39 574.17 739.68
  Q 550.79 764.55 528.19 788.98
  C 521.93 795.76 515.56 802.28 509.41 809.05
  Q 501.94 817.27 495.82 823.70
  Q 476.93 843.54 458.49 863.45
  Q 452.02 870.45 445.05 877.59
  C 435.99 886.89 427.15 896.90 418.13 906.44
  Q 395.20 930.69 370.82 957.03
  C 357.43 971.50 336.79 974.99 319.73 965.02
  Q 314.06 961.70 304.83 951.92
  Q 293.41 939.80 281.30 927.34
  Q 243.68 888.60 210.82 854.42
  Q 170.10 812.06 131.80 772.93
  Q 119.13 759.99 107.48 747.64
  Q 100.89 740.66 93.62 733.22
  Q 59.48 698.33 46.64 684.30
  Q 21.95 657.36 9.06 620.38
  Q 5.70 610.73 2.92 599.43
  C 1.94 595.46 1.46 591.27 0.71 587.12
  Q 0.54 586.16 0.44 587.12
  L 0.00 591.72
  L 0.00 515.13
  Q 0.41 521.05 0.25 527.00
  Q 0.21 528.47 0.49 529.39
  Q 0.76 530.27 0.91 529.36
  Q 2.06 522.35 3.32 515.53
  Q 4.29 510.34 10.32 493.27
  Q 16.93 474.55 28.41 456.49
  Q 39.34 439.29 53.08 425.75
  C 58.95 419.97 65.12 414.02 71.69 408.94
  C 75.58 405.93 79.45 402.82 83.55 400.18
  Q 98.41 390.58 112.91 384.32
  Q 122.65 380.11 133.70 376.80
  Q 152.27 371.23 174.36 369.42
  C 199.12 367.40 224.41 370.77 248.18 378.41
  C 272.65 386.27 295.65 399.95 314.41 416.69
  C 321.68 423.17 328.37 430.61 334.84 438.04
  Q 335.36 438.64 336.00 439.08
  A 1.05 1.05 0.0 0 0 337.38 438.90
  Q 341.74 433.81 346.66 428.13
  Q 351.20 422.87 356.37 418.16
  Q 362.27 412.79 368.01 408.09
  Q 389.21 390.74 416.30 380.05
  C 424.38 376.87 433.34 373.61 441.87 371.88
  C 450.12 370.20 458.12 368.10 466.66 367.46
  Q 479.44 366.49 488.65 366.43
  Q 500.47 366.35 513.46 368.38
  Q 522.60 369.81 535.98 372.97
  C 540.76 374.10 545.34 375.66 550.00 377.22
  Q 552.88 378.19 555.56 379.28
  Q 608.55 400.70 641.03 446.07
  Q 647.07 454.51 651.87 463.27
  Q 659.53 477.24 663.82 488.41
  Q 669.27 502.60 673.47 523.70
  Q 673.83 525.49 673.80 529.64
  Q 673.79 529.92 674.07 529.88
  Q 674.12 529.87 674.16 529.84
  Q 674.23 529.76 674.25 529.65
  Q 674.83 526.32 675.00 522.87
  Z
  M 629.70 601.25
  Q 632.30 581.99 631.12 566.19
  C 630.69 560.46 629.63 554.56 628.73 548.79
  Q 627.45 540.47 624.16 529.10
  C 622.81 524.41 620.52 519.80 618.76 515.12
  Q 616.85 510.05 614.28 504.86
  Q 607.85 491.87 600.56 482.01
  Q 592.21 470.71 583.29 461.69
  Q 569.57 447.82 551.05 436.91
  Q 502.96 408.58 445.91 414.92
  Q 438.93 415.70 430.61 417.85
  Q 422.42 419.96 414.62 422.13
  C 408.95 423.71 403.55 426.68 398.18 428.89
  Q 392.10 431.39 387.98 433.69
  Q 359.59 449.54 339.03 474.79
  Q 337.49 476.68 335.95 474.79
  Q 322.60 458.37 303.73 444.40
  Q 296.35 438.94 287.38 434.07
  Q 273.38 426.47 261.43 422.52
  Q 210.33 405.63 159.70 420.81
  Q 147.90 424.35 131.26 432.62
  C 123.68 436.39 116.36 441.74 109.42 446.70
  Q 99.01 454.15 88.34 465.23
  C 85.80 467.86 83.39 471.11 80.88 474.05
  Q 77.20 478.36 75.44 480.76
  Q 55.62 507.76 47.98 540.08
  Q 44.63 554.24 43.85 565.43
  Q 43.11 576.23 43.64 587.59
  Q 44.18 599.00 47.14 613.59
  C 48.22 618.92 50.00 623.87 51.46 629.12
  Q 53.09 635.00 55.50 640.60
  Q 62.82 657.57 72.49 672.05
  Q 77.15 679.03 84.99 687.62
  Q 101.07 705.24 116.09 720.91
  Q 118.01 722.91 120.00 724.99
  Q 141.97 747.87 163.27 769.99
  Q 176.81 784.07 194.71 803.21
  C 202.02 811.04 210.66 819.46 218.47 827.78
  Q 241.45 852.25 269.22 881.47
  Q 286.20 899.34 300.03 913.54
  C 305.60 919.26 310.74 925.77 316.90 930.38
  Q 329.20 939.60 345.59 936.08
  Q 347.81 935.60 349.92 934.59
  C 353.45 932.90 357.11 931.81 360.07 929.20
  Q 362.55 927.02 364.81 924.56
  Q 384.77 902.79 408.59 878.40
  C 418.11 868.67 426.78 858.85 436.43 849.09
  Q 443.42 842.01 450.25 834.61
  C 462.01 821.86 473.82 809.90 485.69 797.15
  C 490.41 792.08 495.50 787.15 500.29 781.95
  Q 505.79 775.97 511.12 770.43
  C 517.38 763.94 523.35 757.23 529.72 750.92
  C 537.96 742.74 545.71 734.03 553.62 725.87
  C 563.77 715.39 573.66 704.91 583.72 694.58
  Q 603.65 674.11 616.04 648.09
  C 617.84 644.31 619.17 640.40 620.80 636.61
  Q 622.50 632.66 623.77 628.42
  Q 627.87 614.75 629.70 601.25
  Z"
/>
<path fill="#aaa8b6" d="
  M 0.00 383.12
  Q 0.53 386.00 0.00 388.92
  L 0.00 383.12
  Z"
/>
<path fill="#aaa8b6" d="
  M 675.00 393.03
  L 675.00 397.01
  Q 674.43 395.55 674.37 393.97
  L 675.00 393.03
  Z"
/>
<path fill="#c0becc" d="
  M 629.70 601.25
  Q 627.87 614.75 623.77 628.42
  Q 622.50 632.66 620.80 636.61
  C 619.17 640.40 617.84 644.31 616.04 648.09
  Q 603.65 674.11 583.72 694.58
  C 573.66 704.91 563.77 715.39 553.62 725.87
  C 545.71 734.03 537.96 742.74 529.72 750.92
  C 523.35 757.23 517.38 763.94 511.12 770.43
  Q 505.79 775.97 500.29 781.95
  C 495.50 787.15 490.41 792.08 485.69 797.15
  C 473.82 809.90 462.01 821.86 450.25 834.61
  Q 443.42 842.01 436.43 849.09
  C 426.78 858.85 418.11 868.67 408.59 878.40
  Q 384.77 902.79 364.81 924.56
  Q 362.55 927.02 360.07 929.20
  C 357.11 931.81 353.45 932.90 349.92 934.59
  Q 347.81 935.60 345.59 936.08
  Q 329.20 939.60 316.90 930.38
  C 310.74 925.77 305.60 919.26 300.03 913.54
  Q 286.20 899.34 269.22 881.47
  Q 241.45 852.25 218.47 827.78
  C 210.66 819.46 202.02 811.04 194.71 803.21
  Q 176.81 784.07 163.27 769.99
  Q 141.97 747.87 120.00 724.99
  Q 118.01 722.91 116.09 720.91
  Q 101.07 705.24 84.99 687.62
  Q 77.15 679.03 72.49 672.05
  Q 62.82 657.57 55.50 640.60
  Q 53.09 635.00 51.46 629.12
  C 50.00 623.87 48.22 618.92 47.14 613.59
  Q 44.18 599.00 43.64 587.59
  Q 43.11 576.23 43.85 565.43
  Q 44.63 554.24 47.98 540.08
  Q 55.62 507.76 75.44 480.76
  Q 77.20 478.36 80.88 474.05
  C 83.39 471.11 85.80 467.86 88.34 465.23
  Q 99.01 454.15 109.42 446.70
  C 116.36 441.74 123.68 436.39 131.26 432.62
  Q 147.90 424.35 159.70 420.81
  Q 210.33 405.63 261.43 422.52
  Q 273.38 426.47 287.38 434.07
  Q 296.35 438.94 303.73 444.40
  Q 322.60 458.37 335.95 474.79
  Q 337.49 476.68 339.03 474.79
  Q 359.59 449.54 387.98 433.69
  Q 392.10 431.39 398.18 428.89
  C 403.55 426.68 408.95 423.71 414.62 422.13
  Q 422.42 419.96 430.61 417.85
  Q 438.93 415.70 445.91 414.92
  Q 502.96 408.58 551.05 436.91
  Q 569.57 447.82 583.29 461.69
  Q 592.21 470.71 600.56 482.01
  Q 607.85 491.87 614.28 504.86
  Q 616.85 510.05 618.76 515.12
  C 620.52 519.80 622.81 524.41 624.16 529.10
  Q 627.45 540.47 628.73 548.79
  C 629.63 554.56 630.69 560.46 631.12 566.19
  Q 632.30 581.99 629.70 601.25
  Z
  M 592.40 571.04
  C 591.23 561.68 588.67 551.64 585.47 542.86
  Q 580.90 530.28 574.03 518.20
  Q 569.34 509.96 562.71 501.78
  Q 553.91 490.92 546.04 483.98
  Q 511.11 453.15 464.59 448.08
  Q 453.80 446.90 437.59 447.80
  C 432.37 448.08 427.27 449.37 422.16 450.26
  Q 416.61 451.23 410.68 452.94
  Q 375.20 463.23 348.23 489.89
  Q 342.91 495.16 338.63 500.66
  A 1.45 1.45 0.0 0 1 336.37 500.69
  Q 306.26 463.85 260.55 451.89
  Q 255.20 450.49 249.77 449.60
  Q 242.39 448.40 238.88 448.04
  Q 226.70 446.81 213.55 447.71
  C 208.16 448.08 202.88 449.23 197.53 450.10
  Q 191.54 451.08 185.36 452.83
  Q 149.86 462.89 123.13 489.53
  Q 106.54 506.06 97.07 525.23
  Q 90.84 537.85 87.54 548.93
  Q 82.56 565.66 81.75 580.80
  Q 81.24 590.27 81.87 603.77
  Q 81.98 606.05 82.36 608.12
  C 83.01 611.63 83.17 615.14 83.89 618.63
  Q 90.96 653.04 112.74 680.61
  C 118.52 687.93 126.33 695.70 133.21 702.76
  Q 139.18 708.89 144.03 714.15
  C 151.67 722.44 159.76 730.44 167.45 738.66
  C 188.76 761.48 210.47 783.90 231.72 806.35
  Q 238.31 813.31 245.54 820.84
  Q 270.04 846.33 307.87 886.31
  Q 311.87 890.54 317.17 895.79
  C 321.33 899.90 328.71 902.51 334.00 903.08
  Q 337.80 903.48 343.94 902.61
  C 351.07 901.60 356.04 897.66 360.98 892.51
  Q 397.12 854.80 432.89 816.89
  Q 437.73 811.75 442.07 807.34
  Q 446.43 802.90 450.61 798.34
  C 456.54 791.88 462.65 785.86 468.27 779.39
  C 470.06 777.33 472.15 775.70 474.02 773.75
  Q 491.03 755.96 508.99 737.02
  Q 527.79 717.20 546.55 697.79
  Q 559.56 684.33 563.88 678.37
  Q 572.84 666.01 577.87 656.14
  Q 598.09 616.46 592.40 571.04
  Z"
/>
<path fill="#d5d2dd" d="
  M 585.47 542.86
  C 588.67 551.64 591.23 561.68 592.40 571.04
  Q 598.09 616.46 577.87 656.14
  Q 572.84 666.01 563.88 678.37
  Q 559.56 684.33 546.55 697.79
  Q 527.79 717.20 508.99 737.02
  Q 491.03 755.96 474.02 773.75
  C 472.15 775.70 470.06 777.33 468.27 779.39
  C 462.65 785.86 456.54 791.88 450.61 798.34
  Q 446.43 802.90 442.07 807.34
  Q 437.73 811.75 432.89 816.89
  Q 397.12 854.80 360.98 892.51
  C 356.04 897.66 351.07 901.60 343.94 902.61
  Q 337.80 903.48 334.00 903.08
  C 328.71 902.51 321.33 899.90 317.17 895.79
  Q 311.87 890.54 307.87 886.31
  Q 270.04 846.33 245.54 820.84
  Q 238.31 813.31 231.72 806.35
  C 210.47 783.90 188.76 761.48 167.45 738.66
  C 159.76 730.44 151.67 722.44 144.03 714.15
  Q 139.18 708.89 133.21 702.76
  C 126.33 695.70 118.52 687.93 112.74 680.61
  Q 90.96 653.04 83.89 618.63
  C 83.17 615.14 83.01 611.63 82.36 608.12
  Q 81.98 606.05 81.87 603.77
  Q 81.24 590.27 81.75 580.80
  Q 82.56 565.66 87.54 548.93
  Q 90.84 537.85 97.07 525.23
  Q 106.54 506.06 123.13 489.53
  Q 149.86 462.89 185.36 452.83
  Q 191.54 451.08 197.53 450.10
  C 202.88 449.23 208.16 448.08 213.55 447.71
  Q 226.70 446.81 238.88 448.04
  Q 242.39 448.40 249.77 449.60
  Q 255.20 450.49 260.55 451.89
  Q 306.26 463.85 336.37 500.69
  A 1.45 1.45 0.0 0 0 338.63 500.66
  Q 342.91 495.16 348.23 489.89
  Q 375.20 463.23 410.68 452.94
  Q 416.61 451.23 422.16 450.26
  C 427.27 449.37 432.37 448.08 437.59 447.80
  Q 453.80 446.90 464.59 448.08
  Q 511.11 453.15 546.04 483.98
  Q 553.91 490.92 562.71 501.78
  Q 569.34 509.96 574.03 518.20
  Q 580.90 530.28 585.47 542.86
  Z
  M 338.07 522.57
  Q 337.43 523.35 336.81 522.56
  C 308.00 486.06 260.30 469.48 215.09 479.43
  Q 176.71 487.88 150.34 517.03
  Q 120.70 549.79 118.56 595.45
  C 118.13 604.80 119.38 615.10 121.26 624.13
  Q 127.12 652.28 144.59 674.56
  Q 148.32 679.33 157.96 689.43
  Q 235.56 770.85 313.06 852.36
  C 316.73 856.21 319.96 860.35 324.55 862.79
  Q 337.19 869.50 349.36 863.42
  Q 353.74 861.23 361.97 852.43
  Q 376.20 837.18 390.70 822.20
  Q 393.48 819.33 396.33 816.33
  Q 458.39 750.84 517.22 689.34
  Q 525.74 680.44 530.65 674.15
  Q 550.23 649.10 555.23 615.96
  Q 556.17 609.70 556.20 599.65
  Q 556.31 569.62 543.33 544.28
  Q 523.09 504.80 482.96 486.88
  C 461.30 477.21 436.29 474.21 413.47 478.27
  Q 367.58 486.44 338.07 522.57
  Z"
/>
<path fill="#939099" d="
  M 338.07 522.57
  Q 367.58 486.44 413.47 478.27
  C 436.29 474.21 461.30 477.21 482.96 486.88
  Q 523.09 504.80 543.33 544.28
  Q 556.31 569.62 556.20 599.65
  Q 556.17 609.70 555.23 615.96
  Q 550.23 649.10 530.65 674.15
  Q 525.74 680.44 517.22 689.34
  Q 458.39 750.84 396.33 816.33
  Q 393.48 819.33 390.70 822.20
  Q 376.20 837.18 361.97 852.43
  Q 353.74 861.23 349.36 863.42
  Q 337.19 869.50 324.55 862.79
  C 319.96 860.35 316.73 856.21 313.06 852.36
  Q 235.56 770.85 157.96 689.43
  Q 148.32 679.33 144.59 674.56
  Q 127.12 652.28 121.26 624.13
  C 119.38 615.10 118.13 604.80 118.56 595.45
  Q 120.70 549.79 150.34 517.03
  Q 176.71 487.88 215.09 479.43
  C 260.30 469.48 308.00 486.06 336.81 522.56
  Q 337.43 523.35 338.07 522.57
  Z
  M 523.90 588.17
  C 520.60 570.44 512.05 552.28 499.76 538.47
  Q 478.54 514.62 446.76 505.96
  C 436.30 503.12 426.13 502.53 415.25 502.84
  Q 406.19 503.09 398.49 504.90
  Q 378.91 509.50 365.32 518.25
  C 359.19 522.19 352.47 526.86 347.39 532.02
  Q 342.54 536.96 338.48 541.86
  Q 337.44 543.11 336.42 541.85
  Q 314.99 515.59 282.66 506.48
  Q 272.25 503.55 263.34 503.12
  C 248.67 502.42 234.83 503.29 221.05 508.07
  Q 186.35 520.13 166.46 550.25
  C 141.87 587.48 143.41 635.96 170.37 672.04
  Q 174.61 677.70 183.48 686.94
  Q 215.20 719.97 247.73 754.24
  C 258.84 765.94 270.35 777.65 281.31 789.42
  Q 293.53 802.53 308.87 818.49
  C 313.37 823.18 317.44 827.77 322.41 832.33
  C 332.41 841.51 346.53 839.29 355.11 830.10
  Q 371.10 812.99 386.19 797.19
  Q 400.65 782.06 414.43 767.68
  Q 446.25 734.48 467.75 711.39
  Q 474.33 704.33 481.59 696.94
  Q 495.38 682.91 501.01 676.21
  Q 523.22 649.80 525.46 615.31
  Q 526.36 601.39 523.90 588.17
  Z"
/>
<path fill="#aaa8b6" d="
  M 523.90 588.17
  Q 526.36 601.39 525.46 615.31
  Q 523.22 649.80 501.01 676.21
  Q 495.38 682.91 481.59 696.94
  Q 474.33 704.33 467.75 711.39
  Q 446.25 734.48 414.43 767.68
  Q 400.65 782.06 386.19 797.19
  Q 371.10 812.99 355.11 830.10
  C 346.53 839.29 332.41 841.51 322.41 832.33
  C 317.44 827.77 313.37 823.18 308.87 818.49
  Q 293.53 802.53 281.31 789.42
  C 270.35 777.65 258.84 765.94 247.73 754.24
  Q 215.20 719.97 183.48 686.94
  Q 174.61 677.70 170.37 672.04
  C 143.41 635.96 141.87 587.48 166.46 550.25
  Q 186.35 520.13 221.05 508.07
  C 234.83 503.29 248.67 502.42 263.34 503.12
  Q 272.25 503.55 282.66 506.48
  Q 314.99 515.59 336.42 541.85
  Q 337.44 543.11 338.48 541.86
  Q 342.54 536.96 347.39 532.02
  C 352.47 526.86 359.19 522.19 365.32 518.25
  Q 378.91 509.50 398.49 504.90
  Q 406.19 503.09 415.25 502.84
  C 426.13 502.53 436.30 503.12 446.76 505.96
  Q 478.54 514.62 499.76 538.47
  C 512.05 552.28 520.60 570.44 523.90 588.17
  Z
  M 441.06 706.07
  C 448.54 698.11 455.73 690.44 463.58 682.43
  Q 471.68 674.16 479.13 665.33
  C 481.96 661.98 483.58 658.02 485.71 654.26
  C 490.07 646.55 492.20 638.67 494.10 629.48
  C 496.13 619.60 496.83 610.74 494.85 600.92
  Q 492.15 587.45 489.45 580.08
  C 485.76 570.04 479.35 561.52 472.26 553.30
  C 469.70 550.33 466.77 548.08 464.02 545.43
  C 461.18 542.69 457.32 539.81 454.19 538.09
  Q 442.34 531.55 437.34 529.87
  Q 420.19 524.11 401.69 524.98
  C 392.78 525.40 384.39 526.94 376.46 530.38
  Q 372.22 532.22 368.10 533.81
  C 365.54 534.81 363.39 536.49 360.96 537.76
  Q 358.60 538.98 356.15 540.75
  Q 346.38 547.80 338.98 557.19
  A 1.41 1.41 0.0 0 1 336.99 557.42
  C 333.96 554.98 332.02 551.95 329.15 549.42
  C 325.77 546.46 322.65 543.29 318.90 540.78
  Q 308.69 533.96 297.48 529.76
  C 283.91 524.68 269.78 524.27 255.07 525.65
  C 246.78 526.42 239.31 529.25 231.66 532.19
  C 225.35 534.62 219.39 538.90 213.97 543.01
  Q 203.13 551.24 195.04 562.41
  Q 190.80 568.27 187.60 575.69
  Q 183.10 586.14 182.07 590.40
  Q 172.09 631.77 195.92 665.26
  Q 200.01 671.00 208.87 680.06
  Q 224.26 695.81 238.24 710.87
  Q 240.29 713.09 242.76 715.51
  Q 244.90 717.59 247.05 720.03
  Q 252.25 725.94 258.70 732.51
  Q 270.27 744.28 284.06 758.98
  Q 289.96 765.27 296.57 772.08
  C 304.70 780.45 312.43 789.18 320.68 797.57
  C 324.66 801.61 330.13 806.57 335.60 806.64
  Q 341.26 806.71 345.69 804.57
  Q 349.43 802.77 353.69 798.17
  Q 366.98 783.80 379.65 770.65
  Q 399.19 750.37 416.43 732.18
  Q 428.77 719.14 441.06 706.07
  Z"
/>
<path fill="#c0becc" d="
  M 441.06 706.07
  Q 428.77 719.14 416.43 732.18
  Q 399.19 750.37 379.65 770.65
  Q 366.98 783.80 353.69 798.17
  Q 349.43 802.77 345.69 804.57
  Q 341.26 806.71 335.60 806.64
  C 330.13 806.57 324.66 801.61 320.68 797.57
  C 312.43 789.18 304.70 780.45 296.57 772.08
  Q 289.96 765.27 284.06 758.98
  Q 270.27 744.28 258.70 732.51
  Q 252.25 725.94 247.05 720.03
  Q 244.90 717.59 242.76 715.51
  Q 240.29 713.09 238.24 710.87
  Q 224.26 695.81 208.87 680.06
  Q 200.01 671.00 195.92 665.26
  Q 172.09 631.77 182.07 590.40
  Q 183.10 586.14 187.60 575.69
  Q 190.80 568.27 195.04 562.41
  Q 203.13 551.24 213.97 543.01
  C 219.39 538.90 225.35 534.62 231.66 532.19
  C 239.31 529.25 246.78 526.42 255.07 525.65
  C 269.78 524.27 283.91 524.68 297.48 529.76
  Q 308.69 533.96 318.90 540.78
  C 322.65 543.29 325.77 546.46 329.15 549.42
  C 332.02 551.95 333.96 554.98 336.99 557.42
  A 1.41 1.41 0.0 0 0 338.98 557.19
  Q 346.38 547.80 356.15 540.75
  Q 358.60 538.98 360.96 537.76
  C 363.39 536.49 365.54 534.81 368.10 533.81
  Q 372.22 532.22 376.46 530.38
  C 384.39 526.94 392.78 525.40 401.69 524.98
  Q 420.19 524.11 437.34 529.87
  Q 442.34 531.55 454.19 538.09
  C 457.32 539.81 461.18 542.69 464.02 545.43
  C 466.77 548.08 469.70 550.33 472.26 553.30
  C 479.35 561.52 485.76 570.04 489.45 580.08
  Q 492.15 587.45 494.85 600.92
  C 496.83 610.74 496.13 619.60 494.10 629.48
  C 492.20 638.67 490.07 646.55 485.71 654.26
  C 483.58 658.02 481.96 661.98 479.13 665.33
  Q 471.68 674.16 463.58 682.43
  C 455.73 690.44 448.54 698.11 441.06 706.07
  Z
  M 336.10 573.75
  Q 336.08 573.61 336.15 573.47
  Q 336.22 573.31 336.10 573.17
  C 334.15 570.95 332.49 568.48 330.25 566.48
  C 321.29 558.50 309.74 551.41 297.85 549.20
  Q 293.00 548.30 287.77 547.33
  C 284.95 546.81 282.07 546.99 279.23 546.99
  Q 276.06 546.99 272.86 547.50
  C 268.35 548.23 263.82 548.63 259.41 550.00
  Q 248.59 553.36 240.21 558.67
  Q 233.87 562.69 226.71 570.52
  C 213.79 584.68 207.57 601.77 207.39 620.71
  C 207.31 629.13 209.56 637.34 212.23 644.91
  C 216.08 655.84 222.85 664.69 231.45 673.67
  Q 258.89 702.32 286.21 731.20
  C 294.21 739.66 302.36 747.60 310.39 756.34
  Q 316.52 763.02 323.48 770.12
  Q 328.47 775.21 331.68 776.38
  Q 338.40 778.85 344.41 775.95
  C 346.84 774.77 348.74 772.50 350.75 770.66
  Q 352.90 768.70 354.84 766.44
  C 361.10 759.16 368.13 752.51 374.77 745.54
  Q 380.20 739.84 385.61 734.13
  C 389.03 730.52 392.22 726.70 395.78 723.20
  Q 399.65 719.40 403.50 715.30
  Q 423.13 694.42 443.57 673.17
  Q 448.15 668.40 451.43 664.19
  Q 465.45 646.19 466.89 623.51
  Q 467.56 613.11 465.13 603.16
  Q 460.22 583.02 447.45 569.84
  Q 422.11 543.68 385.51 547.23
  Q 378.26 547.93 370.23 550.92
  Q 350.66 558.20 339.13 572.54
  Q 338.04 573.90 336.31 573.92
  Q 336.13 573.92 336.10 573.75
  Z"
/>
<path fill="#d5d2dd" d="
  M 336.31 573.92
  Q 338.04 573.90 339.13 572.54
  Q 350.66 558.20 370.23 550.92
  Q 378.26 547.93 385.51 547.23
  Q 422.11 543.68 447.45 569.84
  Q 460.22 583.02 465.13 603.16
  Q 467.56 613.11 466.89 623.51
  Q 465.45 646.19 451.43 664.19
  Q 448.15 668.40 443.57 673.17
  Q 423.13 694.42 403.50 715.30
  Q 399.65 719.40 395.78 723.20
  C 392.22 726.70 389.03 730.52 385.61 734.13
  Q 380.20 739.84 374.77 745.54
  C 368.13 752.51 361.10 759.16 354.84 766.44
  Q 352.90 768.70 350.75 770.66
  C 348.74 772.50 346.84 774.77 344.41 775.95
  Q 338.40 778.85 331.68 776.38
  Q 328.47 775.21 323.48 770.12
  Q 316.52 763.02 310.39 756.34
  C 302.36 747.60 294.21 739.66 286.21 731.20
  Q 258.89 702.32 231.45 673.67
  C 222.85 664.69 216.08 655.84 212.23 644.91
  C 209.56 637.34 207.31 629.13 207.39 620.71
  C 207.57 601.77 213.79 584.68 226.71 570.52
  Q 233.87 562.69 240.21 558.67
  Q 248.59 553.36 259.41 550.00
  C 263.82 548.63 268.35 548.23 272.86 547.50
  Q 276.06 546.99 279.23 546.99
  C 282.07 546.99 284.95 546.81 287.77 547.33
  Q 293.00 548.30 297.85 549.20
  C 309.74 551.41 321.29 558.50 330.25 566.48
  C 332.49 568.48 334.15 570.95 336.10 573.17
  Q 336.22 573.31 336.15 573.47
  Q 336.08 573.61 336.10 573.75
  Q 336.13 573.92 336.31 573.92
  Z
  M 336.88 586.36
  C 327.41 575.57 316.52 568.35 302.58 565.37
  Q 283.55 561.29 266.05 568.53
  C 248.34 575.84 235.21 591.35 230.38 609.85
  Q 228.01 618.91 228.85 629.95
  Q 230.20 647.87 241.04 662.11
  Q 243.14 664.85 254.56 676.81
  Q 289.97 713.90 326.86 752.91
  Q 332.23 758.60 339.99 757.76
  Q 343.48 757.39 345.72 755.07
  Q 368.85 731.22 392.88 705.68
  Q 406.90 690.79 420.10 677.25
  Q 430.12 666.96 433.59 662.51
  Q 448.28 643.68 446.09 618.93
  Q 444.96 606.07 439.07 595.80
  Q 425.02 571.28 398.27 565.37
  C 375.76 560.41 352.61 568.52 338.26 586.33
  A 0.91 0.90 43.7 0 1 336.88 586.36
  Z"
/>
<path fill="#939099" d="
  M 336.88 586.36
  A 0.91 0.90 43.7 0 0 338.26 586.33
  C 352.61 568.52 375.76 560.41 398.27 565.37
  Q 425.02 571.28 439.07 595.80
  Q 444.96 606.07 446.09 618.93
  Q 448.28 643.68 433.59 662.51
  Q 430.12 666.96 420.10 677.25
  Q 406.90 690.79 392.88 705.68
  Q 368.85 731.22 345.72 755.07
  Q 343.48 757.39 339.99 757.76
  Q 332.23 758.60 326.86 752.91
  Q 289.97 713.90 254.56 676.81
  Q 243.14 664.85 241.04 662.11
  Q 230.20 647.87 228.85 629.95
  Q 228.01 618.91 230.38 609.85
  C 235.21 591.35 248.34 575.84 266.05 568.53
  Q 283.55 561.29 302.58 565.37
  C 316.52 568.35 327.41 575.57 336.88 586.36
  Z
  M 427.70 620.10
  Q 423.96 602.69 409.27 591.10
  Q 402.15 585.49 392.02 582.36
  Q 378.58 578.19 363.98 582.24
  Q 356.31 584.37 348.48 589.31
  C 344.64 591.73 341.97 594.89 339.15 598.29
  A 1.80 1.80 0.0 0 1 336.60 598.51
  C 332.81 595.29 329.46 591.37 325.32 588.69
  Q 307.85 577.39 286.36 581.42
  C 272.15 584.08 259.26 593.96 252.60 606.11
  Q 239.49 630.06 251.31 654.50
  Q 254.75 661.61 259.87 666.99
  Q 285.37 693.78 310.24 719.57
  Q 319.66 729.34 328.26 738.97
  C 332.66 743.90 340.11 745.19 345.26 739.95
  C 358.56 726.43 371.18 712.74 384.06 699.39
  C 392.18 690.98 400.16 682.33 408.52 673.53
  C 412.59 669.25 416.88 664.80 420.18 659.95
  Q 432.41 642.01 427.70 620.10
  Z"
/>
<path fill="#aaa8b6" d="
  M 427.70 620.10
  Q 432.41 642.01 420.18 659.95
  C 416.88 664.80 412.59 669.25 408.52 673.53
  C 400.16 682.33 392.18 690.98 384.06 699.39
  C 371.18 712.74 358.56 726.43 345.26 739.95
  C 340.11 745.19 332.66 743.90 328.26 738.97
  Q 319.66 729.34 310.24 719.57
  Q 285.37 693.78 259.87 666.99
  Q 254.75 661.61 251.31 654.50
  Q 239.49 630.06 252.60 606.11
  C 259.26 593.96 272.15 584.08 286.36 581.42
  Q 307.85 577.39 325.32 588.69
  C 329.46 591.37 332.81 595.29 336.60 598.51
  A 1.80 1.80 0.0 0 0 339.15 598.29
  C 341.97 594.89 344.64 591.73 348.48 589.31
  Q 356.31 584.37 363.98 582.24
  Q 378.58 578.19 392.02 582.36
  Q 402.15 585.49 409.27 591.10
  Q 423.96 602.69 427.70 620.10
  Z
  M 408.22 634.76
  Q 406.21 618.83 394.27 608.56
  Q 385.45 600.97 373.19 599.35
  Q 356.41 597.12 341.58 609.81
  Q 340.06 611.11 338.93 613.11
  A 1.62 1.61 46.9 0 1 336.07 613.01
  Q 335.65 612.12 334.98 611.44
  Q 323.82 600.16 307.89 599.16
  Q 298.27 598.55 289.82 602.65
  Q 283.61 605.66 279.83 609.12
  Q 270.72 617.45 267.63 629.95
  Q 265.16 639.97 267.95 649.04
  Q 271.10 659.29 277.80 666.22
  Q 285.93 674.63 293.62 682.86
  Q 295.69 685.07 297.87 687.37
  Q 303.61 693.44 309.33 699.17
  C 315.38 705.24 321.15 712.14 327.01 718.39
  C 328.57 720.05 330.46 721.31 332.13 722.87
  C 336.27 726.75 340.43 725.51 344.06 721.82
  Q 350.79 714.97 356.58 708.65
  Q 362.78 701.89 369.06 695.45
  Q 377.42 686.87 384.30 679.53
  Q 389.64 673.83 395.21 668.42
  Q 399.56 664.20 401.97 660.19
  C 406.45 652.74 409.30 643.35 408.22 634.76
  Z"
/>
<path fill="#939099" d="
  M 675.00 587.88
  L 675.00 688.22
  Q 629.27 736.33 582.71 784.97
  Q 504.03 867.16 425.36 949.35
  Q 423.95 950.83 422.54 952.29
  Q 396.52 979.40 370.62 1006.62
  Q 356.05 1021.94 333.93 1021.16
  Q 324.92 1020.85 317.00 1017.08
  Q 308.21 1012.89 302.57 1006.93
  Q 171.79 868.95 41.01 730.99
  Q 20.40 709.25 0.00 687.47
  L 0.00 591.72
  L 0.44 587.12
  Q 0.54 586.16 0.71 587.12
  C 1.46 591.27 1.94 595.46 2.92 599.43
  Q 5.70 610.73 9.06 620.38
  Q 21.95 657.36 46.64 684.30
  Q 59.48 698.33 93.62 733.22
  Q 100.89 740.66 107.48 747.64
  Q 119.13 759.99 131.80 772.93
  Q 170.10 812.06 210.82 854.42
  Q 243.68 888.60 281.30 927.34
  Q 293.41 939.80 304.83 951.92
  Q 314.06 961.70 319.73 965.02
  C 336.79 974.99 357.43 971.50 370.82 957.03
  Q 395.20 930.69 418.13 906.44
  C 427.15 896.90 435.99 886.89 445.05 877.59
  Q 452.02 870.45 458.49 863.45
  Q 476.93 843.54 495.82 823.70
  Q 501.94 817.27 509.41 809.05
  C 515.56 802.28 521.93 795.76 528.19 788.98
  Q 550.79 764.55 574.17 739.68
  Q 580.08 733.39 585.58 727.58
  Q 604.87 707.20 624.29 686.53
  Q 633.68 676.53 639.38 668.52
  Q 642.52 664.11 645.62 659.47
  C 651.11 651.23 655.69 642.03 659.83 633.04
  C 665.31 621.12 668.77 608.53 672.07 595.80
  C 673.00 592.24 673.29 588.73 673.82 585.13
  Q 674.32 581.75 674.69 585.14
  L 675.00 587.88
  Z"
/>
<path fill="#c0becc" d="
  M 408.22 634.76
  C 409.30 643.35 406.45 652.74 401.97 660.19
  Q 399.56 664.20 395.21 668.42
  Q 389.64 673.83 384.30 679.53
  Q 377.42 686.87 369.06 695.45
  Q 362.78 701.89 356.58 708.65
  Q 350.79 714.97 344.06 721.82
  C 340.43 725.51 336.27 726.75 332.13 722.87
  C 330.46 721.31 328.57 720.05 327.01 718.39
  C 321.15 712.14 315.38 705.24 309.33 699.17
  Q 303.61 693.44 297.87 687.37
  Q 295.69 685.07 293.62 682.86
  Q 285.93 674.63 277.80 666.22
  Q 271.10 659.29 267.95 649.04
  Q 265.16 639.97 267.63 629.95
  Q 270.72 617.45 279.83 609.12
  Q 283.61 605.66 289.82 602.65
  Q 298.27 598.55 307.89 599.16
  Q 323.82 600.16 334.98 611.44
  Q 335.65 612.12 336.07 613.01
  A 1.62 1.61 46.9 0 0 338.93 613.11
  Q 340.06 611.11 341.58 609.81
  Q 356.41 597.12 373.19 599.35
  Q 385.45 600.97 394.27 608.56
  Q 406.21 618.83 408.22 634.76
  Z
  M 332.34 617.12
  Q 325.97 612.18 318.40 610.92
  Q 313.14 610.04 308.05 611.12
  Q 301.95 612.41 298.15 614.60
  C 283.14 623.25 278.53 641.91 287.09 656.90
  C 289.21 660.61 292.65 663.54 295.47 666.91
  Q 298.07 670.02 302.39 674.14
  Q 313.02 684.25 322.23 694.88
  C 325.97 699.19 329.79 702.67 333.89 706.50
  C 337.17 709.55 341.89 707.09 344.22 704.10
  C 348.42 698.69 353.58 694.25 357.46 689.77
  Q 365.01 681.05 374.01 672.57
  C 376.73 670.02 378.65 667.07 381.34 664.65
  C 391.62 655.37 394.90 642.40 389.88 629.43
  C 387.48 623.20 382.07 617.98 376.59 614.22
  C 372.80 611.62 367.05 611.16 362.64 610.67
  Q 358.03 610.16 352.57 611.59
  C 348.70 612.61 345.59 615.27 342.14 617.24
  C 340.54 618.15 339.35 619.52 338.14 620.88
  A 0.95 0.95 0.0 0 1 336.57 620.65
  C 335.69 618.75 333.85 618.29 332.34 617.12
  Z"
/>
<path fill="#d5d2dd" d="
  M 332.34 617.12
  C 333.85 618.29 335.69 618.75 336.57 620.65
  A 0.95 0.95 0.0 0 0 338.14 620.88
  C 339.35 619.52 340.54 618.15 342.14 617.24
  C 345.59 615.27 348.70 612.61 352.57 611.59
  Q 358.03 610.16 362.64 610.67
  C 367.05 611.16 372.80 611.62 376.59 614.22
  C 382.07 617.98 387.48 623.20 389.88 629.43
  C 394.90 642.40 391.62 655.37 381.34 664.65
  C 378.65 667.07 376.73 670.02 374.01 672.57
  Q 365.01 681.05 357.46 689.77
  C 353.58 694.25 348.42 698.69 344.22 704.10
  C 341.89 707.09 337.17 709.55 333.89 706.50
  C 329.79 702.67 325.97 699.19 322.23 694.88
  Q 313.02 684.25 302.39 674.14
  Q 298.07 670.02 295.47 666.91
  C 292.65 663.54 289.21 660.61 287.09 656.90
  C 278.53 641.91 283.14 623.25 298.15 614.60
  Q 301.95 612.41 308.05 611.12
  Q 313.14 610.04 318.40 610.92
  Q 325.97 612.18 332.34 617.12
  Z
  M 338.05 626.28
  Q 337.37 626.70 336.81 626.12
  C 327.13 616.15 313.82 614.79 302.93 623.90
  C 294.66 630.82 292.64 642.07 296.82 651.90
  Q 298.35 655.51 302.33 659.60
  Q 317.75 675.45 332.76 691.58
  C 335.09 694.09 338.41 695.45 341.24 692.49
  Q 355.53 677.56 371.01 661.23
  Q 376.28 655.67 377.89 652.28
  C 386.17 634.88 372.40 616.23 353.48 618.02
  Q 346.43 618.69 340.38 624.01
  C 339.55 624.74 338.99 625.70 338.05 626.28
  Z"
/>
<path fill="#939099" d="
  M 338.05 626.28
  C 338.99 625.70 339.55 624.74 340.38 624.01
  Q 346.43 618.69 353.48 618.02
  C 372.40 616.23 386.17 634.88 377.89 652.28
  Q 376.28 655.67 371.01 661.23
  Q 355.53 677.56 341.24 692.49
  C 338.41 695.45 335.09 694.09 332.76 691.58
  Q 317.75 675.45 302.33 659.60
  Q 298.35 655.51 296.82 651.90
  C 292.64 642.07 294.66 630.82 302.93 623.90
  C 313.82 614.79 327.13 616.15 336.81 626.12
  Q 337.37 626.70 338.05 626.28
  Z
  M 345.03 626.01
  Q 340.98 627.09 338.63 630.61
  A 1.19 1.18 -48.1 0 1 336.74 630.72
  Q 332.68 625.87 325.86 624.96
  C 316.18 623.66 307.65 630.48 306.02 639.92
  C 304.79 647.06 308.29 652.78 313.34 657.73
  Q 319.59 663.88 324.70 669.45
  Q 329.54 674.72 334.38 679.74
  C 337.81 683.29 340.04 679.86 342.45 677.77
  Q 343.65 676.72 344.75 675.54
  Q 354.27 665.30 364.66 654.33
  C 367.49 651.34 368.52 648.52 369.20 644.62
  C 369.70 641.78 368.57 637.36 367.37 634.86
  Q 363.47 626.77 354.06 624.94
  Q 351.53 624.44 349.17 624.98
  Q 347.21 625.43 345.03 626.01
  Z"
/>
<path fill="#aaa8b6" d="
  M 349.17 624.98
  Q 351.53 624.44 354.06 624.94
  Q 363.47 626.77 367.37 634.86
  C 368.57 637.36 369.70 641.78 369.20 644.62
  C 368.52 648.52 367.49 651.34 364.66 654.33
  Q 354.27 665.30 344.75 675.54
  Q 343.65 676.72 342.45 677.77
  C 340.04 679.86 337.81 683.29 334.38 679.74
  Q 329.54 674.72 324.70 669.45
  Q 319.59 663.88 313.34 657.73
  C 308.29 652.78 304.79 647.06 306.02 639.92
  C 307.65 630.48 316.18 623.66 325.86 624.96
  Q 332.68 625.87 336.74 630.72
  A 1.19 1.18 -48.1 0 0 338.63 630.61
  Q 340.98 627.09 345.03 626.01
  Q 347.21 625.43 349.17 624.98
  Z
  M 337.01 633.06
  C 334.41 631.47 331.50 629.72 328.37 629.71
  Q 320.52 629.69 316.32 636.65
  C 313.37 641.52 314.38 646.78 318.05 650.73
  Q 323.56 656.67 329.03 662.74
  C 331.28 665.24 333.99 667.34 336.47 669.66
  A 1.95 1.95 0.0 0 0 339.04 669.72
  C 343.10 666.31 345.90 662.01 349.53 658.46
  C 353.26 654.82 359.20 649.98 359.93 644.97
  Q 361.59 633.71 350.66 629.51
  C 348.39 628.64 346.26 629.61 343.95 629.73
  C 341.82 629.84 340.35 631.06 339.13 632.67
  A 1.60 1.60 0.0 0 1 337.01 633.06
  Z"
/>
<path fill="#c0becc" d="
  M 337.01 633.06
  A 1.60 1.60 0.0 0 0 339.13 632.67
  C 340.35 631.06 341.82 629.84 343.95 629.73
  C 346.26 629.61 348.39 628.64 350.66 629.51
  Q 361.59 633.71 359.93 644.97
  C 359.20 649.98 353.26 654.82 349.53 658.46
  C 345.90 662.01 343.10 666.31 339.04 669.72
  A 1.95 1.95 0.0 0 1 336.47 669.66
  C 333.99 667.34 331.28 665.24 329.03 662.74
  Q 323.56 656.67 318.05 650.73
  C 314.38 646.78 313.37 641.52 316.32 636.65
  Q 320.52 629.69 328.37 629.71
  C 331.50 629.72 334.41 631.47 337.01 633.06
  Z
  M 336.25 636.06
  Q 332.31 633.36 328.42 634.39
  C 323.84 635.61 320.98 640.62 322.75 645.10
  Q 323.78 647.70 326.20 650.10
  Q 331.63 655.49 336.60 660.65
  A 1.24 1.24 0.0 0 0 338.35 660.68
  Q 344.35 654.95 350.66 647.90
  Q 354.48 643.61 351.79 638.99
  Q 348.06 632.58 340.84 634.84
  Q 339.44 635.27 338.23 636.07
  Q 337.24 636.73 336.25 636.06
  Z"
/>
<path fill="#d5d2dd" d="
  M 336.25 636.06
  Q 337.24 636.73 338.23 636.07
  Q 339.44 635.27 340.84 634.84
  Q 348.06 632.58 351.79 638.99
  Q 354.48 643.61 350.66 647.90
  Q 344.35 654.95 338.35 660.68
  A 1.24 1.24 0.0 0 1 336.60 660.65
  Q 331.63 655.49 326.20 650.10
  Q 323.78 647.70 322.75 645.10
  C 320.98 640.62 323.84 635.61 328.42 634.39
  Q 332.31 633.36 336.25 636.06
  Z"
/>
<path fill="#d5d2dd" d="
  M 675.00 688.22
  L 675.00 721.78
  Q 674.53 723.36 674.64 724.17
  Q 668.37 729.21 663.19 734.68
  Q 628.38 771.47 587.74 814.23
  Q 586.09 815.97 584.31 817.80
  Q 562.45 840.30 540.67 863.52
  Q 533.82 870.82 526.88 878.02
  Q 507.54 898.08 487.04 919.79
  Q 478.06 929.31 470.76 937.00
  Q 458.64 949.79 447.66 961.16
  Q 440.03 969.05 433.00 976.63
  Q 426.39 983.75 419.18 991.08
  Q 408.60 1001.83 397.98 1013.38
  Q 393.07 1018.73 387.41 1024.48
  Q 382.02 1029.97 376.85 1035.59
  Q 364.12 1049.44 346.04 1052.77
  Q 336.31 1054.57 326.16 1052.27
  Q 314.29 1049.59 305.29 1042.48
  C 300.58 1038.77 296.39 1033.74 291.98 1029.35
  Q 287.11 1024.47 282.35 1019.30
  Q 273.95 1010.14 264.69 1000.65
  C 261.98 997.87 259.68 994.85 256.83 992.23
  Q 253.91 989.56 250.96 986.38
  Q 237.37 971.76 232.82 967.05
  C 225.31 959.28 218.40 951.85 210.80 944.19
  C 205.52 938.86 200.70 932.98 195.51 927.81
  Q 188.21 920.53 179.55 911.19
  Q 169.06 899.88 155.17 885.50
  C 147.32 877.38 139.84 869.09 131.46 860.55
  Q 118.69 847.51 105.88 833.68
  Q 105.25 833.00 93.30 820.62
  Q 87.40 814.50 80.98 807.48
  Q 72.58 798.28 52.06 777.32
  C 42.50 767.55 33.85 757.76 23.97 748.06
  C 21.72 745.85 20.00 743.12 17.78 740.97
  Q 15.42 738.68 13.54 736.64
  Q 6.90 729.46 0.00 722.96
  L 0.00 687.47
  Q 20.40 709.25 41.01 730.99
  Q 171.79 868.95 302.57 1006.93
  Q 308.21 1012.89 317.00 1017.08
  Q 324.92 1020.85 333.93 1021.16
  Q 356.05 1021.94 370.62 1006.62
  Q 396.52 979.40 422.54 952.29
  Q 423.95 950.83 425.36 949.35
  Q 504.03 867.16 582.71 784.97
  Q 629.27 736.33 675.00 688.22
  Z"
/>
<path fill="#aaa8b6" d="
  M 675.00 721.78
  L 675.00 735.08
  L 674.64 724.17
  Q 674.53 723.36 675.00 721.78
  Z"
/>
<path fill="#c0becc" d="
  M 0.00 722.96
  Q 6.90 729.46 13.54 736.64
  Q 15.42 738.68 17.78 740.97
  C 20.00 743.12 21.72 745.85 23.97 748.06
  C 33.85 757.76 42.50 767.55 52.06 777.32
  Q 72.58 798.28 80.98 807.48
  Q 87.40 814.50 93.30 820.62
  Q 105.25 833.00 105.88 833.68
  Q 118.69 847.51 131.46 860.55
  C 139.84 869.09 147.32 877.38 155.17 885.50
  Q 169.06 899.88 179.55 911.19
  Q 188.21 920.53 195.51 927.81
  C 200.70 932.98 205.52 938.86 210.80 944.19
  C 218.40 951.85 225.31 959.28 232.82 967.05
  Q 237.37 971.76 250.96 986.38
  Q 253.91 989.56 256.83 992.23
  C 259.68 994.85 261.98 997.87 264.69 1000.65
  Q 273.95 1010.14 282.35 1019.30
  Q 287.11 1024.47 291.98 1029.35
  C 296.39 1033.74 300.58 1038.77 305.29 1042.48
  Q 314.29 1049.59 326.16 1052.27
  Q 336.31 1054.57 346.04 1052.77
  Q 364.12 1049.44 376.85 1035.59
  Q 382.02 1029.97 387.41 1024.48
  Q 393.07 1018.73 397.98 1013.38
  Q 408.60 1001.83 419.18 991.08
  Q 426.39 983.75 433.00 976.63
  Q 440.03 969.05 447.66 961.16
  Q 458.64 949.79 470.76 937.00
  Q 478.06 929.31 487.04 919.79
  Q 507.54 898.08 526.88 878.02
  Q 533.82 870.82 540.67 863.52
  Q 562.45 840.30 584.31 817.80
  Q 586.09 815.97 587.74 814.23
  Q 628.38 771.47 663.19 734.68
  Q 668.37 729.21 674.64 724.17
  L 675.00 735.08
  L 675.00 759.47
  Q 664.88 770.61 654.19 782.10
  C 649.85 786.77 645.12 791.27 640.77 796.04
  C 633.20 804.35 625.44 812.18 617.65 820.14
  C 616.27 821.56 614.97 823.43 613.48 824.97
  Q 590.13 849.10 567.02 873.46
  C 560.39 880.46 553.26 887.46 546.85 894.61
  C 543.08 898.81 538.86 902.57 535.11 906.86
  C 528.66 914.21 521.21 921.22 514.48 928.57
  C 508.39 935.21 502.04 941.35 495.83 948.12
  Q 486.17 958.63 476.31 969.07
  C 470.77 974.92 464.84 980.26 459.61 986.32
  C 457.58 988.67 455.22 990.56 453.27 992.99
  C 450.75 996.15 447.53 999.00 444.66 1002.01
  Q 416.67 1031.37 389.81 1059.66
  C 381.94 1067.95 374.30 1076.73 364.26 1082.04
  C 351.94 1088.57 333.22 1090.83 319.57 1085.63
  Q 306.53 1080.66 298.41 1073.48
  Q 293.36 1069.02 285.54 1060.36
  C 273.06 1046.55 260.05 1033.28 246.97 1019.93
  C 242.54 1015.40 238.41 1010.52 233.90 1005.83
  C 220.40 991.81 207.28 978.34 194.32 964.29
  C 182.49 951.47 170.25 939.21 158.33 926.48
  Q 144.03 911.23 129.62 896.52
  Q 122.80 889.57 115.80 882.05
  C 96.92 861.76 78.36 842.86 58.88 821.90
  C 53.77 816.41 48.19 811.01 43.12 805.47
  C 37.59 799.42 31.74 793.84 26.26 787.74
  C 25.05 786.38 23.48 785.17 22.36 783.97
  Q 10.95 771.83 0.00 759.87
  L 0.00 722.96
  Z"
/>
<path fill="#aaa8b6" d="
  M 675.00 759.47
  L 675.00 819.63
  Q 674.74 818.82 674.36 818.62
  Q 674.01 818.44 673.49 818.95
  Q 666.85 825.42 656.58 836.33
  Q 613.89 881.66 565.12 932.62
  Q 553.96 944.29 543.85 954.73
  Q 536.40 962.42 530.08 969.21
  Q 510.34 990.40 489.85 1011.60
  C 486.57 1014.99 483.50 1018.76 480.07 1022.06
  Q 476.33 1025.67 472.75 1029.49
  Q 465.47 1037.23 458.88 1044.14
  Q 423.50 1081.26 388.68 1117.93
  C 382.35 1124.60 374.50 1131.55 366.15 1135.32
  C 339.48 1147.36 309.21 1142.11 288.98 1120.78
  Q 260.06 1090.28 231.29 1060.31
  Q 224.44 1053.18 217.52 1045.82
  Q 188.48 1014.95 159.40 984.55
  C 142.63 967.02 125.72 949.64 109.18 931.93
  Q 95.53 917.33 82.03 903.37
  C 76.92 898.08 71.88 892.44 66.64 887.08
  Q 60.73 881.04 55.13 875.05
  C 46.24 865.53 37.28 856.48 28.32 846.95
  Q 18.76 836.77 8.22 825.76
  Q 5.02 822.41 1.44 818.28
  A 0.73 0.73 0.0 0 0 0.60 818.09
  Q 0.28 818.23 0.00 818.64
  L 0.00 759.87
  Q 10.95 771.83 22.36 783.97
  C 23.48 785.17 25.05 786.38 26.26 787.74
  C 31.74 793.84 37.59 799.42 43.12 805.47
  C 48.19 811.01 53.77 816.41 58.88 821.90
  C 78.36 842.86 96.92 861.76 115.80 882.05
  Q 122.80 889.57 129.62 896.52
  Q 144.03 911.23 158.33 926.48
  C 170.25 939.21 182.49 951.47 194.32 964.29
  C 207.28 978.34 220.40 991.81 233.90 1005.83
  C 238.41 1010.52 242.54 1015.40 246.97 1019.93
  C 260.05 1033.28 273.06 1046.55 285.54 1060.36
  Q 293.36 1069.02 298.41 1073.48
  Q 306.53 1080.66 319.57 1085.63
  C 333.22 1090.83 351.94 1088.57 364.26 1082.04
  C 374.30 1076.73 381.94 1067.95 389.81 1059.66
  Q 416.67 1031.37 444.66 1002.01
  C 447.53 999.00 450.75 996.15 453.27 992.99
  C 455.22 990.56 457.58 988.67 459.61 986.32
  C 464.84 980.26 470.77 974.92 476.31 969.07
  Q 486.17 958.63 495.83 948.12
  C 502.04 941.35 508.39 935.21 514.48 928.57
  C 521.21 921.22 528.66 914.21 535.11 906.86
  C 538.86 902.57 543.08 898.81 546.85 894.61
  C 553.26 887.46 560.39 880.46 567.02 873.46
  Q 590.13 849.10 613.48 824.97
  C 614.97 823.43 616.27 821.56 617.65 820.14
  C 625.44 812.18 633.20 804.35 640.77 796.04
  C 645.12 791.27 649.85 786.77 654.19 782.10
  Q 664.88 770.61 675.00 759.47
  Z"
/>
<path fill="#939099" d="
  M 675.00 819.63
  L 675.00 863.89
  Q 658.24 881.21 615.80 925.80
  Q 505.57 1041.62 395.31 1157.42
  Q 385.91 1167.29 380.76 1171.08
  C 361.28 1185.42 335.48 1189.27 312.52 1180.84
  Q 296.74 1175.04 286.28 1164.23
  Q 254.59 1131.47 214.93 1089.41
  C 193.35 1066.53 171.45 1043.94 149.84 1021.16
  Q 75.00 942.28 0.00 863.76
  L 0.00 818.64
  Q 0.28 818.23 0.60 818.09
  A 0.73 0.73 0.0 0 1 1.44 818.28
  Q 5.02 822.41 8.22 825.76
  Q 18.76 836.77 28.32 846.95
  C 37.28 856.48 46.24 865.53 55.13 875.05
  Q 60.73 881.04 66.64 887.08
  C 71.88 892.44 76.92 898.08 82.03 903.37
  Q 95.53 917.33 109.18 931.93
  C 125.72 949.64 142.63 967.02 159.40 984.55
  Q 188.48 1014.95 217.52 1045.82
  Q 224.44 1053.18 231.29 1060.31
  Q 260.06 1090.28 288.98 1120.78
  C 309.21 1142.11 339.48 1147.36 366.15 1135.32
  C 374.50 1131.55 382.35 1124.60 388.68 1117.93
  Q 423.50 1081.26 458.88 1044.14
  Q 465.47 1037.23 472.75 1029.49
  Q 476.33 1025.67 480.07 1022.06
  C 483.50 1018.76 486.57 1014.99 489.85 1011.60
  Q 510.34 990.40 530.08 969.21
  Q 536.40 962.42 543.85 954.73
  Q 553.96 944.29 565.12 932.62
  Q 613.89 881.66 656.58 836.33
  Q 666.85 825.42 673.49 818.95
  Q 674.01 818.44 674.36 818.62
  Q 674.74 818.82 675.00 819.63
  Z"
/>
<path fill="#d5d2dd" d="
  M 0.00 863.76
  Q 75.00 942.28 149.84 1021.16
  C 171.45 1043.94 193.35 1066.53 214.93 1089.41
  Q 254.59 1131.47 286.28 1164.23
  Q 296.74 1175.04 312.52 1180.84
  C 335.48 1189.27 361.28 1185.42 380.76 1171.08
  Q 385.91 1167.29 395.31 1157.42
  Q 505.57 1041.62 615.80 925.80
  Q 658.24 881.21 675.00 863.89
  L 675.00 934.74
  Q 674.59 935.34 674.70 936.51
  Q 674.85 937.94 673.88 938.51
  C 672.16 939.53 670.48 941.29 669.10 942.76
  Q 658.41 954.18 647.25 965.56
  C 641.28 971.66 635.65 978.05 629.63 984.21
  Q 622.89 991.09 616.31 998.18
  Q 611.58 1003.28 606.67 1008.22
  C 600.80 1014.12 595.32 1020.24 589.74 1026.00
  Q 583.17 1032.77 577.00 1039.27
  Q 560.21 1056.97 542.83 1075.33
  Q 534.35 1084.29 526.41 1092.65
  Q 481.15 1140.29 436.68 1187.16
  Q 430.49 1193.69 424.23 1200.00
  L 250.73 1200.00
  L 0.00 936.50
  L 0.00 863.76
  Z"
/>
<path fill="#c0becc" d="
  M 675.00 934.74
  L 675.00 1008.12
  Q 674.96 1011.83 671.91 1014.91
  Q 655.48 1031.52 631.37 1057.62
  Q 626.75 1062.63 621.82 1067.56
  Q 617.07 1072.31 612.21 1077.46
  Q 611.18 1078.56 610.13 1079.64
  Q 592.37 1097.83 575.11 1116.48
  Q 567.92 1124.25 561.38 1131.02
  Q 540.28 1152.86 519.54 1175.03
  C 512.34 1182.74 503.28 1191.50 495.44 1200.00
  L 424.23 1200.00
  Q 430.49 1193.69 436.68 1187.16
  Q 481.15 1140.29 526.41 1092.65
  Q 534.35 1084.29 542.83 1075.33
  Q 560.21 1056.97 577.00 1039.27
  Q 583.17 1032.77 589.74 1026.00
  C 595.32 1020.24 600.80 1014.12 606.67 1008.22
  Q 611.58 1003.28 616.31 998.18
  Q 622.89 991.09 629.63 984.21
  C 635.65 978.05 641.28 971.66 647.25 965.56
  Q 658.41 954.18 669.10 942.76
  C 670.48 941.29 672.16 939.53 673.88 938.51
  Q 674.85 937.94 674.70 936.51
  Q 674.59 935.34 675.00 934.74
  Z"
/>
<path fill="#c0becc" d="
  M 0.00 936.50
  L 250.73 1200.00
  L 179.83 1200.00
  Q 171.48 1192.50 165.19 1185.57
  Q 156.60 1176.10 148.84 1168.16
  C 143.41 1162.60 137.70 1156.04 131.85 1150.17
  Q 123.53 1141.82 115.36 1132.97
  C 113.68 1131.14 111.81 1129.65 110.14 1127.83
  Q 91.64 1107.62 73.07 1088.54
  Q 66.16 1081.44 59.24 1074.08
  Q 40.45 1054.10 22.01 1035.06
  Q 16.80 1029.69 10.99 1023.41
  Q 5.50 1017.46 0.00 1011.74
  L 0.00 936.50
  Z"
/>
<path fill="#aaa8b6" d="
  M 675.00 1008.12
  L 675.00 1106.04
  L 674.57 1104.00
  A 0.64 0.64 0.0 0 0 673.48 1103.69
  Q 628.50 1150.99 583.61 1198.36
  Q 582.49 1199.54 583.75 1200.00
  L 495.44 1200.00
  C 503.28 1191.50 512.34 1182.74 519.54 1175.03
  Q 540.28 1152.86 561.38 1131.02
  Q 567.92 1124.25 575.11 1116.48
  Q 592.37 1097.83 610.13 1079.64
  Q 611.18 1078.56 612.21 1077.46
  Q 617.07 1072.31 621.82 1067.56
  Q 626.75 1062.63 631.37 1057.62
  Q 655.48 1031.52 671.91 1014.91
  Q 674.96 1011.83 675.00 1008.12
  Z"
/>
<path fill="#aaa8b6" d="
  M 0.00 1011.74
  Q 5.50 1017.46 10.99 1023.41
  Q 16.80 1029.69 22.01 1035.06
  Q 40.45 1054.10 59.24 1074.08
  Q 66.16 1081.44 73.07 1088.54
  Q 91.64 1107.62 110.14 1127.83
  C 111.81 1129.65 113.68 1131.14 115.36 1132.97
  Q 123.53 1141.82 131.85 1150.17
  C 137.70 1156.04 143.41 1162.60 148.84 1168.16
  Q 156.60 1176.10 165.19 1185.57
  Q 171.48 1192.50 179.83 1200.00
  L 91.25 1200.00
  Q 91.75 1199.79 91.75 1199.78
  A 0.83 0.82 -46.9 0 0 91.72 1198.68
  Q 46.39 1151.07 1.06 1103.66
  Q 0.76 1103.34 0.45 1103.64
  Q 0.12 1103.95 0.00 1105.00
  L 0.00 1011.74
  Z"
/>
<path fill="#939099" d="
  M 91.25 1200.00
  L 0.00 1200.00
  L 0.00 1105.00
  Q 0.12 1103.95 0.45 1103.64
  Q 0.76 1103.34 1.06 1103.66
  Q 46.39 1151.07 91.72 1198.68
  A 0.83 0.82 -46.9 0 1 91.75 1199.78
  Q 91.75 1199.79 91.25 1200.00
  Z"
/>
<path fill="#939099" d="
  M 675.00 1106.04
  L 675.00 1200.00
  L 583.75 1200.00
  Q 582.49 1199.54 583.61 1198.36
  Q 628.50 1150.99 673.48 1103.69
  A 0.64 0.64 0.0 0 1 674.57 1104.00
  L 675.00 1106.04
  Z"
/>
</svg>
